<svg width="178" height="32" viewBox="0 0 178 32" fill="none" xmlns="http://www.w3.org/2000/svg">
<path d="M0 31.4088V0.59082H6.03151V25.9056H19.5914V31.4088H0Z" fill="black"/>
<path d="M36.9095 31.7165C34.356 31.7165 32.1401 31.2176 30.2617 30.2197C28.3832 29.2218 26.9304 27.8276 25.9031 26.0372C24.9052 24.2175 24.4062 22.0749 24.4062 19.6095V0.282227H30.4378V19.6095C30.4378 20.9303 30.7019 22.0896 31.2302 23.0875C31.7879 24.0561 32.551 24.8045 33.5196 25.3328C34.5175 25.8611 35.6768 26.1253 36.9976 26.1253C38.3184 26.1253 39.463 25.8611 40.4316 25.3328C41.4295 24.8045 42.1926 24.0561 42.7209 23.0875C43.2786 22.0896 43.5574 20.9303 43.5574 19.6095V0.282227H49.5889V19.6095C49.5889 22.0749 49.0606 24.2175 48.004 26.0372C46.9767 27.8276 45.5092 29.2218 43.6014 30.2197C41.723 31.2176 39.4924 31.7165 36.9095 31.7165Z" fill="black"/>
<path d="M54.4043 31.4088V25.7735L71.09 6.2261H54.5364V0.59082H78.8826V6.2261L62.1968 25.7735H78.7505V31.4088H54.4043Z" fill="black"/>
<path fill-rule="evenodd" clip-rule="evenodd" d="M94.402 1.15394C97.0669 -0.384646 100.35 -0.384645 103.015 1.15394L109.412 4.84739C112.077 6.38597 113.719 9.22939 113.719 12.3066V19.6934C113.719 22.7706 112.077 25.614 109.412 27.1526L103.015 30.8461C100.35 32.3846 97.0669 32.3846 94.402 30.8461L88.0048 27.1526C85.3399 25.614 83.6982 22.7706 83.6982 19.6934V12.3066C83.6982 9.22939 85.3399 6.38597 88.0048 4.84739L94.402 1.15394ZM99.9196 6.51559C99.1702 6.08294 98.247 6.08294 97.4976 6.51559L91.1003 10.209C90.351 10.6417 89.8893 11.4413 89.8893 12.3066V19.6934C89.8893 20.5587 90.351 21.3583 91.1003 21.791L97.4976 25.4844C98.247 25.9171 99.1702 25.9171 99.9196 25.4844L106.317 21.791C107.066 21.3583 107.528 20.5587 107.528 19.6934V12.3066C107.528 11.4413 107.066 10.6417 106.317 10.209L99.9196 6.51559Z" fill="black"/>
<path fill-rule="evenodd" clip-rule="evenodd" d="M99.9199 6.51589C99.1705 6.08324 98.2473 6.08324 97.4979 6.51589L91.1006 10.2093C90.3513 10.642 89.8896 11.4416 89.8896 12.3069V19.6937C89.8896 20.559 90.3513 21.3586 91.1006 21.7913L97.4979 25.4847C98.2473 25.9174 99.1705 25.9174 99.9199 25.4847L106.317 21.7913C107.066 21.3586 107.528 20.559 107.528 19.6937V12.3069C107.528 11.4416 107.066 10.642 106.317 10.2093L99.9199 6.51589Z" fill="#FFD52B"/>
<path d="M118.534 31.4088V0.59082H129.981C132.153 0.59082 134.075 1.0164 135.748 1.86757C137.421 2.71873 138.727 3.89274 139.666 5.38962C140.606 6.85714 141.075 8.57414 141.075 10.5406C141.075 12.4777 140.576 14.2094 139.578 15.7356C138.61 17.2325 137.274 18.4065 135.572 19.2577C133.87 20.0795 131.933 20.4904 129.761 20.4904H124.566V31.4088H118.534ZM135.484 31.4088L128.352 19.0376L132.975 15.7356L142.308 31.4088H135.484ZM124.566 14.9872H130.025C130.935 14.9872 131.742 14.7964 132.446 14.4149C133.18 14.0333 133.752 13.505 134.163 12.8299C134.604 12.1549 134.824 11.3918 134.824 10.5406C134.824 9.21985 134.339 8.14856 133.371 7.32674C132.432 6.50493 131.214 6.09403 129.717 6.09403H124.566V14.9872Z" fill="black"/>
<path d="M171.469 31.4088L159.67 0.59082H165.702L177.853 31.4088H171.469ZM147.123 31.4088L159.274 0.59082H165.306L153.507 31.4088H147.123ZM152.846 24.6288V19.3017H172.174V24.6288H152.846Z" fill="black"/>
</svg>
