<svg width="134" height="24" viewBox="0 0 134 24" fill="none" xmlns="http://www.w3.org/2000/svg">
<path d="M0 23.5503V0.443359H4.52237V19.4241H14.6894V23.5503H0Z" fill="white"/>
<path d="M27.6746 23.781C25.7601 23.781 24.0986 23.4069 22.6901 22.6587C21.2817 21.9105 20.1924 20.8652 19.4221 19.5227C18.6739 18.1583 18.2998 16.5518 18.2998 14.7033V0.211914H22.8222V14.7033C22.8222 15.6936 23.0202 16.5629 23.4164 17.3111C23.8345 18.0373 24.4066 18.5985 25.1329 18.9946C25.8811 19.3907 26.7504 19.5888 27.7407 19.5888C28.731 19.5888 29.5892 19.3907 30.3154 18.9946C31.0637 18.5985 31.6358 18.0373 32.032 17.3111C32.4501 16.5629 32.6591 15.6936 32.6591 14.7033V0.211914H37.1815V14.7033C37.1815 16.5518 36.7854 18.1583 35.9931 19.5227C35.2229 20.8652 34.1226 21.9105 32.6922 22.6587C31.2837 23.4069 29.6112 23.781 27.6746 23.781Z" fill="white"/>
<path d="M40.792 23.5503V19.3251L53.3028 4.66864H40.891V0.443359H59.1455V4.66864L46.6348 19.3251H59.0465V23.5503H40.792Z" fill="white"/>
<path fill-rule="evenodd" clip-rule="evenodd" d="M70.7815 0.86521C72.7796 -0.288403 75.2413 -0.288403 77.2395 0.86521L82.036 3.63452C84.0342 4.78813 85.2651 6.9201 85.2651 9.22732V14.7659C85.2651 17.0732 84.0342 19.2051 82.036 20.3587L77.2395 23.1281C75.2413 24.2817 72.7796 24.2817 70.7814 23.1281L65.9849 20.3587C63.9868 19.2051 62.7559 17.0732 62.7559 14.7659V9.22732C62.7559 6.9201 63.9868 4.78813 65.9849 3.63452L70.7815 0.86521ZM74.9184 4.88532C74.3566 4.56093 73.6643 4.56093 73.1025 4.88532L68.3059 7.65463C67.744 7.97903 67.3979 8.57853 67.3979 9.22732V14.7659C67.3979 15.4147 67.744 16.0142 68.3059 16.3386L73.1025 19.1079C73.6643 19.4323 74.3566 19.4323 74.9184 19.1079L79.715 16.3386C80.2769 16.0142 80.623 15.4147 80.623 14.7659V9.22732C80.623 8.57853 80.2769 7.97903 79.715 7.65463L74.9184 4.88532Z" fill="white"/>
<path fill-rule="evenodd" clip-rule="evenodd" d="M74.918 4.8849C74.3562 4.5605 73.6639 4.5605 73.102 4.8849L68.3055 7.65421C67.7436 7.9786 67.3975 8.57811 67.3975 9.2269V14.7655C67.3975 15.4143 67.7436 16.0138 68.3055 16.3382L73.102 19.1075C73.6639 19.4319 74.3562 19.4319 74.918 19.1075L79.7146 16.3382C80.2765 16.0138 80.6226 15.4143 80.6226 14.7655V9.2269C80.6226 8.57811 80.2765 7.9786 79.7146 7.65421L74.918 4.8849Z" fill="#FFD52B"/>
<path d="M88.876 23.5503V0.443359H97.4586C99.0871 0.443359 100.529 0.762456 101.783 1.40065C103.037 2.03884 104.017 2.91911 104.721 4.04145C105.425 5.14178 105.777 6.42917 105.777 7.90361C105.777 9.35605 105.403 10.6544 104.655 11.7988C103.929 12.9211 102.927 13.8014 101.651 14.4396C100.374 15.0558 98.922 15.3639 97.2935 15.3639H93.3983V23.5503H88.876ZM101.585 23.5503L96.2372 14.2745L99.7032 11.7988L106.701 23.5503H101.585ZM93.3983 11.2376H97.4916C98.1738 11.2376 98.779 11.0946 99.3071 10.8085C99.8573 10.5224 100.286 10.1263 100.595 9.62013C100.925 9.11398 101.09 8.5418 101.09 7.90361C101.09 6.91331 100.727 6.11007 100 5.49388C99.2961 4.8777 98.3828 4.5696 97.2605 4.5696H93.3983V11.2376Z" fill="white"/>
<path d="M128.566 23.5503L119.719 0.443359H124.242L133.352 23.5503H128.566ZM110.312 23.5503L119.422 0.443359H123.945L115.098 23.5503H110.312ZM114.603 18.4668V14.4726H129.094V18.4668H114.603Z" fill="white"/>
</svg>
