<svg width="356" height="64" viewBox="0 0 356 64" fill="none" xmlns="http://www.w3.org/2000/svg">
<path d="M0 62.8175V1.18164H12.063V51.8111H39.1828V62.8175H0Z" fill="white"/>
<path d="M73.82 63.4341C68.7131 63.4341 64.2812 62.4361 60.5243 60.4403C56.7674 58.4445 53.8618 55.6562 51.8072 52.0754C49.8114 48.436 48.8135 44.1508 48.8135 39.2199V0.56543H60.8765V39.2199C60.8765 41.8615 61.4048 44.1802 62.4614 46.176C63.5767 48.1131 65.103 49.61 67.0401 50.6666C69.0359 51.7232 71.3546 52.2515 73.9961 52.2515C76.6377 52.2515 78.927 51.7232 80.8642 50.6666C82.86 49.61 84.3862 48.1131 85.4428 46.176C86.5581 44.1802 87.1158 41.8615 87.1158 39.2199V0.56543H99.1788V39.2199C99.1788 44.1508 98.1222 48.436 96.009 52.0754C93.9544 55.6562 91.0194 58.4445 87.2038 60.4403C83.447 62.4361 78.9857 63.4341 73.82 63.4341Z" fill="white"/>
<path d="M108.81 62.8175V51.547L142.181 12.4522H109.074V1.18164H157.766V12.4522L124.395 51.547H157.502V62.8175H108.81Z" fill="white"/>
<path fill-rule="evenodd" clip-rule="evenodd" d="M188.804 2.30787C194.134 -0.769292 200.7 -0.769291 206.03 2.30787L218.825 9.69477C224.155 12.7719 227.438 18.4588 227.438 24.6131V39.3869C227.438 45.5412 224.155 51.2281 218.825 54.3052L206.03 61.6921C200.7 64.7693 194.134 64.7693 188.804 61.6921L176.01 54.3052C170.68 51.2281 167.396 45.5412 167.396 39.3869V24.6131C167.396 18.4588 170.68 12.7719 176.01 9.69477L188.804 2.30787ZM199.839 13.0312C198.34 12.1659 196.494 12.1659 194.995 13.0312L182.201 20.4181C180.702 21.2834 179.779 22.8825 179.779 24.6131V39.3869C179.779 41.1175 180.702 42.7166 182.201 43.5819L194.995 50.9688C196.494 51.8341 198.34 51.8341 199.839 50.9688L212.634 43.5819C214.132 42.7166 215.056 41.1175 215.056 39.3869V24.6131C215.056 22.8825 214.132 21.2834 212.634 20.4181L199.839 13.0312Z" fill="white"/>
<path fill-rule="evenodd" clip-rule="evenodd" d="M199.839 13.0308C198.34 12.1655 196.494 12.1655 194.995 13.0308L182.2 20.4177C180.702 21.283 179.778 22.8821 179.778 24.6127V39.3865C179.778 41.1171 180.702 42.7162 182.2 43.5815L194.995 50.9684C196.494 51.8337 198.34 51.8337 199.839 50.9684L212.633 43.5815C214.132 42.7162 215.055 41.1171 215.055 39.3865V24.6127C215.055 22.8821 214.132 21.283 212.633 20.4177L199.839 13.0308Z" fill="#FFD52B"/>
<path d="M237.068 62.8175V1.18164H259.962C264.306 1.18164 268.15 2.0328 271.496 3.73513C274.842 5.43746 277.455 7.78549 279.333 10.7792C281.211 13.7143 282.151 17.1483 282.151 21.0812C282.151 24.9555 281.153 28.4188 279.157 31.4713C277.22 34.465 274.549 36.8131 271.144 38.5154C267.74 40.159 263.865 40.9808 259.521 40.9808H249.131V62.8175H237.068ZM270.968 62.8175L256.704 38.0751L265.949 31.4713L284.616 62.8175H270.968ZM249.131 29.9744H260.05C261.869 29.9744 263.484 29.5929 264.893 28.8297C266.36 28.0666 267.505 27.01 268.327 25.6599C269.207 24.3098 269.647 22.7836 269.647 21.0812C269.647 18.4397 268.679 16.2971 266.742 14.6535C264.863 13.0099 262.427 12.1881 259.433 12.1881H249.131V29.9744Z" fill="white"/>
<path d="M342.939 62.8175L319.342 1.18164H331.405L355.707 62.8175H342.939ZM294.247 62.8175L318.549 1.18164H330.612L307.015 62.8175H294.247ZM305.694 49.2576V38.6034H344.348V49.2576H305.694Z" fill="white"/>
</svg>
