<svg width="18" height="18" viewBox="0 0 18 18" fill="none" xmlns="http://www.w3.org/2000/svg">
<path fill-rule="evenodd" clip-rule="evenodd" d="M3.04632 5.752C4.11597 3.18352 6.62221 1.50753 9.4045 1.5001C12.4032 1.48431 15.0695 3.40504 16.0042 6.25432C16.939 9.1036 15.9286 12.2305 13.5033 13.9941C11.078 15.7577 7.79194 15.7551 5.3695 13.9876L3.20951 16.1476C2.98989 16.3669 2.63412 16.3669 2.41451 16.1476C2.19516 15.928 2.19516 15.5722 2.41451 15.3526L4.507 13.2601C2.55243 11.28 1.97667 8.32047 3.04632 5.752ZM4.04918 10.6268C4.94729 12.7911 7.06131 14.2006 9.4045 14.1976V14.1676C12.5847 14.1635 15.1664 11.5952 15.187 8.4151C15.19 6.0719 13.7805 3.95788 11.6162 3.05977C9.45195 2.16167 6.95975 2.65656 5.30286 4.31345C3.64597 5.97035 3.15108 8.46255 4.04918 10.6268Z" fill="#1D1C17"/>
</svg>
