<svg width="18" height="18" viewBox="0 0 18 18" fill="none" xmlns="http://www.w3.org/2000/svg">
<path fill-rule="evenodd" clip-rule="evenodd" d="M5.66876 6.00003C4.88895 6.00657 4.10898 6.00514 3.32912 6.0008C3.10877 5.9995 2.9996 6.07556 3 6.32635C3.00488 9.12285 3.00299 11.9193 3.00356 14.7158C3.00362 14.8223 2.98731 14.9392 3.11842 14.9877C3.12341 15.0048 5.87263 15.0037 5.88003 14.9868C6.02475 14.9304 5.99558 14.7992 5.99563 14.6858C5.9969 11.9091 5.99466 9.13224 6 6.35547C6.0004 6.1035 5.91414 5.99795 5.66876 6.00003Z" fill="#0E0E0C"/>
<path fill-rule="evenodd" clip-rule="evenodd" d="M4.49997 2.25C3.6716 2.25 3 2.9216 3 3.74997C3 4.57845 3.6716 5.25 4.49997 5.25C5.3284 5.25 6 4.57845 6 3.74997C6 2.9216 5.3284 2.25 4.49997 2.25Z" fill="#0E0E0C"/>
<path fill-rule="evenodd" clip-rule="evenodd" d="M15.7111 14.5689C15.7129 13.1355 15.7202 11.7021 15.7085 10.2688C15.7034 9.64095 15.6809 9.01148 15.5489 8.39357C15.3326 7.38049 14.8459 6.58954 13.879 6.22072C13.234 5.97468 12.5596 5.95884 11.886 6.05422C11.3201 6.13434 10.7989 6.34987 10.324 6.75049C10.324 6.60473 10.3235 6.50807 10.3241 6.41153C10.3256 6.19471 10.2247 6.0967 10.0168 6.0977C9.2781 6.10114 8.53939 6.10027 7.80062 6.09828C7.59727 6.0977 7.49972 6.18168 7.5 6.41024C7.5039 9.16079 7.50245 11.9113 7.50256 14.6619C7.50256 14.7674 7.48868 14.8796 7.61076 14.9315C7.62364 14.9486 10.2906 14.9549 10.2905 14.9376C10.4654 14.859 10.4116 14.6932 10.4119 14.5582C10.4144 13.2016 10.4062 11.8449 10.4135 10.4883C10.4158 10.0641 10.4314 9.63551 10.6147 9.24051C10.8318 8.77245 11.2811 8.56966 11.914 8.65264C12.3494 8.70968 12.6274 9.00452 12.7139 9.51816C12.7459 9.70792 12.7699 9.90195 12.771 10.0942C12.7795 11.5864 12.7807 13.0787 12.7869 14.5709C12.7875 14.7087 12.7461 14.8714 12.9236 14.9407C12.9175 14.9602 15.6029 14.9484 15.6036 14.9294C15.7481 14.8452 15.7109 14.6982 15.7111 14.5689Z" fill="#0E0E0C"/>
</svg>
