<svg width="288" height="173" viewBox="0 0 288 173" fill="none" xmlns="http://www.w3.org/2000/svg">
<path d="M24 0.5H263.747C276.726 0.500181 287.247 11.0214 287.247 24V184.211H0.5V24C0.5 11.0213 11.0213 0.5 24 0.5Z" fill="white"/>
<path d="M24 0.5H263.747C276.726 0.500181 287.247 11.0214 287.247 24V184.211H0.5V24C0.5 11.0213 11.0213 0.5 24 0.5Z" stroke="#E8E7E2"/>
<rect x="25" y="97" width="169" height="17" rx="5.43415" fill="#E7E7E7"/>
<path d="M66.9395 42.3877H64.4549L68.2406 31.4216H71.2285L75.0088 42.3877H72.5243L69.7774 33.9275H69.6917L66.9395 42.3877ZM66.7842 38.0773H72.6528V39.8871H66.7842V38.0773ZM78.9337 42.5216C78.309 42.5216 77.7432 42.3609 77.2363 42.0396C76.7329 41.7148 76.3331 41.2383 76.0369 40.61C75.7441 39.9781 75.5978 39.2035 75.5978 38.2861C75.5978 37.3437 75.7495 36.5602 76.0529 35.9355C76.3563 35.3072 76.7597 34.8378 77.263 34.5272C77.7699 34.2131 78.325 34.056 78.9283 34.056C79.3888 34.056 79.7725 34.1345 80.0795 34.2916C80.3901 34.4451 80.64 34.6379 80.8292 34.8699C81.0219 35.0984 81.1683 35.3233 81.2683 35.5446H81.3379V31.4216H83.6135V42.3877H81.3646V41.0705H81.2683C81.1612 41.2989 81.0094 41.5256 80.8131 41.7505C80.6204 41.9718 80.3687 42.1557 80.0581 42.302C79.7511 42.4484 79.3763 42.5216 78.9337 42.5216ZM79.6565 40.7064C80.0242 40.7064 80.3348 40.6064 80.5882 40.4065C80.8452 40.203 81.0416 39.9192 81.1772 39.5551C81.3164 39.191 81.3861 38.7644 81.3861 38.2754C81.3861 37.7863 81.3182 37.3616 81.1826 37.001C81.0469 36.6405 80.8506 36.362 80.5936 36.1657C80.3366 35.9694 80.0242 35.8712 79.6565 35.8712C79.2817 35.8712 78.9658 35.9729 78.7088 36.1764C78.4518 36.3799 78.2572 36.6619 78.1251 37.0224C77.993 37.383 77.927 37.8006 77.927 38.2754C77.927 38.7537 77.993 39.1767 78.1251 39.5444C78.2608 39.9085 78.4553 40.1941 78.7088 40.4012C78.9658 40.6046 79.2817 40.7064 79.6565 40.7064ZM88.5197 42.5216C87.895 42.5216 87.3292 42.3609 86.8223 42.0396C86.3189 41.7148 85.9191 41.2383 85.6228 40.61C85.3301 39.9781 85.1838 39.2035 85.1838 38.2861C85.1838 37.3437 85.3355 36.5602 85.6389 35.9355C85.9423 35.3072 86.3457 34.8378 86.849 34.5272C87.3559 34.2131 87.911 34.056 88.5143 34.056C88.9748 34.056 89.3585 34.1345 89.6655 34.2916C89.9761 34.4451 90.226 34.6379 90.4152 34.8699C90.6079 35.0984 90.7543 35.3233 90.8542 35.5446H90.9239V31.4216H93.1995V42.3877H90.9506V41.0705H90.8542C90.7472 41.2989 90.5954 41.5256 90.3991 41.7505C90.2063 41.9718 89.9547 42.1557 89.6441 42.302C89.3371 42.4484 88.9623 42.5216 88.5197 42.5216ZM89.2425 40.7064C89.6102 40.7064 89.9208 40.6064 90.1742 40.4065C90.4312 40.203 90.6276 39.9192 90.7632 39.5551C90.9024 39.191 90.972 38.7644 90.972 38.2754C90.972 37.7863 90.9042 37.3616 90.7686 37.001C90.6329 36.6405 90.4366 36.362 90.1796 36.1657C89.9226 35.9694 89.6102 35.8712 89.2425 35.8712C88.8677 35.8712 88.5518 35.9729 88.2948 36.1764C88.0378 36.3799 87.8432 36.6619 87.7111 37.0224C87.579 37.383 87.513 37.8006 87.513 38.2754C87.513 38.7537 87.579 39.1767 87.7111 39.5444C87.8468 39.9085 88.0413 40.1941 88.2948 40.4012C88.5518 40.6046 88.8677 40.7064 89.2425 40.7064ZM98.4845 34.8485V33.6919C98.4845 33.3635 98.5487 33.0279 98.6773 32.6852C98.8058 32.3425 98.9753 32.0195 99.1859 31.7161C99.3965 31.4126 99.625 31.1592 99.8713 30.9557L100.878 31.5501C100.678 31.8642 100.514 32.1926 100.385 32.5353C100.26 32.878 100.198 33.26 100.198 33.6812V34.8485H98.4845ZM101.189 34.8485V33.6919C101.189 33.3635 101.253 33.0279 101.381 32.6852C101.51 32.3425 101.679 32.0195 101.89 31.7161C102.101 31.4126 102.329 31.1592 102.575 30.9557L103.582 31.5501C103.382 31.8642 103.218 32.1926 103.089 32.5353C102.964 32.878 102.902 33.26 102.902 33.6812V34.8485H101.189ZM104.969 42.3877V31.4216H107.287V40.4761H111.989V42.3877H104.969ZM118.756 38.8858V34.1631H121.037V42.3877H118.847V40.8938H118.761C118.575 41.3757 118.266 41.763 117.835 42.0557C117.406 42.3484 116.883 42.4948 116.266 42.4948C115.716 42.4948 115.232 42.3698 114.815 42.12C114.397 41.8701 114.07 41.5149 113.835 41.0544C113.603 40.5939 113.485 40.0424 113.481 39.3999V34.1631H115.762V38.9929C115.766 39.4784 115.896 39.8621 116.153 40.1441C116.41 40.4261 116.755 40.5671 117.187 40.5671C117.461 40.5671 117.719 40.5047 117.958 40.3797C118.197 40.2512 118.39 40.062 118.536 39.8122C118.686 39.5623 118.759 39.2535 118.756 38.8858ZM122.818 42.3877V41.0276L126.845 36.0425V35.9836H122.957V34.1631H129.592V35.6463L125.811 40.5082V40.5671H129.731V42.3877H122.818ZM134.956 42.5483C134.124 42.5483 133.405 42.3716 132.798 42.0182C132.195 41.6613 131.729 41.1651 131.4 40.5297C131.072 39.8907 130.908 39.15 130.908 38.3075C130.908 37.4579 131.072 36.7154 131.4 36.08C131.729 35.4411 132.195 34.9449 132.798 34.5915C133.405 34.2345 134.124 34.056 134.956 34.056C135.787 34.056 136.505 34.2345 137.108 34.5915C137.715 34.9449 138.183 35.4411 138.511 36.08C138.84 36.7154 139.004 37.4579 139.004 38.3075C139.004 39.15 138.84 39.8907 138.511 40.5297C138.183 41.1651 137.715 41.6613 137.108 42.0182C136.505 42.3716 135.787 42.5483 134.956 42.5483ZM134.966 40.7813C135.345 40.7813 135.661 40.6742 135.914 40.4601C136.168 40.2423 136.359 39.946 136.487 39.5712C136.619 39.1964 136.685 38.7698 136.685 38.2915C136.685 37.8131 136.619 37.3865 136.487 37.0117C136.359 36.6369 136.168 36.3406 135.914 36.1229C135.661 35.9051 135.345 35.7962 134.966 35.7962C134.584 35.7962 134.263 35.9051 134.003 36.1229C133.746 36.3406 133.551 36.6369 133.419 37.0117C133.29 37.3865 133.226 37.8131 133.226 38.2915C133.226 38.7698 133.29 39.1964 133.419 39.5712C133.551 39.946 133.746 40.2423 134.003 40.4601C134.263 40.6742 134.584 40.7813 134.966 40.7813ZM140.487 42.3877V34.1631H142.698V35.5981H142.784C142.934 35.0877 143.186 34.7021 143.539 34.4415C143.892 34.1774 144.299 34.0453 144.76 34.0453C144.874 34.0453 144.997 34.0524 145.129 34.0667C145.261 34.081 145.377 34.1006 145.477 34.1256V36.1496C145.37 36.1175 145.222 36.089 145.033 36.064C144.844 36.039 144.671 36.0265 144.514 36.0265C144.178 36.0265 143.878 36.0997 143.614 36.246C143.353 36.3888 143.146 36.5887 142.993 36.8457C142.843 37.1027 142.768 37.399 142.768 37.7346V42.3877H140.487ZM148.766 42.543C148.242 42.543 147.774 42.4519 147.364 42.2699C146.953 42.0843 146.628 41.8112 146.389 41.4506C146.153 41.0865 146.036 40.6332 146.036 40.0906C146.036 39.6337 146.12 39.2499 146.287 38.9394C146.455 38.6288 146.684 38.3789 146.973 38.1897C147.262 38.0005 147.59 37.8577 147.958 37.7614C148.329 37.665 148.718 37.5972 149.125 37.5579C149.604 37.5079 149.989 37.4615 150.282 37.4187C150.575 37.3723 150.787 37.3044 150.919 37.2152C151.051 37.126 151.117 36.9939 151.117 36.819V36.7868C151.117 36.4477 151.01 36.1853 150.796 35.9997C150.585 35.8141 150.285 35.7213 149.896 35.7213C149.486 35.7213 149.159 35.8123 148.916 35.9944C148.674 36.1728 148.513 36.3977 148.434 36.669L146.325 36.4977C146.432 35.9979 146.642 35.566 146.957 35.2019C147.271 34.8342 147.676 34.5522 148.172 34.3559C148.672 34.156 149.25 34.056 149.907 34.056C150.364 34.056 150.801 34.1096 151.219 34.2166C151.64 34.3237 152.013 34.4897 152.338 34.7146C152.666 34.9395 152.925 35.2287 153.114 35.5821C153.304 35.9319 153.398 36.3513 153.398 36.8404V42.3877H151.235V41.2472H151.171C151.039 41.5042 150.862 41.7309 150.641 41.9272C150.419 42.12 150.153 42.2717 149.843 42.3823C149.532 42.4894 149.173 42.543 148.766 42.543ZM149.42 40.9687C149.755 40.9687 150.052 40.9027 150.309 40.7706C150.566 40.635 150.767 40.4529 150.914 40.2245C151.06 39.996 151.133 39.7372 151.133 39.448V38.5753C151.062 38.6217 150.964 38.6645 150.839 38.7038C150.717 38.7395 150.58 38.7734 150.426 38.8055C150.273 38.8341 150.119 38.8608 149.966 38.8858C149.812 38.9072 149.673 38.9269 149.548 38.9447C149.28 38.984 149.047 39.0465 148.847 39.1321C148.647 39.2178 148.492 39.3338 148.381 39.4802C148.27 39.623 148.215 39.8014 148.215 40.0156C148.215 40.3262 148.327 40.5636 148.552 40.7278C148.781 40.8884 149.07 40.9687 149.42 40.9687ZM157.079 31.4216V32.5781C157.079 32.9066 157.015 33.2421 156.887 33.5848C156.762 33.9239 156.594 34.2452 156.383 34.5486C156.173 34.8485 155.942 35.1037 155.693 35.3143L154.686 34.72C154.864 34.438 155.021 34.1256 155.157 33.7829C155.296 33.4402 155.366 33.0422 155.366 32.5889V31.4216H157.079ZM159.773 31.4216V32.5781C159.773 32.9066 159.708 33.2421 159.58 33.5848C159.455 33.9239 159.287 34.2452 159.077 34.5486C158.866 34.8485 158.634 35.1037 158.381 35.3143L157.374 34.72C157.556 34.438 157.715 34.1256 157.85 33.7829C157.99 33.4402 158.059 33.0422 158.059 32.5889V31.4216H159.773ZM169.379 34.1631V35.8766H164.426V34.1631H169.379ZM165.55 32.1926H167.831V39.8603C167.831 40.071 167.863 40.2352 167.928 40.353C167.992 40.4672 168.081 40.5475 168.195 40.5939C168.313 40.6403 168.449 40.6635 168.602 40.6635C168.709 40.6635 168.817 40.6546 168.924 40.6368C169.031 40.6153 169.113 40.5993 169.17 40.5886L169.529 42.286C169.415 42.3217 169.254 42.3627 169.047 42.4091C168.84 42.4591 168.588 42.4894 168.292 42.5001C167.742 42.5216 167.26 42.4484 166.846 42.2806C166.436 42.1128 166.116 41.8522 165.888 41.4988C165.659 41.1454 165.547 40.6992 165.55 40.1602V32.1926ZM174.492 42.5483C173.661 42.5483 172.941 42.3716 172.335 42.0182C171.731 41.6613 171.265 41.1651 170.937 40.5297C170.609 39.8907 170.444 39.15 170.444 38.3075C170.444 37.4579 170.609 36.7154 170.937 36.08C171.265 35.4411 171.731 34.9449 172.335 34.5915C172.941 34.2345 173.661 34.056 174.492 34.056C175.324 34.056 176.042 34.2345 176.645 34.5915C177.252 34.9449 177.719 35.4411 178.048 36.08C178.376 36.7154 178.54 37.4579 178.54 38.3075C178.54 39.15 178.376 39.8907 178.048 40.5297C177.719 41.1651 177.252 41.6613 176.645 42.0182C176.042 42.3716 175.324 42.5483 174.492 42.5483ZM174.503 40.7813C174.882 40.7813 175.197 40.6742 175.451 40.4601C175.704 40.2423 175.895 39.946 176.024 39.5712C176.156 39.1964 176.222 38.7698 176.222 38.2915C176.222 37.8131 176.156 37.3865 176.024 37.0117C175.895 36.6369 175.704 36.3406 175.451 36.1229C175.197 35.9051 174.882 35.7962 174.503 35.7962C174.121 35.7962 173.8 35.9051 173.539 36.1229C173.282 36.3406 173.088 36.6369 172.956 37.0117C172.827 37.3865 172.763 37.8131 172.763 38.2915C172.763 38.7698 172.827 39.1964 172.956 39.5712C173.088 39.946 173.282 40.2423 173.539 40.4601C173.8 40.6742 174.121 40.7813 174.503 40.7813ZM183.556 42.3877V31.4216H185.837V35.5446H185.907C186.007 35.3233 186.152 35.0984 186.341 34.8699C186.533 34.6379 186.783 34.4451 187.09 34.2916C187.401 34.1345 187.786 34.056 188.247 34.056C188.847 34.056 189.4 34.2131 189.907 34.5272C190.414 34.8378 190.819 35.3072 191.122 35.9355C191.426 36.5602 191.577 37.3437 191.577 38.2861C191.577 39.2035 191.429 39.9781 191.133 40.61C190.84 41.2383 190.441 41.7148 189.934 42.0396C189.43 42.3609 188.866 42.5216 188.242 42.5216C187.799 42.5216 187.422 42.4484 187.112 42.302C186.805 42.1557 186.553 41.9718 186.357 41.7505C186.16 41.5256 186.011 41.2989 185.907 41.0705H185.805V42.3877H183.556ZM185.789 38.2754C185.789 38.7644 185.857 39.191 185.993 39.5551C186.128 39.9192 186.325 40.203 186.582 40.4065C186.839 40.6064 187.151 40.7064 187.519 40.7064C187.89 40.7064 188.204 40.6046 188.461 40.4012C188.718 40.1941 188.913 39.9085 189.045 39.5444C189.18 39.1767 189.248 38.7537 189.248 38.2754C189.248 37.8006 189.182 37.383 189.05 37.0224C188.918 36.6619 188.723 36.3799 188.466 36.1764C188.209 35.9729 187.894 35.8712 187.519 35.8712C187.147 35.8712 186.833 35.9694 186.576 36.1657C186.323 36.362 186.128 36.6405 185.993 37.001C185.857 37.3616 185.789 37.7863 185.789 38.2754ZM193.099 42.3877V34.1631H195.311V35.5981H195.397C195.547 35.0877 195.798 34.7021 196.152 34.4415C196.505 34.1774 196.912 34.0453 197.372 34.0453C197.487 34.0453 197.61 34.0524 197.742 34.0667C197.874 34.081 197.99 34.1006 198.09 34.1256V36.1496C197.983 36.1175 197.835 36.089 197.646 36.064C197.456 36.039 197.283 36.0265 197.126 36.0265C196.791 36.0265 196.491 36.0997 196.227 36.246C195.966 36.3888 195.759 36.5887 195.605 36.8457C195.456 37.1027 195.381 37.399 195.381 37.7346V42.3877H193.099ZM202.603 42.5483C201.771 42.5483 201.051 42.3716 200.445 42.0182C199.841 41.6613 199.375 41.1651 199.047 40.5297C198.719 39.8907 198.554 39.15 198.554 38.3075C198.554 37.4579 198.719 36.7154 199.047 36.08C199.375 35.4411 199.841 34.9449 200.445 34.5915C201.051 34.2345 201.771 34.056 202.603 34.056C203.434 34.056 204.152 34.2345 204.755 34.5915C205.362 34.9449 205.83 35.4411 206.158 36.08C206.486 36.7154 206.651 37.4579 206.651 38.3075C206.651 39.15 206.486 39.8907 206.158 40.5297C205.83 41.1651 205.362 41.6613 204.755 42.0182C204.152 42.3716 203.434 42.5483 202.603 42.5483ZM202.613 40.7813C202.992 40.7813 203.308 40.6742 203.561 40.4601C203.814 40.2423 204.005 39.946 204.134 39.5712C204.266 39.1964 204.332 38.7698 204.332 38.2915C204.332 37.8131 204.266 37.3865 204.134 37.0117C204.005 36.6369 203.814 36.3406 203.561 36.1229C203.308 35.9051 202.992 35.7962 202.613 35.7962C202.231 35.7962 201.91 35.9051 201.649 36.1229C201.392 36.3406 201.198 36.6369 201.066 37.0117C200.937 37.3865 200.873 37.8131 200.873 38.2915C200.873 38.7698 200.937 39.1964 201.066 39.5712C201.198 39.946 201.392 40.2423 201.649 40.4601C201.91 40.6742 202.231 40.7813 202.613 40.7813ZM209.55 42.3877L207.312 34.1631H209.62L210.894 39.689H210.969L212.297 34.1631H214.562L215.911 39.6569H215.981L217.234 34.1631H219.536L217.303 42.3877H214.889L213.475 37.2152H213.373L211.96 42.3877H209.55ZM227.596 36.5084L225.508 36.6369C225.472 36.4584 225.396 36.2978 225.278 36.155C225.16 36.0086 225.005 35.8926 224.812 35.8069C224.623 35.7177 224.396 35.6731 224.132 35.6731C223.778 35.6731 223.48 35.748 223.238 35.898C222.995 36.0443 222.874 36.2407 222.874 36.487C222.874 36.6833 222.952 36.8493 223.109 36.9849C223.266 37.1206 223.536 37.2295 223.918 37.3116L225.406 37.6114C226.206 37.7756 226.802 38.0398 227.195 38.4039C227.587 38.768 227.784 39.2464 227.784 39.8389C227.784 40.378 227.625 40.8509 227.307 41.2579C226.993 41.6648 226.561 41.9825 226.011 42.211C225.465 42.4359 224.835 42.5483 224.121 42.5483C223.032 42.5483 222.165 42.3217 221.519 41.8683C220.876 41.4114 220.5 40.7903 220.389 40.0049L222.633 39.8871C222.7 40.2191 222.865 40.4725 223.125 40.6475C223.386 40.8188 223.72 40.9045 224.126 40.9045C224.526 40.9045 224.848 40.8277 225.09 40.6742C225.337 40.5172 225.462 40.3155 225.465 40.0692C225.462 39.8621 225.374 39.6926 225.203 39.5605C225.031 39.4248 224.767 39.3213 224.41 39.2499L222.986 38.9661C222.183 38.8055 221.585 38.5271 221.192 38.1308C220.803 37.7346 220.609 37.2295 220.609 36.6155C220.609 36.0872 220.751 35.632 221.037 35.2501C221.326 34.8681 221.731 34.5736 222.252 34.3666C222.777 34.1595 223.391 34.056 224.094 34.056C225.133 34.056 225.951 34.2755 226.547 34.7146C227.146 35.1537 227.496 35.7516 227.596 36.5084ZM232.968 42.5483C232.122 42.5483 231.394 42.377 230.784 42.0343C230.177 41.688 229.709 41.199 229.381 40.5671C229.052 39.9317 228.888 39.1803 228.888 38.3129C228.888 37.4669 229.052 36.7244 229.381 36.0854C229.709 35.4464 230.171 34.9484 230.767 34.5915C231.367 34.2345 232.07 34.056 232.877 34.056C233.42 34.056 233.925 34.1435 234.392 34.3184C234.864 34.4897 235.274 34.7485 235.624 35.0948C235.977 35.4411 236.252 35.8766 236.449 36.4013C236.645 36.9225 236.743 37.5329 236.743 38.2326V38.859H229.798V37.4454H234.596C234.596 37.117 234.525 36.8261 234.382 36.5726C234.239 36.3192 234.041 36.1211 233.787 35.9783C233.538 35.8319 233.247 35.7588 232.915 35.7588C232.568 35.7588 232.261 35.8391 231.994 35.9997C231.729 36.1568 231.522 36.3692 231.373 36.6369C231.223 36.9011 231.146 37.1956 231.142 37.5204V38.8644C231.142 39.2713 231.217 39.623 231.367 39.9192C231.521 40.2155 231.737 40.444 232.015 40.6046C232.294 40.7653 232.624 40.8456 233.006 40.8456C233.259 40.8456 233.491 40.8099 233.702 40.7385C233.912 40.6671 234.093 40.56 234.243 40.4172C234.392 40.2744 234.507 40.0995 234.585 39.8925L236.695 40.0317C236.588 40.5386 236.368 40.9812 236.036 41.3596C235.708 41.7344 235.283 42.0272 234.762 42.2378C234.244 42.4448 233.646 42.5483 232.968 42.5483ZM238.232 42.3877V34.1631H240.443V35.5981H240.529C240.679 35.0877 240.93 34.7021 241.284 34.4415C241.637 34.1774 242.044 34.0453 242.505 34.0453C242.619 34.0453 242.742 34.0524 242.874 34.0667C243.006 34.081 243.122 34.1006 243.222 34.1256V36.1496C243.115 36.1175 242.967 36.089 242.778 36.064C242.589 36.039 242.415 36.0265 242.258 36.0265C241.923 36.0265 241.623 36.0997 241.359 36.246C241.098 36.3888 240.891 36.5887 240.738 36.8457C240.588 37.1027 240.513 37.399 240.513 37.7346V42.3877H238.232ZM246.361 39.1V38.9179C246.365 38.2932 246.42 37.7953 246.527 37.424C246.638 37.0528 246.799 36.7529 247.009 36.5245C247.22 36.296 247.473 36.089 247.77 35.9033C247.991 35.7605 248.189 35.6124 248.364 35.4589C248.539 35.3054 248.678 35.1358 248.782 34.9502C248.885 34.761 248.937 34.5504 248.937 34.3184C248.937 34.0721 248.878 33.8561 248.76 33.6705C248.642 33.4849 248.483 33.3421 248.284 33.2421C248.087 33.1422 247.869 33.0922 247.63 33.0922C247.398 33.0922 247.179 33.1439 246.972 33.2475C246.765 33.3474 246.595 33.4973 246.463 33.6973C246.331 33.8936 246.26 34.1381 246.249 34.4308H244.064C244.082 33.7169 244.253 33.1279 244.578 32.6638C244.903 32.1962 245.333 31.8481 245.869 31.6197C246.404 31.3877 246.995 31.2716 247.641 31.2716C248.351 31.2716 248.98 31.3894 249.526 31.625C250.072 31.8571 250.5 32.1944 250.811 32.637C251.121 33.0797 251.277 33.6134 251.277 34.2381C251.277 34.6557 251.207 35.027 251.068 35.3518C250.932 35.6731 250.741 35.9587 250.495 36.2085C250.249 36.4548 249.958 36.678 249.622 36.8779C249.34 37.0456 249.108 37.2205 248.926 37.4026C248.748 37.5847 248.614 37.7953 248.525 38.0344C248.439 38.2736 248.394 38.5681 248.391 38.9179V39.1H246.361ZM247.421 42.5269C247.065 42.5269 246.759 42.402 246.506 42.1521C246.256 41.8986 246.133 41.5952 246.136 41.2418C246.133 40.892 246.256 40.5921 246.506 40.3423C246.759 40.0924 247.065 39.9674 247.421 39.9674C247.761 39.9674 248.059 40.0924 248.316 40.3423C248.573 40.5921 248.703 40.892 248.707 41.2418C248.703 41.4774 248.641 41.6934 248.519 41.8897C248.401 42.0825 248.246 42.2378 248.053 42.3556C247.861 42.4698 247.65 42.5269 247.421 42.5269Z" fill="#151411"/>
<path d="M18.0342 78.1466V77.1971H23.6922V78.1466H21.4111V84.5078H20.3117V78.1466H18.0342ZM25.9241 81.2522V84.5078H24.8568V77.1971H25.9099V79.9172H25.9777C26.1062 79.6221 26.3025 79.3877 26.5667 79.2139C26.8308 79.0402 27.1759 78.9534 27.6019 78.9534C27.9779 78.9534 28.3063 79.0307 28.5871 79.1854C28.8703 79.3401 29.0893 79.5709 29.244 79.8779C29.401 80.1825 29.4796 80.5633 29.4796 81.0202V84.5078H28.4122V81.1487C28.4122 80.7465 28.3087 80.4348 28.1017 80.2135C27.8946 79.9898 27.6067 79.8779 27.2378 79.8779C26.9855 79.8779 26.7594 79.9315 26.5595 80.0385C26.362 80.1456 26.2061 80.3027 26.0919 80.5097C25.9801 80.7144 25.9241 80.9619 25.9241 81.2522ZM33.267 84.6185C32.7268 84.6185 32.2615 84.5031 31.8713 84.2722C31.4834 84.039 31.1835 83.7118 30.9717 83.2905C30.7623 82.8669 30.6576 82.3707 30.6576 81.802C30.6576 81.2403 30.7623 80.7453 30.9717 80.317C31.1835 79.8886 31.4786 79.5543 31.857 79.3139C32.2378 79.0735 32.6828 78.9534 33.1921 78.9534C33.5014 78.9534 33.8013 79.0045 34.0916 79.1068C34.382 79.2092 34.6425 79.3698 34.8734 79.5888C35.1042 79.8077 35.2863 80.0921 35.4195 80.4419C35.5528 80.7894 35.6195 81.2118 35.6195 81.7092V82.0876H31.2608V81.2879H34.5735C34.5735 81.0071 34.5164 80.7584 34.4022 80.5419C34.288 80.3229 34.1273 80.1504 33.9203 80.0243C33.7156 79.8981 33.4752 79.8351 33.1992 79.8351C32.8993 79.8351 32.6376 79.9088 32.4139 80.0564C32.1925 80.2016 32.0212 80.3919 31.8998 80.6275C31.7808 80.8608 31.7213 81.1142 31.7213 81.3879V82.0126C31.7213 82.3791 31.7856 82.6908 31.9141 82.9479C32.045 83.2049 32.227 83.4012 32.4603 83.5369C32.6935 83.6701 32.966 83.7368 33.2777 83.7368C33.48 83.7368 33.6644 83.7082 33.831 83.6511C33.9976 83.5916 34.1416 83.5035 34.263 83.3869C34.3843 83.2703 34.4771 83.1263 34.5414 82.955L35.5516 83.137C35.4707 83.4345 35.3255 83.6951 35.1161 83.9188C34.9091 84.1401 34.6485 84.3127 34.3344 84.4364C34.0226 84.5578 33.6668 84.6185 33.267 84.6185ZM41.8272 84.6185C41.287 84.6185 40.8217 84.5031 40.4314 84.2722C40.0435 84.039 39.7437 83.7118 39.5318 83.2905C39.3224 82.8669 39.2177 82.3707 39.2177 81.802C39.2177 81.2403 39.3224 80.7453 39.5318 80.317C39.7437 79.8886 40.0387 79.5543 40.4171 79.3139C40.7979 79.0735 41.2429 78.9534 41.7522 78.9534C42.0616 78.9534 42.3614 79.0045 42.6518 79.1068C42.9421 79.2092 43.2027 79.3698 43.4335 79.5888C43.6644 79.8077 43.8464 80.0921 43.9797 80.4419C44.113 80.7894 44.1796 81.2118 44.1796 81.7092V82.0876H39.821V81.2879H43.1337C43.1337 81.0071 43.0766 80.7584 42.9623 80.5419C42.8481 80.3229 42.6875 80.1504 42.4804 80.0243C42.2758 79.8981 42.0354 79.8351 41.7593 79.8351C41.4595 79.8351 41.1977 79.9088 40.974 80.0564C40.7527 80.2016 40.5813 80.3919 40.46 80.6275C40.341 80.8608 40.2815 81.1142 40.2815 81.3879V82.0126C40.2815 82.3791 40.3457 82.6908 40.4743 82.9479C40.6051 83.2049 40.7872 83.4012 41.0204 83.5369C41.2536 83.6701 41.5261 83.7368 41.8379 83.7368C42.0402 83.7368 42.2246 83.7082 42.3912 83.6511C42.5578 83.5916 42.7017 83.5035 42.8231 83.3869C42.9445 83.2703 43.0373 83.1263 43.1016 82.955L44.1118 83.137C44.0309 83.4345 43.8857 83.6951 43.6763 83.9188C43.4692 84.1401 43.2086 84.3127 42.8945 84.4364C42.5828 84.5578 42.227 84.6185 41.8272 84.6185ZM46.0787 79.0247L47.2888 81.1594L48.5097 79.0247H49.6769L47.9671 81.7663L49.6912 84.5078H48.5239L47.2888 82.4588L46.0573 84.5078H44.8864L46.5927 81.7663L44.9078 79.0247H46.0787ZM53.3323 79.0247V79.8815H50.3373V79.0247H53.3323ZM51.1405 77.7111H52.2079V82.8979C52.2079 83.1049 52.2388 83.2608 52.3007 83.3655C52.3626 83.4678 52.4423 83.538 52.5399 83.5761C52.6398 83.6118 52.7481 83.6297 52.8647 83.6297C52.9504 83.6297 53.0253 83.6237 53.0896 83.6118C53.1538 83.5999 53.2038 83.5904 53.2395 83.5833L53.4323 84.465C53.3704 84.4888 53.2823 84.5126 53.1681 84.5364C53.0539 84.5625 52.9111 84.5768 52.7398 84.5792C52.4589 84.584 52.1972 84.534 51.9544 84.4293C51.7117 84.3246 51.5153 84.1627 51.3654 83.9438C51.2155 83.7249 51.1405 83.45 51.1405 83.1192V77.7111ZM56.8172 84.6185C56.277 84.6185 55.8118 84.5031 55.4215 84.2722C55.0336 84.039 54.7337 83.7118 54.5219 83.2905C54.3125 82.8669 54.2078 82.3707 54.2078 81.802C54.2078 81.2403 54.3125 80.7453 54.5219 80.317C54.7337 79.8886 55.0288 79.5543 55.4072 79.3139C55.788 79.0735 56.233 78.9534 56.7423 78.9534C57.0517 78.9534 57.3515 79.0045 57.6418 79.1068C57.9322 79.2092 58.1928 79.3698 58.4236 79.5888C58.6545 79.8077 58.8365 80.0921 58.9698 80.4419C59.103 80.7894 59.1697 81.2118 59.1697 81.7092V82.0876H54.8111V81.2879H58.1238C58.1238 81.0071 58.0666 80.7584 57.9524 80.5419C57.8382 80.3229 57.6775 80.1504 57.4705 80.0243C57.2658 79.8981 57.0255 79.8351 56.7494 79.8351C56.4496 79.8351 56.1878 79.9088 55.9641 80.0564C55.7428 80.2016 55.5714 80.3919 55.45 80.6275C55.3311 80.8608 55.2716 81.1142 55.2716 81.3879V82.0126C55.2716 82.3791 55.3358 82.6908 55.4643 82.9479C55.5952 83.2049 55.7773 83.4012 56.0105 83.5369C56.2437 83.6701 56.5162 83.7368 56.828 83.7368C57.0302 83.7368 57.2147 83.7082 57.3813 83.6511C57.5478 83.5916 57.6918 83.5035 57.8132 83.3869C57.9346 83.2703 58.0274 83.1263 58.0916 82.955L59.1019 83.137C59.0209 83.4345 58.8758 83.6951 58.6664 83.9188C58.4593 84.1401 58.1987 84.3127 57.8846 84.4364C57.5728 84.5578 57.2171 84.6185 56.8172 84.6185ZM61.4213 81.2522V84.5078H60.3539V79.0247H61.3784V79.9172H61.4463C61.5724 79.6268 61.7699 79.3936 62.0388 79.2175C62.3101 79.0414 62.6516 78.9534 63.0633 78.9534C63.437 78.9534 63.7642 79.0319 64.045 79.189C64.3258 79.3436 64.5436 79.5745 64.6983 79.8815C64.8529 80.1885 64.9303 80.568 64.9303 81.0202V84.5078H63.863V81.1487C63.863 80.7513 63.7594 80.4407 63.5524 80.217C63.3453 79.9909 63.061 79.8779 62.6992 79.8779C62.4517 79.8779 62.2316 79.9315 62.0388 80.0385C61.8484 80.1456 61.6973 80.3027 61.5855 80.5097C61.476 80.7144 61.4213 80.9619 61.4213 81.2522ZM70.4705 80.3634L69.5031 80.5347C69.4626 80.411 69.3984 80.2932 69.3103 80.1813C69.2246 80.0695 69.108 79.9779 68.9605 79.9065C68.8129 79.8351 68.6285 79.7994 68.4072 79.7994C68.1049 79.7994 67.8527 79.8672 67.6504 80.0028C67.4481 80.1361 67.347 80.3087 67.347 80.5205C67.347 80.7037 67.4148 80.8512 67.5505 80.9631C67.6861 81.0749 67.905 81.1666 68.2073 81.238L69.0783 81.4379C69.5828 81.5545 69.9588 81.7342 70.2063 81.9769C70.4538 82.2196 70.5776 82.535 70.5776 82.9229C70.5776 83.2513 70.4824 83.544 70.292 83.801C70.104 84.0556 69.841 84.2556 69.5031 84.4007C69.1675 84.5459 68.7784 84.6185 68.3358 84.6185C67.7218 84.6185 67.2209 84.4876 66.8329 84.2258C66.445 83.9616 66.2071 83.5868 66.119 83.1013L67.1506 82.9443C67.2149 83.2132 67.347 83.4167 67.5469 83.5547C67.7468 83.6904 68.0074 83.7582 68.3287 83.7582C68.6785 83.7582 68.9581 83.6856 69.1675 83.5404C69.377 83.3929 69.4817 83.2132 69.4817 83.0014C69.4817 82.8301 69.4174 82.6861 69.2889 82.5695C69.1628 82.4529 68.9688 82.3648 68.707 82.3053L67.7789 82.1018C67.2673 81.9852 66.8889 81.7996 66.6438 81.545C66.401 81.2903 66.2796 80.9679 66.2796 80.5776C66.2796 80.2539 66.3701 79.9707 66.5509 79.728C66.7318 79.4852 66.9817 79.296 67.3006 79.1604C67.6195 79.0224 67.9848 78.9534 68.3965 78.9534C68.989 78.9534 69.4555 79.0819 69.7958 79.3389C70.1361 79.5935 70.361 79.935 70.4705 80.3634ZM71.7511 84.5078V79.0247H72.8184V84.5078H71.7511ZM72.2901 78.1787C72.1045 78.1787 71.9451 78.1169 71.8118 77.9931C71.6809 77.867 71.6155 77.717 71.6155 77.5433C71.6155 77.3672 71.6809 77.2173 71.8118 77.0935C71.9451 76.9674 72.1045 76.9043 72.2901 76.9043C72.4758 76.9043 72.634 76.9674 72.7649 77.0935C72.8982 77.2173 72.9648 77.3672 72.9648 77.5433C72.9648 77.717 72.8982 77.867 72.7649 77.9931C72.634 78.1169 72.4758 78.1787 72.2901 78.1787ZM76.564 84.6185C76.0499 84.6185 75.6013 84.5007 75.2182 84.2651C74.835 84.0295 74.5376 83.6999 74.3258 83.2763C74.114 82.8527 74.0081 82.3577 74.0081 81.7913C74.0081 81.2225 74.114 80.7251 74.3258 80.2991C74.5376 79.8731 74.835 79.5424 75.2182 79.3068C75.6013 79.0712 76.0499 78.9534 76.564 78.9534C77.078 78.9534 77.5266 79.0712 77.9097 79.3068C78.2929 79.5424 78.5904 79.8731 78.8022 80.2991C79.014 80.7251 79.1199 81.2225 79.1199 81.7913C79.1199 82.3577 79.014 82.8527 78.8022 83.2763C78.5904 83.6999 78.2929 84.0295 77.9097 84.2651C77.5266 84.5007 77.078 84.6185 76.564 84.6185ZM76.5675 83.7225C76.9007 83.7225 77.1768 83.6344 77.3957 83.4583C77.6146 83.2822 77.7765 83.0478 77.8812 82.7551C77.9883 82.4624 78.0418 82.1399 78.0418 81.7877C78.0418 81.4379 77.9883 81.1166 77.8812 80.8239C77.7765 80.5288 77.6146 80.292 77.3957 80.1135C77.1768 79.935 76.9007 79.8458 76.5675 79.8458C76.232 79.8458 75.9535 79.935 75.7322 80.1135C75.5133 80.292 75.3503 80.5288 75.2432 80.8239C75.1385 81.1166 75.0861 81.4379 75.0861 81.7877C75.0861 82.1399 75.1385 82.4624 75.2432 82.7551C75.3503 83.0478 75.5133 83.2822 75.7322 83.4583C75.9535 83.6344 76.232 83.7225 76.5675 83.7225ZM81.3786 81.2522V84.5078H80.3113V79.0247H81.3358V79.9172H81.4036C81.5297 79.6268 81.7272 79.3936 81.9962 79.2175C82.2675 79.0414 82.609 78.9534 83.0207 78.9534C83.3943 78.9534 83.7215 79.0319 84.0023 79.189C84.2831 79.3436 84.5009 79.5745 84.6556 79.8815C84.8103 80.1885 84.8876 80.568 84.8876 81.0202V84.5078H83.8203V81.1487C83.8203 80.7513 83.7168 80.4407 83.5097 80.217C83.3027 79.9909 83.0183 79.8779 82.6566 79.8779C82.4091 79.8779 82.1889 79.9315 81.9962 80.0385C81.8058 80.1456 81.6547 80.3027 81.5428 80.5097C81.4333 80.7144 81.3786 80.9619 81.3786 81.2522ZM91.289 84.6185C90.7583 84.6185 90.3014 84.4983 89.9182 84.2579C89.5375 84.0152 89.2447 83.6808 89.0401 83.2548C88.8354 82.8289 88.7331 82.341 88.7331 81.7913C88.7331 81.2344 88.8378 80.743 89.0472 80.317C89.2566 79.8886 89.5517 79.5543 89.9325 79.3139C90.3133 79.0735 90.7619 78.9534 91.2783 78.9534C91.6947 78.9534 92.066 79.0307 92.392 79.1854C92.7181 79.3377 92.981 79.5519 93.1809 79.8279C93.3832 80.104 93.5034 80.4265 93.5415 80.7953H92.5027C92.4456 80.5383 92.3147 80.317 92.11 80.1314C91.9077 79.9457 91.6364 79.8529 91.2961 79.8529C90.9987 79.8529 90.7381 79.9315 90.5144 80.0885C90.293 80.2432 90.1205 80.4645 89.9968 80.7525C89.873 81.0381 89.8111 81.376 89.8111 81.7663C89.8111 82.1661 89.8718 82.5112 89.9932 82.8015C90.1146 83.0918 90.2859 83.3167 90.5072 83.4762C90.7309 83.6356 90.9939 83.7153 91.2961 83.7153C91.4984 83.7153 91.6817 83.6785 91.8459 83.6047C92.0124 83.5285 92.1517 83.4202 92.2635 83.2798C92.3777 83.1394 92.4575 82.9705 92.5027 82.7729H93.5415C93.5034 83.1275 93.388 83.444 93.1952 83.7225C93.0024 84.0009 92.7442 84.2199 92.4206 84.3793C92.0993 84.5387 91.7221 84.6185 91.289 84.6185ZM96.2785 84.6292C95.9311 84.6292 95.617 84.5649 95.3361 84.4364C95.0553 84.3055 94.8328 84.1163 94.6686 83.8688C94.5068 83.6213 94.4259 83.3179 94.4259 82.9586C94.4259 82.6492 94.4854 82.3945 94.6044 82.1946C94.7233 81.9947 94.884 81.8365 95.0863 81.7199C95.2885 81.6033 95.5146 81.5152 95.7645 81.4557C96.0144 81.3962 96.269 81.351 96.5284 81.3201C96.8568 81.282 97.1234 81.2511 97.328 81.2273C97.5327 81.2011 97.6814 81.1594 97.7743 81.1023C97.8671 81.0452 97.9135 80.9524 97.9135 80.8239V80.7989C97.9135 80.4871 97.8254 80.2456 97.6493 80.0742C97.4756 79.9029 97.2162 79.8172 96.8711 79.8172C96.5118 79.8172 96.2286 79.8969 96.0215 80.0564C95.8169 80.2135 95.6753 80.3884 95.5967 80.5811L94.5936 80.3527C94.7126 80.0195 94.8864 79.7506 95.1148 79.5459C95.3457 79.3389 95.611 79.189 95.9109 79.0961C96.2107 79.0009 96.526 78.9534 96.8568 78.9534C97.0758 78.9534 97.3078 78.9795 97.5529 79.0319C97.8004 79.0819 98.0313 79.1747 98.2455 79.3103C98.462 79.446 98.6393 79.6399 98.7773 79.8922C98.9154 80.1421 98.9844 80.4669 98.9844 80.8667V84.5078H97.942V83.7582H97.8992C97.8302 83.8962 97.7267 84.0319 97.5886 84.1651C97.4506 84.2984 97.2733 84.4091 97.0567 84.4971C96.8402 84.5852 96.5808 84.6292 96.2785 84.6292ZM96.5106 83.7725C96.8057 83.7725 97.0579 83.7141 97.2674 83.5975C97.4792 83.4809 97.6398 83.3286 97.7493 83.1406C97.8611 82.9502 97.917 82.7468 97.917 82.5302V81.8234C97.879 81.8615 97.8052 81.8972 97.6957 81.9305C97.5886 81.9614 97.4661 81.9888 97.328 82.0126C97.19 82.034 97.0556 82.0542 96.9247 82.0733C96.7938 82.0899 96.6843 82.1042 96.5962 82.1161C96.3892 82.1423 96.2 82.1863 96.0287 82.2482C95.8597 82.3101 95.7241 82.3993 95.6217 82.5159C95.5218 82.6301 95.4718 82.7825 95.4718 82.9728C95.4718 83.237 95.5694 83.4369 95.7645 83.5725C95.9597 83.7058 96.2083 83.7725 96.5106 83.7725ZM101.473 81.2522V84.5078H100.406V79.0247H101.431V79.9172H101.498C101.624 79.6268 101.822 79.3936 102.091 79.2175C102.362 79.0414 102.704 78.9534 103.115 78.9534C103.489 78.9534 103.816 79.0319 104.097 79.189C104.378 79.3436 104.596 79.5745 104.75 79.8815C104.905 80.1885 104.982 80.568 104.982 81.0202V84.5078H103.915V81.1487C103.915 80.7513 103.812 80.4407 103.604 80.217C103.397 79.9909 103.113 79.8779 102.751 79.8779C102.504 79.8779 102.284 79.9315 102.091 80.0385C101.901 80.1456 101.749 80.3027 101.638 80.5097C101.528 80.7144 101.473 80.9619 101.473 81.2522ZM107.117 84.5756C106.922 84.5756 106.754 84.5066 106.614 84.3686C106.473 84.2282 106.403 84.0592 106.403 83.8617C106.403 83.6666 106.473 83.5 106.614 83.3619C106.754 83.2215 106.922 83.1513 107.117 83.1513C107.312 83.1513 107.48 83.2215 107.62 83.3619C107.761 83.5 107.831 83.6666 107.831 83.8617C107.831 83.9926 107.798 84.1128 107.731 84.2222C107.667 84.3293 107.581 84.415 107.474 84.4793C107.367 84.5435 107.248 84.5756 107.117 84.5756ZM107.117 80.5847C106.922 80.5847 106.754 80.5145 106.614 80.3741C106.473 80.2337 106.403 80.0659 106.403 79.8708C106.403 79.6756 106.473 79.509 106.614 79.371C106.754 79.2306 106.922 79.1604 107.117 79.1604C107.312 79.1604 107.48 79.2306 107.62 79.371C107.761 79.509 107.831 79.6756 107.831 79.8708C107.831 80.0017 107.798 80.1218 107.731 80.2313C107.667 80.3384 107.581 80.4241 107.474 80.4883C107.367 80.5526 107.248 80.5847 107.117 80.5847Z" fill="#555555"/>
<rect x="17.7533" y="18.3818" width="37.6961" height="37.6961" rx="12.5654" fill="#FFD52B"/>
<path fill-rule="evenodd" clip-rule="evenodd" d="M32.5708 22.8262C35.0651 21.3861 38.1382 21.3861 40.6325 22.8262L47.0597 26.5369C49.554 27.977 51.0905 30.6384 51.0905 33.5186V40.9401C51.0905 43.8203 49.554 46.4816 47.0597 47.9217L40.6325 51.6325C38.1382 53.0726 35.0651 53.0726 32.5708 51.6325L26.1435 47.9217C23.6492 46.4816 22.1127 43.8203 22.1127 40.9401V33.5186C22.1127 30.6384 23.6492 27.977 26.1435 26.5369L32.5708 22.8262ZM39.1326 25.424C37.5664 24.5197 35.6368 24.5197 34.0706 25.424L27.6434 29.1347C26.0772 30.039 25.1124 31.7101 25.1124 33.5186V40.9401C25.1124 42.7486 26.0772 44.4197 27.6434 45.3239L34.0706 49.0347C35.6368 49.9389 37.5664 49.9389 39.1326 49.0347L45.5598 45.3239C47.126 44.4197 48.0908 42.7486 48.0908 40.9401V33.5186C48.0908 31.7101 47.126 30.039 45.5598 29.1347L39.1326 25.424Z" fill="black"/>
<path d="M41.7972 44.7284L38.1015 46.8622C37.1734 47.398 36.0299 47.398 35.1018 46.8622L31.406 44.7284H41.7972Z" fill="black"/>
<path d="M27.6745 41.7288C27.5666 41.4175 27.5093 41.0862 27.5093 40.7468V38.7291H45.694V40.7468C45.694 41.0862 45.6366 41.4175 45.5287 41.7288H27.6745Z" fill="black"/>
<path d="M27.5093 35.7294V33.7116C27.5093 33.3722 27.5666 33.0409 27.6745 32.7297H45.5287C45.6366 33.0409 45.694 33.3722 45.694 33.7116V35.7294H27.5093Z" fill="black"/>
<path d="M41.7972 29.73H31.406L35.1018 27.5962C36.0299 27.0604 37.1734 27.0604 38.1015 27.5962L41.7972 29.73Z" fill="black"/>
<g filter="url(#filter0_dii_4290_1647)">
<path d="M186.596 147.052C186.596 142.314 186.596 139.944 188.068 138.472C189.54 137 191.909 137 196.648 137H260.622C265.36 137 267.73 137 269.202 138.472C270.674 139.944 270.674 142.314 270.674 147.052V149.565C270.674 154.304 270.674 156.673 269.202 158.146C267.73 159.618 265.36 159.618 260.622 159.618H196.648C191.909 159.618 189.54 159.618 188.068 158.146C186.596 156.673 186.596 154.304 186.596 149.565V147.052Z" fill="#FFD52B"/>
<path d="M260.622 136.686C262.982 136.686 264.784 136.686 266.179 136.873C267.582 137.062 268.62 137.446 269.424 138.25C270.228 139.054 270.613 140.092 270.802 141.495C270.989 142.89 270.988 144.692 270.988 147.053V149.565C270.988 151.926 270.989 153.728 270.802 155.122C270.613 156.526 270.228 157.563 269.424 158.367C268.62 159.171 267.582 159.556 266.179 159.745C264.784 159.933 262.982 159.932 260.622 159.932H196.648C194.288 159.932 192.485 159.933 191.091 159.745C189.687 159.556 188.65 159.171 187.846 158.367C187.042 157.563 186.657 156.525 186.469 155.122C186.281 153.728 186.281 151.926 186.281 149.565V147.053C186.281 144.692 186.281 142.89 186.469 141.495C186.657 140.092 187.041 139.054 187.846 138.25C188.65 137.446 189.687 137.062 191.091 136.873C192.485 136.686 194.288 136.686 196.648 136.686H260.622Z" stroke="#B5971F" stroke-width="0.628268"/>
<path d="M194.396 151.309L196.97 144.272H198.327L200.89 151.309H199.613L197.643 145.679L195.663 151.309H194.396ZM195.542 149.65L195.874 148.695H199.332L199.653 149.65H195.542ZM203.673 151.429C203.21 151.429 202.801 151.312 202.446 151.077C202.091 150.843 201.813 150.521 201.612 150.112C201.418 149.704 201.32 149.238 201.32 148.715C201.32 148.172 201.421 147.693 201.622 147.278C201.83 146.862 202.115 146.537 202.476 146.303C202.845 146.068 203.271 145.951 203.753 145.951C204.115 145.951 204.433 146.021 204.708 146.162C204.983 146.296 205.204 146.494 205.371 146.755V144.071H206.578V151.309H205.502L205.371 150.565C205.271 150.719 205.144 150.863 204.99 150.997C204.842 151.124 204.658 151.228 204.437 151.309C204.222 151.389 203.968 151.429 203.673 151.429ZM203.964 150.384C204.252 150.384 204.504 150.313 204.718 150.173C204.933 150.032 205.097 149.834 205.211 149.58C205.331 149.325 205.392 149.027 205.392 148.685C205.392 148.343 205.331 148.045 205.211 147.79C205.097 147.536 204.933 147.341 204.718 147.207C204.504 147.067 204.252 146.996 203.964 146.996C203.696 146.996 203.455 147.067 203.24 147.207C203.026 147.341 202.855 147.536 202.728 147.79C202.607 148.045 202.547 148.343 202.547 148.685C202.547 149.027 202.607 149.325 202.728 149.58C202.855 149.834 203.026 150.032 203.24 150.173C203.455 150.313 203.696 150.384 203.964 150.384ZM210.032 151.429C209.569 151.429 209.16 151.312 208.805 151.077C208.45 150.843 208.172 150.521 207.971 150.112C207.776 149.704 207.679 149.238 207.679 148.715C207.679 148.172 207.78 147.693 207.981 147.278C208.189 146.862 208.473 146.537 208.835 146.303C209.204 146.068 209.629 145.951 210.112 145.951C210.474 145.951 210.792 146.021 211.067 146.162C211.342 146.296 211.563 146.494 211.73 146.755V144.071H212.937V151.309H211.861L211.73 150.565C211.63 150.719 211.503 150.863 211.348 150.997C211.201 151.124 211.017 151.228 210.795 151.309C210.581 151.389 210.326 151.429 210.032 151.429ZM210.323 150.384C210.611 150.384 210.863 150.313 211.077 150.173C211.291 150.032 211.456 149.834 211.57 149.58C211.69 149.325 211.75 149.027 211.75 148.685C211.75 148.343 211.69 148.045 211.57 147.79C211.456 147.536 211.291 147.341 211.077 147.207C210.863 147.067 210.611 146.996 210.323 146.996C210.055 146.996 209.814 147.067 209.599 147.207C209.385 147.341 209.214 147.536 209.087 147.79C208.966 148.045 208.906 148.343 208.906 148.685C208.906 149.027 208.966 149.325 209.087 149.58C209.214 149.834 209.385 150.032 209.599 150.173C209.814 150.313 210.055 150.384 210.323 150.384ZM216.652 151.309V144.272H221.196V145.247H217.859V147.268H220.895V148.223H217.859V150.334H221.196V151.309H216.652ZM221.91 151.309L223.679 148.675L221.91 146.071H223.217L224.423 147.911L225.639 146.071H226.936L225.167 148.675L226.936 151.309H225.639L224.423 149.419L223.227 151.309H221.91ZM230.021 151.309C229.685 151.309 229.391 151.255 229.136 151.148C228.881 151.041 228.684 150.863 228.543 150.615C228.409 150.367 228.342 150.032 228.342 149.61V147.077H227.437V146.071H228.342L228.483 144.654H229.548V146.071H230.945V147.077H229.548V149.61C229.548 149.864 229.602 150.042 229.709 150.143C229.816 150.236 230.004 150.283 230.272 150.283H230.945V151.309H230.021ZM234.241 151.429C233.752 151.429 233.316 151.319 232.934 151.097C232.559 150.87 232.264 150.551 232.05 150.143C231.835 149.734 231.728 149.261 231.728 148.725C231.728 148.176 231.832 147.693 232.04 147.278C232.254 146.862 232.549 146.537 232.924 146.303C233.306 146.068 233.749 145.951 234.251 145.951C234.767 145.951 235.206 146.065 235.568 146.293C235.93 146.514 236.205 146.819 236.392 147.207C236.587 147.596 236.684 148.032 236.684 148.514C236.684 148.581 236.684 148.655 236.684 148.735C236.684 148.809 236.677 148.889 236.664 148.976H232.603V148.202H235.478C235.464 147.8 235.34 147.489 235.106 147.268C234.878 147.046 234.593 146.936 234.251 146.936C234.003 146.936 233.779 146.996 233.578 147.117C233.377 147.237 233.216 147.415 233.095 147.65C232.975 147.884 232.914 148.182 232.914 148.544V148.836C232.914 149.171 232.971 149.459 233.085 149.7C233.199 149.941 233.353 150.126 233.548 150.253C233.749 150.374 233.98 150.434 234.241 150.434C234.536 150.434 234.767 150.38 234.935 150.273C235.102 150.166 235.23 150.015 235.317 149.821H236.543C236.456 150.122 236.305 150.397 236.091 150.645C235.876 150.886 235.612 151.077 235.297 151.218C234.988 151.359 234.637 151.429 234.241 151.429ZM237.748 151.309V146.071H238.813L238.894 146.876C239.048 146.587 239.266 146.363 239.547 146.202C239.835 146.034 240.174 145.951 240.562 145.951C240.971 145.951 241.32 146.031 241.608 146.192C241.896 146.353 242.117 146.591 242.271 146.906C242.425 147.214 242.502 147.599 242.502 148.062V151.309H241.296V148.172C241.296 147.784 241.199 147.485 241.005 147.278C240.817 147.07 240.546 146.966 240.19 146.966C239.963 146.966 239.755 147.02 239.567 147.127C239.38 147.227 239.229 147.378 239.115 147.579C239.008 147.774 238.954 148.015 238.954 148.303V151.309H237.748ZM245.793 151.429C245.297 151.429 244.882 151.356 244.547 151.208C244.218 151.061 243.97 150.856 243.803 150.595C243.635 150.334 243.535 150.035 243.501 149.7H244.717C244.738 149.841 244.788 149.972 244.868 150.092C244.949 150.213 245.063 150.31 245.21 150.384C245.364 150.451 245.555 150.484 245.783 150.484C245.977 150.484 246.142 150.458 246.276 150.404C246.41 150.344 246.51 150.263 246.577 150.163C246.644 150.062 246.678 149.948 246.678 149.821C246.678 149.647 246.634 149.513 246.547 149.419C246.46 149.318 246.336 149.241 246.175 149.188C246.014 149.134 245.813 149.09 245.572 149.057C245.277 149.01 245.009 148.95 244.768 148.876C244.533 148.802 244.332 148.708 244.165 148.594C243.997 148.474 243.866 148.326 243.773 148.152C243.685 147.971 243.642 147.753 243.642 147.499C243.642 147.197 243.722 146.929 243.883 146.695C244.044 146.46 244.279 146.279 244.587 146.152C244.895 146.018 245.26 145.951 245.683 145.951C246.299 145.951 246.782 146.085 247.13 146.353C247.479 146.621 247.683 146.993 247.743 147.469H246.597C246.564 147.288 246.467 147.147 246.306 147.046C246.145 146.946 245.934 146.896 245.672 146.896C245.391 146.896 245.177 146.946 245.029 147.046C244.888 147.147 244.818 147.281 244.818 147.449C244.818 147.562 244.852 147.666 244.919 147.76C244.992 147.854 245.11 147.934 245.27 148.001C245.431 148.068 245.649 148.122 245.924 148.162C246.359 148.229 246.721 148.316 247.009 148.424C247.304 148.524 247.525 148.678 247.673 148.886C247.827 149.094 247.901 149.382 247.894 149.75C247.894 150.099 247.807 150.401 247.633 150.655C247.458 150.903 247.214 151.094 246.899 151.228C246.584 151.362 246.215 151.429 245.793 151.429ZM249.063 151.309V146.071H250.269V151.309H249.063ZM249.666 145.317C249.445 145.317 249.261 145.25 249.113 145.116C248.972 144.982 248.902 144.811 248.902 144.604C248.902 144.396 248.972 144.228 249.113 144.101C249.261 143.967 249.445 143.9 249.666 143.9C249.887 143.9 250.068 143.967 250.209 144.101C250.356 144.228 250.43 144.396 250.43 144.604C250.43 144.811 250.356 144.982 250.209 145.116C250.068 145.25 249.887 145.317 249.666 145.317ZM253.954 151.429C253.458 151.429 253.016 151.315 252.627 151.087C252.245 150.853 251.947 150.531 251.733 150.122C251.518 149.707 251.411 149.228 251.411 148.685C251.411 148.142 251.518 147.666 251.733 147.258C251.954 146.842 252.255 146.52 252.637 146.293C253.026 146.065 253.468 145.951 253.964 145.951C254.46 145.951 254.899 146.065 255.281 146.293C255.663 146.52 255.961 146.842 256.176 147.258C256.39 147.666 256.498 148.142 256.498 148.685C256.498 149.228 256.387 149.707 256.166 150.122C255.951 150.531 255.653 150.853 255.271 151.087C254.889 151.315 254.45 151.429 253.954 151.429ZM253.944 150.394C254.206 150.394 254.433 150.33 254.628 150.203C254.829 150.076 254.986 149.885 255.1 149.63C255.214 149.375 255.271 149.06 255.271 148.685C255.271 148.31 255.214 147.998 255.1 147.75C254.993 147.495 254.839 147.304 254.638 147.177C254.443 147.05 254.219 146.986 253.964 146.986C253.71 146.986 253.482 147.05 253.281 147.177C253.086 147.304 252.932 147.495 252.818 147.75C252.704 147.998 252.647 148.31 252.647 148.685C252.647 149.06 252.704 149.375 252.818 149.63C252.932 149.885 253.086 150.076 253.281 150.203C253.475 150.33 253.696 150.394 253.944 150.394ZM257.617 151.309V146.071H258.683L258.763 146.876C258.917 146.587 259.135 146.363 259.416 146.202C259.705 146.034 260.043 145.951 260.432 145.951C260.841 145.951 261.189 146.031 261.477 146.192C261.765 146.353 261.986 146.591 262.141 146.906C262.295 147.214 262.372 147.599 262.372 148.062V151.309H261.166V148.172C261.166 147.784 261.068 147.485 260.874 147.278C260.686 147.07 260.415 146.966 260.06 146.966C259.832 146.966 259.624 147.02 259.437 147.127C259.249 147.227 259.098 147.378 258.984 147.579C258.877 147.774 258.823 148.015 258.823 148.303V151.309H257.617Z" fill="#473C0C"/>
</g>
<defs>
<filter id="filter0_dii_4290_1647" x="183.454" y="134.487" width="90.3611" height="28.9002" filterUnits="userSpaceOnUse" color-interpolation-filters="sRGB">
<feFlood flood-opacity="0" result="BackgroundImageFix"/>
<feColorMatrix in="SourceAlpha" type="matrix" values="0 0 0 0 0 0 0 0 0 0 0 0 0 0 0 0 0 0 127 0" result="hardAlpha"/>
<feMorphology radius="0.628268" operator="dilate" in="SourceAlpha" result="effect1_dropShadow_4290_1647"/>
<feOffset dy="0.628268"/>
<feGaussianBlur stdDeviation="0.942402"/>
<feComposite in2="hardAlpha" operator="out"/>
<feColorMatrix type="matrix" values="0 0 0 0 0.665 0 0 0 0 0.46545 0 0 0 0 0.0193958 0 0 0 0.3 0"/>
<feBlend mode="normal" in2="BackgroundImageFix" result="effect1_dropShadow_4290_1647"/>
<feBlend mode="normal" in="SourceGraphic" in2="effect1_dropShadow_4290_1647" result="shape"/>
<feColorMatrix in="SourceAlpha" type="matrix" values="0 0 0 0 0 0 0 0 0 0 0 0 0 0 0 0 0 0 127 0" result="hardAlpha"/>
<feMorphology radius="1.25654" operator="erode" in="SourceAlpha" result="effect2_innerShadow_4290_1647"/>
<feOffset/>
<feGaussianBlur stdDeviation="0.628268"/>
<feComposite in2="hardAlpha" operator="arithmetic" k2="-1" k3="1"/>
<feColorMatrix type="matrix" values="0 0 0 0 1 0 0 0 0 0.961621 0 0 0 0 0.875834 0 0 0 1 0"/>
<feBlend mode="normal" in2="shape" result="effect2_innerShadow_4290_1647"/>
<feColorMatrix in="SourceAlpha" type="matrix" values="0 0 0 0 0 0 0 0 0 0 0 0 0 0 0 0 0 0 127 0" result="hardAlpha"/>
<feOffset dy="-1.8848"/>
<feGaussianBlur stdDeviation="0.628268"/>
<feComposite in2="hardAlpha" operator="arithmetic" k2="-1" k3="1"/>
<feColorMatrix type="matrix" values="0 0 0 0 0.74 0 0 0 0 0.537004 0 0 0 0 0.08325 0 0 0 1 0"/>
<feBlend mode="normal" in2="effect2_innerShadow_4290_1647" result="effect3_innerShadow_4290_1647"/>
</filter>
</defs>
</svg>
