<svg width="348" height="185" viewBox="0 0 348 185" fill="none" xmlns="http://www.w3.org/2000/svg">
<rect x="58.1667" y="87.5" width="233" height="77" rx="15.5" fill="white"/>
<rect x="58.1667" y="87.5" width="233" height="77" rx="15.5" stroke="#E8E7E2"/>
<path d="M110.772 119V105H115.712C116.672 105 117.519 105.193 118.252 105.58C118.985 105.967 119.559 106.507 119.972 107.2C120.385 107.88 120.592 108.673 120.592 109.58C120.592 110.46 120.399 111.247 120.012 111.94C119.625 112.633 119.085 113.18 118.392 113.58C117.712 113.967 116.919 114.16 116.012 114.16H113.092V119H110.772ZM113.092 112.02H115.972C116.639 112.02 117.185 111.793 117.612 111.34C118.039 110.887 118.252 110.3 118.252 109.58C118.252 108.847 118.012 108.253 117.532 107.8C117.052 107.347 116.432 107.12 115.672 107.12H113.092V112.02ZM126.632 119.24C125.632 119.24 124.738 119.02 123.952 118.58C123.178 118.127 122.572 117.507 122.132 116.72C121.692 115.933 121.472 115.027 121.472 114C121.472 112.973 121.685 112.067 122.112 111.28C122.552 110.493 123.158 109.88 123.932 109.44C124.705 108.987 125.592 108.76 126.592 108.76C127.592 108.76 128.478 108.987 129.252 109.44C130.025 109.88 130.625 110.493 131.052 111.28C131.492 112.067 131.712 112.973 131.712 114C131.712 115.027 131.498 115.933 131.072 116.72C130.645 117.507 130.045 118.127 129.272 118.58C128.498 119.02 127.618 119.24 126.632 119.24ZM126.632 117.18C127.178 117.18 127.665 117.047 128.092 116.78C128.518 116.5 128.852 116.127 129.092 115.66C129.332 115.18 129.452 114.627 129.452 114C129.452 113.373 129.325 112.827 129.072 112.36C128.832 111.88 128.498 111.507 128.072 111.24C127.645 110.96 127.152 110.82 126.592 110.82C126.032 110.82 125.538 110.953 125.112 111.22C124.685 111.487 124.352 111.86 124.112 112.34C123.872 112.82 123.752 113.373 123.752 114C123.752 114.627 123.872 115.18 124.112 115.66C124.365 116.127 124.705 116.5 125.132 116.78C125.572 117.047 126.072 117.18 126.632 117.18ZM137.293 119.24C136.626 119.24 136.013 119.14 135.453 118.94C134.893 118.74 134.413 118.46 134.013 118.1C133.613 117.727 133.306 117.293 133.093 116.8L135.033 115.94C135.233 116.313 135.526 116.627 135.913 116.88C136.313 117.133 136.753 117.26 137.233 117.26C137.753 117.26 138.166 117.173 138.473 117C138.793 116.813 138.953 116.56 138.953 116.24C138.953 115.933 138.833 115.7 138.593 115.54C138.353 115.367 138.013 115.227 137.573 115.12L136.633 114.86C135.686 114.62 134.946 114.24 134.413 113.72C133.88 113.187 133.613 112.58 133.613 111.9C133.613 110.9 133.933 110.127 134.573 109.58C135.226 109.033 136.16 108.76 137.373 108.76C137.986 108.76 138.546 108.853 139.053 109.04C139.573 109.213 140.02 109.467 140.393 109.8C140.766 110.12 141.026 110.5 141.173 110.94L139.313 111.78C139.18 111.447 138.926 111.193 138.553 111.02C138.18 110.833 137.766 110.74 137.313 110.74C136.86 110.74 136.506 110.84 136.253 111.04C136 111.227 135.873 111.493 135.873 111.84C135.873 112.04 135.986 112.227 136.213 112.4C136.44 112.56 136.766 112.693 137.193 112.8L138.373 113.08C139.026 113.24 139.56 113.493 139.973 113.84C140.386 114.173 140.693 114.553 140.893 114.98C141.093 115.393 141.193 115.813 141.193 116.24C141.193 116.84 141.02 117.367 140.673 117.82C140.34 118.273 139.88 118.627 139.293 118.88C138.706 119.12 138.04 119.24 137.293 119.24ZM146.949 119.24C145.896 119.24 145.089 118.98 144.529 118.46C143.983 117.927 143.709 117.167 143.709 116.18V110.92H142.049V109H143.709V105.88H145.929V109H148.629V110.92H145.929V115.76C145.929 116.227 146.036 116.58 146.249 116.82C146.476 117.06 146.803 117.18 147.229 117.18C147.363 117.18 147.509 117.153 147.669 117.1C147.829 117.047 148.009 116.947 148.209 116.8L149.029 118.5C148.683 118.74 148.336 118.92 147.989 119.04C147.643 119.173 147.296 119.24 146.949 119.24ZM156.065 119V105H158.545L162.945 111.48L167.305 105H169.805V119H167.485V108.66L162.925 115.4L158.385 108.7V119H156.065ZM175.916 119.24C174.716 119.24 173.782 118.973 173.116 118.44C172.462 117.907 172.136 117.153 172.136 116.18C172.136 115.14 172.482 114.347 173.176 113.8C173.882 113.253 174.862 112.98 176.116 112.98H178.656C178.576 112.247 178.369 111.687 178.036 111.3C177.702 110.913 177.209 110.72 176.556 110.72C176.076 110.72 175.656 110.82 175.296 111.02C174.936 111.22 174.629 111.533 174.376 111.96L172.416 111.24C172.629 110.8 172.909 110.393 173.256 110.02C173.616 109.633 174.062 109.327 174.596 109.1C175.142 108.873 175.796 108.76 176.556 108.76C177.529 108.76 178.342 108.953 178.996 109.34C179.649 109.713 180.129 110.253 180.436 110.96C180.756 111.667 180.916 112.52 180.916 113.52L180.856 119H178.796L178.736 117.78C178.469 118.247 178.096 118.607 177.616 118.86C177.149 119.113 176.582 119.24 175.916 119.24ZM176.196 117.36C176.689 117.36 177.122 117.253 177.496 117.04C177.882 116.813 178.176 116.513 178.376 116.14C178.589 115.767 178.696 115.353 178.696 114.9V114.7H176.836C175.942 114.7 175.316 114.827 174.956 115.08C174.596 115.32 174.416 115.667 174.416 116.12C174.416 116.507 174.569 116.813 174.876 117.04C175.196 117.253 175.636 117.36 176.196 117.36ZM183.184 119V109H185.424V110.82C185.824 110.193 186.344 109.727 186.984 109.42C187.624 109.113 188.284 108.96 188.964 108.96V111.1C188.351 111.1 187.771 111.187 187.224 111.36C186.691 111.52 186.257 111.787 185.924 112.16C185.591 112.533 185.424 113.027 185.424 113.64V119H183.184ZM190.45 119V105H192.69V113.04L196.43 109H199.13L195.37 113.14L199.47 119H196.81L193.93 114.74L192.69 116.1V119H190.45ZM204.851 119.24C203.878 119.24 203.011 119.02 202.251 118.58C201.504 118.127 200.911 117.507 200.471 116.72C200.044 115.933 199.831 115.027 199.831 114C199.831 112.973 200.051 112.067 200.491 111.28C200.931 110.493 201.531 109.88 202.291 109.44C203.064 108.987 203.944 108.76 204.931 108.76C205.824 108.76 206.631 108.993 207.351 109.46C208.071 109.913 208.638 110.573 209.051 111.44C209.478 112.307 209.691 113.34 209.691 114.54H202.151C202.218 115.38 202.524 116.04 203.071 116.52C203.631 117 204.291 117.24 205.051 117.24C205.664 117.24 206.171 117.107 206.571 116.84C206.971 116.56 207.284 116.2 207.511 115.76L209.491 116.6C209.211 117.133 208.851 117.6 208.411 118C207.984 118.4 207.471 118.707 206.871 118.92C206.284 119.133 205.611 119.24 204.851 119.24ZM202.291 112.82H207.271C207.231 112.34 207.091 111.947 206.851 111.64C206.611 111.32 206.318 111.08 205.971 110.92C205.624 110.76 205.258 110.68 204.871 110.68C204.498 110.68 204.118 110.76 203.731 110.92C203.358 111.067 203.038 111.3 202.771 111.62C202.504 111.94 202.344 112.34 202.291 112.82ZM215.387 119.24C214.333 119.24 213.527 118.98 212.967 118.46C212.42 117.927 212.147 117.167 212.147 116.18V110.92H210.487V109H212.147V105.88H214.367V109H217.067V110.92H214.367V115.76C214.367 116.227 214.473 116.58 214.687 116.82C214.913 117.06 215.24 117.18 215.667 117.18C215.8 117.18 215.947 117.153 216.107 117.1C216.267 117.047 216.447 116.947 216.647 116.8L217.467 118.5C217.12 118.74 216.773 118.92 216.427 119.04C216.08 119.173 215.733 119.24 215.387 119.24ZM219.398 119V109H221.618V119H219.398ZM220.518 107.1C220.158 107.1 219.845 106.973 219.578 106.72C219.325 106.453 219.198 106.14 219.198 105.78C219.198 105.42 219.325 105.113 219.578 104.86C219.845 104.607 220.158 104.48 220.518 104.48C220.878 104.48 221.185 104.607 221.438 104.86C221.705 105.113 221.838 105.42 221.838 105.78C221.838 106.14 221.705 106.453 221.438 106.72C221.185 106.973 220.878 107.1 220.518 107.1ZM224.258 119V109H226.358L226.458 110.42C226.778 109.887 227.192 109.48 227.698 109.2C228.218 108.907 228.812 108.76 229.478 108.76C230.278 108.76 230.958 108.92 231.518 109.24C232.092 109.56 232.525 110.06 232.818 110.74C233.125 111.407 233.278 112.28 233.278 113.36V119H231.038V113.88C231.038 113.08 230.945 112.467 230.758 112.04C230.585 111.6 230.332 111.293 229.998 111.12C229.678 110.947 229.298 110.86 228.858 110.86C228.112 110.847 227.532 111.093 227.118 111.6C226.705 112.107 226.498 112.833 226.498 113.78V119H224.258ZM239.847 123.26C239.141 123.26 238.501 123.2 237.927 123.08C237.367 122.96 236.894 122.82 236.507 122.66C236.121 122.5 235.821 122.347 235.607 122.2L236.467 120.4C236.654 120.493 236.901 120.607 237.207 120.74C237.527 120.887 237.901 121.013 238.327 121.12C238.754 121.227 239.234 121.28 239.767 121.28C240.341 121.28 240.854 121.16 241.307 120.92C241.761 120.693 242.114 120.34 242.367 119.86C242.621 119.38 242.747 118.767 242.747 118.02V117.02C242.401 117.58 241.947 118.02 241.387 118.34C240.841 118.647 240.214 118.8 239.507 118.8C238.601 118.8 237.807 118.593 237.127 118.18C236.461 117.767 235.934 117.193 235.547 116.46C235.174 115.713 234.987 114.853 234.987 113.88C234.987 112.84 235.174 111.94 235.547 111.18C235.934 110.42 236.461 109.827 237.127 109.4C237.807 108.973 238.601 108.76 239.507 108.76C240.214 108.76 240.841 108.92 241.387 109.24C241.947 109.56 242.401 110.02 242.747 110.62V109H244.987V117.96C244.987 119.093 244.774 120.053 244.347 120.84C243.921 121.64 243.321 122.24 242.547 122.64C241.774 123.053 240.874 123.26 239.847 123.26ZM240.127 116.9C240.634 116.9 241.074 116.767 241.447 116.5C241.834 116.233 242.134 115.873 242.347 115.42C242.561 114.953 242.667 114.42 242.667 113.82C242.667 113.207 242.561 112.673 242.347 112.22C242.134 111.753 241.834 111.393 241.447 111.14C241.061 110.873 240.614 110.74 240.107 110.74C239.574 110.74 239.101 110.873 238.687 111.14C238.287 111.393 237.967 111.753 237.727 112.22C237.501 112.673 237.387 113.207 237.387 113.82C237.387 114.42 237.501 114.953 237.727 115.42C237.967 115.873 238.294 116.233 238.707 116.5C239.121 116.767 239.594 116.9 240.127 116.9ZM147.77 143.24C146.423 143.24 145.223 142.933 144.17 142.32C143.13 141.693 142.31 140.84 141.71 139.76C141.123 138.667 140.83 137.413 140.83 136C140.83 134.587 141.123 133.34 141.71 132.26C142.31 131.167 143.13 130.313 144.17 129.7C145.21 129.073 146.403 128.76 147.75 128.76C148.656 128.76 149.51 128.927 150.31 129.26C151.11 129.58 151.816 130.027 152.43 130.6C153.056 131.173 153.536 131.84 153.87 132.6L151.75 133.46C151.51 132.953 151.183 132.507 150.77 132.12C150.37 131.72 149.91 131.413 149.39 131.2C148.87 130.987 148.323 130.88 147.75 130.88C146.87 130.88 146.083 131.1 145.39 131.54C144.71 131.98 144.17 132.587 143.77 133.36C143.383 134.12 143.19 135 143.19 136C143.19 137 143.383 137.887 143.77 138.66C144.17 139.433 144.716 140.04 145.41 140.48C146.116 140.92 146.916 141.14 147.81 141.14C148.396 141.14 148.943 141.027 149.45 140.8C149.97 140.56 150.43 140.233 150.83 139.82C151.243 139.407 151.57 138.927 151.81 138.38L153.93 139.24C153.596 140.027 153.123 140.727 152.51 141.34C151.896 141.94 151.183 142.407 150.37 142.74C149.556 143.073 148.69 143.24 147.77 143.24ZM160.343 143.24C159.343 143.24 158.449 143.02 157.663 142.58C156.889 142.127 156.283 141.507 155.843 140.72C155.403 139.933 155.183 139.027 155.183 138C155.183 136.973 155.396 136.067 155.823 135.28C156.263 134.493 156.869 133.88 157.643 133.44C158.416 132.987 159.303 132.76 160.303 132.76C161.303 132.76 162.189 132.987 162.963 133.44C163.736 133.88 164.336 134.493 164.763 135.28C165.203 136.067 165.423 136.973 165.423 138C165.423 139.027 165.209 139.933 164.783 140.72C164.356 141.507 163.756 142.127 162.983 142.58C162.209 143.02 161.329 143.24 160.343 143.24ZM160.343 141.18C160.889 141.18 161.376 141.047 161.803 140.78C162.229 140.5 162.563 140.127 162.803 139.66C163.043 139.18 163.163 138.627 163.163 138C163.163 137.373 163.036 136.827 162.783 136.36C162.543 135.88 162.209 135.507 161.783 135.24C161.356 134.96 160.863 134.82 160.303 134.82C159.743 134.82 159.249 134.953 158.823 135.22C158.396 135.487 158.063 135.86 157.823 136.34C157.583 136.82 157.463 137.373 157.463 138C157.463 138.627 157.583 139.18 157.823 139.66C158.076 140.127 158.416 140.5 158.843 140.78C159.283 141.047 159.783 141.18 160.343 141.18ZM167.364 143V133H169.464L169.564 134.42C169.884 133.887 170.297 133.48 170.804 133.2C171.324 132.907 171.917 132.76 172.584 132.76C173.384 132.76 174.064 132.92 174.624 133.24C175.197 133.56 175.63 134.06 175.924 134.74C176.23 135.407 176.384 136.28 176.384 137.36V143H174.144V137.88C174.144 137.08 174.05 136.467 173.864 136.04C173.69 135.6 173.437 135.293 173.104 135.12C172.784 134.947 172.404 134.86 171.964 134.86C171.217 134.847 170.637 135.093 170.224 135.6C169.81 136.107 169.604 136.833 169.604 137.78V143H167.364ZM182.633 143.24C181.58 143.24 180.773 142.98 180.213 142.46C179.666 141.927 179.393 141.167 179.393 140.18V134.92H177.733V133H179.393V129.88H181.613V133H184.313V134.92H181.613V139.76C181.613 140.227 181.72 140.58 181.933 140.82C182.16 141.06 182.486 141.18 182.913 141.18C183.046 141.18 183.193 141.153 183.353 141.1C183.513 141.047 183.693 140.947 183.893 140.8L184.713 142.5C184.366 142.74 184.02 142.92 183.673 143.04C183.326 143.173 182.98 143.24 182.633 143.24ZM190.828 143.24C189.854 143.24 188.988 143.02 188.228 142.58C187.481 142.127 186.888 141.507 186.448 140.72C186.021 139.933 185.808 139.027 185.808 138C185.808 136.973 186.028 136.067 186.468 135.28C186.908 134.493 187.508 133.88 188.268 133.44C189.041 132.987 189.921 132.76 190.908 132.76C191.801 132.76 192.608 132.993 193.328 133.46C194.048 133.913 194.614 134.573 195.028 135.44C195.454 136.307 195.668 137.34 195.668 138.54H188.128C188.194 139.38 188.501 140.04 189.048 140.52C189.608 141 190.268 141.24 191.028 141.24C191.641 141.24 192.148 141.107 192.548 140.84C192.948 140.56 193.261 140.2 193.488 139.76L195.468 140.6C195.188 141.133 194.828 141.6 194.388 142C193.961 142.4 193.448 142.707 192.848 142.92C192.261 143.133 191.588 143.24 190.828 143.24ZM188.268 136.82H193.248C193.208 136.34 193.068 135.947 192.828 135.64C192.588 135.32 192.294 135.08 191.948 134.92C191.601 134.76 191.234 134.68 190.848 134.68C190.474 134.68 190.094 134.76 189.708 134.92C189.334 135.067 189.014 135.3 188.748 135.62C188.481 135.94 188.321 136.34 188.268 136.82ZM197.383 143V133H199.483L199.583 134.42C199.903 133.887 200.317 133.48 200.823 133.2C201.343 132.907 201.937 132.76 202.603 132.76C203.403 132.76 204.083 132.92 204.643 133.24C205.217 133.56 205.65 134.06 205.943 134.74C206.25 135.407 206.403 136.28 206.403 137.36V143H204.163V137.88C204.163 137.08 204.07 136.467 203.883 136.04C203.71 135.6 203.457 135.293 203.123 135.12C202.803 134.947 202.423 134.86 201.983 134.86C201.237 134.847 200.657 135.093 200.243 135.6C199.83 136.107 199.623 136.833 199.623 137.78V143H197.383ZM212.652 143.24C211.599 143.24 210.792 142.98 210.232 142.46C209.686 141.927 209.412 141.167 209.412 140.18V134.92H207.752V133H209.412V129.88H211.632V133H214.332V134.92H211.632V139.76C211.632 140.227 211.739 140.58 211.952 140.82C212.179 141.06 212.506 141.18 212.932 141.18C213.066 141.18 213.212 141.153 213.372 141.1C213.532 141.047 213.712 140.947 213.912 140.8L214.732 142.5C214.386 142.74 214.039 142.92 213.692 143.04C213.346 143.173 212.999 143.24 212.652 143.24Z" fill="#38362E"/>
<path d="M34.6667 22.5H85.6667C94.2272 22.5 101.167 29.4396 101.167 38C101.167 46.5604 94.2272 53.5 85.6667 53.5H34.6667C26.1063 53.5 19.1667 46.5604 19.1667 38C19.1667 29.4396 26.1063 22.5 34.6667 22.5Z" fill="#EFFCF3"/>
<path d="M34.6667 22.5H85.6667C94.2272 22.5 101.167 29.4396 101.167 38C101.167 46.5604 94.2272 53.5 85.6667 53.5H34.6667C26.1063 53.5 19.1667 46.5604 19.1667 38C19.1667 29.4396 26.1063 22.5 34.6667 22.5Z" stroke="#6FCA8F"/>
<path d="M43.0417 35.12H36.2917C35.9811 35.12 35.7292 35.3718 35.7292 35.6825C35.7292 35.9932 35.9811 36.245 36.2917 36.245H43.0417C43.3524 36.245 43.6042 35.9932 43.6042 35.6825C43.6042 35.3718 43.3524 35.12 43.0417 35.12Z" fill="#53AF70"/>
<path fill-rule="evenodd" clip-rule="evenodd" d="M43.3342 31.6775H43.4167C45.4878 31.6775 47.1667 33.3564 47.1667 35.4275V42.1775C47.1667 44.2486 45.4878 45.9275 43.4167 45.9275H35.9167C34.9222 45.9275 33.9684 45.5324 33.2651 44.8292C32.5618 44.1259 32.1667 43.1721 32.1667 42.1775V35.4275C32.1667 33.3564 33.8457 31.6775 35.9167 31.6775H35.9842V30.3125C35.9842 30.0018 36.2361 29.75 36.5467 29.75C36.8574 29.75 37.1092 30.0018 37.1092 30.3125V31.6775H42.2092V30.3125C42.2092 30.0018 42.4611 29.75 42.7717 29.75C43.0824 29.75 43.3342 30.0018 43.3342 30.3125V31.6775ZM43.4167 44.8025C44.8665 44.8025 46.0417 43.6272 46.0417 42.1775V35.4275C46.0417 33.9778 44.8665 32.8025 43.4167 32.8025H35.9167C34.467 32.8025 33.2917 33.9778 33.2917 35.4275V42.1775C33.2917 43.6272 34.467 44.8025 35.9167 44.8025H43.4167Z" fill="#53AF70"/>
<path d="M57.6607 43V33.2H60.8247C61.9634 33.2 62.9014 33.4007 63.6387 33.802C64.3854 34.2033 64.9361 34.7727 65.2907 35.51C65.6547 36.238 65.8367 37.106 65.8367 38.114C65.8367 39.1033 65.6547 39.9667 65.2907 40.704C64.9361 41.432 64.3854 41.9967 63.6387 42.398C62.9014 42.7993 61.9634 43 60.8247 43H57.6607ZM59.3407 41.572H60.7407C61.5901 41.572 62.2574 41.4367 62.7427 41.166C63.2374 40.886 63.5874 40.4893 63.7927 39.976C64.0074 39.4533 64.1147 38.8327 64.1147 38.114C64.1147 37.386 64.0074 36.7653 63.7927 36.252C63.5874 35.7293 63.2374 35.328 62.7427 35.048C62.2574 34.7587 61.5901 34.614 60.7407 34.614H59.3407V41.572ZM69.6332 43.168C69.0545 43.168 68.5738 43.07 68.1912 42.874C67.8085 42.678 67.5238 42.4167 67.3372 42.09C67.1505 41.7633 67.0572 41.4087 67.0572 41.026C67.0572 40.578 67.1692 40.1907 67.3932 39.864C67.6265 39.5373 67.9672 39.2853 68.4152 39.108C68.8632 38.9213 69.4138 38.828 70.0672 38.828H71.8452C71.8452 38.4547 71.7938 38.1467 71.6912 37.904C71.5885 37.652 71.4298 37.4653 71.2152 37.344C71.0005 37.2227 70.7252 37.162 70.3892 37.162C70.0065 37.162 69.6798 37.2507 69.4092 37.428C69.1385 37.596 68.9705 37.8573 68.9052 38.212H67.2532C67.3092 37.708 67.4772 37.2787 67.7572 36.924C68.0372 36.56 68.4058 36.28 68.8632 36.084C69.3298 35.8787 69.8385 35.776 70.3892 35.776C71.0518 35.776 71.6165 35.8927 72.0832 36.126C72.5498 36.35 72.9045 36.6767 73.1472 37.106C73.3992 37.526 73.5252 38.0347 73.5252 38.632V43H72.0972L71.9292 41.866C71.8358 42.0527 71.7145 42.2253 71.5652 42.384C71.4252 42.5427 71.2618 42.6827 71.0752 42.804C70.8885 42.916 70.6738 43.0047 70.4312 43.07C70.1978 43.1353 69.9318 43.168 69.6332 43.168ZM70.0112 41.838C70.2818 41.838 70.5198 41.7913 70.7252 41.698C70.9398 41.5953 71.1218 41.4553 71.2712 41.278C71.4298 41.0913 71.5512 40.886 71.6352 40.662C71.7192 40.438 71.7752 40.2 71.8032 39.948V39.92H70.2492C69.9225 39.92 69.6518 39.962 69.4372 40.046C69.2225 40.1207 69.0685 40.2327 68.9752 40.382C68.8818 40.5313 68.8352 40.704 68.8352 40.9C68.8352 41.096 68.8818 41.264 68.9752 41.404C69.0685 41.544 69.2038 41.6513 69.3812 41.726C69.5585 41.8007 69.7685 41.838 70.0112 41.838ZM75.2502 43V35.944H76.9302V43H75.2502ZM76.0902 34.824C75.7822 34.824 75.5255 34.7307 75.3202 34.544C75.1242 34.348 75.0262 34.11 75.0262 33.83C75.0262 33.5407 75.1242 33.3073 75.3202 33.13C75.5255 32.9433 75.7822 32.85 76.0902 32.85C76.3982 32.85 76.6502 32.9433 76.8462 33.13C77.0515 33.3073 77.1542 33.5407 77.1542 33.83C77.1542 34.11 77.0515 34.348 76.8462 34.544C76.6502 34.7307 76.3982 34.824 76.0902 34.824ZM78.7316 43V32.92H80.4116V43H78.7316ZM83.0003 46.08L84.7223 42.216H84.3023L81.4883 35.944H83.3223L85.4223 40.732L87.4103 35.944H89.1883L84.7783 46.08H83.0003Z" fill="#33744B"/>
<path d="M129.667 22.5H196.667C205.227 22.5 212.167 29.4396 212.167 38C212.167 46.5604 205.227 53.5 196.667 53.5H129.667C121.106 53.5 114.167 46.5604 114.167 38C114.167 29.4396 121.106 22.5 129.667 22.5Z" fill="#EFFCF3"/>
<path d="M129.667 22.5H196.667C205.227 22.5 212.167 29.4396 212.167 38C212.167 46.5604 205.227 53.5 196.667 53.5H129.667C121.106 53.5 114.167 46.5604 114.167 38C114.167 29.4396 121.106 22.5 129.667 22.5Z" stroke="#6FCA8F"/>
<path d="M138.042 35.12H131.292C130.981 35.12 130.729 35.3718 130.729 35.6825C130.729 35.9932 130.981 36.245 131.292 36.245H138.042C138.352 36.245 138.604 35.9932 138.604 35.6825C138.604 35.3718 138.352 35.12 138.042 35.12Z" fill="#53AF70"/>
<path fill-rule="evenodd" clip-rule="evenodd" d="M138.334 31.6775H138.417C140.488 31.6775 142.167 33.3564 142.167 35.4275V42.1775C142.167 44.2486 140.488 45.9275 138.417 45.9275H130.917C129.922 45.9275 128.968 45.5324 128.265 44.8292C127.562 44.1259 127.167 43.1721 127.167 42.1775V35.4275C127.167 33.3564 128.846 31.6775 130.917 31.6775H130.984V30.3125C130.984 30.0018 131.236 29.75 131.547 29.75C131.857 29.75 132.109 30.0018 132.109 30.3125V31.6775H137.209V30.3125C137.209 30.0018 137.461 29.75 137.772 29.75C138.082 29.75 138.334 30.0018 138.334 30.3125V31.6775ZM138.417 44.8025C139.866 44.8025 141.042 43.6272 141.042 42.1775V35.4275C141.042 33.9778 139.866 32.8025 138.417 32.8025H130.917C129.467 32.8025 128.292 33.9778 128.292 35.4275V42.1775C128.292 43.6272 129.467 44.8025 130.917 44.8025H138.417Z" fill="#53AF70"/>
<path d="M154.635 43L152.031 33.2H153.823L155.657 41.082L157.785 33.2H159.647L161.705 41.096L163.553 33.2H165.359L162.685 43H160.697L158.681 35.58L156.609 43H154.635ZM169.071 43.168C168.371 43.168 167.755 43.0187 167.223 42.72C166.691 42.412 166.276 41.9827 165.977 41.432C165.679 40.8813 165.529 40.2467 165.529 39.528C165.529 38.7813 165.674 38.128 165.963 37.568C166.262 37.008 166.677 36.5693 167.209 36.252C167.751 35.9347 168.376 35.776 169.085 35.776C169.776 35.776 170.378 35.93 170.891 36.238C171.405 36.546 171.801 36.9613 172.081 37.484C172.361 37.9973 172.501 38.576 172.501 39.22C172.501 39.3133 172.501 39.416 172.501 39.528C172.501 39.64 172.492 39.7567 172.473 39.878H166.733V38.8H170.807C170.789 38.2867 170.616 37.8853 170.289 37.596C169.963 37.2973 169.557 37.148 169.071 37.148C168.726 37.148 168.409 37.2273 168.119 37.386C167.83 37.5447 167.601 37.7827 167.433 38.1C167.265 38.408 167.181 38.8 167.181 39.276V39.682C167.181 40.1207 167.261 40.4987 167.419 40.816C167.587 41.1333 167.811 41.376 168.091 41.544C168.381 41.7027 168.703 41.782 169.057 41.782C169.449 41.782 169.771 41.698 170.023 41.53C170.285 41.362 170.476 41.138 170.597 40.858H172.305C172.175 41.2967 171.96 41.6933 171.661 42.048C171.363 42.3933 170.994 42.6687 170.555 42.874C170.117 43.07 169.622 43.168 169.071 43.168ZM177.217 43.168C176.517 43.168 175.901 43.0187 175.369 42.72C174.837 42.412 174.421 41.9827 174.123 41.432C173.824 40.8813 173.675 40.2467 173.675 39.528C173.675 38.7813 173.819 38.128 174.109 37.568C174.407 37.008 174.823 36.5693 175.355 36.252C175.896 35.9347 176.521 35.776 177.231 35.776C177.921 35.776 178.523 35.93 179.037 36.238C179.55 36.546 179.947 36.9613 180.227 37.484C180.507 37.9973 180.647 38.576 180.647 39.22C180.647 39.3133 180.647 39.416 180.647 39.528C180.647 39.64 180.637 39.7567 180.619 39.878H174.879V38.8H178.953C178.934 38.2867 178.761 37.8853 178.435 37.596C178.108 37.2973 177.702 37.148 177.217 37.148C176.871 37.148 176.554 37.2273 176.265 37.386C175.975 37.5447 175.747 37.7827 175.579 38.1C175.411 38.408 175.327 38.8 175.327 39.276V39.682C175.327 40.1207 175.406 40.4987 175.565 40.816C175.733 41.1333 175.957 41.376 176.237 41.544C176.526 41.7027 176.848 41.782 177.203 41.782C177.595 41.782 177.917 41.698 178.169 41.53C178.43 41.362 178.621 41.138 178.743 40.858H180.451C180.32 41.2967 180.105 41.6933 179.807 42.048C179.508 42.3933 179.139 42.6687 178.701 42.874C178.262 43.07 177.767 43.168 177.217 43.168ZM186.608 43L183.486 39.136L186.286 35.944H188.288L184.802 39.822V38.52L188.708 43H186.608ZM182.058 43V32.92H183.738V43H182.058ZM189.697 43V32.92H191.377V43H189.697ZM193.966 46.08L195.688 42.216H195.268L192.454 35.944H194.288L196.388 40.732L198.376 35.944H200.154L195.744 46.08H193.966Z" fill="#33744B"/>
<path d="M240.667 22.5H313.667C322.227 22.5 329.167 29.4396 329.167 38C329.167 46.5604 322.227 53.5 313.667 53.5H240.667C232.106 53.5 225.167 46.5604 225.167 38C225.167 29.4396 232.106 22.5 240.667 22.5Z" fill="#EFFCF3"/>
<path d="M240.667 22.5H313.667C322.227 22.5 329.167 29.4396 329.167 38C329.167 46.5604 322.227 53.5 313.667 53.5H240.667C232.106 53.5 225.167 46.5604 225.167 38C225.167 29.4396 232.106 22.5 240.667 22.5Z" stroke="#6FCA8F"/>
<path d="M249.042 35.12H242.292C241.981 35.12 241.729 35.3718 241.729 35.6825C241.729 35.9932 241.981 36.245 242.292 36.245H249.042C249.352 36.245 249.604 35.9932 249.604 35.6825C249.604 35.3718 249.352 35.12 249.042 35.12Z" fill="#53AF70"/>
<path fill-rule="evenodd" clip-rule="evenodd" d="M249.334 31.6775H249.417C251.488 31.6775 253.167 33.3564 253.167 35.4275V42.1775C253.167 44.2486 251.488 45.9275 249.417 45.9275H241.917C240.922 45.9275 239.968 45.5324 239.265 44.8292C238.562 44.1259 238.167 43.1721 238.167 42.1775V35.4275C238.167 33.3564 239.846 31.6775 241.917 31.6775H241.984V30.3125C241.984 30.0018 242.236 29.75 242.547 29.75C242.857 29.75 243.109 30.0018 243.109 30.3125V31.6775H248.209V30.3125C248.209 30.0018 248.461 29.75 248.772 29.75C249.082 29.75 249.334 30.0018 249.334 30.3125V31.6775ZM249.417 44.8025C250.866 44.8025 252.042 43.6272 252.042 42.1775V35.4275C252.042 33.9778 250.866 32.8025 249.417 32.8025H241.917C240.467 32.8025 239.292 33.9778 239.292 35.4275V42.1775C239.292 43.6272 240.467 44.8025 241.917 44.8025H249.417Z" fill="#53AF70"/>
<path d="M263.661 43V33.2H265.649L268.785 39.528L271.893 33.2H273.895V43H272.215V36.084L269.443 41.628H268.127L265.341 36.098V43H263.661ZM278.977 43.168C278.305 43.168 277.699 43.014 277.157 42.706C276.625 42.3887 276.205 41.9547 275.897 41.404C275.599 40.844 275.449 40.2047 275.449 39.486C275.449 38.7487 275.603 38.1047 275.911 37.554C276.219 36.994 276.639 36.56 277.171 36.252C277.713 35.9347 278.319 35.776 278.991 35.776C279.663 35.776 280.265 35.9347 280.797 36.252C281.339 36.56 281.759 36.9893 282.057 37.54C282.365 38.0907 282.519 38.7347 282.519 39.472C282.519 40.2093 282.365 40.8533 282.057 41.404C281.749 41.9547 281.325 42.3887 280.783 42.706C280.251 43.014 279.649 43.168 278.977 43.168ZM278.977 41.726C279.313 41.726 279.617 41.642 279.887 41.474C280.167 41.306 280.391 41.054 280.559 40.718C280.727 40.382 280.811 39.9667 280.811 39.472C280.811 38.9773 280.727 38.5667 280.559 38.24C280.401 37.904 280.181 37.652 279.901 37.484C279.631 37.316 279.327 37.232 278.991 37.232C278.665 37.232 278.361 37.316 278.081 37.484C277.801 37.652 277.577 37.904 277.409 38.24C277.241 38.5667 277.157 38.9773 277.157 39.472C277.157 39.9667 277.241 40.382 277.409 40.718C277.577 41.054 277.797 41.306 278.067 41.474C278.347 41.642 278.651 41.726 278.977 41.726ZM284.024 43V35.944H285.508L285.634 37.12C285.849 36.7093 286.157 36.3827 286.558 36.14C286.959 35.8973 287.435 35.776 287.986 35.776C288.555 35.776 289.041 35.8973 289.442 36.14C289.843 36.3733 290.151 36.7187 290.366 37.176C290.59 37.6333 290.702 38.2027 290.702 38.884V43H289.022V39.038C289.022 38.45 288.891 37.9973 288.63 37.68C288.369 37.3627 287.981 37.204 287.468 37.204C287.132 37.204 286.829 37.2833 286.558 37.442C286.297 37.6007 286.087 37.834 285.928 38.142C285.779 38.4407 285.704 38.8047 285.704 39.234V43H284.024ZM295.399 43C294.923 43 294.508 42.9253 294.153 42.776C293.808 42.6267 293.537 42.3793 293.341 42.034C293.145 41.6887 293.047 41.222 293.047 40.634V37.358H291.843V35.944H293.047L293.243 34.082H294.727V35.944H296.645V37.358H294.727V40.634C294.727 40.9887 294.802 41.236 294.951 41.376C295.11 41.5067 295.371 41.572 295.735 41.572H296.603V43H295.399ZM298.086 43V32.92H299.766V37.036C299.999 36.6533 300.316 36.35 300.718 36.126C301.119 35.8927 301.572 35.776 302.076 35.776C302.654 35.776 303.144 35.8973 303.546 36.14C303.947 36.3733 304.25 36.7233 304.456 37.19C304.67 37.6473 304.778 38.2213 304.778 38.912V43H303.112V39.066C303.112 38.4593 302.981 37.9973 302.72 37.68C302.468 37.3627 302.08 37.204 301.558 37.204C301.222 37.204 300.918 37.288 300.648 37.456C300.377 37.6147 300.162 37.848 300.004 38.156C299.845 38.4547 299.766 38.8233 299.766 39.262V43H298.086ZM306.422 43V32.92H308.102V43H306.422ZM310.691 46.08L312.413 42.216H311.993L309.179 35.944H311.013L313.113 40.732L315.101 35.944H316.879L312.469 46.08H310.691Z" fill="#33744B"/>
<path d="M57.1667 53.9997C57.1667 87.999 173.167 53.999 173.167 87.999M173.167 87.999V53.999M173.167 87.999C173.167 53.999 289.167 86.5 289.167 53.9997" stroke="#6FCA8F"/>
</svg>
