<svg width="348" height="195" viewBox="0 0 348 195" fill="none" xmlns="http://www.w3.org/2000/svg">
<path d="M102.556 62.3965V42.0269H106.862V58.8457H115.595V62.3965H102.556ZM128.164 55.8917V47.1193H132.401V62.3965H128.333V59.6215H128.174C127.83 60.5167 127.256 61.2361 126.454 61.7798C125.658 62.3235 124.687 62.5954 123.539 62.5954C122.518 62.5954 121.62 62.3633 120.844 61.8992C120.068 61.435 119.462 60.7753 119.024 59.9199C118.593 59.0645 118.374 58.0401 118.367 56.8466V47.1193H122.605V56.0907C122.611 56.9924 122.853 57.7052 123.331 58.2291C123.808 58.7529 124.448 59.0148 125.25 59.0148C125.761 59.0148 126.238 58.8988 126.682 58.6667C127.127 58.428 127.485 58.0766 127.757 57.6124C128.035 57.1483 128.171 56.5747 128.164 55.8917ZM135.711 62.3965V59.8702L143.19 50.6104V50.501H135.97V47.1193H148.293V49.8744L141.271 58.9054V59.0148H148.551V62.3965H135.711ZM158.256 62.6949C156.711 62.6949 155.375 62.3666 154.248 61.7102C153.127 61.0471 152.262 60.1255 151.652 58.9452C151.042 57.7583 150.737 56.3824 150.737 54.8176C150.737 53.2395 151.042 51.8603 151.652 50.68C152.262 49.4931 153.127 48.5714 154.248 47.915C155.375 47.2519 156.711 46.9204 158.256 46.9204C159.801 46.9204 161.134 47.2519 162.255 47.915C163.382 48.5714 164.25 49.4931 164.86 50.68C165.47 51.8603 165.775 53.2395 165.775 54.8176C165.775 56.3824 165.47 57.7583 164.86 58.9452C164.25 60.1255 163.382 61.0471 162.255 61.7102C161.134 62.3666 159.801 62.6949 158.256 62.6949ZM158.276 59.4127C158.979 59.4127 159.566 59.2137 160.037 58.8159C160.507 58.4114 160.862 57.8611 161.101 57.1648C161.346 56.4686 161.469 55.6762 161.469 54.7877C161.469 53.8992 161.346 53.1068 161.101 52.4106C160.862 51.7144 160.507 51.164 160.037 50.7596C159.566 50.3551 158.979 50.1529 158.276 50.1529C157.567 50.1529 156.97 50.3551 156.486 50.7596C156.008 51.164 155.647 51.7144 155.402 52.4106C155.163 53.1068 155.044 53.8992 155.044 54.7877C155.044 55.6762 155.163 56.4686 155.402 57.1648C155.647 57.8611 156.008 58.4114 156.486 58.8159C156.97 59.2137 157.567 59.4127 158.276 59.4127ZM168.531 62.3965V47.1193H172.638V49.7848H172.797C173.076 48.8367 173.543 48.1205 174.2 47.6365C174.856 47.1458 175.612 46.9005 176.468 46.9005C176.68 46.9005 176.908 46.9137 177.154 46.9403C177.399 46.9668 177.615 47.0033 177.8 47.0497V50.8093C177.601 50.7496 177.326 50.6966 176.975 50.6502C176.623 50.6037 176.302 50.5805 176.01 50.5805C175.387 50.5805 174.83 50.7165 174.339 50.9883C173.855 51.2536 173.47 51.6249 173.185 52.1023C172.907 52.5797 172.768 53.13 172.768 53.7533V62.3965H168.531ZM183.91 62.6849C182.935 62.6849 182.066 62.5158 181.304 62.1777C180.541 61.8329 179.938 61.3256 179.494 60.6559C179.056 59.9796 178.837 59.1375 178.837 58.1296C178.837 57.2809 178.993 56.5681 179.305 55.9912C179.616 55.4143 180.041 54.9502 180.578 54.5988C181.115 54.2473 181.725 53.9821 182.408 53.8031C183.097 53.624 183.82 53.4981 184.576 53.4251C185.465 53.3323 186.181 53.2461 186.724 53.1665C187.268 53.0803 187.663 52.9543 187.908 52.7886C188.153 52.6228 188.276 52.3775 188.276 52.0526V51.9929C188.276 51.363 188.077 50.8756 187.679 50.5308C187.288 50.186 186.731 50.0136 186.008 50.0136C185.246 50.0136 184.639 50.1827 184.188 50.5209C183.737 50.8524 183.439 51.2701 183.293 51.7741L179.374 51.4558C179.573 50.5275 179.964 49.7252 180.548 49.0488C181.131 48.3659 181.884 47.842 182.806 47.4774C183.734 47.106 184.808 46.9204 186.028 46.9204C186.877 46.9204 187.689 47.0198 188.465 47.2188C189.247 47.4177 189.94 47.726 190.544 48.1437C191.154 48.5615 191.634 49.0986 191.986 49.755C192.337 50.4048 192.513 51.1839 192.513 52.0923V62.3965H188.495V60.278H188.375C188.13 60.7554 187.802 61.1764 187.391 61.5411C186.98 61.8992 186.486 62.181 185.909 62.3865C185.332 62.5855 184.666 62.6849 183.91 62.6849ZM185.123 59.7608C185.746 59.7608 186.297 59.6381 186.774 59.3928C187.252 59.1408 187.626 58.8026 187.898 58.3783C188.17 57.9539 188.306 57.4732 188.306 56.9361V55.3149C188.173 55.4011 187.991 55.4806 187.759 55.5536C187.533 55.6199 187.278 55.6829 186.993 55.7426C186.708 55.7956 186.423 55.8453 186.138 55.8917C185.853 55.9315 185.594 55.968 185.362 56.0012C184.865 56.0741 184.43 56.1901 184.059 56.3493C183.688 56.5084 183.399 56.7239 183.194 56.9958C182.988 57.261 182.885 57.5925 182.885 57.9904C182.885 58.5672 183.094 59.0082 183.512 59.3132C183.936 59.6116 184.473 59.7608 185.123 59.7608Z" fill="black"/>
<rect x="30.7648" y="25.6445" width="52.5153" height="52.5153" rx="17.5051" fill="#FFD52B"/>
<path fill-rule="evenodd" clip-rule="evenodd" d="M51.4071 31.8367C54.8819 29.8305 59.1631 29.8305 62.638 31.8367L71.592 37.0063C75.0668 39.0125 77.2074 42.7201 77.2074 46.7325V57.0717C77.2074 61.0841 75.0668 64.7917 71.592 66.798L62.638 71.9675C59.1631 73.9737 54.8819 73.9737 51.4071 71.9675L42.4531 66.798C38.9783 64.7917 36.8376 61.0841 36.8376 57.0717V46.7325C36.8376 42.7201 38.9783 39.0125 42.4531 37.0063L51.4071 31.8367ZM60.5485 35.4558C58.3666 34.1961 55.6784 34.1961 53.4965 35.4558L44.5426 40.6253C42.3607 41.885 41.0166 44.2131 41.0166 46.7325V57.0717C41.0166 59.5911 42.3607 61.9192 44.5426 63.1789L53.4965 68.3484C55.6784 69.6082 58.3666 69.6082 60.5485 68.3484L69.5025 63.1789C71.6844 61.9192 73.0285 59.5911 73.0285 57.0717V46.7325C73.0285 44.2131 71.6844 41.885 69.5025 40.6253L60.5485 35.4558Z" fill="black"/>
<path d="M64.2608 62.3491L59.1121 65.3217C57.8191 66.0682 56.2261 66.0682 54.9331 65.3217L49.7844 62.3491H64.2608Z" fill="black"/>
<path d="M44.586 58.1701C44.4357 57.7365 44.3558 57.275 44.3558 56.8022V53.9912H69.6894V56.8022C69.6894 57.275 69.6095 57.7365 69.4592 58.1701H44.586Z" fill="black"/>
<path d="M44.3558 49.8122V47.0013C44.3558 46.5284 44.4357 46.0669 44.586 45.6333H69.4592C69.6095 46.0669 69.6894 46.5284 69.6894 47.0013V49.8122H44.3558Z" fill="black"/>
<path d="M64.2608 41.4543H49.7844L54.9331 38.4817C56.2261 37.7353 57.8191 37.7353 59.1121 38.4817L64.2608 41.4543Z" fill="black"/>
<rect x="30.7648" y="101.791" width="70.0204" height="22.7566" rx="7.00205" fill="#E7E7E7"/>
<rect x="30.7648" y="101.791" width="70.0204" height="22.7566" rx="7.00205" fill="#E7E7E7"/>
<rect x="30.7648" y="143.804" width="98.9039" height="35.0102" rx="7.00205" fill="#E7E7E7"/>
<rect x="140.172" y="143.804" width="98.9039" height="35.0102" rx="7.00205" fill="#E7E7E7"/>
<rect x="249.579" y="150.806" width="98.9039" height="21.0061" rx="7.00205" fill="#E7E7E7"/>
<rect x="113.914" y="101.791" width="26.2577" height="22.7566" rx="7.00205" fill="#E7E7E7"/>
<rect x="148.049" y="101.791" width="26.2577" height="22.7566" rx="7.00205" fill="#E7E7E7"/>
<rect x="148.049" y="101.791" width="26.2577" height="22.7566" rx="7.00205" fill="#BDBDBD"/>
<rect x="260.957" y="101.791" width="26.2577" height="22.7566" rx="7.00205" fill="#BDBDBD"/>
<rect x="182.184" y="101.791" width="70.8957" height="22.7566" rx="7.00205" fill="#E7E7E7"/>
<rect x="295.092" y="101.791" width="70.8957" height="22.7566" rx="7.00205" fill="#E7E7E7"/>
<path d="M203.445 73.5488C203.665 73.5006 203.894 73.5154 204.104 73.5928L234.733 85.374C234.891 85.438 235.033 85.5357 235.149 85.6592L235.258 85.792C235.388 85.9797 235.462 86.2019 235.469 86.4307C235.475 86.6594 235.415 86.8851 235.296 87.0801C235.176 87.2754 235 87.4314 234.793 87.5293L222.406 93.1621L222.235 93.2393L222.158 93.4102L216.524 105.803C216.429 106.012 216.275 106.189 216.08 106.311C215.885 106.432 215.657 106.493 215.428 106.486C215.198 106.48 214.976 106.405 214.788 106.272C214.6 106.14 214.456 105.954 214.374 105.739L202.592 75.1055C202.514 74.8944 202.498 74.6658 202.547 74.4463C202.595 74.2267 202.706 74.0252 202.865 73.8662C203.024 73.7074 203.226 73.5971 203.445 73.5488Z" fill="white" stroke="#C2C2C2"/>
</svg>
