<svg width="624" height="234" viewBox="0 0 624 234" fill="none" xmlns="http://www.w3.org/2000/svg">
<mask id="mask0_4140_5823" style="mask-type:alpha" maskUnits="userSpaceOnUse" x="65" y="44" width="495" height="145">
<ellipse cx="312.5" cy="116.5" rx="247.5" ry="72.5" fill="#D9D9D9"/>
</mask>
<g mask="url(#mask0_4140_5823)">
<g opacity="0.4">
<path d="M71.0204 21.5656C71.6266 21.2156 72.3734 21.2156 72.9796 21.5656L81.4127 26.4344C82.0189 26.7844 82.3923 27.4312 82.3923 28.1311V37.8689C82.3923 38.5688 82.0189 39.2156 81.4127 39.5656L72.9796 44.4344C72.3734 44.7844 71.6266 44.7844 71.0204 44.4344L62.5873 39.5656C61.9811 39.2156 61.6077 38.5688 61.6077 37.8689V28.1311C61.6077 27.4312 61.9811 26.7844 62.5873 26.4344L71.0204 21.5656Z" fill="#FFD52B"/>
<path d="M95.0204 21.5656C95.6266 21.2156 96.3734 21.2156 96.9796 21.5656L105.413 26.4344C106.019 26.7844 106.392 27.4312 106.392 28.1311V37.8689C106.392 38.5688 106.019 39.2156 105.413 39.5656L96.9796 44.4344C96.3734 44.7844 95.6266 44.7844 95.0204 44.4344L86.5873 39.5656C85.9811 39.2156 85.6077 38.5688 85.6077 37.8689V28.1311C85.6077 27.4312 85.9811 26.7844 86.5873 26.4344L95.0204 21.5656Z" fill="#FFD52B"/>
<path d="M119.02 21.5656C119.627 21.2156 120.373 21.2156 120.98 21.5656L129.413 26.4344C130.019 26.7844 130.392 27.4312 130.392 28.1311V37.8689C130.392 38.5688 130.019 39.2156 129.413 39.5656L120.98 44.4344C120.373 44.7844 119.627 44.7844 119.02 44.4344L110.587 39.5656C109.981 39.2156 109.608 38.5688 109.608 37.8689V28.1311C109.608 27.4312 109.981 26.7844 110.587 26.4344L119.02 21.5656Z" fill="#FFD52B"/>
<path d="M143.02 21.5656C143.627 21.2156 144.373 21.2156 144.98 21.5656L153.413 26.4344C154.019 26.7844 154.392 27.4312 154.392 28.1311V37.8689C154.392 38.5688 154.019 39.2156 153.413 39.5656L144.98 44.4344C144.373 44.7844 143.627 44.7844 143.02 44.4344L134.587 39.5656C133.981 39.2156 133.608 38.5688 133.608 37.8689V28.1311C133.608 27.4312 133.981 26.7844 134.587 26.4344L143.02 21.5656Z" fill="#FFD52B"/>
<path d="M167.02 21.5656C167.627 21.2156 168.373 21.2156 168.98 21.5656L177.413 26.4344C178.019 26.7844 178.392 27.4312 178.392 28.1311V37.8689C178.392 38.5688 178.019 39.2156 177.413 39.5656L168.98 44.4344C168.373 44.7844 167.627 44.7844 167.02 44.4344L158.587 39.5656C157.981 39.2156 157.608 38.5688 157.608 37.8689V28.1311C157.608 27.4312 157.981 26.7844 158.587 26.4344L167.02 21.5656Z" fill="#FFD52B"/>
<path d="M191.02 21.5656C191.627 21.2156 192.373 21.2156 192.98 21.5656L201.413 26.4344C202.019 26.7844 202.392 27.4312 202.392 28.1311V37.8689C202.392 38.5688 202.019 39.2156 201.413 39.5656L192.98 44.4344C192.373 44.7844 191.627 44.7844 191.02 44.4344L182.587 39.5656C181.981 39.2156 181.608 38.5688 181.608 37.8689V28.1311C181.608 27.4312 181.981 26.7844 182.587 26.4344L191.02 21.5656Z" fill="#FFD52B"/>
<path d="M215.02 21.5656C215.627 21.2156 216.373 21.2156 216.98 21.5656L225.413 26.4344C226.019 26.7844 226.392 27.4312 226.392 28.1311V37.8689C226.392 38.5688 226.019 39.2156 225.413 39.5656L216.98 44.4344C216.373 44.7844 215.627 44.7844 215.02 44.4344L206.587 39.5656C205.981 39.2156 205.608 38.5688 205.608 37.8689V28.1311C205.608 27.4312 205.981 26.7844 206.587 26.4344L215.02 21.5656Z" fill="#FFD52B"/>
<path d="M239.02 21.5656C239.627 21.2156 240.373 21.2156 240.98 21.5656L249.413 26.4344C250.019 26.7844 250.392 27.4312 250.392 28.1311V37.8689C250.392 38.5688 250.019 39.2156 249.413 39.5656L240.98 44.4344C240.373 44.7844 239.627 44.7844 239.02 44.4344L230.587 39.5656C229.981 39.2156 229.608 38.5688 229.608 37.8689V28.1311C229.608 27.4312 229.981 26.7844 230.587 26.4344L239.02 21.5656Z" fill="#FFD52B"/>
<path d="M263.02 21.5656C263.627 21.2156 264.373 21.2156 264.98 21.5656L273.413 26.4344C274.019 26.7844 274.392 27.4312 274.392 28.1311V37.8689C274.392 38.5688 274.019 39.2156 273.413 39.5656L264.98 44.4344C264.373 44.7844 263.627 44.7844 263.02 44.4344L254.587 39.5656C253.981 39.2156 253.608 38.5688 253.608 37.8689V28.1311C253.608 27.4312 253.981 26.7844 254.587 26.4344L263.02 21.5656Z" fill="#FFD52B"/>
<path d="M287.02 21.5656C287.627 21.2156 288.373 21.2156 288.98 21.5656L297.413 26.4344C298.019 26.7844 298.392 27.4312 298.392 28.1311V37.8689C298.392 38.5688 298.019 39.2156 297.413 39.5656L288.98 44.4344C288.373 44.7844 287.627 44.7844 287.02 44.4344L278.587 39.5656C277.981 39.2156 277.608 38.5688 277.608 37.8689V28.1311C277.608 27.4312 277.981 26.7844 278.587 26.4344L287.02 21.5656Z" fill="#FFD52B"/>
<path d="M311.02 21.5656C311.627 21.2156 312.373 21.2156 312.98 21.5656L321.413 26.4344C322.019 26.7844 322.392 27.4312 322.392 28.1311V37.8689C322.392 38.5688 322.019 39.2156 321.413 39.5656L312.98 44.4344C312.373 44.7844 311.627 44.7844 311.02 44.4344L302.587 39.5656C301.981 39.2156 301.608 38.5688 301.608 37.8689V28.1311C301.608 27.4312 301.981 26.7844 302.587 26.4344L311.02 21.5656Z" fill="#FFD52B"/>
<path d="M335.02 21.5656C335.627 21.2156 336.373 21.2156 336.98 21.5656L345.413 26.4344C346.019 26.7844 346.392 27.4312 346.392 28.1311V37.8689C346.392 38.5688 346.019 39.2156 345.413 39.5656L336.98 44.4344C336.373 44.7844 335.627 44.7844 335.02 44.4344L326.587 39.5656C325.981 39.2156 325.608 38.5688 325.608 37.8689V28.1311C325.608 27.4312 325.981 26.7844 326.587 26.4344L335.02 21.5656Z" fill="#FFD52B"/>
<path d="M359.02 21.5656C359.627 21.2156 360.373 21.2156 360.98 21.5656L369.413 26.4344C370.019 26.7844 370.392 27.4312 370.392 28.1311V37.8689C370.392 38.5688 370.019 39.2156 369.413 39.5656L360.98 44.4344C360.373 44.7844 359.627 44.7844 359.02 44.4344L350.587 39.5656C349.981 39.2156 349.608 38.5688 349.608 37.8689V28.1311C349.608 27.4312 349.981 26.7844 350.587 26.4344L359.02 21.5656Z" fill="#FFD52B"/>
<path d="M383.02 21.5656C383.627 21.2156 384.373 21.2156 384.98 21.5656L393.413 26.4344C394.019 26.7844 394.392 27.4312 394.392 28.1311V37.8689C394.392 38.5688 394.019 39.2156 393.413 39.5656L384.98 44.4344C384.373 44.7844 383.627 44.7844 383.02 44.4344L374.587 39.5656C373.981 39.2156 373.608 38.5688 373.608 37.8689V28.1311C373.608 27.4312 373.981 26.7844 374.587 26.4344L383.02 21.5656Z" fill="#FFD52B"/>
<path d="M407.02 21.5656C407.627 21.2156 408.373 21.2156 408.98 21.5656L417.413 26.4344C418.019 26.7844 418.392 27.4312 418.392 28.1311V37.8689C418.392 38.5688 418.019 39.2156 417.413 39.5656L408.98 44.4344C408.373 44.7844 407.627 44.7844 407.02 44.4344L398.587 39.5656C397.981 39.2156 397.608 38.5688 397.608 37.8689V28.1311C397.608 27.4312 397.981 26.7844 398.587 26.4344L407.02 21.5656Z" fill="#FFD52B"/>
<path d="M431.02 21.5656C431.627 21.2156 432.373 21.2156 432.98 21.5656L441.413 26.4344C442.019 26.7844 442.392 27.4312 442.392 28.1311V37.8689C442.392 38.5688 442.019 39.2156 441.413 39.5656L432.98 44.4344C432.373 44.7844 431.627 44.7844 431.02 44.4344L422.587 39.5656C421.981 39.2156 421.608 38.5688 421.608 37.8689V28.1311C421.608 27.4312 421.981 26.7844 422.587 26.4344L431.02 21.5656Z" fill="#FFD52B"/>
<path d="M455.02 21.5656C455.627 21.2156 456.373 21.2156 456.98 21.5656L465.413 26.4344C466.019 26.7844 466.392 27.4312 466.392 28.1311V37.8689C466.392 38.5688 466.019 39.2156 465.413 39.5656L456.98 44.4344C456.373 44.7844 455.627 44.7844 455.02 44.4344L446.587 39.5656C445.981 39.2156 445.608 38.5688 445.608 37.8689V28.1311C445.608 27.4312 445.981 26.7844 446.587 26.4344L455.02 21.5656Z" fill="#FFD52B"/>
<path d="M479.02 21.5656C479.627 21.2156 480.373 21.2156 480.98 21.5656L489.413 26.4344C490.019 26.7844 490.392 27.4312 490.392 28.1311V37.8689C490.392 38.5688 490.019 39.2156 489.413 39.5656L480.98 44.4344C480.373 44.7844 479.627 44.7844 479.02 44.4344L470.587 39.5656C469.981 39.2156 469.608 38.5688 469.608 37.8689V28.1311C469.608 27.4312 469.981 26.7844 470.587 26.4344L479.02 21.5656Z" fill="#FFD52B"/>
<path d="M503.02 21.5656C503.627 21.2156 504.373 21.2156 504.98 21.5656L513.413 26.4344C514.019 26.7844 514.392 27.4312 514.392 28.1311V37.8689C514.392 38.5688 514.019 39.2156 513.413 39.5656L504.98 44.4344C504.373 44.7844 503.627 44.7844 503.02 44.4344L494.587 39.5656C493.981 39.2156 493.608 38.5688 493.608 37.8689V28.1311C493.608 27.4312 493.981 26.7844 494.587 26.4344L503.02 21.5656Z" fill="#FFD52B"/>
<path d="M527.02 21.5656C527.627 21.2156 528.373 21.2156 528.98 21.5656L537.413 26.4344C538.019 26.7844 538.392 27.4312 538.392 28.1311V37.8689C538.392 38.5688 538.019 39.2156 537.413 39.5656L528.98 44.4344C528.373 44.7844 527.627 44.7844 527.02 44.4344L518.587 39.5656C517.981 39.2156 517.608 38.5688 517.608 37.8689V28.1311C517.608 27.4312 517.981 26.7844 518.587 26.4344L527.02 21.5656Z" fill="#FFD52B"/>
<path d="M551.02 21.5656C551.627 21.2156 552.373 21.2156 552.98 21.5656L561.413 26.4344C562.019 26.7844 562.392 27.4312 562.392 28.1311V37.8689C562.392 38.5688 562.019 39.2156 561.413 39.5656L552.98 44.4344C552.373 44.7844 551.627 44.7844 551.02 44.4344L542.587 39.5656C541.981 39.2156 541.608 38.5688 541.608 37.8689V28.1311C541.608 27.4312 541.981 26.7844 542.587 26.4344L551.02 21.5656Z" fill="#FFD52B"/>
<path d="M59.0204 42.5656C59.6266 42.2156 60.3734 42.2156 60.9796 42.5656L69.4127 47.4344C70.0189 47.7844 70.3923 48.4312 70.3923 49.1311V58.8689C70.3923 59.5688 70.0189 60.2156 69.4127 60.5656L60.9796 65.4344C60.3734 65.7844 59.6266 65.7844 59.0204 65.4344L50.5873 60.5656C49.9811 60.2156 49.6077 59.5688 49.6077 58.8689V49.1311C49.6077 48.4312 49.9811 47.7844 50.5873 47.4344L59.0204 42.5656Z" fill="#FFD52B"/>
<path d="M83.0204 42.5656C83.6266 42.2156 84.3734 42.2156 84.9796 42.5656L93.4127 47.4344C94.0189 47.7844 94.3923 48.4312 94.3923 49.1311V58.8689C94.3923 59.5688 94.0189 60.2156 93.4127 60.5656L84.9796 65.4344C84.3734 65.7844 83.6266 65.7844 83.0204 65.4344L74.5873 60.5656C73.9811 60.2156 73.6077 59.5688 73.6077 58.8689V49.1311C73.6077 48.4312 73.9811 47.7844 74.5873 47.4344L83.0204 42.5656Z" fill="#FFD52B"/>
<path d="M107.02 42.5656C107.627 42.2156 108.373 42.2156 108.98 42.5656L117.413 47.4344C118.019 47.7844 118.392 48.4312 118.392 49.1311V58.8689C118.392 59.5688 118.019 60.2156 117.413 60.5656L108.98 65.4344C108.373 65.7844 107.627 65.7844 107.02 65.4344L98.5873 60.5656C97.9811 60.2156 97.6077 59.5688 97.6077 58.8689V49.1311C97.6077 48.4312 97.9811 47.7844 98.5873 47.4344L107.02 42.5656Z" fill="#FFD52B"/>
<path d="M131.02 42.5656C131.627 42.2156 132.373 42.2156 132.98 42.5656L141.413 47.4344C142.019 47.7844 142.392 48.4312 142.392 49.1311V58.8689C142.392 59.5688 142.019 60.2156 141.413 60.5656L132.98 65.4344C132.373 65.7844 131.627 65.7844 131.02 65.4344L122.587 60.5656C121.981 60.2156 121.608 59.5688 121.608 58.8689V49.1311C121.608 48.4312 121.981 47.7844 122.587 47.4344L131.02 42.5656Z" fill="#FFD52B"/>
<path d="M155.02 42.5656C155.627 42.2156 156.373 42.2156 156.98 42.5656L165.413 47.4344C166.019 47.7844 166.392 48.4312 166.392 49.1311V58.8689C166.392 59.5688 166.019 60.2156 165.413 60.5656L156.98 65.4344C156.373 65.7844 155.627 65.7844 155.02 65.4344L146.587 60.5656C145.981 60.2156 145.608 59.5688 145.608 58.8689V49.1311C145.608 48.4312 145.981 47.7844 146.587 47.4344L155.02 42.5656Z" fill="#FFD52B"/>
<path d="M179.02 42.5656C179.627 42.2156 180.373 42.2156 180.98 42.5656L189.413 47.4344C190.019 47.7844 190.392 48.4312 190.392 49.1311V58.8689C190.392 59.5688 190.019 60.2156 189.413 60.5656L180.98 65.4344C180.373 65.7844 179.627 65.7844 179.02 65.4344L170.587 60.5656C169.981 60.2156 169.608 59.5688 169.608 58.8689V49.1311C169.608 48.4312 169.981 47.7844 170.587 47.4344L179.02 42.5656Z" fill="#FFD52B"/>
<path d="M203.02 42.5656C203.627 42.2156 204.373 42.2156 204.98 42.5656L213.413 47.4344C214.019 47.7844 214.392 48.4312 214.392 49.1311V58.8689C214.392 59.5688 214.019 60.2156 213.413 60.5656L204.98 65.4344C204.373 65.7844 203.627 65.7844 203.02 65.4344L194.587 60.5656C193.981 60.2156 193.608 59.5688 193.608 58.8689V49.1311C193.608 48.4312 193.981 47.7844 194.587 47.4344L203.02 42.5656Z" fill="#FFD52B"/>
<path d="M227.02 42.5656C227.627 42.2156 228.373 42.2156 228.98 42.5656L237.413 47.4344C238.019 47.7844 238.392 48.4312 238.392 49.1311V58.8689C238.392 59.5688 238.019 60.2156 237.413 60.5656L228.98 65.4344C228.373 65.7844 227.627 65.7844 227.02 65.4344L218.587 60.5656C217.981 60.2156 217.608 59.5688 217.608 58.8689V49.1311C217.608 48.4312 217.981 47.7844 218.587 47.4344L227.02 42.5656Z" fill="#FFD52B"/>
<path d="M251.02 42.5656C251.627 42.2156 252.373 42.2156 252.98 42.5656L261.413 47.4344C262.019 47.7844 262.392 48.4312 262.392 49.1311V58.8689C262.392 59.5688 262.019 60.2156 261.413 60.5656L252.98 65.4344C252.373 65.7844 251.627 65.7844 251.02 65.4344L242.587 60.5656C241.981 60.2156 241.608 59.5688 241.608 58.8689V49.1311C241.608 48.4312 241.981 47.7844 242.587 47.4344L251.02 42.5656Z" fill="#FFD52B"/>
<path d="M275.02 42.5656C275.627 42.2156 276.373 42.2156 276.98 42.5656L285.413 47.4344C286.019 47.7844 286.392 48.4312 286.392 49.1311V58.8689C286.392 59.5688 286.019 60.2156 285.413 60.5656L276.98 65.4344C276.373 65.7844 275.627 65.7844 275.02 65.4344L266.587 60.5656C265.981 60.2156 265.608 59.5688 265.608 58.8689V49.1311C265.608 48.4312 265.981 47.7844 266.587 47.4344L275.02 42.5656Z" fill="#FFD52B"/>
<path d="M299.02 42.5656C299.627 42.2156 300.373 42.2156 300.98 42.5656L309.413 47.4344C310.019 47.7844 310.392 48.4312 310.392 49.1311V58.8689C310.392 59.5688 310.019 60.2156 309.413 60.5656L300.98 65.4344C300.373 65.7844 299.627 65.7844 299.02 65.4344L290.587 60.5656C289.981 60.2156 289.608 59.5688 289.608 58.8689V49.1311C289.608 48.4312 289.981 47.7844 290.587 47.4344L299.02 42.5656Z" fill="#FFD52B"/>
<path d="M323.02 42.5656C323.627 42.2156 324.373 42.2156 324.98 42.5656L333.413 47.4344C334.019 47.7844 334.392 48.4312 334.392 49.1311V58.8689C334.392 59.5688 334.019 60.2156 333.413 60.5656L324.98 65.4344C324.373 65.7844 323.627 65.7844 323.02 65.4344L314.587 60.5656C313.981 60.2156 313.608 59.5688 313.608 58.8689V49.1311C313.608 48.4312 313.981 47.7844 314.587 47.4344L323.02 42.5656Z" fill="#FFD52B"/>
<path d="M347.02 42.5656C347.627 42.2156 348.373 42.2156 348.98 42.5656L357.413 47.4344C358.019 47.7844 358.392 48.4312 358.392 49.1311V58.8689C358.392 59.5688 358.019 60.2156 357.413 60.5656L348.98 65.4344C348.373 65.7844 347.627 65.7844 347.02 65.4344L338.587 60.5656C337.981 60.2156 337.608 59.5688 337.608 58.8689V49.1311C337.608 48.4312 337.981 47.7844 338.587 47.4344L347.02 42.5656Z" fill="#FFD52B"/>
<path d="M371.02 42.5656C371.627 42.2156 372.373 42.2156 372.98 42.5656L381.413 47.4344C382.019 47.7844 382.392 48.4312 382.392 49.1311V58.8689C382.392 59.5688 382.019 60.2156 381.413 60.5656L372.98 65.4344C372.373 65.7844 371.627 65.7844 371.02 65.4344L362.587 60.5656C361.981 60.2156 361.608 59.5688 361.608 58.8689V49.1311C361.608 48.4312 361.981 47.7844 362.587 47.4344L371.02 42.5656Z" fill="#FFD52B"/>
<path d="M395.02 42.5656C395.627 42.2156 396.373 42.2156 396.98 42.5656L405.413 47.4344C406.019 47.7844 406.392 48.4312 406.392 49.1311V58.8689C406.392 59.5688 406.019 60.2156 405.413 60.5656L396.98 65.4344C396.373 65.7844 395.627 65.7844 395.02 65.4344L386.587 60.5656C385.981 60.2156 385.608 59.5688 385.608 58.8689V49.1311C385.608 48.4312 385.981 47.7844 386.587 47.4344L395.02 42.5656Z" fill="#FFD52B"/>
<path d="M419.02 42.5656C419.627 42.2156 420.373 42.2156 420.98 42.5656L429.413 47.4344C430.019 47.7844 430.392 48.4312 430.392 49.1311V58.8689C430.392 59.5688 430.019 60.2156 429.413 60.5656L420.98 65.4344C420.373 65.7844 419.627 65.7844 419.02 65.4344L410.587 60.5656C409.981 60.2156 409.608 59.5688 409.608 58.8689V49.1311C409.608 48.4312 409.981 47.7844 410.587 47.4344L419.02 42.5656Z" fill="#FFD52B"/>
<path d="M443.02 42.5656C443.627 42.2156 444.373 42.2156 444.98 42.5656L453.413 47.4344C454.019 47.7844 454.392 48.4312 454.392 49.1311V58.8689C454.392 59.5688 454.019 60.2156 453.413 60.5656L444.98 65.4344C444.373 65.7844 443.627 65.7844 443.02 65.4344L434.587 60.5656C433.981 60.2156 433.608 59.5688 433.608 58.8689V49.1311C433.608 48.4312 433.981 47.7844 434.587 47.4344L443.02 42.5656Z" fill="#FFD52B"/>
<path d="M467.02 42.5656C467.627 42.2156 468.373 42.2156 468.98 42.5656L477.413 47.4344C478.019 47.7844 478.392 48.4312 478.392 49.1311V58.8689C478.392 59.5688 478.019 60.2156 477.413 60.5656L468.98 65.4344C468.373 65.7844 467.627 65.7844 467.02 65.4344L458.587 60.5656C457.981 60.2156 457.608 59.5688 457.608 58.8689V49.1311C457.608 48.4312 457.981 47.7844 458.587 47.4344L467.02 42.5656Z" fill="#FFD52B"/>
<path d="M491.02 42.5656C491.627 42.2156 492.373 42.2156 492.98 42.5656L501.413 47.4344C502.019 47.7844 502.392 48.4312 502.392 49.1311V58.8689C502.392 59.5688 502.019 60.2156 501.413 60.5656L492.98 65.4344C492.373 65.7844 491.627 65.7844 491.02 65.4344L482.587 60.5656C481.981 60.2156 481.608 59.5688 481.608 58.8689V49.1311C481.608 48.4312 481.981 47.7844 482.587 47.4344L491.02 42.5656Z" fill="#FFD52B"/>
<path d="M515.02 42.5656C515.627 42.2156 516.373 42.2156 516.98 42.5656L525.413 47.4344C526.019 47.7844 526.392 48.4312 526.392 49.1311V58.8689C526.392 59.5688 526.019 60.2156 525.413 60.5656L516.98 65.4344C516.373 65.7844 515.627 65.7844 515.02 65.4344L506.587 60.5656C505.981 60.2156 505.608 59.5688 505.608 58.8689V49.1311C505.608 48.4312 505.981 47.7844 506.587 47.4344L515.02 42.5656Z" fill="#FFD52B"/>
<path d="M539.02 42.5656C539.627 42.2156 540.373 42.2156 540.98 42.5656L549.413 47.4344C550.019 47.7844 550.392 48.4312 550.392 49.1311V58.8689C550.392 59.5688 550.019 60.2156 549.413 60.5656L540.98 65.4344C540.373 65.7844 539.627 65.7844 539.02 65.4344L530.587 60.5656C529.981 60.2156 529.608 59.5688 529.608 58.8689V49.1311C529.608 48.4312 529.981 47.7844 530.587 47.4344L539.02 42.5656Z" fill="#FFD52B"/>
<path d="M563.02 42.5656C563.627 42.2156 564.373 42.2156 564.98 42.5656L573.413 47.4344C574.019 47.7844 574.392 48.4312 574.392 49.1311V58.8689C574.392 59.5688 574.019 60.2156 573.413 60.5656L564.98 65.4344C564.373 65.7844 563.627 65.7844 563.02 65.4344L554.587 60.5656C553.981 60.2156 553.608 59.5688 553.608 58.8689V49.1311C553.608 48.4312 553.981 47.7844 554.587 47.4344L563.02 42.5656Z" fill="#FFD52B"/>
<path d="M71.0204 63.5656C71.6266 63.2156 72.3734 63.2156 72.9796 63.5656L81.4127 68.4344C82.0189 68.7844 82.3923 69.4312 82.3923 70.1311V79.8689C82.3923 80.5688 82.0189 81.2156 81.4127 81.5656L72.9796 86.4344C72.3734 86.7844 71.6266 86.7844 71.0204 86.4344L62.5873 81.5656C61.9811 81.2156 61.6077 80.5688 61.6077 79.8689V70.1311C61.6077 69.4312 61.9811 68.7844 62.5873 68.4344L71.0204 63.5656Z" fill="#FFD52B"/>
<path d="M95.0204 63.5656C95.6266 63.2156 96.3734 63.2156 96.9796 63.5656L105.413 68.4344C106.019 68.7844 106.392 69.4312 106.392 70.1311V79.8689C106.392 80.5688 106.019 81.2156 105.413 81.5656L96.9796 86.4344C96.3734 86.7844 95.6266 86.7844 95.0204 86.4344L86.5873 81.5656C85.9811 81.2156 85.6077 80.5688 85.6077 79.8689V70.1311C85.6077 69.4312 85.9811 68.7844 86.5873 68.4344L95.0204 63.5656Z" fill="#FFD52B"/>
<path d="M119.02 63.5656C119.627 63.2156 120.373 63.2156 120.98 63.5656L129.413 68.4344C130.019 68.7844 130.392 69.4312 130.392 70.1311V79.8689C130.392 80.5688 130.019 81.2156 129.413 81.5656L120.98 86.4344C120.373 86.7844 119.627 86.7844 119.02 86.4344L110.587 81.5656C109.981 81.2156 109.608 80.5688 109.608 79.8689V70.1311C109.608 69.4312 109.981 68.7844 110.587 68.4344L119.02 63.5656Z" fill="#FFD52B"/>
<path d="M143.02 63.5656C143.627 63.2156 144.373 63.2156 144.98 63.5656L153.413 68.4344C154.019 68.7844 154.392 69.4312 154.392 70.1311V79.8689C154.392 80.5688 154.019 81.2156 153.413 81.5656L144.98 86.4344C144.373 86.7844 143.627 86.7844 143.02 86.4344L134.587 81.5656C133.981 81.2156 133.608 80.5688 133.608 79.8689V70.1311C133.608 69.4312 133.981 68.7844 134.587 68.4344L143.02 63.5656Z" fill="#FFD52B"/>
<path d="M167.02 63.5656C167.627 63.2156 168.373 63.2156 168.98 63.5656L177.413 68.4344C178.019 68.7844 178.392 69.4312 178.392 70.1311V79.8689C178.392 80.5688 178.019 81.2156 177.413 81.5656L168.98 86.4344C168.373 86.7844 167.627 86.7844 167.02 86.4344L158.587 81.5656C157.981 81.2156 157.608 80.5688 157.608 79.8689V70.1311C157.608 69.4312 157.981 68.7844 158.587 68.4344L167.02 63.5656Z" fill="#FFD52B"/>
<path d="M191.02 63.5656C191.627 63.2156 192.373 63.2156 192.98 63.5656L201.413 68.4344C202.019 68.7844 202.392 69.4312 202.392 70.1311V79.8689C202.392 80.5688 202.019 81.2156 201.413 81.5656L192.98 86.4344C192.373 86.7844 191.627 86.7844 191.02 86.4344L182.587 81.5656C181.981 81.2156 181.608 80.5688 181.608 79.8689V70.1311C181.608 69.4312 181.981 68.7844 182.587 68.4344L191.02 63.5656Z" fill="#FFD52B"/>
<path d="M215.02 63.5656C215.627 63.2156 216.373 63.2156 216.98 63.5656L225.413 68.4344C226.019 68.7844 226.392 69.4312 226.392 70.1311V79.8689C226.392 80.5688 226.019 81.2156 225.413 81.5656L216.98 86.4344C216.373 86.7844 215.627 86.7844 215.02 86.4344L206.587 81.5656C205.981 81.2156 205.608 80.5688 205.608 79.8689V70.1311C205.608 69.4312 205.981 68.7844 206.587 68.4344L215.02 63.5656Z" fill="#FFD52B"/>
<path d="M239.02 63.5656C239.627 63.2156 240.373 63.2156 240.98 63.5656L249.413 68.4344C250.019 68.7844 250.392 69.4312 250.392 70.1311V79.8689C250.392 80.5688 250.019 81.2156 249.413 81.5656L240.98 86.4344C240.373 86.7844 239.627 86.7844 239.02 86.4344L230.587 81.5656C229.981 81.2156 229.608 80.5688 229.608 79.8689V70.1311C229.608 69.4312 229.981 68.7844 230.587 68.4344L239.02 63.5656Z" fill="#FFD52B"/>
<path d="M263.02 63.5656C263.627 63.2156 264.373 63.2156 264.98 63.5656L273.413 68.4344C274.019 68.7844 274.392 69.4312 274.392 70.1311V79.8689C274.392 80.5688 274.019 81.2156 273.413 81.5656L264.98 86.4344C264.373 86.7844 263.627 86.7844 263.02 86.4344L254.587 81.5656C253.981 81.2156 253.608 80.5688 253.608 79.8689V70.1311C253.608 69.4312 253.981 68.7844 254.587 68.4344L263.02 63.5656Z" fill="#FFD52B"/>
<path d="M287.02 63.5656C287.627 63.2156 288.373 63.2156 288.98 63.5656L297.413 68.4344C298.019 68.7844 298.392 69.4312 298.392 70.1311V79.8689C298.392 80.5688 298.019 81.2156 297.413 81.5656L288.98 86.4344C288.373 86.7844 287.627 86.7844 287.02 86.4344L278.587 81.5656C277.981 81.2156 277.608 80.5688 277.608 79.8689V70.1311C277.608 69.4312 277.981 68.7844 278.587 68.4344L287.02 63.5656Z" fill="#FFD52B"/>
<path d="M311.02 63.5656C311.627 63.2156 312.373 63.2156 312.98 63.5656L321.413 68.4344C322.019 68.7844 322.392 69.4312 322.392 70.1311V79.8689C322.392 80.5688 322.019 81.2156 321.413 81.5656L312.98 86.4344C312.373 86.7844 311.627 86.7844 311.02 86.4344L302.587 81.5656C301.981 81.2156 301.608 80.5688 301.608 79.8689V70.1311C301.608 69.4312 301.981 68.7844 302.587 68.4344L311.02 63.5656Z" fill="#FFD52B"/>
<path d="M335.02 63.5656C335.627 63.2156 336.373 63.2156 336.98 63.5656L345.413 68.4344C346.019 68.7844 346.392 69.4312 346.392 70.1311V79.8689C346.392 80.5688 346.019 81.2156 345.413 81.5656L336.98 86.4344C336.373 86.7844 335.627 86.7844 335.02 86.4344L326.587 81.5656C325.981 81.2156 325.608 80.5688 325.608 79.8689V70.1311C325.608 69.4312 325.981 68.7844 326.587 68.4344L335.02 63.5656Z" fill="#FFD52B"/>
<path d="M359.02 63.5656C359.627 63.2156 360.373 63.2156 360.98 63.5656L369.413 68.4344C370.019 68.7844 370.392 69.4312 370.392 70.1311V79.8689C370.392 80.5688 370.019 81.2156 369.413 81.5656L360.98 86.4344C360.373 86.7844 359.627 86.7844 359.02 86.4344L350.587 81.5656C349.981 81.2156 349.608 80.5688 349.608 79.8689V70.1311C349.608 69.4312 349.981 68.7844 350.587 68.4344L359.02 63.5656Z" fill="#FFD52B"/>
<path d="M383.02 63.5656C383.627 63.2156 384.373 63.2156 384.98 63.5656L393.413 68.4344C394.019 68.7844 394.392 69.4312 394.392 70.1311V79.8689C394.392 80.5688 394.019 81.2156 393.413 81.5656L384.98 86.4344C384.373 86.7844 383.627 86.7844 383.02 86.4344L374.587 81.5656C373.981 81.2156 373.608 80.5688 373.608 79.8689V70.1311C373.608 69.4312 373.981 68.7844 374.587 68.4344L383.02 63.5656Z" fill="#FFD52B"/>
<path d="M407.02 63.5656C407.627 63.2156 408.373 63.2156 408.98 63.5656L417.413 68.4344C418.019 68.7844 418.392 69.4312 418.392 70.1311V79.8689C418.392 80.5688 418.019 81.2156 417.413 81.5656L408.98 86.4344C408.373 86.7844 407.627 86.7844 407.02 86.4344L398.587 81.5656C397.981 81.2156 397.608 80.5688 397.608 79.8689V70.1311C397.608 69.4312 397.981 68.7844 398.587 68.4344L407.02 63.5656Z" fill="#FFD52B"/>
<path d="M431.02 63.5656C431.627 63.2156 432.373 63.2156 432.98 63.5656L441.413 68.4344C442.019 68.7844 442.392 69.4312 442.392 70.1311V79.8689C442.392 80.5688 442.019 81.2156 441.413 81.5656L432.98 86.4344C432.373 86.7844 431.627 86.7844 431.02 86.4344L422.587 81.5656C421.981 81.2156 421.608 80.5688 421.608 79.8689V70.1311C421.608 69.4312 421.981 68.7844 422.587 68.4344L431.02 63.5656Z" fill="#FFD52B"/>
<path d="M455.02 63.5656C455.627 63.2156 456.373 63.2156 456.98 63.5656L465.413 68.4344C466.019 68.7844 466.392 69.4312 466.392 70.1311V79.8689C466.392 80.5688 466.019 81.2156 465.413 81.5656L456.98 86.4344C456.373 86.7844 455.627 86.7844 455.02 86.4344L446.587 81.5656C445.981 81.2156 445.608 80.5688 445.608 79.8689V70.1311C445.608 69.4312 445.981 68.7844 446.587 68.4344L455.02 63.5656Z" fill="#FFD52B"/>
<path d="M479.02 63.5656C479.627 63.2156 480.373 63.2156 480.98 63.5656L489.413 68.4344C490.019 68.7844 490.392 69.4312 490.392 70.1311V79.8689C490.392 80.5688 490.019 81.2156 489.413 81.5656L480.98 86.4344C480.373 86.7844 479.627 86.7844 479.02 86.4344L470.587 81.5656C469.981 81.2156 469.608 80.5688 469.608 79.8689V70.1311C469.608 69.4312 469.981 68.7844 470.587 68.4344L479.02 63.5656Z" fill="#FFD52B"/>
<path d="M503.02 63.5656C503.627 63.2156 504.373 63.2156 504.98 63.5656L513.413 68.4344C514.019 68.7844 514.392 69.4312 514.392 70.1311V79.8689C514.392 80.5688 514.019 81.2156 513.413 81.5656L504.98 86.4344C504.373 86.7844 503.627 86.7844 503.02 86.4344L494.587 81.5656C493.981 81.2156 493.608 80.5688 493.608 79.8689V70.1311C493.608 69.4312 493.981 68.7844 494.587 68.4344L503.02 63.5656Z" fill="#FFD52B"/>
<path d="M527.02 63.5656C527.627 63.2156 528.373 63.2156 528.98 63.5656L537.413 68.4344C538.019 68.7844 538.392 69.4312 538.392 70.1311V79.8689C538.392 80.5688 538.019 81.2156 537.413 81.5656L528.98 86.4344C528.373 86.7844 527.627 86.7844 527.02 86.4344L518.587 81.5656C517.981 81.2156 517.608 80.5688 517.608 79.8689V70.1311C517.608 69.4312 517.981 68.7844 518.587 68.4344L527.02 63.5656Z" fill="#FFD52B"/>
<path d="M551.02 63.5656C551.627 63.2156 552.373 63.2156 552.98 63.5656L561.413 68.4344C562.019 68.7844 562.392 69.4312 562.392 70.1311V79.8689C562.392 80.5688 562.019 81.2156 561.413 81.5656L552.98 86.4344C552.373 86.7844 551.627 86.7844 551.02 86.4344L542.587 81.5656C541.981 81.2156 541.608 80.5688 541.608 79.8689V70.1311C541.608 69.4312 541.981 68.7844 542.587 68.4344L551.02 63.5656Z" fill="#FFD52B"/>
<path d="M59.0204 84.5656C59.6266 84.2156 60.3734 84.2156 60.9796 84.5656L69.4127 89.4344C70.0189 89.7844 70.3923 90.4312 70.3923 91.1311V100.869C70.3923 101.569 70.0189 102.216 69.4127 102.566L60.9796 107.434C60.3734 107.784 59.6266 107.784 59.0204 107.434L50.5873 102.566C49.9811 102.216 49.6077 101.569 49.6077 100.869V91.1311C49.6077 90.4312 49.9811 89.7844 50.5873 89.4344L59.0204 84.5656Z" fill="#FFD52B"/>
<path d="M83.0204 84.5656C83.6266 84.2156 84.3734 84.2156 84.9796 84.5656L93.4127 89.4344C94.0189 89.7844 94.3923 90.4312 94.3923 91.1311V100.869C94.3923 101.569 94.0189 102.216 93.4127 102.566L84.9796 107.434C84.3734 107.784 83.6266 107.784 83.0204 107.434L74.5873 102.566C73.9811 102.216 73.6077 101.569 73.6077 100.869V91.1311C73.6077 90.4312 73.9811 89.7844 74.5873 89.4344L83.0204 84.5656Z" fill="#FFD52B"/>
<path d="M107.02 84.5656C107.627 84.2156 108.373 84.2156 108.98 84.5656L117.413 89.4344C118.019 89.7844 118.392 90.4312 118.392 91.1311V100.869C118.392 101.569 118.019 102.216 117.413 102.566L108.98 107.434C108.373 107.784 107.627 107.784 107.02 107.434L98.5873 102.566C97.9811 102.216 97.6077 101.569 97.6077 100.869V91.1311C97.6077 90.4312 97.9811 89.7844 98.5873 89.4344L107.02 84.5656Z" fill="#FFD52B"/>
<path d="M131.02 84.5656C131.627 84.2156 132.373 84.2156 132.98 84.5656L141.413 89.4344C142.019 89.7844 142.392 90.4312 142.392 91.1311V100.869C142.392 101.569 142.019 102.216 141.413 102.566L132.98 107.434C132.373 107.784 131.627 107.784 131.02 107.434L122.587 102.566C121.981 102.216 121.608 101.569 121.608 100.869V91.1311C121.608 90.4312 121.981 89.7844 122.587 89.4344L131.02 84.5656Z" fill="#FFD52B"/>
<path d="M155.02 84.5656C155.627 84.2156 156.373 84.2156 156.98 84.5656L165.413 89.4344C166.019 89.7844 166.392 90.4312 166.392 91.1311V100.869C166.392 101.569 166.019 102.216 165.413 102.566L156.98 107.434C156.373 107.784 155.627 107.784 155.02 107.434L146.587 102.566C145.981 102.216 145.608 101.569 145.608 100.869V91.1311C145.608 90.4312 145.981 89.7844 146.587 89.4344L155.02 84.5656Z" fill="#FFD52B"/>
<path d="M179.02 84.5656C179.627 84.2156 180.373 84.2156 180.98 84.5656L189.413 89.4344C190.019 89.7844 190.392 90.4312 190.392 91.1311V100.869C190.392 101.569 190.019 102.216 189.413 102.566L180.98 107.434C180.373 107.784 179.627 107.784 179.02 107.434L170.587 102.566C169.981 102.216 169.608 101.569 169.608 100.869V91.1311C169.608 90.4312 169.981 89.7844 170.587 89.4344L179.02 84.5656Z" fill="#FFD52B"/>
<path d="M203.02 84.5656C203.627 84.2156 204.373 84.2156 204.98 84.5656L213.413 89.4344C214.019 89.7844 214.392 90.4312 214.392 91.1311V100.869C214.392 101.569 214.019 102.216 213.413 102.566L204.98 107.434C204.373 107.784 203.627 107.784 203.02 107.434L194.587 102.566C193.981 102.216 193.608 101.569 193.608 100.869V91.1311C193.608 90.4312 193.981 89.7844 194.587 89.4344L203.02 84.5656Z" fill="#FFD52B"/>
<path d="M227.02 84.5656C227.627 84.2156 228.373 84.2156 228.98 84.5656L237.413 89.4344C238.019 89.7844 238.392 90.4312 238.392 91.1311V100.869C238.392 101.569 238.019 102.216 237.413 102.566L228.98 107.434C228.373 107.784 227.627 107.784 227.02 107.434L218.587 102.566C217.981 102.216 217.608 101.569 217.608 100.869V91.1311C217.608 90.4312 217.981 89.7844 218.587 89.4344L227.02 84.5656Z" fill="#FFD52B"/>
<path d="M251.02 84.5656C251.627 84.2156 252.373 84.2156 252.98 84.5656L261.413 89.4344C262.019 89.7844 262.392 90.4312 262.392 91.1311V100.869C262.392 101.569 262.019 102.216 261.413 102.566L252.98 107.434C252.373 107.784 251.627 107.784 251.02 107.434L242.587 102.566C241.981 102.216 241.608 101.569 241.608 100.869V91.1311C241.608 90.4312 241.981 89.7844 242.587 89.4344L251.02 84.5656Z" fill="#FFD52B"/>
<path d="M275.02 84.5656C275.627 84.2156 276.373 84.2156 276.98 84.5656L285.413 89.4344C286.019 89.7844 286.392 90.4312 286.392 91.1311V100.869C286.392 101.569 286.019 102.216 285.413 102.566L276.98 107.434C276.373 107.784 275.627 107.784 275.02 107.434L266.587 102.566C265.981 102.216 265.608 101.569 265.608 100.869V91.1311C265.608 90.4312 265.981 89.7844 266.587 89.4344L275.02 84.5656Z" fill="#FFD52B"/>
<path d="M299.02 84.5656C299.627 84.2156 300.373 84.2156 300.98 84.5656L309.413 89.4344C310.019 89.7844 310.392 90.4312 310.392 91.1311V100.869C310.392 101.569 310.019 102.216 309.413 102.566L300.98 107.434C300.373 107.784 299.627 107.784 299.02 107.434L290.587 102.566C289.981 102.216 289.608 101.569 289.608 100.869V91.1311C289.608 90.4312 289.981 89.7844 290.587 89.4344L299.02 84.5656Z" fill="#FFD52B"/>
<path d="M323.02 84.5656C323.627 84.2156 324.373 84.2156 324.98 84.5656L333.413 89.4344C334.019 89.7844 334.392 90.4312 334.392 91.1311V100.869C334.392 101.569 334.019 102.216 333.413 102.566L324.98 107.434C324.373 107.784 323.627 107.784 323.02 107.434L314.587 102.566C313.981 102.216 313.608 101.569 313.608 100.869V91.1311C313.608 90.4312 313.981 89.7844 314.587 89.4344L323.02 84.5656Z" fill="#FFD52B"/>
<path d="M347.02 84.5656C347.627 84.2156 348.373 84.2156 348.98 84.5656L357.413 89.4344C358.019 89.7844 358.392 90.4312 358.392 91.1311V100.869C358.392 101.569 358.019 102.216 357.413 102.566L348.98 107.434C348.373 107.784 347.627 107.784 347.02 107.434L338.587 102.566C337.981 102.216 337.608 101.569 337.608 100.869V91.1311C337.608 90.4312 337.981 89.7844 338.587 89.4344L347.02 84.5656Z" fill="#FFD52B"/>
<path d="M371.02 84.5656C371.627 84.2156 372.373 84.2156 372.98 84.5656L381.413 89.4344C382.019 89.7844 382.392 90.4312 382.392 91.1311V100.869C382.392 101.569 382.019 102.216 381.413 102.566L372.98 107.434C372.373 107.784 371.627 107.784 371.02 107.434L362.587 102.566C361.981 102.216 361.608 101.569 361.608 100.869V91.1311C361.608 90.4312 361.981 89.7844 362.587 89.4344L371.02 84.5656Z" fill="#FFD52B"/>
<path d="M395.02 84.5656C395.627 84.2156 396.373 84.2156 396.98 84.5656L405.413 89.4344C406.019 89.7844 406.392 90.4312 406.392 91.1311V100.869C406.392 101.569 406.019 102.216 405.413 102.566L396.98 107.434C396.373 107.784 395.627 107.784 395.02 107.434L386.587 102.566C385.981 102.216 385.608 101.569 385.608 100.869V91.1311C385.608 90.4312 385.981 89.7844 386.587 89.4344L395.02 84.5656Z" fill="#FFD52B"/>
<path d="M419.02 84.5656C419.627 84.2156 420.373 84.2156 420.98 84.5656L429.413 89.4344C430.019 89.7844 430.392 90.4312 430.392 91.1311V100.869C430.392 101.569 430.019 102.216 429.413 102.566L420.98 107.434C420.373 107.784 419.627 107.784 419.02 107.434L410.587 102.566C409.981 102.216 409.608 101.569 409.608 100.869V91.1311C409.608 90.4312 409.981 89.7844 410.587 89.4344L419.02 84.5656Z" fill="#FFD52B"/>
<path d="M443.02 84.5656C443.627 84.2156 444.373 84.2156 444.98 84.5656L453.413 89.4344C454.019 89.7844 454.392 90.4312 454.392 91.1311V100.869C454.392 101.569 454.019 102.216 453.413 102.566L444.98 107.434C444.373 107.784 443.627 107.784 443.02 107.434L434.587 102.566C433.981 102.216 433.608 101.569 433.608 100.869V91.1311C433.608 90.4312 433.981 89.7844 434.587 89.4344L443.02 84.5656Z" fill="#FFD52B"/>
<path d="M467.02 84.5656C467.627 84.2156 468.373 84.2156 468.98 84.5656L477.413 89.4344C478.019 89.7844 478.392 90.4312 478.392 91.1311V100.869C478.392 101.569 478.019 102.216 477.413 102.566L468.98 107.434C468.373 107.784 467.627 107.784 467.02 107.434L458.587 102.566C457.981 102.216 457.608 101.569 457.608 100.869V91.1311C457.608 90.4312 457.981 89.7844 458.587 89.4344L467.02 84.5656Z" fill="#FFD52B"/>
<path d="M491.02 84.5656C491.627 84.2156 492.373 84.2156 492.98 84.5656L501.413 89.4344C502.019 89.7844 502.392 90.4312 502.392 91.1311V100.869C502.392 101.569 502.019 102.216 501.413 102.566L492.98 107.434C492.373 107.784 491.627 107.784 491.02 107.434L482.587 102.566C481.981 102.216 481.608 101.569 481.608 100.869V91.1311C481.608 90.4312 481.981 89.7844 482.587 89.4344L491.02 84.5656Z" fill="#FFD52B"/>
<path d="M515.02 84.5656C515.627 84.2156 516.373 84.2156 516.98 84.5656L525.413 89.4344C526.019 89.7844 526.392 90.4312 526.392 91.1311V100.869C526.392 101.569 526.019 102.216 525.413 102.566L516.98 107.434C516.373 107.784 515.627 107.784 515.02 107.434L506.587 102.566C505.981 102.216 505.608 101.569 505.608 100.869V91.1311C505.608 90.4312 505.981 89.7844 506.587 89.4344L515.02 84.5656Z" fill="#FFD52B"/>
<path d="M539.02 84.5656C539.627 84.2156 540.373 84.2156 540.98 84.5656L549.413 89.4344C550.019 89.7844 550.392 90.4312 550.392 91.1311V100.869C550.392 101.569 550.019 102.216 549.413 102.566L540.98 107.434C540.373 107.784 539.627 107.784 539.02 107.434L530.587 102.566C529.981 102.216 529.608 101.569 529.608 100.869V91.1311C529.608 90.4312 529.981 89.7844 530.587 89.4344L539.02 84.5656Z" fill="#FFD52B"/>
<path d="M563.02 84.5656C563.627 84.2156 564.373 84.2156 564.98 84.5656L573.413 89.4344C574.019 89.7844 574.392 90.4312 574.392 91.1311V100.869C574.392 101.569 574.019 102.216 573.413 102.566L564.98 107.434C564.373 107.784 563.627 107.784 563.02 107.434L554.587 102.566C553.981 102.216 553.608 101.569 553.608 100.869V91.1311C553.608 90.4312 553.981 89.7844 554.587 89.4344L563.02 84.5656Z" fill="#FFD52B"/>
<path d="M71.0204 105.566C71.6266 105.216 72.3734 105.216 72.9796 105.566L81.4127 110.434C82.0189 110.784 82.3923 111.431 82.3923 112.131V121.869C82.3923 122.569 82.0189 123.216 81.4127 123.566L72.9796 128.434C72.3734 128.784 71.6266 128.784 71.0204 128.434L62.5873 123.566C61.9811 123.216 61.6077 122.569 61.6077 121.869V112.131C61.6077 111.431 61.9811 110.784 62.5873 110.434L71.0204 105.566Z" fill="#FFD52B"/>
<path d="M95.0204 105.566C95.6266 105.216 96.3734 105.216 96.9796 105.566L105.413 110.434C106.019 110.784 106.392 111.431 106.392 112.131V121.869C106.392 122.569 106.019 123.216 105.413 123.566L96.9796 128.434C96.3734 128.784 95.6266 128.784 95.0204 128.434L86.5873 123.566C85.9811 123.216 85.6077 122.569 85.6077 121.869V112.131C85.6077 111.431 85.9811 110.784 86.5873 110.434L95.0204 105.566Z" fill="#FFD52B"/>
<path d="M119.02 105.566C119.627 105.216 120.373 105.216 120.98 105.566L129.413 110.434C130.019 110.784 130.392 111.431 130.392 112.131V121.869C130.392 122.569 130.019 123.216 129.413 123.566L120.98 128.434C120.373 128.784 119.627 128.784 119.02 128.434L110.587 123.566C109.981 123.216 109.608 122.569 109.608 121.869V112.131C109.608 111.431 109.981 110.784 110.587 110.434L119.02 105.566Z" fill="#FFD52B"/>
<path d="M143.02 105.566C143.627 105.216 144.373 105.216 144.98 105.566L153.413 110.434C154.019 110.784 154.392 111.431 154.392 112.131V121.869C154.392 122.569 154.019 123.216 153.413 123.566L144.98 128.434C144.373 128.784 143.627 128.784 143.02 128.434L134.587 123.566C133.981 123.216 133.608 122.569 133.608 121.869V112.131C133.608 111.431 133.981 110.784 134.587 110.434L143.02 105.566Z" fill="#FFD52B"/>
<path d="M167.02 105.566C167.627 105.216 168.373 105.216 168.98 105.566L177.413 110.434C178.019 110.784 178.392 111.431 178.392 112.131V121.869C178.392 122.569 178.019 123.216 177.413 123.566L168.98 128.434C168.373 128.784 167.627 128.784 167.02 128.434L158.587 123.566C157.981 123.216 157.608 122.569 157.608 121.869V112.131C157.608 111.431 157.981 110.784 158.587 110.434L167.02 105.566Z" fill="#FFD52B"/>
<path d="M191.02 105.566C191.627 105.216 192.373 105.216 192.98 105.566L201.413 110.434C202.019 110.784 202.392 111.431 202.392 112.131V121.869C202.392 122.569 202.019 123.216 201.413 123.566L192.98 128.434C192.373 128.784 191.627 128.784 191.02 128.434L182.587 123.566C181.981 123.216 181.608 122.569 181.608 121.869V112.131C181.608 111.431 181.981 110.784 182.587 110.434L191.02 105.566Z" fill="#FFD52B"/>
<path d="M215.02 105.566C215.627 105.216 216.373 105.216 216.98 105.566L225.413 110.434C226.019 110.784 226.392 111.431 226.392 112.131V121.869C226.392 122.569 226.019 123.216 225.413 123.566L216.98 128.434C216.373 128.784 215.627 128.784 215.02 128.434L206.587 123.566C205.981 123.216 205.608 122.569 205.608 121.869V112.131C205.608 111.431 205.981 110.784 206.587 110.434L215.02 105.566Z" fill="#FFD52B"/>
<path d="M239.02 105.566C239.627 105.216 240.373 105.216 240.98 105.566L249.413 110.434C250.019 110.784 250.392 111.431 250.392 112.131V121.869C250.392 122.569 250.019 123.216 249.413 123.566L240.98 128.434C240.373 128.784 239.627 128.784 239.02 128.434L230.587 123.566C229.981 123.216 229.608 122.569 229.608 121.869V112.131C229.608 111.431 229.981 110.784 230.587 110.434L239.02 105.566Z" fill="#FFD52B"/>
<path d="M263.02 105.566C263.627 105.216 264.373 105.216 264.98 105.566L273.413 110.434C274.019 110.784 274.392 111.431 274.392 112.131V121.869C274.392 122.569 274.019 123.216 273.413 123.566L264.98 128.434C264.373 128.784 263.627 128.784 263.02 128.434L254.587 123.566C253.981 123.216 253.608 122.569 253.608 121.869V112.131C253.608 111.431 253.981 110.784 254.587 110.434L263.02 105.566Z" fill="#FFD52B"/>
<path d="M287.02 105.566C287.627 105.216 288.373 105.216 288.98 105.566L297.413 110.434C298.019 110.784 298.392 111.431 298.392 112.131V121.869C298.392 122.569 298.019 123.216 297.413 123.566L288.98 128.434C288.373 128.784 287.627 128.784 287.02 128.434L278.587 123.566C277.981 123.216 277.608 122.569 277.608 121.869V112.131C277.608 111.431 277.981 110.784 278.587 110.434L287.02 105.566Z" fill="#FFD52B"/>
<path d="M311.02 105.566C311.627 105.216 312.373 105.216 312.98 105.566L321.413 110.434C322.019 110.784 322.392 111.431 322.392 112.131V121.869C322.392 122.569 322.019 123.216 321.413 123.566L312.98 128.434C312.373 128.784 311.627 128.784 311.02 128.434L302.587 123.566C301.981 123.216 301.608 122.569 301.608 121.869V112.131C301.608 111.431 301.981 110.784 302.587 110.434L311.02 105.566Z" fill="#FFD52B"/>
<path d="M335.02 105.566C335.627 105.216 336.373 105.216 336.98 105.566L345.413 110.434C346.019 110.784 346.392 111.431 346.392 112.131V121.869C346.392 122.569 346.019 123.216 345.413 123.566L336.98 128.434C336.373 128.784 335.627 128.784 335.02 128.434L326.587 123.566C325.981 123.216 325.608 122.569 325.608 121.869V112.131C325.608 111.431 325.981 110.784 326.587 110.434L335.02 105.566Z" fill="#FFD52B"/>
<path d="M359.02 105.566C359.627 105.216 360.373 105.216 360.98 105.566L369.413 110.434C370.019 110.784 370.392 111.431 370.392 112.131V121.869C370.392 122.569 370.019 123.216 369.413 123.566L360.98 128.434C360.373 128.784 359.627 128.784 359.02 128.434L350.587 123.566C349.981 123.216 349.608 122.569 349.608 121.869V112.131C349.608 111.431 349.981 110.784 350.587 110.434L359.02 105.566Z" fill="#FFD52B"/>
<path d="M383.02 105.566C383.627 105.216 384.373 105.216 384.98 105.566L393.413 110.434C394.019 110.784 394.392 111.431 394.392 112.131V121.869C394.392 122.569 394.019 123.216 393.413 123.566L384.98 128.434C384.373 128.784 383.627 128.784 383.02 128.434L374.587 123.566C373.981 123.216 373.608 122.569 373.608 121.869V112.131C373.608 111.431 373.981 110.784 374.587 110.434L383.02 105.566Z" fill="#FFD52B"/>
<path d="M407.02 105.566C407.627 105.216 408.373 105.216 408.98 105.566L417.413 110.434C418.019 110.784 418.392 111.431 418.392 112.131V121.869C418.392 122.569 418.019 123.216 417.413 123.566L408.98 128.434C408.373 128.784 407.627 128.784 407.02 128.434L398.587 123.566C397.981 123.216 397.608 122.569 397.608 121.869V112.131C397.608 111.431 397.981 110.784 398.587 110.434L407.02 105.566Z" fill="#FFD52B"/>
<path d="M431.02 105.566C431.627 105.216 432.373 105.216 432.98 105.566L441.413 110.434C442.019 110.784 442.392 111.431 442.392 112.131V121.869C442.392 122.569 442.019 123.216 441.413 123.566L432.98 128.434C432.373 128.784 431.627 128.784 431.02 128.434L422.587 123.566C421.981 123.216 421.608 122.569 421.608 121.869V112.131C421.608 111.431 421.981 110.784 422.587 110.434L431.02 105.566Z" fill="#FFD52B"/>
<path d="M455.02 105.566C455.627 105.216 456.373 105.216 456.98 105.566L465.413 110.434C466.019 110.784 466.392 111.431 466.392 112.131V121.869C466.392 122.569 466.019 123.216 465.413 123.566L456.98 128.434C456.373 128.784 455.627 128.784 455.02 128.434L446.587 123.566C445.981 123.216 445.608 122.569 445.608 121.869V112.131C445.608 111.431 445.981 110.784 446.587 110.434L455.02 105.566Z" fill="#FFD52B"/>
<path d="M479.02 105.566C479.627 105.216 480.373 105.216 480.98 105.566L489.413 110.434C490.019 110.784 490.392 111.431 490.392 112.131V121.869C490.392 122.569 490.019 123.216 489.413 123.566L480.98 128.434C480.373 128.784 479.627 128.784 479.02 128.434L470.587 123.566C469.981 123.216 469.608 122.569 469.608 121.869V112.131C469.608 111.431 469.981 110.784 470.587 110.434L479.02 105.566Z" fill="#FFD52B"/>
<path d="M503.02 105.566C503.627 105.216 504.373 105.216 504.98 105.566L513.413 110.434C514.019 110.784 514.392 111.431 514.392 112.131V121.869C514.392 122.569 514.019 123.216 513.413 123.566L504.98 128.434C504.373 128.784 503.627 128.784 503.02 128.434L494.587 123.566C493.981 123.216 493.608 122.569 493.608 121.869V112.131C493.608 111.431 493.981 110.784 494.587 110.434L503.02 105.566Z" fill="#FFD52B"/>
<path d="M527.02 105.566C527.627 105.216 528.373 105.216 528.98 105.566L537.413 110.434C538.019 110.784 538.392 111.431 538.392 112.131V121.869C538.392 122.569 538.019 123.216 537.413 123.566L528.98 128.434C528.373 128.784 527.627 128.784 527.02 128.434L518.587 123.566C517.981 123.216 517.608 122.569 517.608 121.869V112.131C517.608 111.431 517.981 110.784 518.587 110.434L527.02 105.566Z" fill="#FFD52B"/>
<path d="M551.02 105.566C551.627 105.216 552.373 105.216 552.98 105.566L561.413 110.434C562.019 110.784 562.392 111.431 562.392 112.131V121.869C562.392 122.569 562.019 123.216 561.413 123.566L552.98 128.434C552.373 128.784 551.627 128.784 551.02 128.434L542.587 123.566C541.981 123.216 541.608 122.569 541.608 121.869V112.131C541.608 111.431 541.981 110.784 542.587 110.434L551.02 105.566Z" fill="#FFD52B"/>
<path d="M59.0204 126.566C59.6266 126.216 60.3734 126.216 60.9796 126.566L69.4127 131.434C70.0189 131.784 70.3923 132.431 70.3923 133.131V142.869C70.3923 143.569 70.0189 144.216 69.4127 144.566L60.9796 149.434C60.3734 149.784 59.6266 149.784 59.0204 149.434L50.5873 144.566C49.9811 144.216 49.6077 143.569 49.6077 142.869V133.131C49.6077 132.431 49.9811 131.784 50.5873 131.434L59.0204 126.566Z" fill="#FFD52B"/>
<path d="M83.0204 126.566C83.6266 126.216 84.3734 126.216 84.9796 126.566L93.4127 131.434C94.0189 131.784 94.3923 132.431 94.3923 133.131V142.869C94.3923 143.569 94.0189 144.216 93.4127 144.566L84.9796 149.434C84.3734 149.784 83.6266 149.784 83.0204 149.434L74.5873 144.566C73.9811 144.216 73.6077 143.569 73.6077 142.869V133.131C73.6077 132.431 73.9811 131.784 74.5873 131.434L83.0204 126.566Z" fill="#FFD52B"/>
<path d="M107.02 126.566C107.627 126.216 108.373 126.216 108.98 126.566L117.413 131.434C118.019 131.784 118.392 132.431 118.392 133.131V142.869C118.392 143.569 118.019 144.216 117.413 144.566L108.98 149.434C108.373 149.784 107.627 149.784 107.02 149.434L98.5873 144.566C97.9811 144.216 97.6077 143.569 97.6077 142.869V133.131C97.6077 132.431 97.9811 131.784 98.5873 131.434L107.02 126.566Z" fill="#FFD52B"/>
<path d="M131.02 126.566C131.627 126.216 132.373 126.216 132.98 126.566L141.413 131.434C142.019 131.784 142.392 132.431 142.392 133.131V142.869C142.392 143.569 142.019 144.216 141.413 144.566L132.98 149.434C132.373 149.784 131.627 149.784 131.02 149.434L122.587 144.566C121.981 144.216 121.608 143.569 121.608 142.869V133.131C121.608 132.431 121.981 131.784 122.587 131.434L131.02 126.566Z" fill="#FFD52B"/>
<path d="M155.02 126.566C155.627 126.216 156.373 126.216 156.98 126.566L165.413 131.434C166.019 131.784 166.392 132.431 166.392 133.131V142.869C166.392 143.569 166.019 144.216 165.413 144.566L156.98 149.434C156.373 149.784 155.627 149.784 155.02 149.434L146.587 144.566C145.981 144.216 145.608 143.569 145.608 142.869V133.131C145.608 132.431 145.981 131.784 146.587 131.434L155.02 126.566Z" fill="#FFD52B"/>
<path d="M179.02 126.566C179.627 126.216 180.373 126.216 180.98 126.566L189.413 131.434C190.019 131.784 190.392 132.431 190.392 133.131V142.869C190.392 143.569 190.019 144.216 189.413 144.566L180.98 149.434C180.373 149.784 179.627 149.784 179.02 149.434L170.587 144.566C169.981 144.216 169.608 143.569 169.608 142.869V133.131C169.608 132.431 169.981 131.784 170.587 131.434L179.02 126.566Z" fill="#FFD52B"/>
<path d="M203.02 126.566C203.627 126.216 204.373 126.216 204.98 126.566L213.413 131.434C214.019 131.784 214.392 132.431 214.392 133.131V142.869C214.392 143.569 214.019 144.216 213.413 144.566L204.98 149.434C204.373 149.784 203.627 149.784 203.02 149.434L194.587 144.566C193.981 144.216 193.608 143.569 193.608 142.869V133.131C193.608 132.431 193.981 131.784 194.587 131.434L203.02 126.566Z" fill="#FFD52B"/>
<path d="M227.02 126.566C227.627 126.216 228.373 126.216 228.98 126.566L237.413 131.434C238.019 131.784 238.392 132.431 238.392 133.131V142.869C238.392 143.569 238.019 144.216 237.413 144.566L228.98 149.434C228.373 149.784 227.627 149.784 227.02 149.434L218.587 144.566C217.981 144.216 217.608 143.569 217.608 142.869V133.131C217.608 132.431 217.981 131.784 218.587 131.434L227.02 126.566Z" fill="#FFD52B"/>
<path d="M251.02 126.566C251.627 126.216 252.373 126.216 252.98 126.566L261.413 131.434C262.019 131.784 262.392 132.431 262.392 133.131V142.869C262.392 143.569 262.019 144.216 261.413 144.566L252.98 149.434C252.373 149.784 251.627 149.784 251.02 149.434L242.587 144.566C241.981 144.216 241.608 143.569 241.608 142.869V133.131C241.608 132.431 241.981 131.784 242.587 131.434L251.02 126.566Z" fill="#FFD52B"/>
<path d="M275.02 126.566C275.627 126.216 276.373 126.216 276.98 126.566L285.413 131.434C286.019 131.784 286.392 132.431 286.392 133.131V142.869C286.392 143.569 286.019 144.216 285.413 144.566L276.98 149.434C276.373 149.784 275.627 149.784 275.02 149.434L266.587 144.566C265.981 144.216 265.608 143.569 265.608 142.869V133.131C265.608 132.431 265.981 131.784 266.587 131.434L275.02 126.566Z" fill="#FFD52B"/>
<path d="M299.02 126.566C299.627 126.216 300.373 126.216 300.98 126.566L309.413 131.434C310.019 131.784 310.392 132.431 310.392 133.131V142.869C310.392 143.569 310.019 144.216 309.413 144.566L300.98 149.434C300.373 149.784 299.627 149.784 299.02 149.434L290.587 144.566C289.981 144.216 289.608 143.569 289.608 142.869V133.131C289.608 132.431 289.981 131.784 290.587 131.434L299.02 126.566Z" fill="#FFD52B"/>
<path d="M323.02 126.566C323.627 126.216 324.373 126.216 324.98 126.566L333.413 131.434C334.019 131.784 334.392 132.431 334.392 133.131V142.869C334.392 143.569 334.019 144.216 333.413 144.566L324.98 149.434C324.373 149.784 323.627 149.784 323.02 149.434L314.587 144.566C313.981 144.216 313.608 143.569 313.608 142.869V133.131C313.608 132.431 313.981 131.784 314.587 131.434L323.02 126.566Z" fill="#FFD52B"/>
<path d="M347.02 126.566C347.627 126.216 348.373 126.216 348.98 126.566L357.413 131.434C358.019 131.784 358.392 132.431 358.392 133.131V142.869C358.392 143.569 358.019 144.216 357.413 144.566L348.98 149.434C348.373 149.784 347.627 149.784 347.02 149.434L338.587 144.566C337.981 144.216 337.608 143.569 337.608 142.869V133.131C337.608 132.431 337.981 131.784 338.587 131.434L347.02 126.566Z" fill="#FFD52B"/>
<path d="M371.02 126.566C371.627 126.216 372.373 126.216 372.98 126.566L381.413 131.434C382.019 131.784 382.392 132.431 382.392 133.131V142.869C382.392 143.569 382.019 144.216 381.413 144.566L372.98 149.434C372.373 149.784 371.627 149.784 371.02 149.434L362.587 144.566C361.981 144.216 361.608 143.569 361.608 142.869V133.131C361.608 132.431 361.981 131.784 362.587 131.434L371.02 126.566Z" fill="#FFD52B"/>
<path d="M395.02 126.566C395.627 126.216 396.373 126.216 396.98 126.566L405.413 131.434C406.019 131.784 406.392 132.431 406.392 133.131V142.869C406.392 143.569 406.019 144.216 405.413 144.566L396.98 149.434C396.373 149.784 395.627 149.784 395.02 149.434L386.587 144.566C385.981 144.216 385.608 143.569 385.608 142.869V133.131C385.608 132.431 385.981 131.784 386.587 131.434L395.02 126.566Z" fill="#FFD52B"/>
<path d="M419.02 126.566C419.627 126.216 420.373 126.216 420.98 126.566L429.413 131.434C430.019 131.784 430.392 132.431 430.392 133.131V142.869C430.392 143.569 430.019 144.216 429.413 144.566L420.98 149.434C420.373 149.784 419.627 149.784 419.02 149.434L410.587 144.566C409.981 144.216 409.608 143.569 409.608 142.869V133.131C409.608 132.431 409.981 131.784 410.587 131.434L419.02 126.566Z" fill="#FFD52B"/>
<path d="M443.02 126.566C443.627 126.216 444.373 126.216 444.98 126.566L453.413 131.434C454.019 131.784 454.392 132.431 454.392 133.131V142.869C454.392 143.569 454.019 144.216 453.413 144.566L444.98 149.434C444.373 149.784 443.627 149.784 443.02 149.434L434.587 144.566C433.981 144.216 433.608 143.569 433.608 142.869V133.131C433.608 132.431 433.981 131.784 434.587 131.434L443.02 126.566Z" fill="#FFD52B"/>
<path d="M467.02 126.566C467.627 126.216 468.373 126.216 468.98 126.566L477.413 131.434C478.019 131.784 478.392 132.431 478.392 133.131V142.869C478.392 143.569 478.019 144.216 477.413 144.566L468.98 149.434C468.373 149.784 467.627 149.784 467.02 149.434L458.587 144.566C457.981 144.216 457.608 143.569 457.608 142.869V133.131C457.608 132.431 457.981 131.784 458.587 131.434L467.02 126.566Z" fill="#FFD52B"/>
<path d="M491.02 126.566C491.627 126.216 492.373 126.216 492.98 126.566L501.413 131.434C502.019 131.784 502.392 132.431 502.392 133.131V142.869C502.392 143.569 502.019 144.216 501.413 144.566L492.98 149.434C492.373 149.784 491.627 149.784 491.02 149.434L482.587 144.566C481.981 144.216 481.608 143.569 481.608 142.869V133.131C481.608 132.431 481.981 131.784 482.587 131.434L491.02 126.566Z" fill="#FFD52B"/>
<path d="M515.02 126.566C515.627 126.216 516.373 126.216 516.98 126.566L525.413 131.434C526.019 131.784 526.392 132.431 526.392 133.131V142.869C526.392 143.569 526.019 144.216 525.413 144.566L516.98 149.434C516.373 149.784 515.627 149.784 515.02 149.434L506.587 144.566C505.981 144.216 505.608 143.569 505.608 142.869V133.131C505.608 132.431 505.981 131.784 506.587 131.434L515.02 126.566Z" fill="#FFD52B"/>
<path d="M539.02 126.566C539.627 126.216 540.373 126.216 540.98 126.566L549.413 131.434C550.019 131.784 550.392 132.431 550.392 133.131V142.869C550.392 143.569 550.019 144.216 549.413 144.566L540.98 149.434C540.373 149.784 539.627 149.784 539.02 149.434L530.587 144.566C529.981 144.216 529.608 143.569 529.608 142.869V133.131C529.608 132.431 529.981 131.784 530.587 131.434L539.02 126.566Z" fill="#FFD52B"/>
<path d="M563.02 126.566C563.627 126.216 564.373 126.216 564.98 126.566L573.413 131.434C574.019 131.784 574.392 132.431 574.392 133.131V142.869C574.392 143.569 574.019 144.216 573.413 144.566L564.98 149.434C564.373 149.784 563.627 149.784 563.02 149.434L554.587 144.566C553.981 144.216 553.608 143.569 553.608 142.869V133.131C553.608 132.431 553.981 131.784 554.587 131.434L563.02 126.566Z" fill="#FFD52B"/>
<path d="M71.0204 147.566C71.6266 147.216 72.3734 147.216 72.9796 147.566L81.4127 152.434C82.0189 152.784 82.3923 153.431 82.3923 154.131V163.869C82.3923 164.569 82.0189 165.216 81.4127 165.566L72.9796 170.434C72.3734 170.784 71.6266 170.784 71.0204 170.434L62.5873 165.566C61.9811 165.216 61.6077 164.569 61.6077 163.869V154.131C61.6077 153.431 61.9811 152.784 62.5873 152.434L71.0204 147.566Z" fill="#FFD52B"/>
<path d="M95.0204 147.566C95.6266 147.216 96.3734 147.216 96.9796 147.566L105.413 152.434C106.019 152.784 106.392 153.431 106.392 154.131V163.869C106.392 164.569 106.019 165.216 105.413 165.566L96.9796 170.434C96.3734 170.784 95.6266 170.784 95.0204 170.434L86.5873 165.566C85.9811 165.216 85.6077 164.569 85.6077 163.869V154.131C85.6077 153.431 85.9811 152.784 86.5873 152.434L95.0204 147.566Z" fill="#FFD52B"/>
<path d="M119.02 147.566C119.627 147.216 120.373 147.216 120.98 147.566L129.413 152.434C130.019 152.784 130.392 153.431 130.392 154.131V163.869C130.392 164.569 130.019 165.216 129.413 165.566L120.98 170.434C120.373 170.784 119.627 170.784 119.02 170.434L110.587 165.566C109.981 165.216 109.608 164.569 109.608 163.869V154.131C109.608 153.431 109.981 152.784 110.587 152.434L119.02 147.566Z" fill="#FFD52B"/>
<path d="M143.02 147.566C143.627 147.216 144.373 147.216 144.98 147.566L153.413 152.434C154.019 152.784 154.392 153.431 154.392 154.131V163.869C154.392 164.569 154.019 165.216 153.413 165.566L144.98 170.434C144.373 170.784 143.627 170.784 143.02 170.434L134.587 165.566C133.981 165.216 133.608 164.569 133.608 163.869V154.131C133.608 153.431 133.981 152.784 134.587 152.434L143.02 147.566Z" fill="#FFD52B"/>
<path d="M167.02 147.566C167.627 147.216 168.373 147.216 168.98 147.566L177.413 152.434C178.019 152.784 178.392 153.431 178.392 154.131V163.869C178.392 164.569 178.019 165.216 177.413 165.566L168.98 170.434C168.373 170.784 167.627 170.784 167.02 170.434L158.587 165.566C157.981 165.216 157.608 164.569 157.608 163.869V154.131C157.608 153.431 157.981 152.784 158.587 152.434L167.02 147.566Z" fill="#FFD52B"/>
<path d="M191.02 147.566C191.627 147.216 192.373 147.216 192.98 147.566L201.413 152.434C202.019 152.784 202.392 153.431 202.392 154.131V163.869C202.392 164.569 202.019 165.216 201.413 165.566L192.98 170.434C192.373 170.784 191.627 170.784 191.02 170.434L182.587 165.566C181.981 165.216 181.608 164.569 181.608 163.869V154.131C181.608 153.431 181.981 152.784 182.587 152.434L191.02 147.566Z" fill="#FFD52B"/>
<path d="M215.02 147.566C215.627 147.216 216.373 147.216 216.98 147.566L225.413 152.434C226.019 152.784 226.392 153.431 226.392 154.131V163.869C226.392 164.569 226.019 165.216 225.413 165.566L216.98 170.434C216.373 170.784 215.627 170.784 215.02 170.434L206.587 165.566C205.981 165.216 205.608 164.569 205.608 163.869V154.131C205.608 153.431 205.981 152.784 206.587 152.434L215.02 147.566Z" fill="#FFD52B"/>
<path d="M239.02 147.566C239.627 147.216 240.373 147.216 240.98 147.566L249.413 152.434C250.019 152.784 250.392 153.431 250.392 154.131V163.869C250.392 164.569 250.019 165.216 249.413 165.566L240.98 170.434C240.373 170.784 239.627 170.784 239.02 170.434L230.587 165.566C229.981 165.216 229.608 164.569 229.608 163.869V154.131C229.608 153.431 229.981 152.784 230.587 152.434L239.02 147.566Z" fill="#FFD52B"/>
<path d="M263.02 147.566C263.627 147.216 264.373 147.216 264.98 147.566L273.413 152.434C274.019 152.784 274.392 153.431 274.392 154.131V163.869C274.392 164.569 274.019 165.216 273.413 165.566L264.98 170.434C264.373 170.784 263.627 170.784 263.02 170.434L254.587 165.566C253.981 165.216 253.608 164.569 253.608 163.869V154.131C253.608 153.431 253.981 152.784 254.587 152.434L263.02 147.566Z" fill="#FFD52B"/>
<path d="M287.02 147.566C287.627 147.216 288.373 147.216 288.98 147.566L297.413 152.434C298.019 152.784 298.392 153.431 298.392 154.131V163.869C298.392 164.569 298.019 165.216 297.413 165.566L288.98 170.434C288.373 170.784 287.627 170.784 287.02 170.434L278.587 165.566C277.981 165.216 277.608 164.569 277.608 163.869V154.131C277.608 153.431 277.981 152.784 278.587 152.434L287.02 147.566Z" fill="#FFD52B"/>
<path d="M311.02 147.566C311.627 147.216 312.373 147.216 312.98 147.566L321.413 152.434C322.019 152.784 322.392 153.431 322.392 154.131V163.869C322.392 164.569 322.019 165.216 321.413 165.566L312.98 170.434C312.373 170.784 311.627 170.784 311.02 170.434L302.587 165.566C301.981 165.216 301.608 164.569 301.608 163.869V154.131C301.608 153.431 301.981 152.784 302.587 152.434L311.02 147.566Z" fill="#FFD52B"/>
<path d="M335.02 147.566C335.627 147.216 336.373 147.216 336.98 147.566L345.413 152.434C346.019 152.784 346.392 153.431 346.392 154.131V163.869C346.392 164.569 346.019 165.216 345.413 165.566L336.98 170.434C336.373 170.784 335.627 170.784 335.02 170.434L326.587 165.566C325.981 165.216 325.608 164.569 325.608 163.869V154.131C325.608 153.431 325.981 152.784 326.587 152.434L335.02 147.566Z" fill="#FFD52B"/>
<path d="M359.02 147.566C359.627 147.216 360.373 147.216 360.98 147.566L369.413 152.434C370.019 152.784 370.392 153.431 370.392 154.131V163.869C370.392 164.569 370.019 165.216 369.413 165.566L360.98 170.434C360.373 170.784 359.627 170.784 359.02 170.434L350.587 165.566C349.981 165.216 349.608 164.569 349.608 163.869V154.131C349.608 153.431 349.981 152.784 350.587 152.434L359.02 147.566Z" fill="#FFD52B"/>
<path d="M383.02 147.566C383.627 147.216 384.373 147.216 384.98 147.566L393.413 152.434C394.019 152.784 394.392 153.431 394.392 154.131V163.869C394.392 164.569 394.019 165.216 393.413 165.566L384.98 170.434C384.373 170.784 383.627 170.784 383.02 170.434L374.587 165.566C373.981 165.216 373.608 164.569 373.608 163.869V154.131C373.608 153.431 373.981 152.784 374.587 152.434L383.02 147.566Z" fill="#FFD52B"/>
<path d="M407.02 147.566C407.627 147.216 408.373 147.216 408.98 147.566L417.413 152.434C418.019 152.784 418.392 153.431 418.392 154.131V163.869C418.392 164.569 418.019 165.216 417.413 165.566L408.98 170.434C408.373 170.784 407.627 170.784 407.02 170.434L398.587 165.566C397.981 165.216 397.608 164.569 397.608 163.869V154.131C397.608 153.431 397.981 152.784 398.587 152.434L407.02 147.566Z" fill="#FFD52B"/>
<path d="M431.02 147.566C431.627 147.216 432.373 147.216 432.98 147.566L441.413 152.434C442.019 152.784 442.392 153.431 442.392 154.131V163.869C442.392 164.569 442.019 165.216 441.413 165.566L432.98 170.434C432.373 170.784 431.627 170.784 431.02 170.434L422.587 165.566C421.981 165.216 421.608 164.569 421.608 163.869V154.131C421.608 153.431 421.981 152.784 422.587 152.434L431.02 147.566Z" fill="#FFD52B"/>
<path d="M455.02 147.566C455.627 147.216 456.373 147.216 456.98 147.566L465.413 152.434C466.019 152.784 466.392 153.431 466.392 154.131V163.869C466.392 164.569 466.019 165.216 465.413 165.566L456.98 170.434C456.373 170.784 455.627 170.784 455.02 170.434L446.587 165.566C445.981 165.216 445.608 164.569 445.608 163.869V154.131C445.608 153.431 445.981 152.784 446.587 152.434L455.02 147.566Z" fill="#FFD52B"/>
<path d="M479.02 147.566C479.627 147.216 480.373 147.216 480.98 147.566L489.413 152.434C490.019 152.784 490.392 153.431 490.392 154.131V163.869C490.392 164.569 490.019 165.216 489.413 165.566L480.98 170.434C480.373 170.784 479.627 170.784 479.02 170.434L470.587 165.566C469.981 165.216 469.608 164.569 469.608 163.869V154.131C469.608 153.431 469.981 152.784 470.587 152.434L479.02 147.566Z" fill="#FFD52B"/>
<path d="M503.02 147.566C503.627 147.216 504.373 147.216 504.98 147.566L513.413 152.434C514.019 152.784 514.392 153.431 514.392 154.131V163.869C514.392 164.569 514.019 165.216 513.413 165.566L504.98 170.434C504.373 170.784 503.627 170.784 503.02 170.434L494.587 165.566C493.981 165.216 493.608 164.569 493.608 163.869V154.131C493.608 153.431 493.981 152.784 494.587 152.434L503.02 147.566Z" fill="#FFD52B"/>
<path d="M527.02 147.566C527.627 147.216 528.373 147.216 528.98 147.566L537.413 152.434C538.019 152.784 538.392 153.431 538.392 154.131V163.869C538.392 164.569 538.019 165.216 537.413 165.566L528.98 170.434C528.373 170.784 527.627 170.784 527.02 170.434L518.587 165.566C517.981 165.216 517.608 164.569 517.608 163.869V154.131C517.608 153.431 517.981 152.784 518.587 152.434L527.02 147.566Z" fill="#FFD52B"/>
<path d="M551.02 147.566C551.627 147.216 552.373 147.216 552.98 147.566L561.413 152.434C562.019 152.784 562.392 153.431 562.392 154.131V163.869C562.392 164.569 562.019 165.216 561.413 165.566L552.98 170.434C552.373 170.784 551.627 170.784 551.02 170.434L542.587 165.566C541.981 165.216 541.608 164.569 541.608 163.869V154.131C541.608 153.431 541.981 152.784 542.587 152.434L551.02 147.566Z" fill="#FFD52B"/>
<path d="M59.0204 168.566C59.6266 168.216 60.3734 168.216 60.9796 168.566L69.4127 173.434C70.0189 173.784 70.3923 174.431 70.3923 175.131V184.869C70.3923 185.569 70.0189 186.216 69.4127 186.566L60.9796 191.434C60.3734 191.784 59.6266 191.784 59.0204 191.434L50.5873 186.566C49.9811 186.216 49.6077 185.569 49.6077 184.869V175.131C49.6077 174.431 49.9811 173.784 50.5873 173.434L59.0204 168.566Z" fill="#FFD52B"/>
<path d="M83.0204 168.566C83.6266 168.216 84.3734 168.216 84.9796 168.566L93.4127 173.434C94.0189 173.784 94.3923 174.431 94.3923 175.131V184.869C94.3923 185.569 94.0189 186.216 93.4127 186.566L84.9796 191.434C84.3734 191.784 83.6266 191.784 83.0204 191.434L74.5873 186.566C73.9811 186.216 73.6077 185.569 73.6077 184.869V175.131C73.6077 174.431 73.9811 173.784 74.5873 173.434L83.0204 168.566Z" fill="#FFD52B"/>
<path d="M107.02 168.566C107.627 168.216 108.373 168.216 108.98 168.566L117.413 173.434C118.019 173.784 118.392 174.431 118.392 175.131V184.869C118.392 185.569 118.019 186.216 117.413 186.566L108.98 191.434C108.373 191.784 107.627 191.784 107.02 191.434L98.5873 186.566C97.9811 186.216 97.6077 185.569 97.6077 184.869V175.131C97.6077 174.431 97.9811 173.784 98.5873 173.434L107.02 168.566Z" fill="#FFD52B"/>
<path d="M131.02 168.566C131.627 168.216 132.373 168.216 132.98 168.566L141.413 173.434C142.019 173.784 142.392 174.431 142.392 175.131V184.869C142.392 185.569 142.019 186.216 141.413 186.566L132.98 191.434C132.373 191.784 131.627 191.784 131.02 191.434L122.587 186.566C121.981 186.216 121.608 185.569 121.608 184.869V175.131C121.608 174.431 121.981 173.784 122.587 173.434L131.02 168.566Z" fill="#FFD52B"/>
<path d="M155.02 168.566C155.627 168.216 156.373 168.216 156.98 168.566L165.413 173.434C166.019 173.784 166.392 174.431 166.392 175.131V184.869C166.392 185.569 166.019 186.216 165.413 186.566L156.98 191.434C156.373 191.784 155.627 191.784 155.02 191.434L146.587 186.566C145.981 186.216 145.608 185.569 145.608 184.869V175.131C145.608 174.431 145.981 173.784 146.587 173.434L155.02 168.566Z" fill="#FFD52B"/>
<path d="M179.02 168.566C179.627 168.216 180.373 168.216 180.98 168.566L189.413 173.434C190.019 173.784 190.392 174.431 190.392 175.131V184.869C190.392 185.569 190.019 186.216 189.413 186.566L180.98 191.434C180.373 191.784 179.627 191.784 179.02 191.434L170.587 186.566C169.981 186.216 169.608 185.569 169.608 184.869V175.131C169.608 174.431 169.981 173.784 170.587 173.434L179.02 168.566Z" fill="#FFD52B"/>
<path d="M203.02 168.566C203.627 168.216 204.373 168.216 204.98 168.566L213.413 173.434C214.019 173.784 214.392 174.431 214.392 175.131V184.869C214.392 185.569 214.019 186.216 213.413 186.566L204.98 191.434C204.373 191.784 203.627 191.784 203.02 191.434L194.587 186.566C193.981 186.216 193.608 185.569 193.608 184.869V175.131C193.608 174.431 193.981 173.784 194.587 173.434L203.02 168.566Z" fill="#FFD52B"/>
<path d="M227.02 168.566C227.627 168.216 228.373 168.216 228.98 168.566L237.413 173.434C238.019 173.784 238.392 174.431 238.392 175.131V184.869C238.392 185.569 238.019 186.216 237.413 186.566L228.98 191.434C228.373 191.784 227.627 191.784 227.02 191.434L218.587 186.566C217.981 186.216 217.608 185.569 217.608 184.869V175.131C217.608 174.431 217.981 173.784 218.587 173.434L227.02 168.566Z" fill="#FFD52B"/>
<path d="M251.02 168.566C251.627 168.216 252.373 168.216 252.98 168.566L261.413 173.434C262.019 173.784 262.392 174.431 262.392 175.131V184.869C262.392 185.569 262.019 186.216 261.413 186.566L252.98 191.434C252.373 191.784 251.627 191.784 251.02 191.434L242.587 186.566C241.981 186.216 241.608 185.569 241.608 184.869V175.131C241.608 174.431 241.981 173.784 242.587 173.434L251.02 168.566Z" fill="#FFD52B"/>
<path d="M275.02 168.566C275.627 168.216 276.373 168.216 276.98 168.566L285.413 173.434C286.019 173.784 286.392 174.431 286.392 175.131V184.869C286.392 185.569 286.019 186.216 285.413 186.566L276.98 191.434C276.373 191.784 275.627 191.784 275.02 191.434L266.587 186.566C265.981 186.216 265.608 185.569 265.608 184.869V175.131C265.608 174.431 265.981 173.784 266.587 173.434L275.02 168.566Z" fill="#FFD52B"/>
<path d="M299.02 168.566C299.627 168.216 300.373 168.216 300.98 168.566L309.413 173.434C310.019 173.784 310.392 174.431 310.392 175.131V184.869C310.392 185.569 310.019 186.216 309.413 186.566L300.98 191.434C300.373 191.784 299.627 191.784 299.02 191.434L290.587 186.566C289.981 186.216 289.608 185.569 289.608 184.869V175.131C289.608 174.431 289.981 173.784 290.587 173.434L299.02 168.566Z" fill="#FFD52B"/>
<path d="M323.02 168.566C323.627 168.216 324.373 168.216 324.98 168.566L333.413 173.434C334.019 173.784 334.392 174.431 334.392 175.131V184.869C334.392 185.569 334.019 186.216 333.413 186.566L324.98 191.434C324.373 191.784 323.627 191.784 323.02 191.434L314.587 186.566C313.981 186.216 313.608 185.569 313.608 184.869V175.131C313.608 174.431 313.981 173.784 314.587 173.434L323.02 168.566Z" fill="#FFD52B"/>
<path d="M347.02 168.566C347.627 168.216 348.373 168.216 348.98 168.566L357.413 173.434C358.019 173.784 358.392 174.431 358.392 175.131V184.869C358.392 185.569 358.019 186.216 357.413 186.566L348.98 191.434C348.373 191.784 347.627 191.784 347.02 191.434L338.587 186.566C337.981 186.216 337.608 185.569 337.608 184.869V175.131C337.608 174.431 337.981 173.784 338.587 173.434L347.02 168.566Z" fill="#FFD52B"/>
<path d="M371.02 168.566C371.627 168.216 372.373 168.216 372.98 168.566L381.413 173.434C382.019 173.784 382.392 174.431 382.392 175.131V184.869C382.392 185.569 382.019 186.216 381.413 186.566L372.98 191.434C372.373 191.784 371.627 191.784 371.02 191.434L362.587 186.566C361.981 186.216 361.608 185.569 361.608 184.869V175.131C361.608 174.431 361.981 173.784 362.587 173.434L371.02 168.566Z" fill="#FFD52B"/>
<path d="M395.02 168.566C395.627 168.216 396.373 168.216 396.98 168.566L405.413 173.434C406.019 173.784 406.392 174.431 406.392 175.131V184.869C406.392 185.569 406.019 186.216 405.413 186.566L396.98 191.434C396.373 191.784 395.627 191.784 395.02 191.434L386.587 186.566C385.981 186.216 385.608 185.569 385.608 184.869V175.131C385.608 174.431 385.981 173.784 386.587 173.434L395.02 168.566Z" fill="#FFD52B"/>
<path d="M419.02 168.566C419.627 168.216 420.373 168.216 420.98 168.566L429.413 173.434C430.019 173.784 430.392 174.431 430.392 175.131V184.869C430.392 185.569 430.019 186.216 429.413 186.566L420.98 191.434C420.373 191.784 419.627 191.784 419.02 191.434L410.587 186.566C409.981 186.216 409.608 185.569 409.608 184.869V175.131C409.608 174.431 409.981 173.784 410.587 173.434L419.02 168.566Z" fill="#FFD52B"/>
<path d="M443.02 168.566C443.627 168.216 444.373 168.216 444.98 168.566L453.413 173.434C454.019 173.784 454.392 174.431 454.392 175.131V184.869C454.392 185.569 454.019 186.216 453.413 186.566L444.98 191.434C444.373 191.784 443.627 191.784 443.02 191.434L434.587 186.566C433.981 186.216 433.608 185.569 433.608 184.869V175.131C433.608 174.431 433.981 173.784 434.587 173.434L443.02 168.566Z" fill="#FFD52B"/>
<path d="M467.02 168.566C467.627 168.216 468.373 168.216 468.98 168.566L477.413 173.434C478.019 173.784 478.392 174.431 478.392 175.131V184.869C478.392 185.569 478.019 186.216 477.413 186.566L468.98 191.434C468.373 191.784 467.627 191.784 467.02 191.434L458.587 186.566C457.981 186.216 457.608 185.569 457.608 184.869V175.131C457.608 174.431 457.981 173.784 458.587 173.434L467.02 168.566Z" fill="#FFD52B"/>
<path d="M491.02 168.566C491.627 168.216 492.373 168.216 492.98 168.566L501.413 173.434C502.019 173.784 502.392 174.431 502.392 175.131V184.869C502.392 185.569 502.019 186.216 501.413 186.566L492.98 191.434C492.373 191.784 491.627 191.784 491.02 191.434L482.587 186.566C481.981 186.216 481.608 185.569 481.608 184.869V175.131C481.608 174.431 481.981 173.784 482.587 173.434L491.02 168.566Z" fill="#FFD52B"/>
<path d="M515.02 168.566C515.627 168.216 516.373 168.216 516.98 168.566L525.413 173.434C526.019 173.784 526.392 174.431 526.392 175.131V184.869C526.392 185.569 526.019 186.216 525.413 186.566L516.98 191.434C516.373 191.784 515.627 191.784 515.02 191.434L506.587 186.566C505.981 186.216 505.608 185.569 505.608 184.869V175.131C505.608 174.431 505.981 173.784 506.587 173.434L515.02 168.566Z" fill="#FFD52B"/>
<path d="M539.02 168.566C539.627 168.216 540.373 168.216 540.98 168.566L549.413 173.434C550.019 173.784 550.392 174.431 550.392 175.131V184.869C550.392 185.569 550.019 186.216 549.413 186.566L540.98 191.434C540.373 191.784 539.627 191.784 539.02 191.434L530.587 186.566C529.981 186.216 529.608 185.569 529.608 184.869V175.131C529.608 174.431 529.981 173.784 530.587 173.434L539.02 168.566Z" fill="#FFD52B"/>
<path d="M563.02 168.566C563.627 168.216 564.373 168.216 564.98 168.566L573.413 173.434C574.019 173.784 574.392 174.431 574.392 175.131V184.869C574.392 185.569 574.019 186.216 573.413 186.566L564.98 191.434C564.373 191.784 563.627 191.784 563.02 191.434L554.587 186.566C553.981 186.216 553.608 185.569 553.608 184.869V175.131C553.608 174.431 553.981 173.784 554.587 173.434L563.02 168.566Z" fill="#FFD52B"/>
</g>
</g>
</svg>
