<svg width="497" height="307" viewBox="0 0 497 307" fill="none" xmlns="http://www.w3.org/2000/svg">
<g filter="url(#filter0_iii_4123_79971)">
<path d="M200.5 201.375C200.5 197.44 203.69 194.25 207.625 194.25H230.799C232.689 194.25 234.501 195.001 235.837 196.337L241.163 201.663C242.5 202.999 244.312 203.75 246.202 203.75H288.375C292.31 203.75 295.5 206.94 295.5 210.875V267.875C295.5 271.81 292.31 275 288.375 275H207.625C203.69 275 200.5 271.81 200.5 267.875V201.375Z" fill="#E99536"/>
</g>
<g filter="url(#filter1_d_4123_79971)">
<rect x="214.75" y="199" width="66.5" height="47.5" rx="4.75" fill="white"/>
</g>
<g filter="url(#filter2_d_4123_79971)">
<rect x="210" y="213.25" width="76" height="42.75" rx="5.42857" fill="white"/>
</g>
<mask id="mask0_4123_79971" style="mask-type:alpha" maskUnits="userSpaceOnUse" x="200" y="194" width="96" height="81">
<path d="M200.5 201.375C200.5 197.44 203.69 194.25 207.625 194.25H230.799C232.689 194.25 234.501 195.001 235.837 196.337L241.163 201.663C242.5 202.999 244.312 203.75 246.202 203.75H288.375C292.31 203.75 295.5 206.94 295.5 210.875V267.875C295.5 271.81 292.31 275 288.375 275H207.625C203.69 275 200.5 271.81 200.5 267.875V201.375Z" fill="#D9D9D9"/>
</mask>
<g mask="url(#mask0_4123_79971)">
<g opacity="0.8" filter="url(#filter3_f_4123_79971)" style="mix-blend-mode:color-dodge">
<ellipse cx="193.375" cy="189.5" rx="45.125" ry="28.5" fill="#F46F28"/>
</g>
<g filter="url(#filter4_f_4123_79971)">
<rect x="205.25" y="227.5" width="85.5" height="23.75" rx="4.75" fill="#CBB392"/>
</g>
<mask id="mask1_4123_79971" style="mask-type:alpha" maskUnits="userSpaceOnUse" x="200" y="227" width="96" height="58">
<rect x="200.5" y="227.5" width="95" height="57" rx="7.125" fill="#D9D9D9"/>
</mask>
<g mask="url(#mask1_4123_79971)">
<g filter="url(#filter5_iiii_4123_79971)">
<rect x="200.5" y="227.5" width="95" height="57" rx="7.125" fill="#E99536"/>
</g>
<g opacity="0.8" filter="url(#filter6_f_4123_79971)" style="mix-blend-mode:color-dodge">
<ellipse cx="248" cy="232.25" rx="52.25" ry="28.5" fill="#F46228"/>
</g>
</g>
<g filter="url(#filter7_i_4123_79971)">
<rect x="262.25" y="232.25" width="28.5" height="4.75" rx="2.375" fill="white"/>
</g>
<rect x="262.488" y="232.488" width="28.025" height="4.275" rx="2.1375" stroke="url(#paint0_linear_4123_79971)" stroke-width="0.475"/>
</g>
<rect x="157.579" y="87.6309" width="61.7811" height="29.0414" rx="14.5207" fill="#AFE2BE"/>
<path d="M172.855 107.327C172.11 107.327 171.456 107.196 170.895 106.935C170.333 106.663 169.898 106.286 169.588 105.802C169.278 105.318 169.123 104.752 169.123 104.103H170.648C170.648 104.471 170.735 104.81 170.909 105.119C171.084 105.42 171.33 105.662 171.65 105.845C171.979 106.02 172.376 106.107 172.841 106.107C173.257 106.107 173.61 106.039 173.901 105.904C174.191 105.768 174.414 105.584 174.569 105.352C174.733 105.11 174.815 104.834 174.815 104.524C174.815 104.166 174.733 103.871 174.569 103.638C174.404 103.406 174.181 103.217 173.901 103.072C173.63 102.917 173.31 102.782 172.942 102.665C172.584 102.549 172.207 102.423 171.81 102.288C171.006 102.027 170.406 101.688 170.009 101.271C169.622 100.855 169.428 100.313 169.428 99.6451C169.428 99.074 169.564 98.5803 169.835 98.164C170.106 97.7381 170.483 97.409 170.967 97.1766C171.461 96.9346 172.042 96.8136 172.71 96.8136C173.368 96.8136 173.944 96.9346 174.438 97.1766C174.932 97.4186 175.319 97.7526 175.6 98.1786C175.88 98.6045 176.021 99.103 176.021 99.6742H174.481C174.481 99.4128 174.414 99.1563 174.278 98.9046C174.143 98.6529 173.939 98.4496 173.668 98.2947C173.397 98.1301 173.063 98.0479 172.666 98.0479C172.337 98.0382 172.042 98.0914 171.781 98.2076C171.519 98.3238 171.316 98.4932 171.171 98.7158C171.025 98.9385 170.953 99.2047 170.953 99.5145C170.953 99.8242 171.016 100.076 171.142 100.27C171.277 100.453 171.471 100.613 171.722 100.749C171.974 100.884 172.265 101.01 172.594 101.126C172.933 101.233 173.305 101.354 173.712 101.489C174.215 101.654 174.661 101.857 175.048 102.099C175.445 102.331 175.754 102.636 175.977 103.014C176.209 103.382 176.326 103.856 176.326 104.437C176.326 104.94 176.195 105.41 175.933 105.845C175.672 106.281 175.285 106.639 174.772 106.92C174.259 107.191 173.62 107.327 172.855 107.327ZM180.695 107.152C180.24 107.152 179.843 107.08 179.504 106.935C179.166 106.789 178.904 106.547 178.72 106.208C178.536 105.87 178.444 105.41 178.444 104.829V101.068H177.181V99.8484H178.444L178.619 98.0043H179.896V99.8484H181.958V101.068H179.896V104.844C179.896 105.26 179.979 105.545 180.143 105.7C180.317 105.845 180.622 105.918 181.058 105.918H181.886V107.152H180.695ZM185.956 107.327C185.385 107.327 184.886 107.21 184.46 106.978C184.044 106.746 183.72 106.397 183.487 105.933C183.265 105.458 183.153 104.873 183.153 104.176V99.8484H184.605V104.016C184.605 104.703 184.751 105.221 185.041 105.57C185.341 105.918 185.777 106.092 186.348 106.092C186.725 106.092 187.064 106 187.364 105.816C187.674 105.633 187.916 105.366 188.09 105.018C188.265 104.669 188.352 104.243 188.352 103.74V99.8484H189.804V107.152H188.511L188.41 105.904C188.187 106.339 187.863 106.688 187.437 106.949C187.011 107.201 186.517 107.327 185.956 107.327ZM194.754 107.327C194.057 107.327 193.442 107.162 192.91 106.833C192.378 106.494 191.961 106.039 191.661 105.468C191.371 104.887 191.226 104.229 191.226 103.493C191.226 102.757 191.371 102.104 191.661 101.533C191.961 100.952 192.378 100.497 192.91 100.168C193.452 99.8388 194.076 99.6742 194.783 99.6742C195.354 99.6742 195.853 99.7903 196.279 100.023C196.714 100.245 197.053 100.56 197.295 100.967V96.6974H198.747V107.152H197.455L197.31 106.02C197.155 106.242 196.961 106.455 196.729 106.659C196.497 106.852 196.216 107.012 195.887 107.138C195.567 107.264 195.19 107.327 194.754 107.327ZM194.986 106.063C195.441 106.063 195.843 105.957 196.192 105.744C196.54 105.531 196.806 105.231 196.99 104.844C197.184 104.456 197.281 104.006 197.281 103.493C197.281 102.98 197.184 102.535 196.99 102.157C196.806 101.77 196.54 101.47 196.192 101.257C195.843 101.044 195.441 100.937 194.986 100.937C194.551 100.937 194.159 101.044 193.81 101.257C193.462 101.47 193.191 101.77 192.997 102.157C192.804 102.535 192.707 102.98 192.707 103.493C192.707 104.006 192.804 104.456 192.997 104.844C193.191 105.231 193.462 105.531 193.81 105.744C194.159 105.957 194.551 106.063 194.986 106.063ZM201.285 110.347L203.071 106.339H202.65L199.746 99.8484H201.328L203.623 105.148L205.931 99.8484H207.456L202.809 110.347H201.285Z" fill="#33744B"/>
<rect x="265.577" y="84" width="80.7811" height="29.0414" rx="14.5207" fill="#F6CFCA"/>
<path d="M277.528 103.52V93.355H281.289C281.995 93.355 282.586 93.4712 283.06 93.7035C283.534 93.9262 283.888 94.236 284.12 94.6329C284.362 95.0201 284.483 95.4605 284.483 95.9542C284.483 96.4673 284.372 96.8981 284.149 97.2466C283.926 97.5951 283.631 97.8661 283.263 98.0597C282.905 98.2437 282.518 98.3502 282.102 98.3792L282.305 98.234C282.75 98.2437 283.157 98.3647 283.525 98.597C283.893 98.8197 284.183 99.1198 284.396 99.4973C284.609 99.8748 284.715 100.291 284.715 100.746C284.715 101.269 284.59 101.743 284.338 102.169C284.086 102.585 283.713 102.915 283.22 103.157C282.726 103.399 282.121 103.52 281.405 103.52H277.528ZM278.98 102.314H281.216C281.855 102.314 282.349 102.169 282.697 101.879C283.055 101.579 283.234 101.157 283.234 100.615C283.234 100.083 283.05 99.657 282.683 99.3376C282.324 99.0181 281.826 98.8584 281.187 98.8584H278.98V102.314ZM278.98 97.7403H281.129C281.739 97.7403 282.203 97.5999 282.523 97.3192C282.842 97.0288 283.002 96.6319 283.002 96.1285C283.002 95.6445 282.842 95.2621 282.523 94.9814C282.203 94.6909 281.724 94.5457 281.085 94.5457H278.98V97.7403ZM288.77 103.694C288.199 103.694 287.701 103.578 287.275 103.345C286.859 103.113 286.534 102.764 286.302 102.3C286.079 101.825 285.968 101.24 285.968 100.543V96.2156H287.42V100.383C287.42 101.07 287.565 101.588 287.856 101.937C288.156 102.285 288.591 102.46 289.162 102.46C289.54 102.46 289.879 102.368 290.179 102.184C290.489 102 290.731 101.733 290.905 101.385C291.079 101.036 291.166 100.611 291.166 100.107V96.2156H292.618V103.52H291.326L291.224 102.271C291.002 102.706 290.677 103.055 290.252 103.316C289.826 103.568 289.332 103.694 288.77 103.694ZM297.148 103.694C296.528 103.694 295.986 103.592 295.521 103.389C295.057 103.186 294.689 102.9 294.418 102.532C294.147 102.164 293.982 101.733 293.924 101.24H295.405C295.454 101.472 295.546 101.685 295.681 101.879C295.826 102.072 296.02 102.227 296.262 102.343C296.514 102.46 296.809 102.518 297.148 102.518C297.467 102.518 297.728 102.474 297.932 102.387C298.135 102.29 298.285 102.164 298.382 102.009C298.488 101.845 298.542 101.671 298.542 101.487C298.542 101.225 298.474 101.022 298.338 100.877C298.212 100.732 298.019 100.62 297.757 100.543C297.506 100.456 297.201 100.378 296.843 100.31C296.514 100.252 296.189 100.175 295.87 100.078C295.56 99.9716 295.279 99.841 295.028 99.6861C294.776 99.5312 294.577 99.3376 294.432 99.1052C294.287 98.8632 294.214 98.568 294.214 98.2195C294.214 97.8032 294.326 97.4305 294.548 97.1014C294.771 96.7722 295.086 96.5157 295.492 96.3318C295.909 96.1382 296.397 96.0414 296.959 96.0414C297.772 96.0414 298.425 96.235 298.919 96.6222C299.413 96.9997 299.703 97.5418 299.79 98.2485H298.382C298.333 97.9291 298.183 97.6774 297.932 97.4934C297.69 97.3095 297.361 97.2175 296.944 97.2175C296.528 97.2175 296.209 97.2998 295.986 97.4644C295.763 97.629 295.652 97.8468 295.652 98.1178C295.652 98.2921 295.715 98.447 295.841 98.5825C295.967 98.718 296.155 98.8342 296.407 98.931C296.659 99.0278 296.959 99.1101 297.307 99.1778C297.82 99.2746 298.28 99.3957 298.687 99.5409C299.093 99.6861 299.418 99.899 299.66 100.18C299.902 100.461 300.023 100.862 300.023 101.385C300.032 101.84 299.916 102.242 299.674 102.59C299.442 102.939 299.108 103.21 298.672 103.403C298.246 103.597 297.738 103.694 297.148 103.694ZM301.544 103.52V96.2156H302.996V103.52H301.544ZM302.284 94.8216C302.003 94.8216 301.771 94.7345 301.587 94.5603C301.413 94.386 301.326 94.1682 301.326 93.9068C301.326 93.6358 301.413 93.418 301.587 93.2534C301.771 93.0791 302.003 92.992 302.284 92.992C302.555 92.992 302.783 93.0791 302.967 93.2534C303.151 93.418 303.243 93.6358 303.243 93.9068C303.243 94.1682 303.151 94.386 302.967 94.5603C302.783 94.7345 302.555 94.8216 302.284 94.8216ZM304.782 103.52V96.2156H306.089L306.176 97.4644C306.408 97.0191 306.737 96.6706 307.163 96.4189C307.589 96.1672 308.083 96.0414 308.644 96.0414C309.215 96.0414 309.709 96.1575 310.125 96.3899C310.542 96.6222 310.866 96.9755 311.098 97.4499C311.331 97.9145 311.447 98.5002 311.447 99.2069V103.52H309.995V99.3521C309.995 98.6648 309.845 98.1469 309.545 97.7984C309.244 97.4499 308.809 97.2756 308.238 97.2756C307.86 97.2756 307.521 97.3676 307.221 97.5515C306.921 97.7355 306.679 98.0017 306.495 98.3502C306.321 98.6987 306.234 99.1246 306.234 99.628V103.52H304.782ZM316.324 103.694C315.627 103.694 315.008 103.534 314.466 103.215C313.924 102.895 313.498 102.45 313.188 101.879C312.888 101.308 312.738 100.644 312.738 99.8894C312.738 99.1149 312.888 98.4421 313.188 97.871C313.498 97.2998 313.924 96.8545 314.466 96.5351C315.008 96.2059 315.637 96.0414 316.354 96.0414C317.07 96.0414 317.685 96.2011 318.198 96.5206C318.711 96.8303 319.108 97.2514 319.388 97.7839C319.669 98.3066 319.809 98.8874 319.809 99.5263C319.809 99.6231 319.805 99.7296 319.795 99.8458C319.795 99.9523 319.79 100.073 319.78 100.209H313.798V99.1778H318.357C318.328 98.5777 318.125 98.1081 317.748 97.7693C317.37 97.4208 316.9 97.2466 316.339 97.2466C315.942 97.2466 315.579 97.3337 315.25 97.508C314.921 97.6822 314.655 97.9436 314.451 98.2921C314.258 98.6406 314.161 99.0714 314.161 99.5844V100.006C314.161 100.538 314.258 100.993 314.451 101.37C314.655 101.738 314.921 102.019 315.25 102.213C315.579 102.397 315.937 102.489 316.324 102.489C316.789 102.489 317.172 102.387 317.472 102.184C317.781 101.98 318.004 101.704 318.14 101.356H319.592C319.466 101.801 319.253 102.203 318.953 102.561C318.662 102.91 318.294 103.186 317.849 103.389C317.404 103.592 316.896 103.694 316.324 103.694ZM323.964 103.694C323.344 103.694 322.802 103.592 322.338 103.389C321.873 103.186 321.505 102.9 321.234 102.532C320.963 102.164 320.798 101.733 320.74 101.24H322.221C322.27 101.472 322.362 101.685 322.497 101.879C322.642 102.072 322.836 102.227 323.078 102.343C323.33 102.46 323.625 102.518 323.964 102.518C324.283 102.518 324.545 102.474 324.748 102.387C324.951 102.29 325.101 102.164 325.198 102.009C325.305 101.845 325.358 101.671 325.358 101.487C325.358 101.225 325.29 101.022 325.155 100.877C325.029 100.732 324.835 100.62 324.574 100.543C324.322 100.456 324.017 100.378 323.659 100.31C323.33 100.252 323.005 100.175 322.686 100.078C322.376 99.9716 322.096 99.841 321.844 99.6861C321.592 99.5312 321.394 99.3376 321.248 99.1052C321.103 98.8632 321.031 98.568 321.031 98.2195C321.031 97.8032 321.142 97.4305 321.365 97.1014C321.587 96.7722 321.902 96.5157 322.308 96.3318C322.725 96.1382 323.214 96.0414 323.775 96.0414C324.588 96.0414 325.242 96.235 325.735 96.6222C326.229 96.9997 326.519 97.5418 326.607 98.2485H325.198C325.15 97.9291 325 97.6774 324.748 97.4934C324.506 97.3095 324.177 97.2175 323.761 97.2175C323.344 97.2175 323.025 97.2998 322.802 97.4644C322.58 97.629 322.468 97.8468 322.468 98.1178C322.468 98.2921 322.531 98.447 322.657 98.5825C322.783 98.718 322.972 98.8342 323.223 98.931C323.475 99.0278 323.775 99.1101 324.124 99.1778C324.637 99.2746 325.096 99.3957 325.503 99.5409C325.91 99.6861 326.234 99.899 326.476 100.18C326.718 100.461 326.839 100.862 326.839 101.385C326.849 101.84 326.732 102.242 326.49 102.59C326.258 102.939 325.924 103.21 325.489 103.403C325.063 103.597 324.554 103.694 323.964 103.694ZM331.09 103.694C330.47 103.694 329.928 103.592 329.463 103.389C328.999 103.186 328.631 102.9 328.36 102.532C328.089 102.164 327.924 101.733 327.866 101.24H329.347C329.396 101.472 329.488 101.685 329.623 101.879C329.768 102.072 329.962 102.227 330.204 102.343C330.456 102.46 330.751 102.518 331.09 102.518C331.409 102.518 331.671 102.474 331.874 102.387C332.077 102.29 332.227 102.164 332.324 102.009C332.431 101.845 332.484 101.671 332.484 101.487C332.484 101.225 332.416 101.022 332.28 100.877C332.155 100.732 331.961 100.62 331.7 100.543C331.448 100.456 331.143 100.378 330.785 100.31C330.456 100.252 330.131 100.175 329.812 100.078C329.502 99.9716 329.221 99.841 328.97 99.6861C328.718 99.5312 328.52 99.3376 328.374 99.1052C328.229 98.8632 328.157 98.568 328.157 98.2195C328.157 97.8032 328.268 97.4305 328.491 97.1014C328.713 96.7722 329.028 96.5157 329.434 96.3318C329.851 96.1382 330.34 96.0414 330.901 96.0414C331.714 96.0414 332.368 96.235 332.861 96.6222C333.355 96.9997 333.645 97.5418 333.733 98.2485H332.324C332.276 97.9291 332.126 97.6774 331.874 97.4934C331.632 97.3095 331.303 97.2175 330.886 97.2175C330.47 97.2175 330.151 97.2998 329.928 97.4644C329.705 97.629 329.594 97.8468 329.594 98.1178C329.594 98.2921 329.657 98.447 329.783 98.5825C329.909 98.718 330.098 98.8342 330.349 98.931C330.601 99.0278 330.901 99.1101 331.249 99.1778C331.763 99.2746 332.222 99.3957 332.629 99.5409C333.036 99.6861 333.36 99.899 333.602 100.18C333.844 100.461 333.965 100.862 333.965 101.385C333.975 101.84 333.858 102.242 333.616 102.59C333.384 102.939 333.05 103.21 332.614 103.403C332.188 103.597 331.68 103.694 331.09 103.694Z" fill="#A43123"/>
<rect x="310.954" y="155.695" width="61.7811" height="29.0414" rx="14.5207" fill="#F9E094"/>
<path d="M329.367 175.215V165.05H330.819V175.215H329.367ZM322.905 175.215V165.05H324.357V175.215H322.905ZM324.11 170.626V169.436H329.686V170.626H324.11ZM335.921 175.389C335.234 175.389 334.614 175.229 334.063 174.91C333.521 174.59 333.09 174.145 332.77 173.574C332.461 172.993 332.306 172.325 332.306 171.57C332.306 170.796 332.465 170.123 332.785 169.552C333.104 168.971 333.54 168.526 334.092 168.216C334.643 167.896 335.263 167.737 335.95 167.737C336.638 167.737 337.252 167.896 337.794 168.216C338.346 168.526 338.777 168.971 339.087 169.552C339.406 170.123 339.566 170.796 339.566 171.57C339.566 172.335 339.406 173.003 339.087 173.574C338.777 174.145 338.346 174.59 337.794 174.91C337.243 175.229 336.618 175.389 335.921 175.389ZM335.921 174.14C336.318 174.14 336.676 174.044 336.996 173.85C337.325 173.656 337.586 173.371 337.78 172.993C337.983 172.606 338.085 172.127 338.085 171.556C338.085 170.984 337.988 170.51 337.794 170.133C337.601 169.745 337.339 169.46 337.01 169.276C336.691 169.082 336.338 168.985 335.95 168.985C335.573 168.985 335.215 169.082 334.876 169.276C334.547 169.46 334.28 169.745 334.077 170.133C333.884 170.51 333.787 170.989 333.787 171.57C333.787 172.132 333.884 172.606 334.077 172.993C334.28 173.371 334.542 173.656 334.861 173.85C335.19 174.044 335.544 174.14 335.921 174.14ZM340.97 175.215V167.911H342.276L342.378 168.927C342.61 168.56 342.92 168.269 343.307 168.056C343.695 167.843 344.13 167.737 344.614 167.737C344.982 167.737 345.316 167.785 345.616 167.882C345.926 167.979 346.192 168.129 346.415 168.332C346.647 168.535 346.836 168.787 346.981 169.087C347.242 168.661 347.591 168.332 348.027 168.1C348.472 167.858 348.946 167.737 349.45 167.737C350.04 167.737 350.544 167.853 350.96 168.085C351.386 168.318 351.71 168.671 351.933 169.145C352.155 169.61 352.267 170.196 352.267 170.902V175.215H350.829V171.047C350.829 170.36 350.689 169.842 350.408 169.494C350.137 169.145 349.74 168.971 349.217 168.971C348.859 168.971 348.54 169.063 348.259 169.247C347.978 169.431 347.756 169.697 347.591 170.045C347.426 170.394 347.344 170.825 347.344 171.338V175.215H345.907V171.047C345.907 170.36 345.766 169.842 345.485 169.494C345.205 169.145 344.798 168.971 344.266 168.971C343.927 168.971 343.617 169.063 343.336 169.247C343.056 169.431 342.833 169.697 342.668 170.045C342.504 170.394 342.422 170.825 342.422 171.338V175.215H340.97ZM357.163 175.389C356.466 175.389 355.847 175.229 355.305 174.91C354.763 174.59 354.337 174.145 354.027 173.574C353.727 173.003 353.577 172.34 353.577 171.585C353.577 170.81 353.727 170.137 354.027 169.566C354.337 168.995 354.763 168.55 355.305 168.23C355.847 167.901 356.476 167.737 357.192 167.737C357.909 167.737 358.523 167.896 359.037 168.216C359.55 168.526 359.947 168.947 360.227 169.479C360.508 170.002 360.648 170.583 360.648 171.222C360.648 171.318 360.644 171.425 360.634 171.541C360.634 171.648 360.629 171.769 360.619 171.904H354.637V170.873H359.196C359.167 170.273 358.964 169.803 358.586 169.465C358.209 169.116 357.739 168.942 357.178 168.942C356.781 168.942 356.418 169.029 356.089 169.203C355.76 169.378 355.494 169.639 355.29 169.987C355.097 170.336 355 170.767 355 171.28V171.701C355 172.233 355.097 172.688 355.29 173.066C355.494 173.434 355.76 173.714 356.089 173.908C356.418 174.092 356.776 174.184 357.163 174.184C357.628 174.184 358.01 174.082 358.311 173.879C358.62 173.676 358.843 173.4 358.978 173.051H360.431C360.305 173.497 360.092 173.898 359.792 174.256C359.501 174.605 359.133 174.881 358.688 175.084C358.243 175.287 357.735 175.389 357.163 175.389Z" fill="#CD6F29"/>
<rect x="124" y="155.695" width="60.7811" height="29.0414" rx="14.5207" fill="#D9D6FB"/>
<path d="M138.027 175.215L135.268 165.05H136.822L138.884 173.516L141.251 165.05H142.863L145.157 173.545L147.248 165.05H148.802L145.999 175.215H144.3L142.02 167.127L139.683 175.215H138.027ZM152.427 175.389C151.73 175.389 151.11 175.229 150.568 174.91C150.026 174.59 149.6 174.145 149.29 173.574C148.99 173.003 148.84 172.34 148.84 171.585C148.84 170.81 148.99 170.137 149.29 169.566C149.6 168.995 150.026 168.55 150.568 168.23C151.11 167.901 151.739 167.737 152.456 167.737C153.172 167.737 153.787 167.896 154.3 168.216C154.813 168.526 155.21 168.947 155.49 169.479C155.771 170.002 155.912 170.583 155.912 171.222C155.912 171.318 155.907 171.425 155.897 171.541C155.897 171.648 155.892 171.769 155.882 171.904H149.9V170.873H154.459C154.43 170.273 154.227 169.803 153.85 169.465C153.472 169.116 153.003 168.942 152.441 168.942C152.044 168.942 151.681 169.029 151.352 169.203C151.023 169.378 150.757 169.639 150.553 169.987C150.36 170.336 150.263 170.767 150.263 171.28V171.701C150.263 172.233 150.36 172.688 150.553 173.066C150.757 173.434 151.023 173.714 151.352 173.908C151.681 174.092 152.039 174.184 152.427 174.184C152.891 174.184 153.274 174.082 153.574 173.879C153.883 173.676 154.106 173.4 154.242 173.051H155.694C155.568 173.497 155.355 173.898 155.055 174.256C154.764 174.605 154.397 174.881 153.951 175.084C153.506 175.287 152.998 175.389 152.427 175.389ZM161.228 175.389C160.831 175.389 160.468 175.331 160.139 175.215C159.819 175.108 159.538 174.958 159.296 174.765C159.054 174.571 158.851 174.348 158.686 174.097L158.541 175.215H157.234V164.76H158.686V169.044C158.919 168.685 159.243 168.38 159.659 168.129C160.085 167.867 160.608 167.737 161.228 167.737C161.934 167.737 162.549 167.901 163.072 168.23C163.604 168.56 164.016 169.015 164.306 169.595C164.606 170.176 164.756 170.834 164.756 171.57C164.756 172.306 164.606 172.964 164.306 173.545C164.016 174.116 163.604 174.566 163.072 174.895C162.539 175.225 161.925 175.389 161.228 175.389ZM160.995 174.126C161.441 174.126 161.833 174.019 162.171 173.806C162.52 173.593 162.791 173.298 162.985 172.921C163.188 172.533 163.289 172.083 163.289 171.57C163.289 171.057 163.188 170.607 162.985 170.22C162.791 169.833 162.52 169.532 162.171 169.319C161.833 169.106 161.441 169 160.995 169C160.54 169 160.139 169.106 159.79 169.319C159.451 169.532 159.185 169.833 158.991 170.22C158.798 170.607 158.701 171.057 158.701 171.57C158.701 172.074 158.798 172.519 158.991 172.906C159.185 173.293 159.451 173.593 159.79 173.806C160.139 174.019 160.54 174.126 160.995 174.126ZM169.457 175.389C168.809 175.389 168.213 175.273 167.671 175.041C167.139 174.799 166.713 174.44 166.394 173.966C166.084 173.482 165.919 172.877 165.9 172.151H167.352C167.362 172.519 167.449 172.853 167.613 173.153C167.778 173.453 168.015 173.695 168.325 173.879C168.644 174.053 169.022 174.14 169.457 174.14C169.893 174.14 170.256 174.058 170.546 173.893C170.847 173.729 171.069 173.506 171.214 173.226C171.369 172.945 171.447 172.63 171.447 172.282C171.447 171.846 171.34 171.493 171.127 171.222C170.924 170.951 170.643 170.747 170.285 170.612C169.937 170.476 169.545 170.408 169.109 170.408H168.354V169.189H169.109C169.719 169.189 170.203 169.048 170.561 168.768C170.919 168.487 171.098 168.09 171.098 167.577C171.098 167.151 170.958 166.803 170.677 166.531C170.406 166.26 169.999 166.125 169.457 166.125C168.915 166.125 168.485 166.28 168.165 166.59C167.855 166.899 167.681 167.291 167.642 167.766H166.205C166.234 167.195 166.384 166.691 166.655 166.256C166.936 165.81 167.313 165.471 167.788 165.239C168.272 164.997 168.828 164.876 169.457 164.876C170.135 164.876 170.701 164.997 171.156 165.239C171.621 165.471 171.969 165.786 172.202 166.183C172.434 166.58 172.55 167.015 172.55 167.49C172.55 167.848 172.483 168.182 172.347 168.492C172.221 168.792 172.032 169.053 171.781 169.276C171.529 169.499 171.224 169.658 170.866 169.755C171.253 169.833 171.597 169.983 171.897 170.205C172.207 170.428 172.449 170.718 172.623 171.076C172.807 171.425 172.899 171.832 172.899 172.296C172.899 172.848 172.768 173.361 172.507 173.835C172.245 174.3 171.858 174.678 171.345 174.968C170.842 175.249 170.212 175.389 169.457 175.389Z" fill="#5228D3"/>
<rect x="203.864" y="129.379" width="79.7811" height="29.0414" rx="14.5207" fill="#F5D0EC"/>
<path d="M220.272 149.073C219.275 149.073 218.414 148.855 217.688 148.419C216.971 147.974 216.415 147.359 216.018 146.575C215.631 145.781 215.437 144.862 215.437 143.816C215.437 142.78 215.631 141.866 216.018 141.072C216.415 140.278 216.971 139.663 217.688 139.228C218.414 138.782 219.275 138.56 220.272 138.56C221.463 138.56 222.426 138.845 223.162 139.416C223.907 139.988 224.382 140.791 224.585 141.827H222.988C222.843 141.227 222.542 140.747 222.087 140.389C221.642 140.031 221.037 139.852 220.272 139.852C219.585 139.852 218.99 140.012 218.486 140.331C217.983 140.651 217.596 141.106 217.325 141.696C217.054 142.287 216.918 142.993 216.918 143.816C216.918 144.639 217.054 145.351 217.325 145.951C217.596 146.541 217.983 146.996 218.486 147.316C218.99 147.625 219.585 147.78 220.272 147.78C221.037 147.78 221.642 147.611 222.087 147.272C222.542 146.924 222.843 146.454 222.988 145.864H224.585C224.382 146.87 223.907 147.659 223.162 148.23C222.426 148.792 221.463 149.073 220.272 149.073ZM225.959 148.898V141.595H227.266L227.397 142.974C227.561 142.645 227.774 142.364 228.036 142.132C228.297 141.899 228.602 141.725 228.95 141.609C229.309 141.483 229.71 141.42 230.156 141.42V142.945H229.647C229.347 142.945 229.062 142.984 228.791 143.061C228.52 143.139 228.278 143.264 228.065 143.439C227.861 143.603 227.702 143.836 227.585 144.136C227.469 144.436 227.411 144.808 227.411 145.254V148.898H225.959ZM234.311 149.073C233.614 149.073 232.995 148.913 232.453 148.594C231.911 148.274 231.485 147.829 231.175 147.258C230.875 146.686 230.725 146.023 230.725 145.268C230.725 144.494 230.875 143.821 231.175 143.25C231.485 142.679 231.911 142.233 232.453 141.914C232.995 141.585 233.624 141.42 234.34 141.42C235.057 141.42 235.671 141.58 236.184 141.899C236.698 142.209 237.094 142.63 237.375 143.163C237.656 143.686 237.796 144.266 237.796 144.905C237.796 145.002 237.791 145.109 237.782 145.225C237.782 145.331 237.777 145.452 237.767 145.588H231.785V144.557H236.344C236.315 143.957 236.112 143.487 235.734 143.148C235.357 142.8 234.887 142.625 234.326 142.625C233.929 142.625 233.566 142.713 233.237 142.887C232.908 143.061 232.641 143.322 232.438 143.671C232.245 144.019 232.148 144.45 232.148 144.963V145.384C232.148 145.917 232.245 146.372 232.438 146.749C232.641 147.117 232.908 147.398 233.237 147.592C233.566 147.776 233.924 147.867 234.311 147.867C234.776 147.867 235.158 147.766 235.458 147.563C235.768 147.359 235.991 147.083 236.126 146.735H237.578C237.453 147.18 237.24 147.582 236.94 147.94C236.649 148.289 236.281 148.564 235.836 148.768C235.391 148.971 234.882 149.073 234.311 149.073ZM241.544 149.073C240.944 149.073 240.445 148.971 240.048 148.768C239.652 148.564 239.356 148.293 239.163 147.955C238.969 147.606 238.872 147.233 238.872 146.836C238.872 146.352 238.993 145.941 239.235 145.602C239.487 145.263 239.845 145.002 240.31 144.818C240.784 144.634 241.346 144.542 241.994 144.542H243.896C243.896 144.116 243.834 143.763 243.708 143.482C243.582 143.192 243.393 142.979 243.141 142.843C242.899 142.698 242.59 142.625 242.212 142.625C241.776 142.625 241.404 142.732 241.094 142.945C240.784 143.148 240.591 143.458 240.513 143.874H239.061C239.119 143.352 239.293 142.911 239.584 142.553C239.884 142.185 240.261 141.904 240.716 141.711C241.181 141.517 241.68 141.42 242.212 141.42C242.89 141.42 243.461 141.541 243.925 141.783C244.4 142.025 244.753 142.369 244.985 142.814C245.227 143.25 245.348 143.768 245.348 144.368V148.898H244.085L243.969 147.664C243.863 147.858 243.737 148.042 243.591 148.216C243.446 148.39 243.272 148.54 243.069 148.666C242.875 148.792 242.648 148.889 242.386 148.957C242.135 149.034 241.854 149.073 241.544 149.073ZM241.82 147.897C242.13 147.897 242.41 147.834 242.662 147.708C242.914 147.582 243.127 147.412 243.301 147.2C243.485 146.977 243.621 146.73 243.708 146.459C243.804 146.178 243.858 145.893 243.867 145.602V145.559H242.139C241.723 145.559 241.384 145.612 241.123 145.718C240.871 145.815 240.687 145.956 240.571 146.14C240.455 146.314 240.397 146.512 240.397 146.735C240.397 146.977 240.45 147.185 240.557 147.359C240.673 147.524 240.837 147.654 241.05 147.751C241.263 147.848 241.52 147.897 241.82 147.897ZM249.761 148.898C249.306 148.898 248.909 148.826 248.571 148.681C248.232 148.535 247.97 148.293 247.787 147.955C247.603 147.616 247.511 147.156 247.511 146.575V142.814H246.247V141.595H247.511L247.685 139.75H248.963V141.595H251.025V142.814H248.963V146.59C248.963 147.006 249.045 147.291 249.21 147.446C249.384 147.592 249.689 147.664 250.124 147.664H250.952V148.898H249.761ZM255.477 149.073C254.79 149.073 254.17 148.913 253.618 148.594C253.076 148.274 252.645 147.829 252.326 147.258C252.016 146.677 251.861 146.009 251.861 145.254C251.861 144.479 252.021 143.807 252.341 143.235C252.66 142.655 253.096 142.209 253.647 141.899C254.199 141.58 254.819 141.42 255.506 141.42C256.193 141.42 256.808 141.58 257.35 141.899C257.902 142.209 258.333 142.655 258.643 143.235C258.962 143.807 259.122 144.479 259.122 145.254C259.122 146.018 258.962 146.686 258.643 147.258C258.333 147.829 257.902 148.274 257.35 148.594C256.798 148.913 256.174 149.073 255.477 149.073ZM255.477 147.824C255.874 147.824 256.232 147.727 256.552 147.533C256.881 147.34 257.142 147.054 257.336 146.677C257.539 146.29 257.641 145.81 257.641 145.239C257.641 144.668 257.544 144.194 257.35 143.816C257.157 143.429 256.895 143.143 256.566 142.959C256.247 142.766 255.893 142.669 255.506 142.669C255.129 142.669 254.77 142.766 254.432 142.959C254.102 143.143 253.836 143.429 253.633 143.816C253.439 144.194 253.342 144.673 253.342 145.254C253.342 145.815 253.439 146.29 253.633 146.677C253.836 147.054 254.098 147.34 254.417 147.533C254.746 147.727 255.099 147.824 255.477 147.824ZM260.525 148.898V141.595H261.832L261.963 142.974C262.127 142.645 262.34 142.364 262.602 142.132C262.863 141.899 263.168 141.725 263.517 141.609C263.875 141.483 264.276 141.42 264.722 141.42V142.945H264.213C263.913 142.945 263.628 142.984 263.357 143.061C263.086 143.139 262.844 143.264 262.631 143.439C262.427 143.603 262.268 143.836 262.152 144.136C262.035 144.436 261.977 144.808 261.977 145.254V148.898H260.525ZM268.611 149.073C267.991 149.073 267.449 148.971 266.985 148.768C266.52 148.564 266.152 148.279 265.881 147.911C265.61 147.543 265.445 147.112 265.387 146.619H266.868C266.917 146.851 267.009 147.064 267.144 147.258C267.29 147.451 267.483 147.606 267.725 147.722C267.977 147.838 268.272 147.897 268.611 147.897C268.93 147.897 269.192 147.853 269.395 147.766C269.598 147.669 269.748 147.543 269.845 147.388C269.952 147.224 270.005 147.049 270.005 146.866C270.005 146.604 269.937 146.401 269.802 146.256C269.676 146.11 269.482 145.999 269.221 145.922C268.969 145.835 268.664 145.757 268.306 145.689C267.977 145.631 267.653 145.554 267.333 145.457C267.023 145.351 266.743 145.22 266.491 145.065C266.239 144.91 266.041 144.716 265.896 144.484C265.75 144.242 265.678 143.947 265.678 143.598C265.678 143.182 265.789 142.809 266.012 142.48C266.234 142.151 266.549 141.895 266.956 141.711C267.372 141.517 267.861 141.42 268.422 141.42C269.235 141.42 269.889 141.614 270.382 142.001C270.876 142.379 271.167 142.921 271.254 143.627H269.845C269.797 143.308 269.647 143.056 269.395 142.872C269.153 142.688 268.824 142.596 268.408 142.596C267.991 142.596 267.672 142.679 267.449 142.843C267.227 143.008 267.115 143.226 267.115 143.497C267.115 143.671 267.178 143.826 267.304 143.961C267.43 144.097 267.619 144.213 267.87 144.31C268.122 144.407 268.422 144.489 268.771 144.557C269.284 144.654 269.744 144.775 270.15 144.92C270.557 145.065 270.881 145.278 271.123 145.559C271.365 145.839 271.486 146.241 271.486 146.764C271.496 147.219 271.38 147.621 271.137 147.969C270.905 148.318 270.571 148.589 270.136 148.782C269.71 148.976 269.201 149.073 268.611 149.073Z" fill="#B12C72"/>
<defs>
<filter id="filter0_iii_4123_79971" x="200.5" y="184.75" width="95" height="91.2" filterUnits="userSpaceOnUse" color-interpolation-filters="sRGB">
<feFlood flood-opacity="0" result="BackgroundImageFix"/>
<feBlend mode="normal" in="SourceGraphic" in2="BackgroundImageFix" result="shape"/>
<feColorMatrix in="SourceAlpha" type="matrix" values="0 0 0 0 0 0 0 0 0 0 0 0 0 0 0 0 0 0 127 0" result="hardAlpha"/>
<feOffset dy="-9.5"/>
<feGaussianBlur stdDeviation="4.75"/>
<feComposite in2="hardAlpha" operator="arithmetic" k2="-1" k3="1"/>
<feColorMatrix type="matrix" values="0 0 0 0 0 0 0 0 0 0 0 0 0 0 0 0 0 0 0.25 0"/>
<feBlend mode="normal" in2="shape" result="effect1_innerShadow_4123_79971"/>
<feColorMatrix in="SourceAlpha" type="matrix" values="0 0 0 0 0 0 0 0 0 0 0 0 0 0 0 0 0 0 127 0" result="hardAlpha"/>
<feOffset dy="-3.325"/>
<feGaussianBlur stdDeviation="1.1875"/>
<feComposite in2="hardAlpha" operator="arithmetic" k2="-1" k3="1"/>
<feColorMatrix type="matrix" values="0 0 0 0 0 0 0 0 0 0 0 0 0 0 0 0 0 0 0.17 0"/>
<feBlend mode="normal" in2="effect1_innerShadow_4123_79971" result="effect2_innerShadow_4123_79971"/>
<feColorMatrix in="SourceAlpha" type="matrix" values="0 0 0 0 0 0 0 0 0 0 0 0 0 0 0 0 0 0 127 0" result="hardAlpha"/>
<feOffset dy="0.95"/>
<feGaussianBlur stdDeviation="1.1875"/>
<feComposite in2="hardAlpha" operator="arithmetic" k2="-1" k3="1"/>
<feColorMatrix type="matrix" values="0 0 0 0 1 0 0 0 0 1 0 0 0 0 1 0 0 0 0.7 0"/>
<feBlend mode="normal" in2="effect2_innerShadow_4123_79971" result="effect3_innerShadow_4123_79971"/>
</filter>
<filter id="filter1_d_4123_79971" x="195.75" y="180" width="104.5" height="85.5" filterUnits="userSpaceOnUse" color-interpolation-filters="sRGB">
<feFlood flood-opacity="0" result="BackgroundImageFix"/>
<feColorMatrix in="SourceAlpha" type="matrix" values="0 0 0 0 0 0 0 0 0 0 0 0 0 0 0 0 0 0 127 0" result="hardAlpha"/>
<feOffset/>
<feGaussianBlur stdDeviation="9.5"/>
<feComposite in2="hardAlpha" operator="out"/>
<feColorMatrix type="matrix" values="0 0 0 0 0 0 0 0 0 0 0 0 0 0 0 0 0 0 0.12 0"/>
<feBlend mode="normal" in2="BackgroundImageFix" result="effect1_dropShadow_4123_79971"/>
<feBlend mode="normal" in="SourceGraphic" in2="effect1_dropShadow_4123_79971" result="shape"/>
</filter>
<filter id="filter2_d_4123_79971" x="188.286" y="191.536" width="119.429" height="86.1786" filterUnits="userSpaceOnUse" color-interpolation-filters="sRGB">
<feFlood flood-opacity="0" result="BackgroundImageFix"/>
<feColorMatrix in="SourceAlpha" type="matrix" values="0 0 0 0 0 0 0 0 0 0 0 0 0 0 0 0 0 0 127 0" result="hardAlpha"/>
<feOffset/>
<feGaussianBlur stdDeviation="10.8571"/>
<feComposite in2="hardAlpha" operator="out"/>
<feColorMatrix type="matrix" values="0 0 0 0 0 0 0 0 0 0 0 0 0 0 0 0 0 0 0.12 0"/>
<feBlend mode="normal" in2="BackgroundImageFix" result="effect1_dropShadow_4123_79971"/>
<feBlend mode="normal" in="SourceGraphic" in2="effect1_dropShadow_4123_79971" result="shape"/>
</filter>
<filter id="filter3_f_4123_79971" x="122.125" y="134.875" width="142.5" height="109.25" filterUnits="userSpaceOnUse" color-interpolation-filters="sRGB">
<feFlood flood-opacity="0" result="BackgroundImageFix"/>
<feBlend mode="normal" in="SourceGraphic" in2="BackgroundImageFix" result="shape"/>
<feGaussianBlur stdDeviation="13.0625" result="effect1_foregroundBlur_4123_79971"/>
</filter>
<filter id="filter4_f_4123_79971" x="202.875" y="225.125" width="90.25" height="28.5" filterUnits="userSpaceOnUse" color-interpolation-filters="sRGB">
<feFlood flood-opacity="0" result="BackgroundImageFix"/>
<feBlend mode="normal" in="SourceGraphic" in2="BackgroundImageFix" result="shape"/>
<feGaussianBlur stdDeviation="1.1875" result="effect1_foregroundBlur_4123_79971"/>
</filter>
<filter id="filter5_iiii_4123_79971" x="200.5" y="218" width="95" height="67.45" filterUnits="userSpaceOnUse" color-interpolation-filters="sRGB">
<feFlood flood-opacity="0" result="BackgroundImageFix"/>
<feBlend mode="normal" in="SourceGraphic" in2="BackgroundImageFix" result="shape"/>
<feColorMatrix in="SourceAlpha" type="matrix" values="0 0 0 0 0 0 0 0 0 0 0 0 0 0 0 0 0 0 127 0" result="hardAlpha"/>
<feOffset dy="-9.5"/>
<feGaussianBlur stdDeviation="4.75"/>
<feComposite in2="hardAlpha" operator="arithmetic" k2="-1" k3="1"/>
<feColorMatrix type="matrix" values="0 0 0 0 0 0 0 0 0 0 0 0 0 0 0 0 0 0 0.14 0"/>
<feBlend mode="normal" in2="shape" result="effect1_innerShadow_4123_79971"/>
<feColorMatrix in="SourceAlpha" type="matrix" values="0 0 0 0 0 0 0 0 0 0 0 0 0 0 0 0 0 0 127 0" result="hardAlpha"/>
<feOffset dy="-3.325"/>
<feGaussianBlur stdDeviation="1.1875"/>
<feComposite in2="hardAlpha" operator="arithmetic" k2="-1" k3="1"/>
<feColorMatrix type="matrix" values="0 0 0 0 0 0 0 0 0 0 0 0 0 0 0 0 0 0 0.01 0"/>
<feBlend mode="normal" in2="effect1_innerShadow_4123_79971" result="effect2_innerShadow_4123_79971"/>
<feColorMatrix in="SourceAlpha" type="matrix" values="0 0 0 0 0 0 0 0 0 0 0 0 0 0 0 0 0 0 127 0" result="hardAlpha"/>
<feOffset dy="0.95"/>
<feGaussianBlur stdDeviation="1.1875"/>
<feComposite in2="hardAlpha" operator="arithmetic" k2="-1" k3="1"/>
<feColorMatrix type="matrix" values="0 0 0 0 1 0 0 0 0 1 0 0 0 0 1 0 0 0 0.7 0"/>
<feBlend mode="normal" in2="effect2_innerShadow_4123_79971" result="effect3_innerShadow_4123_79971"/>
<feColorMatrix in="SourceAlpha" type="matrix" values="0 0 0 0 0 0 0 0 0 0 0 0 0 0 0 0 0 0 127 0" result="hardAlpha"/>
<feOffset dy="0.475"/>
<feGaussianBlur stdDeviation="0.2375"/>
<feComposite in2="hardAlpha" operator="arithmetic" k2="-1" k3="1"/>
<feColorMatrix type="matrix" values="0 0 0 0 1 0 0 0 0 1 0 0 0 0 1 0 0 0 0.25 0"/>
<feBlend mode="normal" in2="effect3_innerShadow_4123_79971" result="effect4_innerShadow_4123_79971"/>
</filter>
<filter id="filter6_f_4123_79971" x="169.625" y="177.625" width="156.75" height="109.25" filterUnits="userSpaceOnUse" color-interpolation-filters="sRGB">
<feFlood flood-opacity="0" result="BackgroundImageFix"/>
<feBlend mode="normal" in="SourceGraphic" in2="BackgroundImageFix" result="shape"/>
<feGaussianBlur stdDeviation="13.0625" result="effect1_foregroundBlur_4123_79971"/>
</filter>
<filter id="filter7_i_4123_79971" x="262.25" y="232.25" width="28.5" height="5.7" filterUnits="userSpaceOnUse" color-interpolation-filters="sRGB">
<feFlood flood-opacity="0" result="BackgroundImageFix"/>
<feBlend mode="normal" in="SourceGraphic" in2="BackgroundImageFix" result="shape"/>
<feColorMatrix in="SourceAlpha" type="matrix" values="0 0 0 0 0 0 0 0 0 0 0 0 0 0 0 0 0 0 127 0" result="hardAlpha"/>
<feOffset dy="1.425"/>
<feGaussianBlur stdDeviation="0.475"/>
<feComposite in2="hardAlpha" operator="arithmetic" k2="-1" k3="1"/>
<feColorMatrix type="matrix" values="0 0 0 0 0 0 0 0 0 0 0 0 0 0 0 0 0 0 0.26 0"/>
<feBlend mode="normal" in2="shape" result="effect1_innerShadow_4123_79971"/>
</filter>
<linearGradient id="paint0_linear_4123_79971" x1="276.5" y1="232.25" x2="276.5" y2="237" gradientUnits="userSpaceOnUse">
<stop stop-color="#D3D3D3"/>
<stop offset="1" stop-color="#D9D9D9"/>
</linearGradient>
</defs>
</svg>
