<svg width="16" height="16" viewBox="0 0 16 16" fill="none" xmlns="http://www.w3.org/2000/svg">
<path fill-rule="evenodd" clip-rule="evenodd" d="M6.20601 1.81381C7.31638 1.17274 8.68442 1.17274 9.7948 1.81381L12.4603 3.35275C13.5707 3.99383 14.2547 5.17859 14.2547 6.46074V9.53861C14.2547 10.8208 13.5707 12.0055 12.4603 12.6466L9.7948 14.1855C8.68442 14.8266 7.31638 14.8266 6.20601 14.1855L3.54049 12.6466C2.43011 12.0055 1.74609 10.8208 1.74609 9.53861V6.46074C1.74609 5.17859 2.43011 3.99383 3.54049 3.35275L6.20601 1.81381ZM8.50499 4.04784C8.19275 3.86757 7.80806 3.86757 7.49582 4.04784L4.8303 5.58677C4.51807 5.76704 4.32572 6.1002 4.32572 6.46074V9.53861C4.32572 9.89915 4.51807 10.2323 4.8303 10.4126L7.49582 11.9515C7.80806 12.1318 8.19275 12.1318 8.50499 11.9515L11.1705 10.4126C11.4827 10.2323 11.6751 9.89915 11.6751 9.53861V6.46074C11.6751 6.1002 11.4827 5.76704 11.1705 5.58677L8.50499 4.04784Z" fill="white"/>
<path fill-rule="evenodd" clip-rule="evenodd" d="M8.50446 4.04829C8.19222 3.86802 7.80753 3.86802 7.49529 4.04829L4.82978 5.58723C4.51754 5.7675 4.3252 6.10065 4.3252 6.46119V9.53906C4.3252 9.8996 4.51754 10.2328 4.82978 10.413L7.49529 11.952C7.80753 12.1322 8.19222 12.1322 8.50446 11.952L11.17 10.413C11.4822 10.2328 11.6746 9.8996 11.6746 9.53906V6.46119C11.6746 6.10065 11.4822 5.7675 11.17 5.58723L8.50446 4.04829Z" fill="#FFD52B"/>
</svg>
