<svg width="24" height="24" viewBox="0 0 24 24" fill="none" xmlns="http://www.w3.org/2000/svg">
<path fill-rule="evenodd" clip-rule="evenodd" d="M9.30901 2.72121C10.9746 1.7596 13.0266 1.7596 14.6922 2.72121L18.6905 5.02962C20.356 5.99123 21.3821 7.76837 21.3821 9.69159V14.3084C21.3821 16.2316 20.356 18.0088 18.6905 18.9704L14.6922 21.2788C13.0266 22.2404 10.9746 22.2404 9.30901 21.2788L5.31074 18.9704C3.64517 18.0088 2.61914 16.2316 2.61914 14.3084V9.69159C2.61914 7.76837 3.64517 5.99123 5.31074 5.02962L9.30901 2.72121ZM12.7575 6.07225C12.2891 5.80184 11.7121 5.80184 11.2437 6.07225L7.24546 8.38065C6.7771 8.65106 6.48858 9.15078 6.48858 9.69159V14.3084C6.48858 14.8492 6.7771 15.3489 7.24546 15.6193L11.2437 17.9278C11.7121 18.1982 12.2891 18.1982 12.7575 17.9278L16.7558 15.6193C17.2241 15.3489 17.5126 14.8492 17.5126 14.3084V9.69159C17.5126 9.15078 17.2241 8.65106 16.7558 8.38065L12.7575 6.07225Z" fill="black"/>
<path fill-rule="evenodd" clip-rule="evenodd" d="M12.7572 6.07194C12.2888 5.80154 11.7118 5.80154 11.2434 6.07194L7.24516 8.38035C6.7768 8.65075 6.48828 9.15048 6.48828 9.69129V14.3081C6.48828 14.8489 6.7768 15.3486 7.24516 15.619L11.2434 17.9275C11.7118 18.1979 12.2888 18.1979 12.7572 17.9275L16.7555 15.619C17.2238 15.3486 17.5123 14.8489 17.5123 14.3081V9.69129C17.5123 9.15048 17.2238 8.65075 16.7555 8.38035L12.7572 6.07194Z" fill="white"/>
</svg>
