<svg width="32" height="32" viewBox="0 0 32 32" fill="none" xmlns="http://www.w3.org/2000/svg">
<path fill-rule="evenodd" clip-rule="evenodd" d="M12.412 3.62861C14.6328 2.34645 17.3688 2.34645 19.5896 3.62861L24.9206 6.70648C27.1414 7.98863 28.5094 10.3581 28.5094 12.9225V19.0782C28.5094 21.6425 27.1414 24.012 24.9206 25.2942L19.5896 28.372C17.3688 29.6542 14.6328 29.6542 12.412 28.372L7.08098 25.2942C4.86023 24.012 3.49219 21.6425 3.49219 19.0782V12.9225C3.49219 10.3581 4.86023 7.98863 7.08098 6.70648L12.412 3.62861ZM17.01 8.09665C16.3855 7.73611 15.6161 7.73611 14.9916 8.09665L9.66061 11.1745C9.03613 11.5351 8.65144 12.2014 8.65144 12.9225V19.0782C8.65144 19.7993 9.03613 20.4656 9.66061 20.8261L14.9916 23.904C15.6161 24.2645 16.3855 24.2645 17.01 23.904L22.341 20.8261C22.9655 20.4656 23.3502 19.7993 23.3502 19.0782V12.9225C23.3502 12.2014 22.9655 11.5351 22.341 11.1745L17.01 8.09665Z" fill="#FFD52B"/>
<path fill-rule="evenodd" clip-rule="evenodd" d="M17.0089 8.0956C16.3844 7.73506 15.6151 7.73506 14.9906 8.0956L9.65956 11.1735C9.03508 11.534 8.65039 12.2003 8.65039 12.9214V19.0771C8.65039 19.7982 9.03508 20.4645 9.65956 20.8251L14.9906 23.9029C15.6151 24.2635 16.3844 24.2635 17.0089 23.9029L22.34 20.8251C22.9644 20.4645 23.3491 19.7982 23.3491 19.0771V12.9214C23.3491 12.2003 22.9644 11.534 22.34 11.1735L17.0089 8.0956Z" fill="white"/>
</svg>
