<svg width="64" height="64" viewBox="0 0 64 64" fill="none" xmlns="http://www.w3.org/2000/svg">
<path fill-rule="evenodd" clip-rule="evenodd" d="M25.156 7.54661C29.3908 5.10165 34.6083 5.10165 38.8431 7.54661L49.7552 13.8467C53.99 16.2917 56.5987 20.8101 56.5987 25.7001V38.3003C56.5987 43.1902 53.99 47.7086 49.7552 50.1536L38.8431 56.4537C34.6083 58.8987 29.3908 58.8987 25.156 56.4537L14.2439 50.1536C10.0091 47.7086 7.40039 43.1902 7.40039 38.3003V25.7001C7.40039 20.8101 10.0091 16.2917 14.2439 13.8467L25.156 7.54661ZM36.2967 11.9571C33.6376 10.4219 30.3615 10.4219 27.7024 11.9571L16.7903 18.2572C14.1313 19.7925 12.4932 22.6296 12.4932 25.7001V38.3003C12.4932 41.3707 14.1313 44.2079 16.7903 45.7431L27.7024 52.0432C30.3615 53.5784 33.6376 53.5784 36.2967 52.0432L47.2088 45.7431C49.8678 44.2079 51.5059 41.3707 51.5059 38.3003V25.7001C51.5059 22.6296 49.8678 19.7925 47.2088 18.2572L36.2967 11.9571Z" fill="#FFD52B"/>
<path d="M40.8205 44.7321L34.5458 48.3548C32.9701 49.2645 31.0287 49.2645 29.453 48.3548L23.1783 44.7321H40.8205Z" fill="#FFD52B"/>
<path d="M16.843 39.6393C16.6599 39.1108 16.5625 38.5484 16.5625 37.9721V34.5464H47.4363V37.9721C47.4363 38.5484 47.3389 39.1108 47.1557 39.6393H16.843Z" fill="#FFD52B"/>
<path d="M16.5625 29.4536V26.0279C16.5625 25.4516 16.6599 24.8892 16.843 24.3607H47.1557C47.3389 24.8892 47.4363 25.4516 47.4363 26.0279V29.4536H16.5625Z" fill="#FFD52B"/>
<path d="M40.8205 19.2679H23.1783L29.453 15.6452C31.0287 14.7355 32.9701 14.7355 34.5458 15.6452L40.8205 19.2679Z" fill="#FFD52B"/>
</svg>
