<svg width="32" height="32" viewBox="0 0 32 32" fill="none" xmlns="http://www.w3.org/2000/svg">
<path fill-rule="evenodd" clip-rule="evenodd" d="M12.578 3.7733C14.6954 2.55083 17.3041 2.55083 19.4215 3.7733L24.8776 6.92336C26.995 8.14583 28.2994 10.4051 28.2994 12.85V19.1501C28.2994 21.5951 26.995 23.8543 24.8776 25.0768L19.4215 28.2269C17.3041 29.4493 14.6954 29.4493 12.578 28.2269L7.12196 25.0768C5.00456 23.8543 3.7002 21.5951 3.7002 19.1501V12.85C3.7002 10.4051 5.00456 8.14583 7.12196 6.92336L12.578 3.7733ZM18.1483 5.97857C16.8188 5.21097 15.1808 5.21097 13.8512 5.97857L8.39517 9.12862C7.06564 9.89623 6.24662 11.3148 6.24662 12.85V19.1501C6.24662 20.6853 7.06564 22.1039 8.39517 22.8715L13.8512 26.0216C15.1808 26.7892 16.8188 26.7892 18.1483 26.0216L23.6044 22.8715C24.9339 22.1039 25.7529 20.6853 25.7529 19.1501V12.85C25.7529 11.3148 24.9339 9.89623 23.6044 9.12862L18.1483 5.97857Z" fill="#FFD52B"/>
<path d="M20.4102 22.3661L17.2729 24.1774C16.485 24.6323 15.5143 24.6323 14.7265 24.1774L11.5892 22.3661H20.4102Z" fill="#FFD52B"/>
<path d="M8.42151 19.8196C8.32994 19.5554 8.28125 19.2742 8.28125 18.9861V17.2732H23.7181V18.9861C23.7181 19.2742 23.6694 19.5554 23.5779 19.8196H8.42151Z" fill="#FFD52B"/>
<path d="M8.28125 14.7268V13.0139C8.28125 12.7258 8.32994 12.4446 8.42151 12.1804H23.5779C23.6694 12.4446 23.7181 12.7258 23.7181 13.0139V14.7268H8.28125Z" fill="#FFD52B"/>
<path d="M20.4102 9.63394H11.5892L14.7265 7.8226C15.5143 7.36773 16.485 7.36773 17.2729 7.8226L20.4102 9.63394Z" fill="#FFD52B"/>
</svg>
