<svg width="24" height="24" viewBox="0 0 24 24" fill="none" xmlns="http://www.w3.org/2000/svg">
<path fill-rule="evenodd" clip-rule="evenodd" d="M9.43375 2.83022C11.0218 1.91336 12.9784 1.91336 14.5664 2.83022L18.6584 5.19276C20.2465 6.10962 21.2248 7.80405 21.2248 9.63776V14.3628C21.2248 16.1966 20.2465 17.891 18.6584 18.8078L14.5664 21.1704C12.9784 22.0872 11.0218 22.0872 9.43375 21.1704L5.34171 18.8078C3.75367 17.891 2.77539 16.1966 2.77539 14.3628V9.63776C2.77539 7.80405 3.75367 6.10962 5.34171 5.19276L9.43375 2.83022ZM13.6115 4.48417C12.6143 3.90847 11.3858 3.90847 10.3887 4.48417L6.29662 6.84671C5.29948 7.42242 4.68521 8.48636 4.68521 9.63776V14.3628C4.68521 15.5142 5.29948 16.5782 6.29662 17.1539L10.3887 19.5164C11.3858 20.0921 12.6143 20.0921 13.6115 19.5164L17.7035 17.1539C18.7007 16.5782 19.3149 15.5142 19.3149 14.3628V9.63776C19.3149 8.48636 18.7007 7.42242 17.7035 6.84671L13.6115 4.48417Z" fill="white"/>
<path d="M15.3086 16.7748L12.9557 18.1333C12.3648 18.4744 11.6367 18.4744 11.0458 18.1333L8.69284 16.7748H15.3086Z" fill="white"/>
<path d="M6.31711 14.865C6.24843 14.6668 6.21191 14.4559 6.21191 14.2398V12.9552H17.7896V14.2398C17.7896 14.4559 17.7531 14.6668 17.6844 14.865H6.31711Z" fill="white"/>
<path d="M6.21191 11.0453V9.7607C6.21191 9.54459 6.24843 9.33368 6.31711 9.13552H17.6844C17.7531 9.33368 17.7896 9.54459 17.7896 9.7607V11.0453H6.21191Z" fill="white"/>
<path d="M15.3086 7.2257H8.69284L11.0458 5.8672C11.6367 5.52604 12.3648 5.52604 12.9557 5.8672L15.3086 7.2257Z" fill="white"/>
</svg>
