<svg width="32" height="32" viewBox="0 0 32 32" fill="none" xmlns="http://www.w3.org/2000/svg">
<path fill-rule="evenodd" clip-rule="evenodd" d="M12.579 3.7733C14.6964 2.55083 17.3051 2.55083 19.4225 3.7733L24.8786 6.92336C26.996 8.14583 28.3003 10.4051 28.3003 12.85V19.1501C28.3003 21.5951 26.996 23.8543 24.8786 25.0768L19.4225 28.2269C17.3051 29.4493 14.6964 29.4493 12.579 28.2269L7.12294 25.0768C5.00554 23.8543 3.70117 21.5951 3.70117 19.1501V12.85C3.70117 10.4051 5.00554 8.14583 7.12294 6.92336L12.579 3.7733ZM18.1493 5.97857C16.8198 5.21097 15.1817 5.21097 13.8522 5.97857L8.39615 9.12862C7.06662 9.89623 6.2476 11.3148 6.2476 12.85V19.1501C6.2476 20.6853 7.06662 22.1039 8.39615 22.8715L13.8522 26.0216C15.1817 26.7892 16.8198 26.7892 18.1493 26.0216L23.6054 22.8715C24.9349 22.1039 25.7539 20.6853 25.7539 19.1501V12.85C25.7539 11.3148 24.9349 9.89623 23.6054 9.12862L18.1493 5.97857Z" fill="white"/>
<path d="M20.4122 22.3661L17.2749 24.1774C16.487 24.6323 15.5163 24.6323 14.7284 24.1774L11.5911 22.3661H20.4122Z" fill="white"/>
<path d="M8.42346 19.8196C8.33189 19.5554 8.2832 19.2742 8.2832 18.9861V17.2732H23.7201V18.9861C23.7201 19.2742 23.6714 19.5554 23.5798 19.8196H8.42346Z" fill="white"/>
<path d="M8.2832 14.7268V13.0139C8.2832 12.7258 8.33189 12.4446 8.42346 12.1804H23.5798C23.6714 12.4446 23.7201 12.7258 23.7201 13.0139V14.7268H8.2832Z" fill="white"/>
<path d="M20.4122 9.63394H11.5911L14.7284 7.8226C15.5163 7.36773 16.487 7.36773 17.2749 7.8226L20.4122 9.63394Z" fill="white"/>
</svg>
