<svg width="64" height="64" viewBox="0 0 64 64" fill="none" xmlns="http://www.w3.org/2000/svg">
<path fill-rule="evenodd" clip-rule="evenodd" d="M25.158 7.54661C29.3928 5.10165 34.6102 5.10165 38.845 7.54661L49.7571 13.8467C53.9919 16.2917 56.6007 20.8101 56.6007 25.7001V38.3003C56.6007 43.1902 53.9919 47.7086 49.7571 50.1536L38.845 56.4537C34.6102 58.8987 29.3928 58.8987 25.158 56.4537L14.2459 50.1536C10.0111 47.7086 7.40234 43.1902 7.40234 38.3003V25.7001C7.40234 20.8101 10.0111 16.2917 14.2459 13.8467L25.158 7.54661ZM36.2986 11.9571C33.6395 10.4219 30.3635 10.4219 27.7044 11.9571L16.7923 18.2572C14.1332 19.7925 12.4952 22.6296 12.4952 25.7001V38.3003C12.4952 41.3707 14.1332 44.2079 16.7923 45.7431L27.7044 52.0432C30.3635 53.5784 33.6395 53.5784 36.2986 52.0432L47.2107 45.7431C49.8698 44.2079 51.5078 41.3707 51.5078 38.3003V25.7001C51.5078 22.6296 49.8698 19.7925 47.2107 18.2572L36.2986 11.9571Z" fill="white"/>
<path d="M40.8244 44.7321L34.5497 48.3548C32.974 49.2645 31.0326 49.2645 29.4569 48.3548L23.1822 44.7321H40.8244Z" fill="white"/>
<path d="M16.8469 39.6393C16.6638 39.1108 16.5664 38.5484 16.5664 37.9721V34.5464H47.4402V37.9721C47.4402 38.5484 47.3428 39.1108 47.1597 39.6393H16.8469Z" fill="white"/>
<path d="M16.5664 29.4536V26.0279C16.5664 25.4516 16.6638 24.8892 16.8469 24.3607H47.1597C47.3428 24.8892 47.4402 25.4516 47.4402 26.0279V29.4536H16.5664Z" fill="white"/>
<path d="M40.8244 19.2679H23.1822L29.4569 15.6452C31.0326 14.7355 32.974 14.7355 34.5497 15.6452L40.8244 19.2679Z" fill="white"/>
</svg>
