<svg width="200" height="200" viewBox="0 0 200 200" fill="none" xmlns="http://www.w3.org/2000/svg">
<path fill-rule="evenodd" clip-rule="evenodd" d="M79.0069 22.7004C92.3068 15.0217 108.693 15.0217 121.993 22.7004L156.264 42.4867C169.564 50.1654 177.757 64.3562 177.757 79.7136V119.286C177.757 134.644 169.564 148.834 156.264 156.513L121.993 176.299C108.693 183.978 92.3068 183.978 79.0069 176.299L44.7361 156.513C31.4362 148.834 23.2432 134.644 23.2432 119.286V79.7136C23.2432 64.3562 31.4362 50.1654 44.7361 42.4867L79.0069 22.7004ZM113.995 36.5523C105.644 31.7308 95.3554 31.7308 87.0043 36.5523L52.7335 56.3385C44.3824 61.16 39.2379 70.0706 39.2379 79.7136V119.286C39.2379 128.929 44.3824 137.84 52.7335 142.661L87.0043 162.447C95.3554 167.269 105.644 167.269 113.995 162.447L148.266 142.661C156.617 137.84 161.762 128.929 161.762 119.286V79.7136C161.762 70.0706 156.617 61.16 148.266 56.3385L113.995 36.5523Z" fill="black"/>
<path d="M128.204 139.486L108.497 150.864C103.549 153.721 97.4514 153.721 92.5026 150.864L72.7963 139.486H128.204Z" fill="black"/>
<path d="M52.8995 123.491C52.3244 121.832 52.0186 120.065 52.0186 118.256V107.497H148.981V118.256C148.981 120.065 148.676 121.832 148.1 123.491H52.8995Z" fill="black"/>
<path d="M52.0186 91.502V80.7431C52.0186 78.9332 52.3244 77.1669 52.8995 75.5073H148.1C148.676 77.1669 148.981 78.9332 148.981 80.7431V91.502H52.0186Z" fill="black"/>
<path d="M128.204 59.5125H72.7963L92.5026 48.1351C97.4514 45.2779 103.549 45.2779 108.497 48.1351L128.204 59.5125Z" fill="black"/>
</svg>
