<svg width="433" height="298" viewBox="0 0 433 298" fill="none" xmlns="http://www.w3.org/2000/svg">
<path d="M74.793 18L103.155 34.375V67.125L74.793 83.5L46.4306 67.125V34.375L74.793 18Z" stroke="#FFDD55" stroke-width="1.25962"/>
<path d="M131.477 18L159.839 34.375V67.125L131.477 83.5L103.114 67.125V34.375L131.477 18Z" stroke="#FFDD55" stroke-width="1.25962"/>
<path d="M188.158 18L216.521 34.375V67.125L188.158 83.5L159.796 67.125V34.375L188.158 18Z" stroke="#FFDD55" stroke-width="1.25962"/>
<path d="M244.842 18L273.204 34.375V67.125L244.842 83.5L216.479 67.125V34.375L244.842 18Z" stroke="#FFDD55" stroke-width="1.25962"/>
<path d="M301.523 18L329.886 34.375V67.125L301.523 83.5L273.161 67.125V34.375L301.523 18Z" stroke="#FFDD55" stroke-width="1.25962"/>
<path d="M358.207 18L386.569 34.375V67.125L358.207 83.5L329.845 67.125V34.375L358.207 18Z" stroke="#FFDD55" stroke-width="1.25962"/>
<path d="M46.4512 67.125L74.8135 83.5V116.25L46.4512 132.625L18.0888 116.25V83.5L46.4512 67.125Z" stroke="#FFDD55" stroke-width="1.25962"/>
<path d="M103.135 67.125L131.497 83.5V116.25L103.135 132.625L74.7724 116.25V83.5L103.135 67.125Z" stroke="#FFDD55" stroke-width="1.25962"/>
<path d="M159.816 67.125L188.179 83.5V116.25L159.816 132.625L131.454 116.25V83.5L159.816 67.125Z" stroke="#FFDD55" stroke-width="1.25962"/>
<path d="M216.5 67.125L244.862 83.5V116.25L216.5 132.625L188.138 116.25V83.5L216.5 67.125Z" stroke="#FFDD55" stroke-width="1.25962"/>
<path d="M273.184 67.125L301.546 83.5V116.25L273.184 132.625L244.821 116.25V83.5L273.184 67.125Z" stroke="#FFDD55" stroke-width="1.25962"/>
<path d="M329.865 67.125L358.228 83.5V116.25L329.865 132.625L301.503 116.25V83.5L329.865 67.125Z" stroke="#FFDD55" stroke-width="1.25962"/>
<path d="M386.549 67.125L414.911 83.5V116.25L386.549 132.625L358.186 116.25V83.5L386.549 67.125Z" stroke="#FFDD55" stroke-width="1.25962"/>
<path d="M74.793 116.25L103.155 132.625V165.375L74.793 181.75L46.4306 165.375V132.625L74.793 116.25Z" stroke="#FFDD55" stroke-width="1.25962"/>
<path d="M131.477 116.25L159.839 132.625V165.375L131.477 181.75L103.114 165.375V132.625L131.477 116.25Z" stroke="#FFDD55" stroke-width="1.25962"/>
<path d="M188.158 116.25L216.521 132.625V165.375L188.158 181.75L159.796 165.375V132.625L188.158 116.25Z" stroke="#FFDD55" stroke-width="1.25962"/>
<path d="M244.842 116.25L273.204 132.625V165.375L244.842 181.75L216.479 165.375V132.625L244.842 116.25Z" stroke="#FFDD55" stroke-width="1.25962"/>
<path d="M301.523 116.25L329.886 132.625V165.375L301.523 181.75L273.161 165.375V132.625L301.523 116.25Z" stroke="#FFDD55" stroke-width="1.25962"/>
<path d="M358.207 116.25L386.569 132.625V165.375L358.207 181.75L329.845 165.375V132.625L358.207 116.25Z" stroke="#FFDD55" stroke-width="1.25962"/>
<path d="M103.135 165.375L131.497 181.75V214.5L103.135 230.875L74.7724 214.5V181.75L103.135 165.375Z" stroke="#FFDD55" stroke-width="1.25962"/>
<path d="M159.816 165.375L188.179 181.75V214.5L159.816 230.875L131.454 214.5V181.75L159.816 165.375Z" stroke="#FFDD55" stroke-width="1.25962"/>
<path d="M216.5 165.375L244.862 181.75V214.5L216.5 230.875L188.138 214.5V181.75L216.5 165.375Z" stroke="#FFDD55" stroke-width="1.25962"/>
<path d="M273.184 165.375L301.546 181.75V214.5L273.184 230.875L244.821 214.5V181.75L273.184 165.375Z" stroke="#FFDD55" stroke-width="1.25962"/>
<path d="M329.865 165.375L358.228 181.75V214.5L329.865 230.875L301.503 214.5V181.75L329.865 165.375Z" stroke="#FFDD55" stroke-width="1.25962"/>
<path d="M131.477 214.5L159.839 230.875V263.625L131.477 280L103.114 263.625V230.875L131.477 214.5Z" stroke="#FFDD55" stroke-width="1.25962"/>
<path d="M188.158 214.5L216.521 230.875V263.625L188.158 280L159.796 263.625V230.875L188.158 214.5Z" stroke="#FFDD55" stroke-width="1.25962"/>
<path d="M244.842 214.5L273.204 230.875V263.625L244.842 280L216.479 263.625V230.875L244.842 214.5Z" stroke="#FFDD55" stroke-width="1.25962"/>
<path d="M301.523 214.5L329.886 230.875V263.625L301.523 280L273.161 263.625V230.875L301.523 214.5Z" stroke="#FFDD55" stroke-width="1.25962"/>
</svg>
