<svg width="200" height="54" viewBox="0 0 200 54" fill="none" xmlns="http://www.w3.org/2000/svg">
<path d="M21.7996 7.24915C24.8069 5.51292 28.5119 5.51292 31.5192 7.24914L41.0393 12.7456C44.0465 14.4818 45.899 17.6905 45.899 21.1629V32.1559C45.899 35.6283 44.0465 38.837 41.0393 40.5732L31.5192 46.0696C28.5119 47.8059 24.8069 47.8059 21.7996 46.0696L12.2795 40.5732C9.27228 38.837 7.41974 35.6283 7.41974 32.1558V21.1629C7.41974 17.6905 9.27227 14.4818 12.2795 12.7456L21.7996 7.24915Z" stroke="black" stroke-width="4.4432"/>
<mask id="mask0_4560_6878" style="mask-type:alpha" maskUnits="userSpaceOnUse" x="13" y="11" width="28" height="31">
<path d="M24.438 12.3901C25.8127 11.5964 27.5065 11.5964 28.8812 12.3901L37.9057 17.6004C39.2804 18.3941 40.1273 19.8609 40.1273 21.4483V31.8689C40.1273 33.4563 39.2804 34.9231 37.9057 35.7168L28.8812 40.9272C27.5065 41.7209 25.8127 41.7209 24.438 40.9272L15.4135 35.7168C14.0387 34.9231 13.1919 33.4563 13.1919 31.8689V21.4483C13.1919 19.8609 14.0387 18.3941 15.4135 17.6004L24.438 12.3901Z" fill="#D9D9D9"/>
</mask>
<g mask="url(#mask0_4560_6878)">
<path d="M13.3301 37.7666H39.9893V42.2098H13.3301V37.7666Z" fill="black"/>
<rect x="11.1084" y="28.8799" width="31.1024" height="4.4432" rx="0.44432" fill="black"/>
<rect x="11.1084" y="19.9941" width="31.1024" height="4.4432" rx="0.44432" fill="black"/>
<path d="M13.3301 11.1074H39.9893V15.5506H13.3301V11.1074Z" fill="black"/>
</g>
<path d="M66.6484 38.2124V15.1055H71.1708V34.0862H81.3379V38.2124H66.6484Z" fill="black"/>
<path d="M94.3231 38.4431C92.4085 38.4431 90.747 38.069 89.3386 37.3208C87.9301 36.5726 86.8408 35.5273 86.0706 34.1849C85.3224 32.8204 84.9482 31.214 84.9482 29.3654V14.874H89.4706V29.3654C89.4706 30.3557 89.6687 31.225 90.0648 31.9732C90.4829 32.6994 91.0551 33.2606 91.7813 33.6567C92.5295 34.0528 93.3988 34.2509 94.3891 34.2509C95.3794 34.2509 96.2377 34.0528 96.9639 33.6567C97.7121 33.2606 98.2843 32.6994 98.6804 31.9732C99.0985 31.225 99.3076 30.3557 99.3076 29.3654V14.874H103.83V29.3654C103.83 31.214 103.434 32.8204 102.642 34.1849C101.871 35.5273 100.771 36.5726 99.3406 37.3208C97.9322 38.069 96.2597 38.4431 94.3231 38.4431Z" fill="black"/>
<path d="M107.44 38.2124V33.9872L119.951 19.3307H107.539V15.1055H125.794V19.3307L113.283 33.9872H125.695V38.2124H107.44Z" fill="black"/>
<path fill-rule="evenodd" clip-rule="evenodd" d="M137.43 15.5273C139.428 14.3737 141.89 14.3737 143.888 15.5273L148.684 18.2966C150.683 19.4502 151.913 21.5822 151.913 23.8894V29.4281C151.913 31.7353 150.683 33.8672 148.684 35.0209L143.888 37.7902C141.89 38.9438 139.428 38.9438 137.43 37.7902L132.633 35.0209C130.635 33.8672 129.404 31.7353 129.404 29.4281V23.8894C129.404 21.5822 130.635 19.4502 132.633 18.2966L137.43 15.5273ZM141.567 19.5474C141.005 19.223 140.313 19.223 139.751 19.5474L134.954 22.3167C134.392 22.6411 134.046 23.2406 134.046 23.8894V29.4281C134.046 30.0768 134.392 30.6763 134.954 31.0007L139.751 33.7701C140.313 34.0944 141.005 34.0944 141.567 33.7701L146.363 31.0007C146.925 30.6763 147.271 30.0768 147.271 29.4281V23.8894C147.271 23.2406 146.925 22.6411 146.363 22.3167L141.567 19.5474Z" fill="black"/>
<path fill-rule="evenodd" clip-rule="evenodd" d="M141.566 19.547C141.005 19.2226 140.312 19.2226 139.75 19.547L134.954 22.3163C134.392 22.6407 134.046 23.2402 134.046 23.889V29.4276C134.046 30.0764 134.392 30.6759 134.954 31.0003L139.75 33.7696C140.312 34.094 141.005 34.094 141.566 33.7696L146.363 31.0003C146.925 30.6759 147.271 30.0764 147.271 29.4276V23.889C147.271 23.2402 146.925 22.6407 146.363 22.3163L141.566 19.547Z" fill="#FFD52B"/>
<path d="M155.524 38.2124V15.1055H164.107C165.735 15.1055 167.177 15.4246 168.431 16.0628C169.686 16.701 170.665 17.5812 171.369 18.7036C172.073 19.8039 172.426 21.0913 172.426 22.5657C172.426 24.0182 172.051 25.3166 171.303 26.4609C170.577 27.5832 169.576 28.4635 168.299 29.1017C167.023 29.7179 165.57 30.026 163.942 30.026H160.047V38.2124H155.524ZM168.233 38.2124L162.886 28.9366L166.352 26.4609L173.35 38.2124H168.233ZM160.047 25.8997H164.14C164.822 25.8997 165.427 25.7567 165.956 25.4706C166.506 25.1845 166.935 24.7884 167.243 24.2822C167.573 23.7761 167.738 23.2039 167.738 22.5657C167.738 21.5754 167.375 20.7722 166.649 20.156C165.945 19.5398 165.031 19.2317 163.909 19.2317H160.047V25.8997Z" fill="black"/>
<path d="M195.214 38.2124L186.368 15.1055H190.89L200.001 38.2124H195.214ZM176.96 38.2124L186.071 15.1055H190.593L181.746 38.2124H176.96ZM181.251 33.1289V29.1347H195.743V33.1289H181.251Z" fill="black"/>
</svg>
