<svg width="32" height="32" viewBox="0 0 32 32" fill="none" xmlns="http://www.w3.org/2000/svg">
<mask id="mask0_4290_4419" style="mask-type:luminance" maskUnits="userSpaceOnUse" x="3" y="4" width="26" height="24">
<path d="M16.592 5.94377C16.5293 5.95392 16.4724 5.98608 16.4313 6.03447C16.3902 6.08286 16.3678 6.14431 16.368 6.20777V14.7424C16.368 14.8891 16.488 15.0091 16.6346 15.0091H28.04C28.1107 15.0091 28.1785 14.981 28.2285 14.931C28.2785 14.881 28.3066 14.8132 28.3066 14.7424V4.3171C28.3066 4.27839 28.2981 4.24015 28.2818 4.20505C28.2655 4.16994 28.2417 4.13881 28.2121 4.11381C28.1826 4.08882 28.1479 4.07056 28.1106 4.0603C28.0733 4.05005 28.0341 4.04805 27.996 4.05444L16.592 5.94377ZM16.368 25.8238C16.3681 25.887 16.3907 25.9481 16.4317 25.9962C16.4728 26.0444 16.5295 26.0763 16.592 26.0864L27.996 27.9438C28.0343 27.9502 28.0735 27.9481 28.1109 27.9378C28.1483 27.9275 28.1831 27.9091 28.2126 27.884C28.2422 27.8588 28.266 27.8275 28.2822 27.7923C28.2984 27.757 28.3068 27.7186 28.3066 27.6798V17.2598C28.3066 17.189 28.2785 17.1212 28.2285 17.0712C28.1785 17.0212 28.1107 16.9931 28.04 16.9931H16.6346C16.5639 16.9931 16.4961 17.0212 16.4461 17.0712C16.3961 17.1212 16.368 17.189 16.368 17.2598V25.8238ZM3.7533 14.7398C3.7533 14.8864 3.8733 15.0064 4.01996 15.0064H13.5773C13.648 15.0064 13.7158 14.9783 13.7659 14.9283C13.8159 14.8783 13.844 14.8105 13.844 14.7398V6.62377C13.8439 6.58506 13.8354 6.54682 13.8191 6.51171C13.8028 6.47661 13.779 6.44547 13.7495 6.42048C13.7199 6.39548 13.6853 6.37722 13.6479 6.36697C13.6106 6.35672 13.5715 6.35472 13.5333 6.3611L3.97596 7.94377C3.91357 7.95421 3.85691 7.98649 3.81612 8.03485C3.77533 8.08322 3.75306 8.1445 3.7533 8.20777V14.7398ZM3.7533 23.8544C3.75343 23.9177 3.77603 23.9788 3.81706 24.0269C3.85809 24.075 3.91488 24.107 3.9773 24.1171L13.5346 25.6744C13.5727 25.6806 13.6117 25.6784 13.6489 25.6681C13.686 25.6577 13.7205 25.6394 13.7499 25.6145C13.7793 25.5895 13.803 25.5584 13.8192 25.5235C13.8354 25.4885 13.8439 25.4503 13.844 25.4118V17.2598C13.844 17.189 13.8159 17.1212 13.7659 17.0712C13.7158 17.0212 13.648 16.9931 13.5773 16.9931H4.01996C3.98495 16.9931 3.95027 17 3.91792 17.0134C3.88556 17.0268 3.85616 17.0464 3.8314 17.0712C3.80664 17.096 3.787 17.1254 3.7736 17.1577C3.7602 17.1901 3.7533 17.2248 3.7533 17.2598V23.8544Z" fill="white"/>
</mask>
<g mask="url(#mask0_4290_4419)">
<path d="M16.592 5.94377C16.5293 5.95392 16.4724 5.98608 16.4313 6.03447C16.3902 6.08286 16.3678 6.14431 16.368 6.20777V14.7424C16.368 14.8891 16.488 15.0091 16.6346 15.0091H28.04C28.1107 15.0091 28.1785 14.981 28.2285 14.931C28.2785 14.881 28.3066 14.8132 28.3066 14.7424V4.3171C28.3066 4.27839 28.2981 4.24015 28.2818 4.20505C28.2655 4.16994 28.2417 4.13881 28.2121 4.11381C28.1826 4.08882 28.1479 4.07056 28.1106 4.0603C28.0733 4.05005 28.0341 4.04805 27.996 4.05444L16.592 5.94377ZM16.368 25.8238C16.3681 25.887 16.3907 25.9481 16.4317 25.9962C16.4728 26.0444 16.5295 26.0763 16.592 26.0864L27.996 27.9438C28.0343 27.9502 28.0735 27.9481 28.1109 27.9378C28.1483 27.9275 28.1831 27.9091 28.2126 27.884C28.2422 27.8588 28.266 27.8275 28.2822 27.7923C28.2984 27.757 28.3068 27.7186 28.3066 27.6798V17.2598C28.3066 17.189 28.2785 17.1212 28.2285 17.0712C28.1785 17.0212 28.1107 16.9931 28.04 16.9931H16.6346C16.5639 16.9931 16.4961 17.0212 16.4461 17.0712C16.3961 17.1212 16.368 17.189 16.368 17.2598V25.8238ZM3.7533 14.7398C3.7533 14.8864 3.8733 15.0064 4.01996 15.0064H13.5773C13.648 15.0064 13.7158 14.9783 13.7659 14.9283C13.8159 14.8783 13.844 14.8105 13.844 14.7398V6.62377C13.8439 6.58506 13.8354 6.54682 13.8191 6.51171C13.8028 6.47661 13.779 6.44547 13.7495 6.42048C13.7199 6.39548 13.6853 6.37722 13.6479 6.36697C13.6106 6.35672 13.5715 6.35472 13.5333 6.3611L3.97596 7.94377C3.91357 7.95421 3.85691 7.98649 3.81612 8.03485C3.77533 8.08322 3.75306 8.1445 3.7533 8.20777V14.7398ZM3.7533 23.8544C3.75343 23.9177 3.77603 23.9788 3.81706 24.0269C3.85809 24.075 3.91488 24.107 3.9773 24.1171L13.5346 25.6744C13.5727 25.6806 13.6117 25.6784 13.6489 25.6681C13.686 25.6577 13.7205 25.6394 13.7499 25.6145C13.7793 25.5895 13.803 25.5584 13.8192 25.5235C13.8354 25.4885 13.8439 25.4503 13.844 25.4118V17.2598C13.844 17.189 13.8159 17.1212 13.7659 17.0712C13.7158 17.0212 13.648 16.9931 13.5773 16.9931H4.01996C3.98495 16.9931 3.95027 17 3.91792 17.0134C3.88556 17.0268 3.85616 17.0464 3.8314 17.0712C3.80664 17.096 3.787 17.1254 3.7736 17.1577C3.7602 17.1901 3.7533 17.2248 3.7533 17.2598V23.8544Z" fill="black" stroke="black" stroke-width="4" stroke-linejoin="round"/>
</g>
</svg>
