<svg width="42" height="42" viewBox="0 0 42 42" fill="none" xmlns="http://www.w3.org/2000/svg">
<path d="M38.9095 13.5759L37.6092 10.0666L38.504 8.05326C38.6159 7.78762 38.5599 7.49401 38.3642 7.28429L35.9175 4.80959C34.8409 3.73302 33.247 3.35553 31.8069 3.85886L31.1218 4.09654L27.3748 0.0419441L21.0413 0H20.9993L14.6238 0.0559254L10.8908 4.13848L10.2197 3.9008C8.76566 3.38349 7.1578 3.76099 6.08124 4.86551L3.59255 7.38216C3.42478 7.54993 3.38283 7.78762 3.46672 7.99734L4.40347 10.0945L3.11719 13.6039L3.95607 16.7776L7.759 31.2204C8.19242 32.8842 9.19908 34.3382 10.6112 35.3449C10.6112 35.3449 15.225 38.6025 19.769 41.5526C20.1744 41.8182 20.5939 42 21.0413 42C21.4887 42 21.9081 41.8182 22.3136 41.5526C27.4308 38.1971 31.4714 35.3309 31.4714 35.3309C32.8695 34.3242 33.8762 32.8702 34.3096 31.2064L38.0846 16.7636L38.9095 13.5759Z" fill="#F15A22"/>
<path opacity="0.15" d="M7.94076 31.8354L3.11719 13.9113L4.5293 10.402L3.55061 7.80146L5.8855 5.42463C6.65447 4.73954 8.16446 4.50186 8.86353 4.90732L12.5127 7.00452L17.2663 8.10905L20.9714 6.5711L21.279 38.4067C21.223 42.9925 21.5167 42.5032 18.1471 40.3361L9.82824 34.7575C8.93343 33.9047 8.24835 32.9399 7.94076 31.8354Z" fill="url(#paint0_linear_4088_77697)" style="mix-blend-mode:lighten"/>
<path opacity="0.4" d="M31.3875 35.267L24.3129 40.1045C22.3416 41.1811 21.3908 42.2436 21.237 41.7263C21.1112 41.3209 21.2091 40.1325 21.1671 38.2869L21.0833 7.15044C21.0972 6.84285 21.307 6.32554 21.6705 6.38146L25.2777 7.47201L30.4787 6.66109L33.9181 4.13047C34.2817 3.85084 34.8129 3.8788 35.1485 4.20037L38.2244 7.13646C38.504 7.43007 38.518 8.0033 38.3502 8.36682L37.4974 9.94671L38.9095 13.5958L34.044 31.6877C33.289 33.9387 32.2264 34.5259 31.3875 35.267Z" fill="url(#paint1_linear_4088_77697)" style="mix-blend-mode:darken"/>
<path d="M21.8522 25.8377C21.6844 25.7678 21.5026 25.7119 21.4467 25.7119H21.223H20.9993C20.9434 25.7119 20.7616 25.7678 20.5938 25.8377L18.7763 26.5927C18.6085 26.6626 18.3288 26.7885 18.1611 26.8724L15.4207 28.2985C15.253 28.3824 15.239 28.5361 15.3928 28.648L17.8115 30.3537C17.9653 30.4656 18.203 30.6473 18.3428 30.7732L19.4194 31.6959C19.5592 31.8218 19.7829 32.0175 19.9227 32.1433L20.9573 33.0661C21.0972 33.1919 21.3209 33.1919 21.4607 33.0661L22.5233 32.1433C22.6631 32.0175 22.8868 31.8218 23.0266 31.6959L24.1032 30.7592C24.243 30.6334 24.4806 30.4516 24.6344 30.3397L27.0532 28.62C27.207 28.5082 27.193 28.3544 27.0253 28.2705L24.2849 26.8724C24.1171 26.7885 23.8375 26.6626 23.6697 26.5927L21.8522 25.8377Z" fill="white"/>
<path d="M34.9685 14.199C35.0245 14.0172 35.0245 13.9473 35.0245 13.9473C35.0245 13.7656 35.0105 13.458 34.9825 13.2762L34.8427 12.8707C34.7588 12.703 34.619 12.4373 34.5072 12.2835L32.9273 9.94864C32.8294 9.79485 32.6476 9.55716 32.5218 9.40337L30.4805 6.84478C30.3687 6.70497 30.2568 6.57913 30.2428 6.59312H30.2149C30.2149 6.59312 30.0611 6.62108 29.8793 6.64904L26.7615 7.26422C26.5797 7.30616 26.2861 7.36209 26.1044 7.39005L26.0484 7.40403C25.8667 7.432 25.5731 7.41802 25.3913 7.36209L22.7768 6.52321C22.595 6.46728 22.3014 6.38339 22.1337 6.34145C22.1337 6.34145 21.6024 6.21562 21.1689 6.2296C20.7355 6.2296 20.2042 6.34145 20.2042 6.34145C20.0225 6.38339 19.7289 6.46728 19.5611 6.52321L16.9466 7.36209C16.7648 7.41802 16.4712 7.432 16.2895 7.40403L16.2335 7.39005C16.0518 7.36209 15.7582 7.29218 15.5764 7.26422L12.4306 6.677C12.2488 6.63506 12.095 6.62108 12.095 6.62108H12.0671C12.0531 6.62108 11.9412 6.73293 11.8294 6.87274L9.78812 9.43133C9.67627 9.57115 9.49451 9.82281 9.38266 9.9766L7.80277 12.3115C7.7049 12.4653 7.5511 12.7309 7.46721 12.8987L7.3274 13.3042C7.29944 13.4859 7.27148 13.7935 7.28546 13.9753C7.28546 13.9753 7.28546 14.0312 7.34138 14.2269C7.43925 14.5625 7.67694 14.8701 7.67694 14.8701C7.78879 15.0099 7.99851 15.2476 8.12434 15.3734L12.7522 20.2948C12.878 20.4347 12.9199 20.6863 12.85 20.8541L11.8853 23.1331C11.8154 23.3008 11.8014 23.5805 11.8713 23.7622L12.137 24.4753C12.3607 25.0765 12.7382 25.6078 13.2415 26.0132L14.1783 26.7682C14.3181 26.8801 14.5697 26.922 14.7375 26.8381L17.7016 25.426C17.8693 25.3421 18.121 25.1743 18.2608 25.0485L20.386 23.1331C20.6936 22.8534 20.7076 22.3781 20.4279 22.0705L15.9679 19.0645C15.8141 18.9666 15.7582 18.7429 15.842 18.5751L17.7994 14.8841C17.8833 14.7163 17.8973 14.4506 17.8274 14.2829L17.5897 13.7376C17.5198 13.5698 17.3101 13.3741 17.1423 13.3042L11.396 11.151C11.2282 11.0811 11.2282 11.0112 11.41 10.9972L15.115 10.6477C15.2968 10.6337 15.5904 10.6617 15.7721 10.7036L19.0717 11.6264C19.2535 11.6823 19.3654 11.8641 19.3374 12.0458L18.1909 18.3235C18.163 18.5052 18.163 18.7569 18.2049 18.8967C18.2468 19.0365 18.4286 19.1624 18.6104 19.2043L20.9033 19.6936C21.0851 19.7356 21.3787 19.7356 21.5604 19.6936L23.6996 19.2043C23.8813 19.1624 24.0631 19.0225 24.105 18.8967C24.147 18.7709 24.161 18.5052 24.119 18.3235L22.9865 12.0458C22.9586 11.8641 23.0704 11.6683 23.2522 11.6264L26.5518 10.7036C26.7335 10.6477 27.0271 10.6337 27.2089 10.6477L30.914 10.9972C31.0957 11.0112 31.1097 11.0811 30.9279 11.151L25.1816 13.3321C25.0138 13.402 24.8041 13.5838 24.7342 13.7656L24.4965 14.3108C24.4266 14.4786 24.4266 14.7582 24.5245 14.912L26.4958 18.6031C26.5797 18.7709 26.5238 18.9806 26.37 19.0925L21.91 22.1124C21.6164 22.406 21.6443 22.8954 21.9519 23.175L24.0771 25.0905C24.2169 25.2163 24.4685 25.3841 24.6363 25.454L27.6144 26.8661C27.7821 26.95 28.0338 26.908 28.1736 26.7962L29.1104 26.0272C29.6137 25.6217 29.9912 25.0905 30.2009 24.4893L30.4666 23.7762C30.5365 23.6084 30.5225 23.3148 30.4526 23.147L29.4879 20.8681C29.4179 20.7003 29.4599 20.4486 29.5857 20.3088L34.2136 15.3874C34.3394 15.2476 34.5351 15.0239 34.661 14.8841C34.633 14.8421 34.8847 14.5345 34.9685 14.199Z" fill="white"/>
<defs>
<linearGradient id="paint0_linear_4088_77697" x1="3.11719" y1="23.3277" x2="21.2966" y2="23.3277" gradientUnits="userSpaceOnUse">
<stop stop-color="white"/>
<stop offset="0.1413" stop-color="white" stop-opacity="0.9576"/>
<stop offset="1" stop-color="white" stop-opacity="0.7"/>
</linearGradient>
<linearGradient id="paint1_linear_4088_77697" x1="21.0763" y1="22.8932" x2="38.9095" y2="22.8932" gradientUnits="userSpaceOnUse">
<stop stop-color="#F1F1F2"/>
<stop offset="0.0919144" stop-color="#E4E5E6"/>
<stop offset="0.2357" stop-color="#D9DADB"/>
<stop offset="0.438" stop-color="#D2D4D5"/>
<stop offset="1" stop-color="#D0D2D3"/>
</linearGradient>
</defs>
</svg>
