<svg width="20" height="20" viewBox="0 0 20 20" fill="none" xmlns="http://www.w3.org/2000/svg">
<path d="M10 2C14.4183 2 18 5.58172 18 10C18 14.4183 14.4183 18 10 18C5.58172 18 2 14.4183 2 10C2 5.58172 5.58172 2 10 2ZM13.79 6.94824C13.5038 6.64894 13.0289 6.63867 12.7295 6.9248C11.2303 8.35762 9.90862 9.97522 8.80176 11.7412L7.28027 10.2197C6.98743 9.92709 6.51257 9.92709 6.21973 10.2197C5.92708 10.5126 5.92709 10.9874 6.21973 11.2803L8.41992 13.4814C8.58503 13.6464 8.81841 13.7251 9.0498 13.6943C9.28109 13.6635 9.48537 13.5266 9.60156 13.3242C10.7306 11.3562 12.136 9.56626 13.7656 8.00879C14.065 7.72266 14.076 7.2477 13.79 6.94824Z" fill="black"/>
</svg>
