<svg width="26" height="26" viewBox="0 0 26 26" fill="none" xmlns="http://www.w3.org/2000/svg">
<rect x="0.5" y="0.5" width="25" height="25" rx="12.5" fill="#FFD52B"/>
<rect x="0.5" y="0.5" width="25" height="25" rx="12.5" stroke="#E8C227"/>
<path d="M12.9998 4.2002C17.8599 4.2002 21.7995 8.13998 21.7996 13C21.7996 17.8601 17.8599 21.7998 12.9998 21.7998C8.1398 21.7997 4.20001 17.86 4.20001 13C4.20012 8.14005 8.13987 4.2003 12.9998 4.2002ZM17.1688 9.64258C16.8539 9.31363 16.331 9.30155 16.0018 9.61621C14.3525 11.1924 12.8991 12.9723 11.6815 14.915L10.0076 13.2412C9.6855 12.9198 9.16359 12.9196 8.84161 13.2412C8.51957 13.5633 8.51982 14.086 8.84161 14.4082L11.2615 16.8291C11.443 17.0106 11.6995 17.0972 11.9539 17.0635C12.2086 17.0296 12.4335 16.8791 12.5613 16.6562C13.8033 14.4913 15.3497 12.5229 17.1424 10.8096C17.4718 10.4948 17.4836 9.97197 17.1688 9.64258Z" fill="black"/>
</svg>
