<svg width="476" height="70" viewBox="0 0 476 70" fill="none" xmlns="http://www.w3.org/2000/svg">
<path d="M450.594 2.23242C450.69 4.63242 450.522 7.56042 450.09 11.0164C449.658 14.4724 448.938 18.4564 447.93 22.9684C446.874 27.6244 446.106 31.4644 445.626 34.4884C445.146 37.5124 444.906 39.7204 444.906 41.1124C444.906 42.4564 445.002 43.6324 445.194 44.6404C445.434 45.6484 445.818 46.5124 446.346 47.2324C447.21 48.2404 448.914 48.7444 451.458 48.7444C452.658 48.7444 453.882 48.6484 455.13 48.4564C456.378 48.2644 457.674 48.0244 459.018 47.7364C461.61 47.0644 463.146 46.4164 463.626 45.7924C463.818 45.5524 463.938 45.0484 463.986 44.2804C464.034 43.4644 464.058 42.3604 464.058 40.9684C464.058 37.8004 463.914 34.4404 463.626 30.8884C463.386 27.3364 462.93 23.5444 462.258 19.5124C461.922 17.5444 461.586 15.9124 461.25 14.6164C460.962 13.2724 460.65 12.1204 460.314 11.1604C459.978 10.2004 459.642 9.36042 459.306 8.64043C458.97 7.87242 458.61 7.08042 458.226 6.26442L475.146 6.19242C475.386 7.82442 475.554 9.60042 475.65 11.5204C475.794 13.4404 475.866 15.4804 475.866 17.6404C475.866 23.8324 475.506 30.0484 474.786 36.2884C474.306 39.3604 473.874 41.9284 473.49 43.9924C473.106 46.0084 472.674 47.6164 472.194 48.8164C472.05 49.2484 471.402 49.7764 470.25 50.4004C469.146 51.0244 467.898 51.5524 466.506 51.9844L461.826 53.3524L462.258 69.1204L444.906 69.4804L445.554 53.4244C444.642 53.3284 443.754 53.2564 442.89 53.2084C442.026 53.1604 441.114 53.0164 440.154 52.7764C439.05 52.5364 437.946 52.2004 436.842 51.7684C435.786 51.2884 435.018 50.7364 434.538 50.1124C432.81 47.6164 431.946 39.9844 431.946 27.2164C431.946 21.0724 432.018 15.9844 432.162 11.9524C432.354 7.92042 432.642 4.92042 433.026 2.95243L450.594 2.23242Z" fill="#151411"/>
<path d="M399.292 9.35991C398.86 11.4719 398.524 13.9439 398.284 16.7759C398.092 19.5599 397.948 22.5359 397.852 25.7039C397.756 28.1039 397.756 30.7919 397.852 33.7679C397.948 36.6959 398.14 39.6719 398.428 42.6959C398.524 43.5599 398.596 44.3519 398.644 45.0719C398.692 45.7439 398.764 46.4399 398.86 47.1599C398.956 47.8799 399.052 48.6479 399.148 49.4639C399.292 50.2799 399.484 51.2399 399.724 52.3439C400.396 52.8239 401.212 53.2799 402.172 53.7119C403.18 54.1439 404.596 54.4079 406.42 54.5039C407.38 54.5519 408.148 54.5279 408.724 54.4319C409.3 54.3359 409.804 54.2159 410.236 54.0719L411.1 43.8479L429.892 44.3519C430.084 45.3119 430.108 46.8239 429.964 48.8879C429.868 50.9039 429.652 53.0399 429.316 55.2959C429.172 56.1119 429.028 56.8559 428.884 57.5279C428.788 58.1999 428.644 58.8479 428.452 59.4719C428.308 60.0479 428.116 60.6479 427.876 61.2719C427.684 61.8479 427.468 62.4719 427.228 63.1439C423.772 62.9039 420.388 62.7119 417.076 62.5679C413.764 62.3759 410.236 62.0639 406.492 61.6319C404.428 61.3919 402.388 61.1039 400.372 60.7679C398.356 60.3839 396.484 59.9999 394.756 59.6159C393.028 59.1839 391.492 58.7519 390.148 58.3199C388.804 57.8879 387.796 57.4799 387.124 57.0959C386.596 55.8479 386.14 54.3599 385.756 52.6319C385.42 50.8559 385.132 49.1279 384.892 47.4479C384.748 46.4399 384.604 45.4079 384.46 44.3519C384.364 43.2959 384.268 42.1679 384.172 40.9679C384.076 39.7679 384.004 38.4719 383.956 37.0799C383.908 35.6399 383.884 34.0559 383.884 32.3279C383.884 28.4399 383.98 25.1039 384.172 22.3199C384.412 19.5359 384.628 17.4719 384.82 16.1279C385.204 13.3919 385.636 10.9919 386.116 8.92791C386.644 6.81591 387.076 5.54391 387.412 5.11191C389.956 4.05591 396.436 2.92791 406.852 1.72791C410.068 1.34391 413.164 1.07991 416.14 0.935905C419.164 0.791907 422.188 0.647907 425.212 0.503906C425.74 2.32791 426.148 4.15191 426.436 5.97591C426.772 7.75191 427.06 9.47991 427.3 11.1599C427.588 12.9839 427.78 14.8799 427.876 16.8479C427.972 18.7679 428.092 20.6879 428.236 22.6079L410.596 23.1839C410.74 22.4639 410.86 21.8399 410.956 21.3119C411.052 20.7839 411.124 20.3039 411.172 19.8719C411.268 19.3919 411.316 18.9359 411.316 18.5039C411.364 18.0719 411.436 17.5919 411.532 17.0639C411.676 15.9119 411.772 14.7359 411.82 13.5359C411.916 12.3359 411.94 11.1839 411.892 10.0799C411.172 9.69591 410.116 9.40791 408.724 9.21591C407.332 9.02391 406.012 8.92791 404.764 8.92791C403.852 8.92791 402.94 8.95191 402.028 8.99991C401.164 9.04791 400.252 9.16791 399.292 9.35991Z" fill="#151411"/>
<path d="M350.984 1.87305L366.392 35.7131L365.816 2.16105L382.376 2.44905L378.704 64.0811L365.096 65.4491L347.024 18.217V65.4491L336.872 65.6651L338.24 17.785H335.216L335.072 2.16105L350.984 1.87305Z" fill="#151411"/>
<path d="M332.396 0.720703L331.604 8.92871L302.876 7.9927V16.4887H321.524L322.964 26.2807H308.492L309.212 45.8647L329.948 46.0807L331.028 63.6487L295.748 65.3767L293.876 1.0087L332.396 0.720703Z" fill="#151411"/>
<path d="M292.081 1.8L292.297 15.624L272.497 14.616L274.729 61.056L260.185 63.072L262.633 19.584L250.897 20.592L250.537 0L292.081 1.8Z" fill="#151411"/>
<path d="M246.997 3.31253L246.421 21.3125C237.157 16.6085 229.933 14.2565 224.749 14.2565C220.045 14.2565 217.693 16.6085 217.693 21.3125C217.693 21.7445 217.861 22.2005 218.197 22.6805C218.581 23.1605 219.061 23.6405 219.637 24.1205C220.261 24.6005 220.957 25.0565 221.725 25.4885C222.493 25.8725 223.285 26.2325 224.101 26.5685L237.061 32.4725C239.701 33.9605 241.765 35.3285 243.253 36.5765C244.789 37.7765 245.941 39.0725 246.709 40.4645C247.429 41.7605 247.957 43.1285 248.293 44.5685C248.629 45.9605 248.797 47.4005 248.797 48.8885C248.797 50.6165 248.461 52.3205 247.789 54.0005C247.165 55.6805 246.133 57.0965 244.693 58.2485C243.493 59.4485 242.053 60.3365 240.373 60.9125C238.741 61.4885 237.037 61.7765 235.261 61.7765L207.685 62.9285L208.333 44.7845C211.549 45.6485 214.597 46.3685 217.477 46.9445C220.405 47.4725 223.213 47.7365 225.901 47.7365C229.117 47.7365 231.589 47.3285 233.317 46.5125C235.093 45.6485 235.981 44.4965 235.981 43.0565C235.981 41.1845 233.989 39.4085 230.005 37.7285C228.037 36.9125 226.069 36.1445 224.101 35.4245C222.133 34.7045 220.189 33.9125 218.269 33.0485C213.469 30.8885 210.469 28.3925 209.269 25.5605C208.453 23.7845 207.877 22.0085 207.541 20.2325C207.253 18.4085 207.109 16.6085 207.109 14.8325C207.109 11.6165 207.661 8.95253 208.765 6.84053C209.917 4.72853 211.525 3.09653 213.589 1.94453C215.029 1.36853 216.637 0.936532 218.413 0.648533C220.237 0.312532 222.349 0.144531 224.749 0.144531C228.541 0.144531 232.309 0.384531 236.053 0.864531C239.797 1.34453 243.445 2.16053 246.997 3.31253Z" fill="#151411"/>
<path d="M202.046 24.6239L205.43 67.5359L188.87 67.3199L190.814 23.4719L202.046 24.6239ZM188.51 8.78387L192.182 3.67188L205.43 5.97588L203.846 19.2959L190.382 19.0799L188.51 8.78387Z" fill="#151411"/>
<path d="M185.33 3.31253L184.754 21.3125C175.49 16.6085 168.266 14.2565 163.082 14.2565C158.378 14.2565 156.026 16.6085 156.026 21.3125C156.026 21.7445 156.194 22.2005 156.53 22.6805C156.914 23.1605 157.394 23.6405 157.97 24.1205C158.594 24.6005 159.29 25.0565 160.058 25.4885C160.826 25.8725 161.618 26.2325 162.434 26.5685L175.394 32.4725C178.034 33.9605 180.098 35.3285 181.586 36.5765C183.122 37.7765 184.274 39.0725 185.042 40.4645C185.762 41.7605 186.29 43.1285 186.626 44.5685C186.962 45.9605 187.13 47.4005 187.13 48.8885C187.13 50.6165 186.794 52.3205 186.122 54.0005C185.498 55.6805 184.466 57.0965 183.026 58.2485C181.826 59.4485 180.386 60.3365 178.706 60.9125C177.074 61.4885 175.37 61.7765 173.594 61.7765L146.018 62.9285L146.666 44.7845C149.882 45.6485 152.93 46.3685 155.81 46.9445C158.738 47.4725 161.546 47.7365 164.234 47.7365C167.45 47.7365 169.922 47.3285 171.65 46.5125C173.426 45.6485 174.314 44.4965 174.314 43.0565C174.314 41.1845 172.322 39.4085 168.338 37.7285C166.37 36.9125 164.402 36.1445 162.434 35.4245C160.466 34.7045 158.522 33.9125 156.602 33.0485C151.802 30.8885 148.802 28.3925 147.602 25.5605C146.786 23.7845 146.21 22.0085 145.874 20.2325C145.586 18.4085 145.442 16.6085 145.442 14.8325C145.442 11.6165 145.994 8.95253 147.098 6.84053C148.25 4.72853 149.858 3.09653 151.922 1.94453C153.362 1.36853 154.97 0.936532 156.746 0.648533C158.57 0.312532 160.682 0.144531 163.082 0.144531C166.874 0.144531 170.642 0.384531 174.386 0.864531C178.13 1.34453 181.778 2.16053 185.33 3.31253Z" fill="#151411"/>
<path d="M112.687 1.87305L128.095 35.7131L127.519 2.16105L144.079 2.44905L140.407 64.0811L126.799 65.4491L108.727 18.217V65.4491L98.5747 65.6651L99.9427 17.785H96.9187L96.7747 2.16105L112.687 1.87305Z" fill="#151411"/>
<path d="M87.5897 2.08907C88.3097 2.42506 89.0537 3.60106 89.8217 5.61707C90.5897 7.63307 91.3097 10.5371 91.9817 14.3291C92.3177 16.2971 92.6057 18.3131 92.8457 20.3771C93.0857 22.3931 93.2777 24.4091 93.4217 26.4251C93.5657 28.4411 93.6616 30.4091 93.7096 32.3291C93.7577 34.2011 93.7577 35.9531 93.7096 37.5851C93.5177 43.0091 93.1577 47.4731 92.6297 50.9771C92.1017 54.4331 91.1657 57.0731 89.8217 58.8971C89.6297 59.1371 88.8857 59.4491 87.5897 59.8331C86.2937 60.1691 84.4697 60.4571 82.1177 60.6971C79.6217 60.9371 77.1257 61.1531 74.6297 61.3451C72.1337 61.4891 69.6377 61.5611 67.1417 61.5611C62.7737 61.5611 59.2457 61.3211 56.5577 60.8411C53.8697 60.3611 52.0457 59.5691 51.0857 58.4651C50.1257 57.5051 49.4537 55.1531 49.0697 51.4091C48.6857 47.6171 48.4937 42.4331 48.4937 35.8571C48.4937 32.0651 48.5416 28.4411 48.6376 24.9851C48.7816 21.5291 49.0217 18.1691 49.3577 14.9051C49.7417 11.5931 50.1017 9.00107 50.4377 7.12906C50.8217 5.20906 51.2297 3.98506 51.6617 3.45706C52.6217 2.64106 55.3337 1.87306 59.7977 1.15306C62.1977 0.769063 64.5257 0.529064 66.7817 0.433065C69.0377 0.337063 71.3177 0.289062 73.6217 0.289062C76.9817 0.289062 79.8137 0.457063 82.1177 0.793065C84.4217 1.08106 86.2457 1.51306 87.5897 2.08907ZM75.4937 17.4251C74.1977 15.9851 71.4137 15.2651 67.1417 15.2651C64.5017 15.2651 62.8697 15.6251 62.2457 16.3451C61.8617 16.7291 61.5017 17.9771 61.1657 20.0891C60.8297 22.2011 60.4697 25.1771 60.0857 29.0171C59.7017 32.6171 59.4377 35.9291 59.2937 38.9531C59.1497 41.9771 59.0777 44.6891 59.0777 47.0891C59.0777 48.4331 59.1017 49.4651 59.1497 50.1851C59.2457 50.8571 59.3417 51.3131 59.4377 51.5531C60.3497 52.7051 63.7577 53.2811 69.6617 53.2811C73.8377 53.2811 76.2137 52.9211 76.7896 52.2011C77.3656 51.4811 77.6536 47.8571 77.6536 41.3291C77.6536 38.7371 77.5817 36.1931 77.4377 33.6971C77.3417 31.2011 77.2217 28.7291 77.0777 26.2811C76.7417 21.0971 76.2137 18.1451 75.4937 17.4251Z" fill="#151411"/>
<path d="M15.408 9.35991C14.976 11.4719 14.64 13.9439 14.4 16.7759C14.208 19.5599 14.064 22.5359 13.968 25.7039C13.872 28.1039 13.872 30.7919 13.968 33.7679C14.064 36.6959 14.256 39.6719 14.544 42.6959C14.64 43.5599 14.712 44.3519 14.76 45.0719C14.808 45.7439 14.88 46.4399 14.976 47.1599C15.072 47.8799 15.168 48.6479 15.264 49.4639C15.408 50.2799 15.6 51.2399 15.84 52.3439C16.512 52.8239 17.328 53.2799 18.288 53.7119C19.296 54.1439 20.712 54.4079 22.536 54.5039C23.496 54.5519 24.264 54.5279 24.84 54.4319C25.416 54.3359 25.92 54.2159 26.352 54.0719L27.216 43.8479L46.008 44.3519C46.2 45.3119 46.224 46.8239 46.08 48.8879C45.984 50.9039 45.768 53.0399 45.432 55.2959C45.288 56.1119 45.144 56.8559 45 57.5279C44.904 58.1999 44.76 58.8479 44.568 59.4719C44.424 60.0479 44.232 60.6479 43.992 61.2719C43.8 61.8479 43.584 62.4719 43.344 63.1439C39.888 62.9039 36.504 62.7119 33.192 62.5679C29.88 62.3759 26.352 62.0639 22.608 61.6319C20.544 61.3919 18.504 61.1039 16.488 60.7679C14.472 60.3839 12.6 59.9999 10.872 59.6159C9.144 59.1839 7.608 58.7519 6.264 58.3199C4.92 57.8879 3.912 57.4799 3.24 57.0959C2.712 55.8479 2.256 54.3599 1.872 52.6319C1.536 50.8559 1.248 49.1279 1.008 47.4479C0.864 46.4399 0.72 45.4079 0.576 44.3519C0.48 43.2959 0.384 42.1679 0.288 40.9679C0.192 39.7679 0.12 38.4719 0.072 37.0799C0.024 35.6399 0 34.0559 0 32.3279C0 28.4399 0.0959999 25.1039 0.288 22.3199C0.528 19.5359 0.744 17.4719 0.936 16.1279C1.32 13.3919 1.752 10.9919 2.232 8.92791C2.76 6.81591 3.192 5.54391 3.528 5.11191C6.072 4.05591 12.552 2.92791 22.968 1.72791C26.184 1.34391 29.28 1.07991 32.256 0.935905C35.28 0.791907 38.304 0.647907 41.328 0.503906C41.856 2.32791 42.264 4.15191 42.552 5.97591C42.888 7.75191 43.176 9.47991 43.416 11.1599C43.704 12.9839 43.896 14.8799 43.992 16.8479C44.088 18.7679 44.208 20.6879 44.352 22.6079L26.712 23.1839C26.856 22.4639 26.976 21.8399 27.072 21.3119C27.168 20.7839 27.24 20.3039 27.288 19.8719C27.384 19.3919 27.432 18.9359 27.432 18.5039C27.48 18.0719 27.552 17.5919 27.648 17.0639C27.792 15.9119 27.888 14.7359 27.936 13.5359C28.032 12.3359 28.056 11.1839 28.008 10.0799C27.288 9.69591 26.232 9.40791 24.84 9.21591C23.448 9.02391 22.128 8.92791 20.88 8.92791C19.968 8.92791 19.056 8.95191 18.144 8.99991C17.28 9.04791 16.368 9.16791 15.408 9.35991Z" fill="#151411"/>
</svg>
