<svg width="482" height="77" viewBox="0 0 482 77" fill="none" xmlns="http://www.w3.org/2000/svg">
<path d="M17.4299 10.5883C16.9412 12.9774 16.5611 15.7738 16.2896 18.9774C16.0724 22.1268 15.9096 25.4933 15.801 29.077C15.6924 31.792 15.6924 34.8327 15.801 38.1992C15.9096 41.5114 16.1267 44.878 16.4525 48.2988C16.5611 49.2762 16.6426 50.1721 16.6969 50.9866C16.7512 51.7468 16.8326 52.5341 16.9412 53.3486C17.0498 54.1631 17.1584 55.0318 17.267 55.9549C17.4299 56.878 17.6471 57.964 17.9186 59.2129C18.6788 59.7558 19.6019 60.2717 20.6878 60.7604C21.8281 61.2491 23.4299 61.5477 25.4933 61.6563C26.5793 61.7106 27.4481 61.6835 28.0996 61.5749C28.7512 61.4663 29.3214 61.3305 29.81 61.1676L30.7874 49.602L52.0454 50.1721C52.2626 51.2581 52.2898 52.9685 52.1269 55.3033C52.0183 57.5839 51.7739 60.0002 51.3938 62.5522C51.2309 63.4753 51.068 64.3169 50.9051 65.0771C50.7965 65.8373 50.6336 66.5703 50.4165 67.2762C50.2536 67.9278 50.0364 68.6066 49.7649 69.3124C49.5477 69.964 49.3033 70.6699 49.0318 71.4301C45.1223 71.1586 41.2943 70.9414 37.5476 70.7785C33.801 70.5613 29.8101 70.2084 25.5747 69.7197C23.2399 69.4482 20.9322 69.1224 18.6516 68.7423C16.3711 68.3079 14.2534 67.8735 12.2987 67.4391C10.3439 66.9504 8.60636 66.4617 7.086 65.9731C5.56563 65.4844 4.42535 65.0228 3.66517 64.5884C3.06788 63.1767 2.55204 61.4934 2.11765 59.5387C1.73756 57.5296 1.41177 55.5748 1.14028 53.6744C0.977379 52.5341 0.814482 51.3667 0.651586 50.1721C0.542988 48.9775 0.43439 47.7015 0.325793 46.344C0.217195 44.9866 0.135747 43.5205 0.0814482 41.9458C0.0271494 40.3169 0 38.525 0 36.5703C0 32.172 0.108598 28.3983 0.325793 25.2489C0.597287 22.0996 0.841632 19.7648 1.05883 18.2444C1.49322 15.1494 1.98191 12.4344 2.52489 10.0996C3.12218 7.71043 3.61087 6.27151 3.99096 5.78282C6.8688 4.58825 14.1991 3.31223 25.982 1.95476C29.62 1.52036 33.1223 1.22172 36.4888 1.05882C39.9096 0.895929 43.3305 0.733033 46.7513 0.570135C47.3486 2.63349 47.8101 4.69685 48.1359 6.7602C48.516 8.76926 48.8418 10.724 49.1133 12.6245C49.4391 14.6878 49.6563 16.8326 49.7649 19.0589C49.8735 21.2308 50.0092 23.4028 50.1721 25.5747L30.2173 26.2263C30.3802 25.4118 30.5159 24.706 30.6245 24.1087C30.7331 23.5114 30.8146 22.9684 30.8689 22.4797C30.9775 21.9367 31.0318 21.4209 31.0318 20.9322C31.0861 20.4435 31.1675 19.9005 31.2761 19.3032C31.439 18.0001 31.5476 16.6697 31.6019 15.3123C31.7105 13.9548 31.7377 12.6516 31.6834 11.4027C30.8689 10.9684 29.6743 10.6426 28.0996 10.4254C26.525 10.2082 25.0318 10.0996 23.62 10.0996C22.5883 10.0996 21.5566 10.1267 20.525 10.181C19.5476 10.2353 18.5159 10.3711 17.4299 10.5883Z" fill="black"/>
<path d="M99.0837 2.362C99.8982 2.74209 100.74 4.07241 101.609 6.35296C102.477 8.63351 103.292 11.9186 104.052 16.2082C104.432 18.4344 104.758 20.715 105.029 23.0498C105.301 25.3304 105.518 27.6109 105.681 29.8915C105.844 32.172 105.952 34.3983 106.007 36.5703C106.061 38.6879 106.061 40.6698 106.007 42.516C105.79 48.6517 105.382 53.7015 104.785 57.6653C104.188 61.5749 103.129 64.5613 101.609 66.6246C101.391 66.8961 100.55 67.2491 99.0837 67.6835C97.6176 68.0636 95.5542 68.3894 92.8936 68.6609C90.0701 68.9323 87.2465 69.1767 84.423 69.3939C81.5994 69.5568 78.7759 69.6382 75.9524 69.6382C71.0112 69.6382 67.0202 69.3667 63.9795 68.8237C60.9388 68.2808 58.8754 67.3848 57.7894 66.136C56.7034 65.05 55.9433 62.3893 55.5089 58.154C55.0745 53.8644 54.8573 48.0002 54.8573 40.5612C54.8573 36.2716 54.9116 32.172 55.0202 28.2625C55.1831 24.353 55.4546 20.5521 55.8347 16.8598C56.2691 13.1132 56.6763 10.181 57.0564 8.06337C57.4908 5.89142 57.9523 4.5068 58.441 3.90951C59.527 2.98643 62.5949 2.11765 67.6447 1.30317C70.3596 0.868778 72.9931 0.597284 75.5451 0.488688C78.0972 0.380088 80.6764 0.325789 83.2827 0.325789C87.0836 0.325789 90.2873 0.515835 92.8936 0.895929C95.5 1.22172 97.5633 1.71041 99.0837 2.362ZM85.4004 19.7105C83.9343 18.0815 80.785 17.267 75.9524 17.267C72.9659 17.267 71.1198 17.6743 70.4139 18.4887C69.9795 18.9231 69.5723 20.3349 69.1922 22.7241C68.8121 25.1132 68.4048 28.4797 67.9705 32.8236C67.5361 36.896 67.2374 40.6427 67.0745 44.0635C66.9116 47.4843 66.8302 50.5522 66.8302 53.2671C66.8302 54.7875 66.8573 55.9549 66.9116 56.7694C67.0202 57.5296 67.1288 58.0454 67.2374 58.3169C68.2691 59.6201 72.1243 60.2717 78.8031 60.2717C83.5271 60.2717 86.2149 59.8644 86.8664 59.05C87.518 58.2355 87.8438 54.1359 87.8438 46.7513C87.8438 43.8191 87.7624 40.9413 87.5995 38.1178C87.4909 35.2942 87.3551 32.4978 87.1922 29.7286C86.8121 23.8643 86.2149 20.5249 85.4004 19.7105Z" fill="black"/>
<path d="M127.474 2.11765L144.904 40.3983L144.252 2.44344L162.986 2.76924L158.832 72.4889L143.438 74.0364L122.994 20.6064V74.0364L111.51 74.2808L113.058 20.1177H109.637L109.474 2.44344L127.474 2.11765Z" fill="black"/>
<path d="M209.65 3.74662L208.999 24.1087C198.519 18.7874 190.347 16.1267 184.483 16.1267C179.161 16.1267 176.501 18.7874 176.501 24.1087C176.501 24.5974 176.691 25.1132 177.071 25.6562C177.505 26.1992 178.048 26.7422 178.7 27.2852C179.406 27.8281 180.193 28.344 181.062 28.8327C181.931 29.2671 182.827 29.6743 183.75 30.0544L198.41 36.7331C201.397 38.4164 203.732 39.9639 205.415 41.3757C207.153 42.7332 208.456 44.1992 209.324 45.7739C210.139 47.24 210.736 48.7875 211.116 50.4165C211.496 51.9911 211.686 53.6201 211.686 55.3033C211.686 57.2581 211.306 59.1857 210.546 61.0862C209.84 62.9866 208.673 64.5884 207.044 65.8916C205.686 67.2491 204.057 68.2536 202.157 68.9052C200.311 69.5568 198.383 69.8826 196.374 69.8826L165.18 71.1857L165.913 50.6608C169.551 51.6382 172.999 52.4527 176.256 53.1042C179.569 53.7015 182.745 54.0002 185.786 54.0002C189.424 54.0002 192.22 53.5386 194.175 52.6156C196.184 51.6382 197.189 50.335 197.189 48.706C197.189 46.5884 194.935 44.5793 190.428 42.6789C188.202 41.7558 185.976 40.887 183.75 40.0725C181.523 39.258 179.324 38.3621 177.152 37.3847C171.723 34.9413 168.329 32.1177 166.971 28.9141C166.048 26.9051 165.397 24.896 165.017 22.887C164.691 20.8236 164.528 18.7874 164.528 16.7783C164.528 13.1403 165.152 10.1267 166.401 7.73758C167.704 5.34843 169.523 3.50227 171.858 2.1991C173.487 1.54751 175.306 1.05883 177.315 0.733034C179.379 0.352941 181.768 0.162894 184.483 0.162894C188.772 0.162894 193.035 0.434388 197.27 0.977376C201.505 1.52036 205.632 2.44344 209.65 3.74662Z" fill="black"/>
<path d="M228.56 27.8553L232.388 76.3984L213.655 76.1541L215.854 26.5521L228.56 27.8553ZM213.247 9.93668L217.401 4.15386L232.388 6.7602L230.596 21.8281L215.365 21.5838L213.247 9.93668Z" fill="black"/>
<path d="M279.409 3.74662L278.758 24.1087C268.278 18.7874 260.106 16.1267 254.242 16.1267C248.921 16.1267 246.26 18.7874 246.26 24.1087C246.26 24.5974 246.45 25.1132 246.83 25.6562C247.264 26.1992 247.807 26.7422 248.459 27.2852C249.165 27.8281 249.952 28.344 250.821 28.8327C251.69 29.2671 252.586 29.6743 253.509 30.0544L268.17 36.7331C271.156 38.4164 273.491 39.9639 275.174 41.3757C276.912 42.7332 278.215 44.1992 279.084 45.7739C279.898 47.24 280.495 48.7875 280.875 50.4165C281.256 51.9911 281.446 53.6201 281.446 55.3033C281.446 57.2581 281.066 59.1857 280.305 61.0862C279.599 62.9866 278.432 64.5884 276.803 65.8916C275.446 67.2491 273.817 68.2536 271.916 68.9052C270.07 69.5568 268.142 69.8826 266.133 69.8826L234.939 71.1857L235.672 50.6608C239.31 51.6382 242.758 52.4527 246.016 53.1042C249.328 53.7015 252.504 54.0002 255.545 54.0002C259.183 54.0002 261.979 53.5386 263.934 52.6156C265.943 51.6382 266.948 50.335 266.948 48.706C266.948 46.5884 264.694 44.5793 260.188 42.6789C257.961 41.7558 255.735 40.887 253.509 40.0725C251.283 39.258 249.083 38.3621 246.912 37.3847C241.482 34.9413 238.088 32.1177 236.731 28.9141C235.807 26.9051 235.156 24.896 234.776 22.887C234.45 20.8236 234.287 18.7874 234.287 16.7783C234.287 13.1403 234.912 10.1267 236.16 7.73758C237.464 5.34843 239.283 3.50227 241.617 2.1991C243.246 1.54751 245.065 1.05883 247.074 0.733034C249.138 0.352941 251.527 0.162894 254.242 0.162894C258.531 0.162894 262.794 0.434388 267.029 0.977376C271.265 1.52036 275.391 2.44344 279.409 3.74662Z" fill="black"/>
<path d="M330.409 2.0362L330.654 17.6743L308.255 16.534L310.78 69.0681L294.328 71.3486L297.097 22.1539L283.821 23.2942L283.414 0L330.409 2.0362Z" fill="black"/>
<path d="M376.015 0.814481L375.119 10.0996L342.621 9.04075V18.6516H363.716L365.345 29.7286H348.974L349.788 51.8825L373.245 52.1269L374.467 72.0002L334.557 73.955L332.44 1.14028L376.015 0.814481Z" fill="black"/>
<path d="M397.042 2.11765L414.472 40.3983L413.821 2.44344L432.554 2.76924L428.4 72.4889L413.006 74.0364L392.563 20.6064V74.0364L381.078 74.2808L382.626 20.1177H379.205L379.042 2.44344L397.042 2.11765Z" fill="black"/>
<path d="M481.499 2.0362L481.743 17.6743L459.345 16.534L461.87 69.0681L445.417 71.3486L448.187 22.1539L434.911 23.2942L434.503 0L481.499 2.0362Z" fill="black"/>
</svg>
