<svg preserveAspectRatio="none" width="100%" height="100%" overflow="visible" style="display: block;" viewBox="0 0 14.8125 14.8125" fill="none" xmlns="http://www.w3.org/2000/svg">
<g id="Icon">
<path fill-rule="evenodd" clip-rule="evenodd" d="M12 3V9C12 10.6569 10.6569 12 9 12H3C1.34315 12 0 10.6569 0 9V3C0 1.34315 1.34315 0 3 0H9C10.6569 0 12 1.34315 12 3ZM1.125 3V9C1.125 9.49728 1.32254 9.97419 1.67417 10.3258C2.02581 10.6775 2.50272 10.875 3 10.875H9C10.0355 10.875 10.875 10.0355 10.875 9V3C10.875 1.96447 10.0355 1.125 9 1.125H3C1.96447 1.125 1.125 1.96447 1.125 3Z" fill="#38362E"/>
<path d="M14.25 4.6875C13.941 4.69154 13.6915 4.94103 13.6875 5.25V11.25C13.6834 12.5945 12.5945 13.6834 11.25 13.6875H5.25C4.93934 13.6875 4.6875 13.9393 4.6875 14.25C4.6875 14.5607 4.93934 14.8125 5.25 14.8125H11.25C13.2175 14.8125 14.8125 13.2175 14.8125 11.25V5.25C14.8085 4.94103 14.559 4.69154 14.25 4.6875Z" fill="#38362E"/>
</g>
</svg>
