<svg width="20" height="20" viewBox="0 0 20 20" fill="none" xmlns="http://www.w3.org/2000/svg">
<path d="M9.42555 13.7833L6.31722 10.6833C6.18542 10.552 6.11133 10.3736 6.11133 10.1875C6.11133 10.0014 6.18542 9.82301 6.31722 9.69167C6.59441 9.42605 7.03169 9.42605 7.30888 9.69167L9.21722 11.6083V3.2C9.21722 2.8134 9.53062 2.5 9.91722 2.5C10.3038 2.5 10.6172 2.8134 10.6172 3.2V11.6083L12.5255 9.69167C12.8027 9.42605 13.24 9.42605 13.5172 9.69167C13.649 9.82301 13.7231 10.0014 13.7231 10.1875C13.7231 10.3736 13.649 10.552 13.5172 10.6833L10.4089 13.7833C10.2806 13.9174 10.1028 13.9928 9.91722 13.9917C9.73126 13.9948 9.55265 13.9191 9.42555 13.7833Z" fill="white"/>
<path d="M14.2672 7.01667H15.2756C17.3724 7.06223 19.0378 8.79463 19.0006 10.8917V14.0667C19.0378 16.1637 17.3724 17.8961 15.2756 17.9417L4.55889 17.875C2.46202 17.8294 0.79668 16.097 0.83389 14V10.825C0.809299 9.81347 1.18826 8.83374 1.88712 8.10204C2.58599 7.37035 3.5473 6.94684 4.55889 6.925H5.56722C5.95382 6.925 6.26722 7.2384 6.26722 7.625C6.26722 8.0116 5.95382 8.325 5.56722 8.325H4.55889C3.91777 8.34447 3.31112 8.61977 2.87431 9.08946C2.43749 9.55915 2.20687 10.1842 2.23389 10.825V13.975C2.20687 14.6158 2.43749 15.2408 2.87431 15.7105C3.31112 16.1802 3.91777 16.4555 4.55889 16.475L15.2756 16.5917C15.9167 16.5722 16.5233 16.2969 16.9601 15.8272C17.3969 15.3575 17.6276 14.7325 17.6006 14.0917V10.9167C17.6276 10.2758 17.3969 9.65082 16.9601 9.18113C16.5233 8.71144 15.9167 8.43614 15.2756 8.41667H14.2672C13.8806 8.41667 13.5672 8.10327 13.5672 7.71667C13.5672 7.33007 13.8806 7.01667 14.2672 7.01667Z" fill="white"/>
</svg>
