<svg width="18" height="18" viewBox="0 0 18 18" fill="none" xmlns="http://www.w3.org/2000/svg">
<path d="M8.48302 12.405L5.68552 9.615C5.5669 9.49679 5.50022 9.33622 5.50022 9.16875C5.50022 9.00128 5.5669 8.84071 5.68552 8.7225C5.935 8.48345 6.32854 8.48345 6.57802 8.7225L8.29552 10.4475V2.88C8.29552 2.53206 8.57758 2.25 8.92552 2.25C9.27346 2.25 9.55552 2.53206 9.55552 2.88V10.4475L11.273 8.7225C11.5225 8.48345 11.916 8.48345 12.1655 8.7225C12.2841 8.84071 12.3508 9.00128 12.3508 9.16875C12.3508 9.33622 12.2841 9.49679 12.1655 9.615L9.36802 12.405C9.25256 12.5257 9.09252 12.5935 8.92552 12.5925C8.75816 12.5953 8.59741 12.5272 8.48302 12.405Z" fill="#38362E"/>
<path d="M12.8405 6.315H13.748C15.6352 6.35601 17.134 7.91517 17.1005 9.8025V12.66C17.134 14.5473 15.6352 16.1065 13.748 16.1475L4.10303 16.0875C2.21585 16.0465 0.717036 14.4873 0.750525 12.6V9.7425C0.728394 8.83213 1.06946 7.95037 1.69843 7.29184C2.32741 6.63331 3.19259 6.25216 4.10303 6.2325H5.01053C5.35846 6.2325 5.64053 6.51456 5.64053 6.8625C5.64053 7.21044 5.35846 7.4925 5.01053 7.4925H4.10303C3.52602 7.51003 2.98003 7.75779 2.5869 8.18052C2.19377 8.60324 1.98621 9.16574 2.01053 9.7425V12.5775C1.98621 13.1543 2.19377 13.7168 2.5869 14.1395C2.98003 14.5622 3.52602 14.81 4.10303 14.8275L13.748 14.9325C14.325 14.915 14.871 14.6672 15.2641 14.2445C15.6573 13.8218 15.8648 13.2593 15.8405 12.6825V9.825C15.8648 9.24824 15.6573 8.68574 15.2641 8.26302C14.871 7.84029 14.325 7.59253 13.748 7.575H12.8405C12.4926 7.575 12.2105 7.29294 12.2105 6.945C12.2105 6.59706 12.4926 6.315 12.8405 6.315Z" fill="#38362E"/>
</svg>
