<svg width="137" height="263" viewBox="0 0 137 263" fill="none" xmlns="http://www.w3.org/2000/svg">
<path d="M109.722 153.833C99.2851 159.43 86.2379 162.228 72.2389 162.228C58.8283 162.228 46.5093 158.933 36.5651 152.926C28.4093 147.999 21.8509 141.247 17.5979 132.99C14.1131 126.225 12.1761 118.451 12.1761 109.842C12.1761 100.478 14.2363 91.2015 18.0597 82.7459L31.5949 82.7492C0.434433 154.554 108.821 174.037 133.5 118.422C132.217 134.845 123.121 146.646 109.722 153.833Z" fill="#F09E00"/>
<path fill-rule="evenodd" clip-rule="evenodd" d="M31.5949 82.7492L18.0597 82.7459C25.1356 67.0971 38.2504 54.2592 55.5209 48.8759C57.4308 48.2806 59.3915 47.7764 61.4005 47.3697C64.8734 46.6666 68.4906 46.2548 72.2389 46.1665C76.6616 46.0624 80.8804 46.4638 84.8837 47.3042C86.7367 47.6933 88.5435 48.1764 90.3029 48.747C117.734 57.6438 133.657 87.8142 133.657 114.358C133.657 115.743 133.604 117.098 133.5 118.422C108.821 174.037 0.434433 154.554 31.5949 82.7492ZM99.7865 120.684C101.141 117.971 104.077 120.229 102.948 122.487C95.7221 136.938 71.7873 131.974 63.6585 125.651C62.8614 125.031 62.7553 126.103 60.4973 126.554C58.2393 127.006 58.2393 124.745 58.6909 124.296C59.0114 123.978 62.7553 122.036 65.0133 120.681C67.2713 119.327 68.1745 121.585 67.2713 122.49C66.9105 122.852 66.5186 123.243 66.3681 123.393C75.8517 128.812 94.8732 130.522 99.7865 120.684Z" fill="#FECC0C"/>
<path d="M102.948 122.487C104.077 120.229 101.141 117.971 99.7865 120.684C94.8732 130.522 75.8517 128.812 66.3681 123.393C66.5186 123.243 66.9105 122.852 67.2713 122.49C68.1745 121.585 67.2713 119.327 65.0133 120.681C62.7553 122.036 59.0114 123.978 58.6909 124.296C58.2393 124.745 58.2393 127.006 60.4973 126.554C62.7553 126.103 62.8614 125.031 63.6585 125.651C71.7873 131.974 95.7221 136.938 102.948 122.487Z" fill="#270F00"/>
<path d="M116.947 12.2955C96.6253 15.9083 91.6577 38.4883 90.3029 48.747C88.5435 48.1764 86.7367 47.6933 84.8837 47.3042C81.3582 13.5249 102.579 -0.975453 116.496 0.553916C124.083 1.63776 126.431 10.0375 116.947 12.2955Z" fill="#432E09"/>
<path d="M36.5625 2.80968C51.3702 9.20226 58.992 33.8721 61.4005 47.3697C59.3915 47.7764 57.4308 48.2806 55.5209 48.8759C47.835 16.8123 25.8894 12.3078 23.4661 10.4898C19.8533 7.77952 16.6921 -5.7685 36.5625 2.80968Z" fill="#432E09"/>
<path d="M72.2389 162.228C86.2379 162.228 99.2851 159.43 109.722 153.833C111.437 154.991 113.409 156.459 115.477 158.166C113.258 158.965 108.638 161.316 107.915 164.332C106.757 163.494 105.671 162.766 104.754 162.231C97.0769 162.231 91.9287 166.747 82.1741 172.166C79.7693 173.502 77.3371 174.641 74.9485 175.636C64.782 180.238 58.6437 180.33 51.9169 186.238C51.5012 185.983 50.278 184.857 48.7557 183.302C48.7343 183.28 48.7128 183.258 48.6912 183.236C48.0838 182.614 47.4305 181.926 46.763 181.198C46.2715 180.662 45.7724 180.105 45.2783 179.538C42.6457 176.516 40.155 173.204 39.7237 171.263C38.8205 167.199 42.8849 168.102 42.8849 165.392C42.8849 163.224 35.4536 158.93 31.738 157.054C31.9012 156.896 32.0662 156.739 32.2333 156.582C33.5558 155.339 35.0024 154.118 36.5651 152.926C46.5093 158.933 58.8283 162.228 72.2389 162.228Z" fill="#452D02"/>
<path d="M74.9485 175.636C77.5076 177.641 82.6257 182.282 82.6257 184.811C82.6257 187.972 67.7229 204.23 52.3685 201.972C37.0141 199.714 27.5305 182.101 31.1433 181.198C34.7561 180.295 45.5945 187.521 48.7557 183.302C50.278 184.857 51.5012 185.983 51.9169 186.238C58.6437 180.33 64.782 180.238 74.9485 175.636Z" fill="#FEC811"/>
<path d="M82.1741 172.166C85.1186 173.821 92.7524 178.306 95.7221 186.617C94.0415 188.554 92.2038 190.616 90.1322 192.685C90.0939 192.723 90.0555 192.761 90.017 192.799C87.3809 195.421 84.3671 198.05 80.8193 200.449C75.0813 204.328 67.9466 207.604 58.7547 209.265C43.7608 211.974 33.13 201.706 27.5305 193.795C26.6314 192.525 25.8621 191.315 25.2252 190.23C23.9492 188.056 23.2048 186.38 23.0145 185.714C21.89 181.778 21.5967 178.018 22.0938 174.424C22.3474 172.591 22.8066 170.801 23.4661 169.054C24.2441 166.992 25.3008 164.99 26.6273 163.044C28.0319 160.984 29.739 158.988 31.738 157.054C35.4536 158.93 42.8849 163.224 42.8849 165.392C42.8849 168.102 38.8205 167.199 39.7237 171.263C40.155 173.204 42.6457 176.516 45.2783 179.538C45.0253 180.019 42.9751 179.94 41.9817 179.84C43.0655 180.924 45.6208 181.197 46.763 181.198C47.4305 181.926 48.0838 182.614 48.6912 183.236C48.7128 183.258 48.7343 183.28 48.7557 183.302C45.5945 187.521 34.7561 180.295 31.1433 181.198C27.5305 182.101 37.0141 199.714 52.3685 201.972C67.7229 204.23 82.6257 187.972 82.6257 184.811C82.6257 182.282 77.5076 177.641 74.9485 175.636C77.3371 174.641 79.7693 173.502 82.1741 172.166Z" fill="#EF9E01"/>
<path d="M95.7221 186.617C101.553 179.896 107.021 174.766 114.83 174.04C109.966 176.774 100.961 183.297 103.851 187.521C107.376 192.672 123.803 203.237 129.211 199.113C127.06 200.924 124.402 201.981 121.463 202.449C115.765 203.357 109.06 202.032 102.928 199.714C97.9709 197.84 93.3888 195.316 90.017 192.799C90.0555 192.761 90.0939 192.723 90.1322 192.685C92.2038 190.616 94.0415 188.554 95.7221 186.617Z" fill="#EE9801"/>
<path d="M114.83 174.04C116.075 173.924 117.379 173.92 118.754 174.04C118.082 172.969 116.128 171.042 113.781 169.005C113.415 160.695 116.944 160.215 118.754 161.013C128.94 170.328 139.345 184.435 131.848 196.101C131.19 197.125 130.433 198.014 129.592 198.779C129.467 198.893 129.34 199.004 129.211 199.113C123.803 203.237 107.376 192.672 103.851 187.521C100.961 183.297 109.966 176.774 114.83 174.04Z" fill="#FFD012"/>
<path d="M82.1741 172.166C91.9287 166.747 97.0769 162.231 104.754 162.231C105.671 162.766 106.757 163.494 107.915 164.332C109.823 165.713 111.925 167.393 113.781 169.005C116.128 171.042 118.082 172.969 118.754 174.04C117.379 173.92 116.075 173.924 114.83 174.04C107.021 174.766 101.553 179.896 95.7221 186.617C92.7524 178.306 85.1186 173.821 82.1741 172.166Z" fill="#654916"/>
<path d="M118.754 161.013C116.944 160.215 113.415 160.695 113.781 169.005C111.925 167.393 109.823 165.713 107.915 164.332C108.638 161.316 113.258 158.965 115.477 158.166C116.552 159.053 117.651 160.005 118.754 161.013Z" fill="#EC9905"/>
<path d="M90.017 192.799C93.3888 195.316 97.9709 197.84 102.928 199.714C97.0769 201.972 86.6901 201.408 80.8193 200.449C84.3671 198.05 87.3809 195.421 90.017 192.799Z" fill="#FDC112"/>
<path d="M22.6973 199.714C39.7237 223.649 96.6443 225.545 122.126 213.262C121.908 219.396 120.632 224.974 118.495 229.971C100.238 247.583 33.4013 243.519 16.3051 216.423C16.7743 211.286 19.721 204.558 22.6973 199.714Z" fill="#FEBE13"/>
<path d="M27.5305 193.795C33.13 201.706 43.7608 211.974 58.7547 209.265C67.9466 207.604 75.0813 204.328 80.8193 200.449C86.6901 201.408 97.0769 201.972 102.928 199.714C109.06 202.032 115.765 203.357 121.463 202.449C122.039 206.225 122.248 209.831 122.126 213.262C96.6443 225.545 39.7237 223.649 22.6973 199.714C24.4705 196.827 26.2541 194.61 27.5305 193.795Z" fill="#573D12"/>
<path d="M-1.37196 216.875C5.40204 222.294 16.2405 225.003 16.2405 217.778C16.2405 217.341 16.2626 216.888 16.3051 216.423C33.4013 243.519 100.238 247.583 118.495 229.971C100.247 272.636 19.2485 273.008 -1.37196 216.875Z" fill="#412A08"/>
<path d="M32.2333 156.582C32.0662 156.739 31.9012 156.896 31.738 157.054C29.739 158.988 28.0319 160.984 26.6273 163.044C10.0084 158.637 -0.468765 148.021 -3.62996 143.264C7.93101 152.296 25.0959 155.906 32.2333 156.582Z" fill="#FAC82D"/>
<path d="M0.886032 162.682C9.91805 168.463 19.7027 169.339 23.4661 169.054C22.8066 170.801 22.3474 172.591 22.0938 174.424C15.9382 174.785 5.39044 166.747 0.886032 162.682Z" fill="#FAC82D"/>
<path d="M17.5979 132.99C21.8509 141.247 28.4093 147.999 36.5651 152.926C35.0024 154.118 33.5558 155.339 32.2333 156.582C25.0959 155.906 7.93101 152.296 -3.62996 143.264C-0.468765 148.021 10.0084 158.637 26.6273 163.044C25.3008 164.99 24.2441 166.992 23.4661 169.054C19.7027 169.339 9.91805 168.463 0.886032 162.682C5.39044 166.747 15.9382 174.785 22.0938 174.424C21.5967 178.018 21.89 181.778 23.0145 185.714C23.2048 186.38 23.9492 188.056 25.2252 190.23C-0.0171661 185.714 -36.5968 163.586 -32.5324 126.103C-30.0924 103.601 7.21107 121.584 17.5979 132.99Z" fill="#FEE683"/>
<path d="M17.4388 133.338C21.6919 141.594 28.2502 148.346 36.406 153.274C46.3503 159.281 58.6693 162.576 72.0798 162.576C86.0788 162.576 99.126 159.778 109.563 154.18M109.563 154.18C124.043 146.414 133.497 133.258 133.497 114.706C133.497 82.7811 110.466 45.6107 72.0798 46.5142C35.9618 47.3643 12.017 78.2651 12.017 110.19C12.017 118.798 13.9541 126.573 17.4388 133.338M109.563 154.18C120.401 161.495 141.562 181.086 131.691 196.445C129.3 200.167 125.604 202.109 121.307 202.794M89.6949 193.216C97.2374 198.846 111.002 204.436 121.307 202.794M36.406 153.274C24.2128 162.576 19.2452 173.414 22.858 186.058C23.0484 186.725 23.7927 188.4 25.0687 190.574M51.3089 186.058C53.4765 181.362 68.1987 180.188 82.0177 172.51C91.7722 167.091 96.9205 162.576 104.598 162.576C108.933 165.104 114.877 171.953 116.403 174.384C106.405 173.515 101.324 180.073 94.5632 187.865C87.2772 196.263 78.0411 206.095 58.5983 209.609C43.6043 212.319 32.9736 202.05 27.374 194.139M82.0177 172.51C84.9621 174.165 91.5935 179.553 94.5632 187.865M121.307 202.794C131.691 270.959 22.858 283.604 -1.5284 217.219C5.24561 222.638 16.084 225.348 16.084 218.122C16.084 209.993 23.7612 196.445 27.374 194.139M27.374 194.139C26.475 192.869 25.7056 191.66 25.0687 190.574M17.4388 133.338C7.05201 121.931 -30.2488 103.945 -32.6888 126.447C-36.7532 163.93 -0.173596 186.058 25.0687 190.574" stroke="#402B09" stroke-width="5.4192"/>
<path d="M99.6307 76.7718C100.986 76.3202 133.952 81.7394 134.856 83.0942C135.758 83.9972 136.12 92.3073 135.759 93.0299C135.397 93.7524 133.501 93.632 132.598 93.4815C131.243 113.352 129.888 119.674 111.372 120.126C92.8567 120.577 93.3083 98.4491 91.9535 95.7395C90.8697 93.5718 83.9753 95.1373 80.6635 96.1911C78.8571 99.3523 78.4055 108.836 72.9863 113.803C59.4383 123.287 41.8259 117.416 34.1487 112.449C26.4715 107.481 26.9231 88.9655 25.5683 87.6107C24.2135 86.2559 13.8267 89.8687 12.4719 88.9655C11.388 88.2429 12.3213 84.7506 12.9235 83.0948L26.0199 76.7716C29.6327 76.4103 68.0187 74.5144 69.3735 75.4168C70.7283 76.3192 75.443 82.1212 78.4055 84.4488C80.5732 85.8939 89.6955 85.352 91.9535 83.9972C94.061 81.7393 98.5469 77.1331 99.6307 76.7718Z" fill="#442D09"/>
<path d="M114.082 89.8677C114.985 88.9645 126.275 88.5129 127.179 89.4161C127.629 90.3192 127.45 105.222 126.727 105.222C125.824 105.222 113.179 90.771 114.082 89.8677Z" fill="#674F23"/>
<path d="M124.468 111.996C124.468 111.093 110.92 95.7384 109.565 91.674C109.204 90.8708 101.888 91.674 101.888 92.5772C101.888 93.0288 106.855 101.609 110.468 105.222C111.913 106.667 115.887 111.093 119.5 115.609C121.156 114.706 124.468 112.719 124.468 111.996Z" fill="#674F23"/>
<path d="M66.2114 87.6134C72.0823 93.4842 74.7919 93.4842 75.6951 94.839C75.2435 103.419 74.3403 105.678 72.0823 106.581C71.179 104.323 54.9214 86.2586 56.2762 85.807C57.3601 85.4458 63.3513 86.8608 66.2114 87.6134Z" fill="#674F23"/>
<path d="M49.0506 86.2589C50.857 87.6137 56.2762 98.9037 69.8242 109.29C69.8242 110.194 65.3082 114.709 63.5018 113.806C61.6954 112.903 40.0186 86.2589 40.0186 85.807C40.0186 85.3552 47.2442 84.9041 49.0506 86.2589Z" fill="#674F23"/>
</svg>
