<svg width="53" height="54" viewBox="0 0 53 54" fill="none" xmlns="http://www.w3.org/2000/svg">
<path d="M41.7898 24.4313H39.4303V13.8257H29.0211V11.4217C29.0211 9.10618 27.3903 7.00273 25.135 6.77294C22.5327 6.5078 20.3467 8.5759 20.3467 11.1743V13.8257H9.95485V24.0778H12.3663C14.639 24.0778 16.7035 25.6333 17.1372 27.8958C17.7097 30.9361 15.437 33.6229 12.5398 33.6229H9.9375V43.875H19.9998V41.4004C19.9998 39.0848 21.5265 36.9813 23.7471 36.5394C26.7311 35.9561 29.3681 38.2717 29.3681 41.2236V43.875H39.4303V33.2694H42.0327C44.5829 33.2694 46.6127 31.0422 46.3525 28.3908C46.127 26.0929 44.0451 24.4313 41.7898 24.4313V24.4313Z" fill="#6B6C6E"/>
</svg>
