<svg width="24" height="24" viewBox="0 0 24 24" fill="none" xmlns="http://www.w3.org/2000/svg">
<path d="M12.6956 2.75C12.8625 2.74995 13.0274 2.78631 13.179 2.85645C13.3306 2.92664 13.4655 3.02879 13.5735 3.15625C13.6815 3.28376 13.7606 3.4336 13.8049 3.59473C13.8493 3.75588 13.8579 3.92499 13.8303 4.08984L13.1536 8.15039H16.6096C16.8161 8.15028 17.0189 8.20529 17.1965 8.31055C17.3743 8.41588 17.5203 8.56769 17.6194 8.74902C17.7183 8.93019 17.7673 9.13454 17.76 9.34082C17.7526 9.54727 17.6891 9.74812 17.5774 9.92188L10.3684 21.1348L9.90845 21.8516V14.0498H6.55786C6.39091 14.0497 6.22591 14.0136 6.07446 13.9434C5.92293 13.8731 5.78883 13.7701 5.68091 13.6426C5.57306 13.5151 5.49375 13.3661 5.44946 13.2051C5.40518 13.044 5.39651 12.8747 5.42407 12.71L6.92407 3.70996C6.969 3.44173 7.10812 3.19823 7.31567 3.02246C7.52327 2.84667 7.78681 2.75008 8.05884 2.75H12.6956Z" fill="#FFD52B" stroke="#0E0E0C" stroke-width="0.5"/>
</svg>
