<svg width="32" height="32" viewBox="0 0 32 32" fill="none" xmlns="http://www.w3.org/2000/svg">
<path d="M3.19998 7.2002C3.19998 6.13933 3.6214 5.12191 4.37155 4.37177C5.12169 3.62162 6.13911 3.2002 7.19998 3.2002H9.59998V7.2002C9.59998 7.83672 9.85283 8.44717 10.3029 8.89725C10.753 9.34734 11.3635 9.6002 12 9.6002H24V20.0002C24 21.0611 23.5786 22.0785 22.8284 22.8286C22.0783 23.5788 21.0608 24.0002 20 24.0002H17.5648C17.5872 23.7357 17.5989 23.469 17.6 23.2002C17.6001 21.5313 17.1256 19.8967 16.2319 18.4873C15.3382 17.0778 14.0621 15.9515 12.5526 15.2398C11.043 14.5282 9.36217 14.2604 7.70619 14.4679C6.05021 14.6753 4.48736 15.3494 3.19998 16.4114V7.2002ZM17.2688 25.6002C16.9362 26.7716 16.3641 27.8613 15.5888 28.8002H22.4C24.0974 28.8002 25.7252 28.1259 26.9255 26.9257C28.1257 25.7254 28.8 24.0976 28.8 22.4002V12.0002C28.8002 11.0781 28.4818 10.1842 27.8986 9.46987C27.3155 8.75554 26.5035 8.26462 25.6 8.0802V20.0002C25.6 21.4854 25.01 22.9098 23.9598 23.96C22.9096 25.0102 21.4852 25.6002 20 25.6002H17.2688ZM11.2 7.2002V3.2002H20C21.0608 3.2002 22.0783 3.62162 22.8284 4.37177C23.5786 5.12191 24 6.13933 24 7.2002V8.0002H12C11.7878 8.0002 11.5843 7.91591 11.4343 7.76588C11.2843 7.61585 11.2 7.41237 11.2 7.2002ZM16 23.2002C16 25.1098 15.2414 26.9411 13.8911 28.2914C12.5409 29.6416 10.7095 30.4002 8.79998 30.4002C6.89042 30.4002 5.05907 29.6416 3.70881 28.2914C2.35854 26.9411 1.59998 25.1098 1.59998 23.2002C1.59998 21.2906 2.35854 19.4593 3.70881 18.109C5.05907 16.7588 6.89042 16.0002 8.79998 16.0002C10.7095 16.0002 12.5409 16.7588 13.8911 18.109C15.2414 19.4593 16 21.2906 16 23.2002ZM9.59998 20.0002C9.59998 19.788 9.51569 19.5845 9.36566 19.4345C9.21563 19.2845 9.01215 19.2002 8.79998 19.2002C8.5878 19.2002 8.38432 19.2845 8.23429 19.4345C8.08426 19.5845 7.99998 19.788 7.99998 20.0002V22.4002H5.59998C5.3878 22.4002 5.18432 22.4845 5.03429 22.6345C4.88426 22.7845 4.79998 22.988 4.79998 23.2002C4.79998 23.4124 4.88426 23.6159 5.03429 23.7659C5.18432 23.9159 5.3878 24.0002 5.59998 24.0002H7.99998V26.4002C7.99998 26.6124 8.08426 26.8159 8.23429 26.9659C8.38432 27.1159 8.5878 27.2002 8.79998 27.2002C9.01215 27.2002 9.21563 27.1159 9.36566 26.9659C9.51569 26.8159 9.59998 26.6124 9.59998 26.4002V24.0002H12C12.2121 24.0002 12.4156 23.9159 12.5657 23.7659C12.7157 23.6159 12.8 23.4124 12.8 23.2002C12.8 22.988 12.7157 22.7845 12.5657 22.6345C12.4156 22.4845 12.2121 22.4002 12 22.4002H9.59998V20.0002Z" fill="black"/>
</svg>
