<svg width="18" height="18" viewBox="0 0 18 18" fill="none" xmlns="http://www.w3.org/2000/svg">
<g clip-path="url(#clip0_4763_84839)">
<path d="M3.7665 3C3.7975 3 3.829 3.0025 3.861 3.0075L3.9075 3.0165L3.9765 3.0345L4.0365 3.057C4.08551 3.07701 4.13227 3.10215 4.176 3.132L4.203 3.153C4.223 3.167 4.243 3.1835 4.263 3.2025L7.281 6.219C7.41387 6.35128 7.49238 6.52854 7.50105 6.71584C7.50972 6.90313 7.44792 7.08688 7.32783 7.23087C7.20775 7.37487 7.03808 7.46866 6.85227 7.49376C6.66646 7.51886 6.47799 7.47346 6.324 7.3665L6.219 7.281L4.5 5.5605V11.25C4.50002 11.8093 4.70838 12.3486 5.08443 12.7626C5.46047 13.1767 5.97726 13.4358 6.534 13.4895L6.75 13.5H9C9.18742 13.4997 9.36817 13.5695 9.50667 13.6958C9.64517 13.822 9.73138 13.9956 9.74831 14.1822C9.76524 14.3689 9.71168 14.5551 9.59817 14.7042C9.48465 14.8534 9.31942 14.9546 9.135 14.988L9 15H6.75C5.79792 15.0001 4.88143 14.6382 4.18643 13.9874C3.49143 13.3367 3.06995 12.446 3.0075 11.496L3 11.25V5.5605L1.281 7.281C1.14871 7.41388 0.971458 7.49238 0.784162 7.50105C0.596866 7.50972 0.413115 7.44793 0.269123 7.32784C0.12513 7.20775 0.0313404 7.03808 0.00623631 6.85227C-0.0188678 6.66647 0.0265351 6.47799 0.133497 6.324L0.218997 6.219L3.24 3.2025L3.2685 3.177L3.2835 3.1635L3.2205 3.219L3.291 3.1575L3.351 3.1155C3.42555 3.06848 3.50781 3.03496 3.594 3.0165L3.648 3.0075L3.75 3H3.7665ZM11.25 3C12.2446 3 13.1984 3.39509 13.9016 4.09835C14.6049 4.80161 15 5.75544 15 6.75V12.438L16.719 10.719C16.8513 10.5861 17.0285 10.5076 17.2158 10.4989C17.4031 10.4903 17.5869 10.5521 17.7309 10.6722C17.8749 10.7923 17.9687 10.9619 17.9938 11.1477C18.0189 11.3335 17.9735 11.522 17.8665 11.676L17.781 11.781L14.781 14.781L14.7615 14.7975L14.703 14.847L14.781 14.781C14.7112 14.8506 14.6284 14.9058 14.5373 14.9433C14.4462 14.9809 14.3486 15.0002 14.25 15L14.358 14.9925L14.28 15H14.25C14.0977 14.9998 13.9492 14.9532 13.824 14.8665L13.797 14.847L13.737 14.7975L13.719 14.781L10.719 11.781C10.5861 11.6487 10.5076 11.4715 10.4989 11.2842C10.4903 11.0969 10.5521 10.9131 10.6722 10.7691C10.7922 10.6251 10.9619 10.5313 11.1477 10.5062C11.3335 10.4811 11.522 10.5265 11.676 10.6335L11.781 10.719L13.5 12.438V6.75C13.5 6.19068 13.2916 5.65141 12.9156 5.23737C12.5395 4.82333 12.0227 4.5642 11.466 4.5105L11.25 4.5H9C8.80109 4.5 8.61032 4.42098 8.46967 4.28033C8.32902 4.13968 8.25 3.94891 8.25 3.75C8.25 3.55109 8.32902 3.36032 8.46967 3.21967C8.61032 3.07902 8.80109 3 9 3H11.25ZM3.297 3.153L3.291 3.1575L3.2835 3.1635L3.297 3.153ZM3.6555 3.006L3.648 3.0075H3.639L3.6555 3.006ZM3.6765 3.003L3.6555 3.006L3.6705 3.0045L3.6765 3.003ZM3.75 3L3.6765 3.003L3.7335 3H3.75Z" fill="white"/>
</g>
<defs>
<clipPath id="clip0_4763_84839">
<rect width="18" height="18" fill="white"/>
</clipPath>
</defs>
</svg>
