<svg width="32" height="32" viewBox="0 0 32 32" fill="none" xmlns="http://www.w3.org/2000/svg">
<path fill-rule="evenodd" clip-rule="evenodd" d="M25.3333 5.33301C26.3942 5.33301 27.4116 5.75444 28.1617 6.50458C28.9119 7.25473 29.3333 8.27214 29.3333 9.33301V22.6663C29.3333 23.7272 28.9119 24.7446 28.1617 25.4948C27.4116 26.2449 26.3942 26.6663 25.3333 26.6663H6.66663C5.60576 26.6663 4.58834 26.2449 3.8382 25.4948C3.08805 24.7446 2.66663 23.7272 2.66663 22.6663V9.33301C2.66663 8.27214 3.08805 7.25473 3.8382 6.50458C4.58834 5.75444 5.60576 5.33301 6.66663 5.33301H25.3333ZM26.6666 12.833H17.3333C16.5973 12.833 15.792 12.273 15.536 11.5823L14.2053 7.99967H6.66663C6.313 7.99967 5.97387 8.14015 5.72382 8.3902C5.47377 8.64025 5.33329 8.97939 5.33329 9.33301V22.6663C5.33329 23.02 5.47377 23.3591 5.72382 23.6092C5.97387 23.8592 6.313 23.9997 6.66663 23.9997H25.3333C25.6869 23.9997 26.0261 23.8592 26.2761 23.6092C26.5261 23.3591 26.6666 23.02 26.6666 22.6663V12.833Z" fill="black"/>
</svg>
