<svg width="42" height="42" viewBox="0 0 42 42" fill="none" xmlns="http://www.w3.org/2000/svg">
<path fill-rule="evenodd" clip-rule="evenodd" d="M20.9683 0.497767C20.9683 0.497767 32.9891 -0.0417349 39.362 12.0409H19.9455C19.9455 12.0409 16.2814 11.9228 13.1512 16.3681C12.252 18.2339 11.2854 20.1559 12.37 23.9436C10.8077 21.2967 4.0752 9.57376 4.0752 9.57376C4.0752 9.57376 8.82394 0.975451 20.9683 0.497767Z" fill="#EF3F36"/>
<path fill-rule="evenodd" clip-rule="evenodd" d="M38.7385 31.1709C38.7385 31.1709 33.1918 41.8542 19.5469 41.3259C21.2328 38.4092 29.2579 24.5114 29.2579 24.5114C29.2579 24.5114 31.1967 21.3981 28.9095 16.4639C27.7462 14.7498 26.5604 12.9571 22.7389 12.0017C25.813 11.9736 39.3286 12.0017 39.3286 12.0017C39.3286 12.0017 44.3921 20.4146 38.7385 31.1709Z" fill="#FCD900"/>
<path fill-rule="evenodd" clip-rule="evenodd" d="M3.28316 31.2547C3.28316 31.2547 -3.19648 21.111 4.08679 9.55664C5.76712 12.4733 13.7922 26.3711 13.7922 26.3711C13.7922 26.3711 15.5231 29.6081 20.935 30.0914C22.9975 29.9397 25.1442 29.8104 27.8867 26.9837C26.375 29.6587 19.5919 41.3479 19.5919 41.3479C19.5919 41.3479 9.76842 41.5278 3.28316 31.2547Z" fill="#61BC5B"/>
<path fill-rule="evenodd" clip-rule="evenodd" d="M19.541 41.4265L22.2722 30.0295C22.2722 30.0295 25.2732 29.7935 27.7909 27.0342C26.2286 29.7823 19.541 41.4265 19.541 41.4265Z" fill="#5AB055"/>
<path fill-rule="evenodd" clip-rule="evenodd" d="M11.8193 21.0887C11.8193 16.0646 15.8937 11.9902 20.9178 11.9902C25.9419 11.9902 30.0163 16.0646 30.0163 21.0887C30.0163 26.1128 25.9419 30.1872 20.9178 30.1872C15.8937 30.1816 11.8193 26.1128 11.8193 21.0887Z" fill="white"/>
<path fill-rule="evenodd" clip-rule="evenodd" d="M13.3423 21.0892C13.3423 16.908 16.731 13.5137 20.9178 13.5137C25.0989 13.5137 28.4933 16.9024 28.4933 21.0892C28.4933 25.2703 25.1046 28.6647 20.9178 28.6647C16.7367 28.6647 13.3423 25.2703 13.3423 21.0892Z" fill="url(#paint0_linear_4088_77694)"/>
<path fill-rule="evenodd" clip-rule="evenodd" d="M39.3226 12.0075L28.0774 15.3063C28.0774 15.3063 26.3802 12.8167 22.7329 12.0075C25.8969 11.9906 39.3226 12.0075 39.3226 12.0075Z" fill="#EACA05"/>
<path fill-rule="evenodd" clip-rule="evenodd" d="M12.1509 23.5282C10.5717 20.7914 4.0752 9.57422 4.0752 9.57422L12.4038 17.8129C12.4038 17.8129 11.5495 19.5719 11.8699 22.0895L12.1509 23.5282Z" fill="#DF3A32"/>
<defs>
<linearGradient id="paint0_linear_4088_77694" x1="13.6234" y1="13.6206" x2="13.6234" y2="28.2086" gradientUnits="userSpaceOnUse">
<stop stop-color="#86BBE5"/>
<stop offset="1" stop-color="#1072BA"/>
</linearGradient>
</defs>
</svg>
