<svg width="151" height="40" viewBox="0 0 151 40" fill="none" xmlns="http://www.w3.org/2000/svg">
<path d="M16.3541 5.43891C18.6102 4.13638 21.3897 4.13638 23.6458 5.43891L30.7879 9.56241C33.044 10.8649 34.4337 13.2721 34.4337 15.8772V24.1242C34.4337 26.7292 33.044 29.1364 30.7879 30.439L23.6458 34.5625C21.3897 35.865 18.6102 35.865 16.3541 34.5625L9.21201 30.439C6.95596 29.1364 5.56617 26.7292 5.56617 24.1242V15.8772C5.56617 13.2721 6.95595 10.8649 9.21201 9.56241L16.3541 5.43891Z" stroke="black" stroke-width="3.33333"/>
<mask id="mask0_4140_6270" style="mask-type:alpha" maskUnits="userSpaceOnUse" x="9" y="8" width="22" height="24">
<path d="M18.3332 9.29624C19.3646 8.70079 20.6352 8.70079 21.6666 9.29623L28.4369 13.2051C29.4682 13.8005 30.1035 14.9009 30.1035 16.0918V23.9095C30.1035 25.1004 29.4682 26.2008 28.4369 26.7962L21.6666 30.7051C20.6352 31.3005 19.3646 31.3005 18.3333 30.7051L11.563 26.7962C10.5316 26.2008 9.89629 25.1004 9.89629 23.9095V16.0918C9.89629 14.9009 10.5316 13.8005 11.563 13.2051L18.3332 9.29624Z" fill="#D9D9D9"/>
</mask>
<g mask="url(#mask0_4140_6270)">
<path d="M10 28.334H30V31.6673H10V28.334Z" fill="black"/>
<rect x="8.33325" y="21.668" width="23.3333" height="3.33333" rx="0.333333" fill="black"/>
<rect x="8.33325" y="15" width="23.3333" height="3.33333" rx="0.333333" fill="black"/>
<path d="M10 8.33398H30V11.6673H10V8.33398Z" fill="black"/>
</g>
<path d="M50 28.6671V11.332H53.3927V25.5716H61.0202V28.6671H50Z" fill="black"/>
<path d="M70.7619 28.84C69.3255 28.84 68.079 28.5593 67.0224 27.998C65.9658 27.4367 65.1486 26.6525 64.5708 25.6454C64.0094 24.6218 63.7288 23.4166 63.7288 22.0298V11.1582H67.1215V22.0298C67.1215 22.7727 67.2701 23.4248 67.5672 23.9862C67.8809 24.531 68.3102 24.952 68.855 25.2492C69.4163 25.5463 70.0685 25.6949 70.8114 25.6949C71.5543 25.6949 72.1982 25.5463 72.743 25.2492C73.3043 24.952 73.7336 24.531 74.0308 23.9862C74.3444 23.4248 74.5013 22.7727 74.5013 22.0298V11.1582H77.894V22.0298C77.894 23.4166 77.5968 24.6218 77.0025 25.6454C76.4247 26.6525 75.5992 27.4367 74.5261 27.998C73.4694 28.5593 72.2147 28.84 70.7619 28.84Z" fill="black"/>
<path d="M80.6025 28.6671V25.4973L89.9883 14.5019H80.6768V11.332H94.3716V14.5019L84.9858 25.4973H94.2973V28.6671H80.6025Z" fill="black"/>
<path fill-rule="evenodd" clip-rule="evenodd" d="M103.101 11.6491C104.6 10.7836 106.447 10.7836 107.946 11.6491L111.545 13.7267C113.044 14.5921 113.967 16.1915 113.967 17.9224V22.0776C113.967 23.8085 113.044 25.4079 111.545 26.2733L107.946 28.3509C106.447 29.2164 104.6 29.2164 103.101 28.3509L99.5028 26.2733C98.0037 25.4079 97.0803 23.8085 97.0803 22.0776V17.9224C97.0803 16.1915 98.0037 14.5921 99.5028 13.7267L103.101 11.6491ZM106.205 14.665C105.783 14.4217 105.264 14.4217 104.842 14.665L101.244 16.7426C100.822 16.9859 100.563 17.4357 100.563 17.9224V22.0776C100.563 22.5643 100.822 23.014 101.244 23.2574L104.842 25.335C105.264 25.5783 105.783 25.5783 106.205 25.335L109.803 23.2574C110.225 23.014 110.484 22.5643 110.484 22.0776V17.9224C110.484 17.4357 110.225 16.9859 109.803 16.7426L106.205 14.665Z" fill="black"/>
<path fill-rule="evenodd" clip-rule="evenodd" d="M106.205 14.6649C105.783 14.4216 105.264 14.4216 104.842 14.6649L101.244 16.7425C100.822 16.9859 100.563 17.4356 100.563 17.9224V22.0775C100.563 22.5642 100.822 23.014 101.244 23.2573L104.842 25.3349C105.264 25.5783 105.783 25.5783 106.205 25.3349L109.803 23.2573C110.225 23.014 110.484 22.5642 110.484 22.0775V17.9224C110.484 17.4356 110.225 16.9859 109.803 16.7425L106.205 14.6649Z" fill="#FFD52B"/>
<path d="M116.676 28.6671V11.332H123.114C124.336 11.332 125.417 11.5714 126.358 12.0502C127.299 12.529 128.034 13.1894 128.562 14.0314C129.091 14.8568 129.355 15.8226 129.355 16.9288C129.355 18.0184 129.074 18.9925 128.513 19.851C127.968 20.693 127.217 21.3534 126.259 21.8321C125.302 22.2944 124.212 22.5256 122.99 22.5256H120.068V28.6671H116.676ZM126.21 28.6671L122.198 21.7083L124.798 19.851L130.048 28.6671H126.21ZM120.068 19.43H123.139C123.651 19.43 124.105 19.3227 124.501 19.1081C124.914 18.8934 125.236 18.5963 125.467 18.2165C125.715 17.8368 125.838 17.4076 125.838 16.9288C125.838 16.1859 125.566 15.5833 125.021 15.121C124.493 14.6587 123.808 14.4276 122.966 14.4276H120.068V19.43Z" fill="black"/>
<path d="M146.452 28.6671L139.815 11.332H143.207L150.042 28.6671H146.452ZM132.757 28.6671L139.592 11.332H142.985L136.348 28.6671H132.757ZM135.976 24.8534V21.8569H146.848V24.8534H135.976Z" fill="black"/>
</svg>
