<svg width="128" height="128" viewBox="0 0 128 128" fill="none" xmlns="http://www.w3.org/2000/svg">
<rect width="128" height="128" rx="32" fill="#FFD52B"/>
<path fill-rule="evenodd" clip-rule="evenodd" d="M50.313 15.0932C58.7826 10.2033 69.2176 10.2033 77.6871 15.0932L99.5113 27.6934C107.981 32.5833 113.198 41.6203 113.198 51.4001V76.6005C113.198 86.3803 107.981 95.4173 99.5113 100.307L77.6871 112.907C69.2176 117.797 58.7826 117.797 50.313 112.907L28.4888 100.307C20.0192 95.4173 14.8018 86.3803 14.8018 76.6005V51.4001C14.8018 41.6203 20.0192 32.5833 28.4888 27.6934L50.313 15.0932ZM72.5943 23.9143C67.2762 20.8439 60.724 20.8439 55.4059 23.9143L33.5817 36.5145C28.2636 39.5849 24.9875 45.2593 24.9875 51.4001V76.6005C24.9875 82.7413 28.2636 88.4157 33.5817 91.4861L55.4059 104.086C60.724 107.157 67.2762 107.157 72.5943 104.086L94.4185 91.4861C99.7366 88.4157 103.013 82.7413 103.013 76.6005V51.4001C103.013 45.2593 99.7366 39.5849 94.4185 36.5145L72.5943 23.9143Z" fill="black"/>
<path d="M81.6424 89.4642L69.0931 96.7096C65.9416 98.5291 62.0588 98.5291 58.9074 96.7096L46.3581 89.4642H81.6424Z" fill="black"/>
<path d="M33.6875 79.2785C33.3212 78.2217 33.1265 77.0968 33.1265 75.9443V69.0928H94.874V75.9443C94.874 77.0968 94.6792 78.2217 94.313 79.2785H33.6875Z" fill="black"/>
<path d="M33.1265 58.9072V52.0557C33.1265 50.9032 33.3212 49.7783 33.6875 48.7214H94.313C94.6792 49.7783 94.874 50.9032 94.874 52.0557V58.9072H33.1265Z" fill="black"/>
<path d="M81.6424 38.5357H46.3581L58.9074 31.2904C62.0588 29.4709 65.9416 29.4709 69.0931 31.2904L81.6424 38.5357Z" fill="black"/>
</svg>
