<svg width="734" height="862" viewBox="0 0 734 862" fill="none" xmlns="http://www.w3.org/2000/svg">
<path fill-rule="evenodd" clip-rule="evenodd" d="M-8.54656e-05 58.5C-3 29.5 116 0 221.5 0C147.896 5.84158 85.3824 50.5467 43.3724 80.5892C42.2331 81.404 41.1089 82.2079 40 83C64.5 54 -8.54656e-05 29.25 -8.54656e-05 58.5Z" fill="#B5971F"/>
<path fill-rule="evenodd" clip-rule="evenodd" d="M43.3724 80.5892C85.3824 50.5467 147.896 5.84158 221.5 0H734V862H-8.54656e-05V58.5C-8.54656e-05 29.25 64.5 54 40 83C41.1089 82.2079 42.2331 81.404 43.3724 80.5892Z" fill="#FFD52B"/>
<path d="M733.5 0.5V861.5H0.5V58.5C0.5 54.9392 1.47972 52.2462 3.1084 50.2852C4.73984 48.3208 7.05862 47.0475 9.81055 46.3965C15.3305 45.0908 22.5091 46.3113 28.9746 49.3584C35.4385 52.4048 41.0907 57.2303 43.6279 63.0244C46.0666 68.5938 45.6621 75.1345 40.166 82.0107L39.6182 82.6777L40.291 83.4072L43.6631 80.9961C85.6848 50.9452 148.081 6.33672 221.516 0.5H733.5ZM211.007 0.59668C146.327 8.99637 90.8269 46.2109 51.1943 74.3916L43.0811 80.1826C42.8465 80.3503 42.6121 80.5168 42.3789 80.6836C46.7139 74.2378 46.9085 68.0243 44.5439 62.624C41.878 56.5355 35.9989 51.5639 29.4004 48.4541C22.8035 45.3451 15.3881 44.0499 9.58008 45.4238C8.21404 45.747 6.9332 46.2205 5.77148 46.8545C8.8681 43.7174 13.2486 40.603 18.75 37.5625C31.0798 30.7481 48.9243 24.3547 70.1875 18.8594C109.896 8.59691 161.434 1.49141 211.007 0.59668Z" stroke="#6B5912"/>
</svg>
