<svg width="42" height="42" viewBox="0 0 42 42" fill="none" xmlns="http://www.w3.org/2000/svg">
<g clip-path="url(#clip0_4088_77695)">
<path d="M37.8983 31.2541C37.3405 31.5494 36.7663 31.8119 36.1757 32.0252C34.289 32.7307 32.3038 33.0916 30.2858 33.0916C22.5257 33.0916 15.7663 27.7596 15.7663 20.9018C15.7827 19.0314 16.8163 17.3088 18.4569 16.4229C11.4351 16.7182 9.63037 24.0354 9.63037 28.3174C9.63037 40.4416 20.803 41.6721 23.2147 41.6721C24.5108 41.6721 26.4632 41.2947 27.6444 40.9174L27.8577 40.8518C32.3858 39.2932 36.2249 36.2416 38.7843 32.1893C38.9812 31.8775 38.8827 31.4838 38.5874 31.2869C38.3741 31.1557 38.1116 31.1393 37.8983 31.2541Z" fill="url(#paint0_linear_4088_77695)"/>
<path opacity="0.35" d="M37.8983 31.2541C37.3405 31.5494 36.7663 31.8119 36.1757 32.0252C34.289 32.7307 32.3038 33.0916 30.2858 33.0916C22.5257 33.0916 15.7663 27.7596 15.7663 20.9018C15.7827 19.0314 16.8163 17.3088 18.4569 16.4229C11.4351 16.7182 9.63037 24.0354 9.63037 28.3174C9.63037 40.4416 20.803 41.6721 23.2147 41.6721C24.5108 41.6721 26.4632 41.2947 27.6444 40.9174L27.8577 40.8518C32.3858 39.2932 36.2249 36.2416 38.7843 32.1893C38.9812 31.8775 38.8827 31.4838 38.5874 31.2869C38.3741 31.1557 38.1116 31.1393 37.8983 31.2541Z" fill="url(#paint1_radial_4088_77695)"/>
<path d="M17.3413 39.6051C15.8811 38.7027 14.6178 37.5051 13.617 36.1105C9.30219 30.2043 10.5983 21.9191 16.5045 17.6043C17.128 17.1613 17.7678 16.7512 18.4569 16.423C18.9655 16.177 19.835 15.7504 20.9998 15.7668C22.6569 15.7832 24.2155 16.5707 25.2163 17.8996C25.8725 18.7855 26.2499 19.852 26.2663 20.9676C26.2663 20.9348 30.2858 7.9082 13.1413 7.9082C5.93891 7.9082 0.0162563 14.7496 0.0162563 20.7379C-0.0165562 23.9043 0.672506 27.0543 2.00141 29.9254C6.52954 39.5723 17.5545 44.2973 27.6608 40.934C24.1991 42.0168 20.4256 41.541 17.3413 39.6051Z" fill="url(#paint2_linear_4088_77695)"/>
<path opacity="0.41" d="M17.3413 39.6051C15.8811 38.7027 14.6178 37.5051 13.617 36.1105C9.30219 30.2043 10.5983 21.9191 16.5045 17.6043C17.128 17.1613 17.7678 16.7512 18.4569 16.423C18.9655 16.177 19.835 15.7504 20.9998 15.7668C22.6569 15.7832 24.2155 16.5707 25.2163 17.8996C25.8725 18.7855 26.2499 19.852 26.2663 20.9676C26.2663 20.9348 30.2858 7.9082 13.1413 7.9082C5.93891 7.9082 0.0162563 14.7496 0.0162563 20.7379C-0.0165562 23.9043 0.672506 27.0543 2.00141 29.9254C6.52954 39.5723 17.5545 44.2973 27.6608 40.934C24.1991 42.0168 20.4256 41.541 17.3413 39.6051Z" fill="url(#paint3_radial_4088_77695)"/>
<path d="M24.9867 24.4289C24.8555 24.593 24.4453 24.8391 24.4453 25.3641C24.4453 25.7906 24.7242 26.2008 25.2164 26.5453C27.5789 28.1859 32.025 27.9727 32.0414 27.9727C33.7969 27.9727 35.5031 27.4969 37.0125 26.6109C40.0969 24.8062 42 21.5086 42 17.932C42.0492 14.257 40.6875 11.8125 40.1461 10.7297C36.668 3.92109 29.1539 0 21 0C9.51562 0 0.164062 9.22031 0 20.7047C0.0820312 14.7164 6.0375 9.87656 13.125 9.87656C13.6992 9.87656 16.9805 9.92578 20.0156 11.5336C22.6898 12.9445 24.1008 14.6344 25.0688 16.3242C26.0859 18.0797 26.2664 20.2781 26.2664 21.1641C26.2664 22.0336 25.8234 23.3461 24.9867 24.4289Z" fill="url(#paint4_radial_4088_77695)"/>
<path d="M24.9867 24.4289C24.8555 24.593 24.4453 24.8391 24.4453 25.3641C24.4453 25.7906 24.7242 26.2008 25.2164 26.5453C27.5789 28.1859 32.025 27.9727 32.0414 27.9727C33.7969 27.9727 35.5031 27.4969 37.0125 26.6109C40.0969 24.8062 42 21.5086 42 17.932C42.0492 14.257 40.6875 11.8125 40.1461 10.7297C36.668 3.92109 29.1539 0 21 0C9.51562 0 0.164062 9.22031 0 20.7047C0.0820312 14.7164 6.0375 9.87656 13.125 9.87656C13.6992 9.87656 16.9805 9.92578 20.0156 11.5336C22.6898 12.9445 24.1008 14.6344 25.0688 16.3242C26.0859 18.0797 26.2664 20.2781 26.2664 21.1641C26.2664 22.0336 25.8234 23.3461 24.9867 24.4289Z" fill="url(#paint5_radial_4088_77695)"/>
</g>
<defs>
<linearGradient id="paint0_linear_4088_77695" x1="9.63108" y1="29.0426" x2="38.8805" y2="29.0426" gradientUnits="userSpaceOnUse">
<stop stop-color="#0C59A4"/>
<stop offset="1" stop-color="#114A8B"/>
</linearGradient>
<radialGradient id="paint1_radial_4088_77695" cx="0" cy="0" r="1" gradientUnits="userSpaceOnUse" gradientTransform="translate(25.7892 29.2749) scale(15.6467 14.8627)">
<stop offset="0.72" stop-opacity="0"/>
<stop offset="0.95" stop-opacity="0.53"/>
<stop offset="1"/>
</radialGradient>
<linearGradient id="paint2_linear_4088_77695" x1="25.0639" y1="16.365" x2="6.79165" y2="36.2678" gradientUnits="userSpaceOnUse">
<stop stop-color="#1B9DE2"/>
<stop offset="0.16" stop-color="#1595DF"/>
<stop offset="0.67" stop-color="#0680D7"/>
<stop offset="1" stop-color="#0078D4"/>
</linearGradient>
<radialGradient id="paint3_radial_4088_77695" cx="0" cy="0" r="1" gradientTransform="matrix(3.52505 -23.2606 18.8003 2.82004 11.584 32.6503)" gradientUnits="userSpaceOnUse">
<stop offset="0.76" stop-opacity="0"/>
<stop offset="0.95" stop-opacity="0.5"/>
<stop offset="1"/>
</radialGradient>
<radialGradient id="paint4_radial_4088_77695" cx="0" cy="0" r="1" gradientTransform="matrix(-1.32836 33.2045 -70.7364 -2.65637 4.24143 7.77532)" gradientUnits="userSpaceOnUse">
<stop stop-color="#35C1F1"/>
<stop offset="0.11" stop-color="#34C1ED"/>
<stop offset="0.23" stop-color="#2FC2DF"/>
<stop offset="0.31" stop-color="#2BC3D2"/>
<stop offset="0.67" stop-color="#36C752"/>
</radialGradient>
<radialGradient id="paint5_radial_4088_77695" cx="0" cy="0" r="1" gradientTransform="matrix(4.47156 15.3279 -12.4565 3.67306 39.3849 12.6994)" gradientUnits="userSpaceOnUse">
<stop stop-color="#66EB6E"/>
<stop offset="1" stop-color="#66EB6E" stop-opacity="0"/>
</radialGradient>
<clipPath id="clip0_4088_77695">
<rect width="42" height="42" fill="white"/>
</clipPath>
</defs>
</svg>
