<svg width="32" height="32" viewBox="0 0 32 32" fill="none" xmlns="http://www.w3.org/2000/svg">
<path d="M11.3333 5.00001V7.52934C11.3333 8.14268 11.8333 8.64668 12.4586 8.64668H19.5413C19.6886 8.64738 19.8346 8.61902 19.9709 8.56321C20.1072 8.50741 20.2312 8.42526 20.3358 8.32147C20.4403 8.21768 20.5233 8.09429 20.5801 7.95837C20.6369 7.82244 20.6663 7.67665 20.6666 7.52934V5.08934C20.4176 5.03049 20.1625 5.00051 19.9066 5.00001H11.3333ZM23.084 29H8.91729C8.22861 29.0014 7.5464 28.867 6.90968 28.6046C6.27296 28.3421 5.69423 27.9567 5.20657 27.4704C4.71891 26.9841 4.3319 26.4065 4.06766 25.7705C3.80343 25.1345 3.66715 24.4527 3.66663 23.764V8.23468C3.66733 7.5461 3.80373 6.86441 4.06805 6.22859C4.33236 5.59276 4.7194 5.01526 5.20704 4.52911C5.69468 4.04296 6.27336 3.65768 6.90999 3.39531C7.54662 3.13293 8.22872 2.99861 8.91729 3.00001H19.9066C21.2975 3.00111 22.6314 3.55232 23.6173 4.53334L26.7946 7.69868C27.282 8.18403 27.6688 8.76082 27.9329 9.39598C28.1969 10.0311 28.333 10.7122 28.3333 11.4V23.7627C28.3328 24.4513 28.1965 25.133 27.9324 25.7689C27.6682 26.4048 27.2813 26.9824 26.7938 27.4686C26.3063 27.9549 25.7277 28.3403 25.0912 28.6029C24.4546 28.8654 23.7725 29.0012 23.084 29ZM20.6666 26.9987V21.6453C20.6663 21.498 20.6369 21.3522 20.5801 21.2163C20.5233 21.0804 20.4403 20.957 20.3358 20.8532C20.2312 20.7494 20.1072 20.6673 19.9709 20.6115C19.8346 20.5557 19.6886 20.5273 19.5413 20.528H12.4586C12.3113 20.5273 12.1653 20.5557 12.029 20.6115C11.8927 20.6673 11.7687 20.7494 11.6642 20.8532C11.5596 20.957 11.4766 21.0804 11.4198 21.2163C11.363 21.3522 11.3336 21.498 11.3333 21.6453V26.9987H20.6666Z" fill="black"/>
</svg>
