<svg width="42" height="42" viewBox="0 0 42 42" fill="none" xmlns="http://www.w3.org/2000/svg">
<path fill-rule="evenodd" clip-rule="evenodd" d="M14.2549 32.5517C11.9798 29.876 10.5218 25.9187 10.4257 21.4807V20.5193C10.5218 16.0813 11.9958 12.124 14.2549 9.44833C17.2029 5.63516 21.5287 3.92084 26.4153 3.92084C29.4274 3.92084 32.2633 4.12912 34.6665 5.73129C31.0616 2.47888 26.3032 0.508209 21.0801 0.492188H21C9.67264 0.492188 0.492188 9.67264 0.492188 21C0.492188 31.9909 9.14392 40.9791 20.0227 41.4918C20.3431 41.5078 20.6796 41.5078 21 41.5078C26.2551 41.5078 31.0456 39.5371 34.6665 36.2847C32.2633 37.8869 29.5876 37.951 26.5756 37.951C21.705 37.967 17.1868 36.3809 14.2549 32.5517Z" fill="url(#paint0_linear_4088_77696)"/>
<path fill-rule="evenodd" clip-rule="evenodd" d="M14.2549 9.44867C16.1294 7.22165 18.5647 5.89185 21.2243 5.89185C27.2004 5.89185 32.039 12.653 32.039 21.0164C32.039 29.3797 27.2004 36.1409 21.2243 36.1409C18.5647 36.1409 16.1454 34.795 14.2549 32.584C17.2029 36.3972 21.5768 38.8325 26.4474 38.8325C29.4435 38.8325 32.2633 37.9193 34.6666 36.3171C38.8643 32.536 41.5078 27.0726 41.5078 21.0003C41.5078 14.9281 38.8643 9.46469 34.6666 5.71561C32.2633 4.11343 29.4595 3.2002 26.4474 3.2002C21.5608 3.2002 17.1869 5.61948 14.2549 9.44867Z" fill="url(#paint1_linear_4088_77696)"/>
<defs>
<linearGradient id="paint0_linear_4088_77696" x1="1.0203" y1="1.1609" x2="1.0203" y2="40.911" gradientUnits="userSpaceOnUse">
<stop offset="0.3" stop-color="#FF1B2D"/>
<stop offset="0.4381" stop-color="#FA1A2C"/>
<stop offset="0.5939" stop-color="#ED1528"/>
<stop offset="0.7581" stop-color="#D60E21"/>
<stop offset="0.9272" stop-color="#B70519"/>
<stop offset="1" stop-color="#A70014"/>
</linearGradient>
<linearGradient id="paint1_linear_4088_77696" x1="14.434" y1="3.50413" x2="14.434" y2="38.6611" gradientUnits="userSpaceOnUse">
<stop stop-color="#9C0000"/>
<stop offset="0.7" stop-color="#FF4B4B"/>
</linearGradient>
</defs>
</svg>
