<svg width="128" height="44" viewBox="0 0 128 44" fill="none" xmlns="http://www.w3.org/2000/svg">
<path d="M29.0276 21.7718V7.25748H30.8419V3.62891H12.6991V7.25748H14.5133V21.7718L10.8848 25.4003V29.0289H20.3191V39.9146H23.2219V29.0289H32.6562V25.4003L29.0276 21.7718Z" fill="#8D8873"/>
<path d="M60.2104 29.0629C60.3763 29.0636 60.5355 28.9976 60.6521 28.8795L67.3187 22.2129C67.5624 21.9688 67.5624 21.5735 67.3187 21.3295L60.6521 14.6629C60.4058 14.4334 60.022 14.4402 59.784 14.6782C59.546 14.9162 59.5393 15.2999 59.7687 15.5462L65.9937 21.7712L59.7687 27.9962C59.525 28.2402 59.525 28.6355 59.7687 28.8795C59.8853 28.9976 60.0445 29.0636 60.2104 29.0629Z" fill="#555245"/>
<path d="M112.573 21.7718V7.25748H114.387V3.62891H96.244V7.25748H98.0583V21.7718L94.4297 25.4003V29.0289H103.864V39.9146H106.767V29.0289H116.201V25.4003L112.573 21.7718Z" fill="#346EE7"/>
</svg>
