<svg width="32" height="32" viewBox="0 0 32 32" fill="none" xmlns="http://www.w3.org/2000/svg">
<g clip-path="url(#clip0_4290_4871)">
<path d="M21.7333 0C22.0186 1.94667 21.2293 3.85333 20.1866 5.2C19.0733 6.64 17.1599 7.76 15.3066 7.70667C14.9679 5.84 15.8373 3.93333 16.8933 2.64C18.0519 1.21333 20.0399 0.133333 21.7333 0.0133333V0ZM22.3999 8C24.5199 8 26.7599 9.16533 28.3599 11.1733C23.1199 14.0667 23.9733 21.6267 29.2666 23.6533C28.7159 24.9813 28.0413 26.2533 27.2533 27.4533C25.9439 29.4667 24.0933 31.9733 21.8133 32C20.8719 32.0093 20.2533 31.724 19.5866 31.416C18.8146 31.06 17.9733 30.6733 16.4933 30.6813C15.0266 30.688 14.1733 31.0707 13.3866 31.4227C12.7039 31.7293 12.0746 32.0133 11.1333 32.004C8.83994 31.984 7.09328 29.724 5.78661 27.7107C2.11994 22.084 1.74661 15.4707 3.99994 11.9773C5.59994 9.484 8.13328 8.01733 10.5199 8.01733C11.7893 8.01733 12.8133 8.38533 13.7866 8.736C14.6719 9.05467 15.5199 9.35867 16.4666 9.35867C17.3493 9.35867 18.0799 9.08133 18.8666 8.77867C19.8186 8.41467 20.8666 8.01467 22.3999 8.01467V8Z" fill="black"/>
</g>
<defs>
<clipPath id="clip0_4290_4871">
<rect width="32" height="32" fill="white"/>
</clipPath>
</defs>
</svg>
