<svg width="32" height="32" viewBox="0 0 32 32" fill="none" xmlns="http://www.w3.org/2000/svg">
<g clip-path="url(#clip0_4290_4846)">
<path d="M24.5 0H7.5C3.35786 0 0 3.35786 0 7.5V24.5C0 28.6421 3.35786 32 7.5 32H24.5C28.6421 32 32 28.6421 32 24.5V7.5C32 3.35786 28.6421 0 24.5 0Z" fill="#F4F2ED"/>
<path d="M10.7437 24.9905L13.81 26.693H18.447L22.7847 23.4361L24.7292 18.3288L20.2418 12.9254L18.9705 9.89062L12.763 10.1126L12.8377 11.8151L11.6411 14.0356L9.77134 17.6626L9.39746 20.6974L10.7437 24.9905Z" fill="#ECEFF1"/>
<path d="M23.383 14.332C22.1864 12.6295 21.2141 11.5933 20.6906 9.44677C20.1671 7.30027 20.8402 7.89239 20.3915 6.04177C20.1671 5.07964 19.7931 4.41339 19.4192 3.89527C18.9705 3.37714 18.447 3.08102 18.1477 3.00702C17.4747 2.63702 15.9041 2.04477 13.9596 3.08102C11.9402 4.11727 12.1646 6.33789 12.5386 10.8531C12.5386 11.1491 12.4637 11.5194 12.3142 11.8154C12.0151 12.4816 11.4915 13.0736 11.0429 13.5919C10.5192 14.332 9.99573 15.0723 9.62185 15.8864C8.72435 17.5889 7.9016 19.7354 8.12598 20.5496C8.49998 20.4756 13.2117 27.5815 13.2117 27.7295C13.5109 27.6555 14.7822 27.6555 15.9041 27.6555C17.4747 27.5815 18.3721 27.5075 19.6436 27.8035C19.6436 27.5815 19.5687 27.3594 19.5687 27.1374C19.5687 26.6933 19.6436 26.3231 19.7184 25.805C19.7931 25.4349 19.868 25.0649 19.9427 24.6208C19.1949 25.2869 17.8486 26.0271 16.5772 26.2491C15.4554 26.4711 13.5856 26.1011 12.6881 24.9908C12.763 24.9908 12.9125 24.9908 12.9874 24.9168C13.2117 24.8428 13.4361 24.7688 13.5109 24.6208C13.7352 24.2506 13.5856 23.8805 13.4361 23.6585C13.2865 23.4364 12.1646 22.6221 11.6411 22.1781C11.1176 21.734 10.8185 21.5119 10.5192 21.2159L9.92098 20.6236C9.77135 20.4756 9.6966 20.3276 9.62185 20.2535C9.47223 19.8835 9.39748 19.4394 9.47223 18.8473C9.54698 18.033 9.8461 17.3668 10.2201 16.6266C10.3697 16.3305 10.7436 15.7384 10.7436 15.7384C10.7436 15.7384 9.47223 18.8473 10.1454 19.8095C10.1454 19.8095 10.2201 18.8473 10.5192 17.885C10.7436 17.2188 11.1176 16.2565 11.5664 15.7384C12.0151 15.2203 13.1369 13.2958 13.2117 12.1114C13.2117 11.5933 13.2865 11.0751 13.2865 10.7051C12.9874 10.4089 18.2226 9.66889 18.5217 10.483C18.5965 10.7791 19.6436 13.4438 20.2419 14.8501C20.541 15.5164 20.915 16.1085 21.1394 16.8486C21.3637 17.6629 21.5132 18.7731 21.5132 19.8835C21.5132 20.1055 21.5132 20.4756 21.4385 20.8458C21.5881 20.8458 24.5049 17.7369 21.0646 15.1463C21.0646 15.1463 23.1586 16.1085 23.2335 18.033C23.3082 19.5874 22.6351 20.8458 22.4856 21.0678C22.5604 21.0678 24.0561 21.734 24.1309 21.734C24.4301 21.734 25.0284 21.5119 25.0284 21.5119C25.1032 21.2899 25.3275 20.6976 25.3275 20.4756C25.8511 18.7731 24.5796 16.0345 23.383 14.332Z" fill="#263238"/>
<path d="M13.8847 9.44718C14.4217 9.44718 14.857 8.7843 14.857 7.9668C14.857 7.14918 14.4217 6.48643 13.8847 6.48643C13.3477 6.48643 12.9125 7.14918 12.9125 7.96668C12.9125 8.78418 13.3479 9.44718 13.8847 9.44718ZM17.2502 9.59518C17.9525 9.59518 18.5217 8.83293 18.5217 7.89268C18.5217 6.95243 17.9525 6.19043 17.2502 6.19043C16.5481 6.19043 15.9789 6.95268 15.9789 7.89293C15.9789 8.83318 16.5481 9.59543 17.2502 9.59543" fill="#ECEFF1"/>
<path d="M14.428 8.06806C14.3659 7.58144 14.0829 7.21594 13.796 7.25181C13.5091 7.28769 13.327 7.71131 13.3893 8.19806C13.4514 8.68469 13.7343 9.05019 14.0211 9.01431C14.308 8.97831 14.4901 8.55469 14.428 8.06806ZM17.1756 9.15106C17.5886 9.15106 17.9235 8.72031 17.9235 8.18881C17.9235 7.65744 17.5886 7.22656 17.1756 7.22656C16.7625 7.22656 16.4276 7.65744 16.4276 8.18881C16.4276 8.72019 16.7625 9.15106 17.1756 9.15106Z" fill="#212121"/>
<path d="M27.1225 24.4725C26.8234 24.3245 26.2997 24.1024 25.851 23.4362C25.6267 23.0661 25.7015 22.0299 25.3275 21.5857C25.1031 21.2897 24.804 21.4378 24.7292 21.4378C24.0561 21.5858 22.4855 22.622 21.4385 21.4378C21.2889 21.2898 21.0645 21.0676 20.6906 21.0676C20.3166 21.0676 20.1671 21.2156 20.0175 21.5118C19.8679 21.8079 19.8679 22.0299 19.8679 22.7701C19.8679 23.3623 19.8679 24.0284 19.7931 24.5465C19.6435 25.8049 19.4192 26.5451 19.4192 27.2853C19.4192 28.0995 19.6435 28.6176 19.9427 28.8396C20.1671 29.0618 20.541 29.2098 21.3637 29.2098C22.1864 29.2098 22.7099 28.9137 23.2335 28.3955C23.6074 28.0255 23.9065 27.8774 24.9536 27.1372C25.7762 26.6191 27.0477 25.9529 27.272 25.7309C27.4216 25.5829 27.646 25.5087 27.646 25.0646C27.646 24.6946 27.3469 24.5465 27.1225 24.4725ZM12.0899 24.6946C11.342 23.5103 11.2671 23.2882 10.7436 22.548C10.2949 21.8079 9.32262 20.4015 8.72437 20.4015C8.27562 20.4015 8.05124 20.6235 7.75212 20.9196C7.45287 21.2156 7.15374 21.8819 6.63024 22.252C6.18149 22.622 4.91012 22.548 4.61099 22.9921C4.31187 23.4363 4.91012 24.1025 4.91012 25.2127C4.91012 25.6569 4.53612 25.9529 4.46137 26.249C4.38662 26.6191 4.31174 26.8411 4.46137 27.1372C4.76049 27.5814 5.13449 27.7294 7.67724 28.2475C9.02349 28.5436 10.2949 29.2838 11.1176 29.3579C11.9402 29.4319 13.3612 29.3579 13.3612 27.3592C13.4361 26.175 12.763 25.8789 12.0899 24.6946ZM13.5109 11.2971C13.0621 11.001 12.6881 10.7049 12.6881 10.2609C12.6881 9.81675 12.9874 9.66862 13.4361 9.29862C13.5109 9.2245 14.3335 8.48438 15.1562 8.48438C15.979 8.48438 16.9511 9.0025 17.3251 9.15063C17.9982 9.2985 18.6712 9.44663 18.5965 9.96475C18.5217 10.7049 18.447 10.853 17.699 11.2231C17.1755 11.3711 16.2032 12.1854 15.5301 12.1854C15.231 12.1854 14.7822 12.1854 14.4831 12.1112C14.2587 12.0373 13.8847 11.6671 13.5109 11.2971Z" fill="#FFC107"/>
<path d="M13.3613 10.7053C13.5109 10.8534 13.7353 11.0016 13.9596 11.0754C14.1091 11.1494 14.3335 11.2236 14.3335 11.2236H15.0066C15.3806 11.2236 15.9041 11.0754 16.4276 10.7794C16.9511 10.5573 17.026 10.4093 17.3999 10.2613C17.7739 10.0392 18.1478 9.81718 17.9983 9.74318C17.8486 9.66905 17.699 9.74318 17.1755 10.0392C16.7268 10.3353 16.3529 10.4833 15.9041 10.7054C15.6798 10.7794 15.3806 10.9274 15.1563 10.9274H14.4831C14.2588 10.9274 14.1091 10.8534 13.8848 10.7794C13.7353 10.7053 13.6604 10.6313 13.5856 10.6313C13.4361 10.5573 13.1369 10.2613 12.9874 10.1872C12.9874 10.1872 12.8378 10.1872 12.9125 10.2613L13.3613 10.7053ZM15.605 9.07693C15.6798 9.22493 15.8294 9.22493 15.9041 9.29893C15.9789 9.37293 16.0538 9.37305 16.0538 9.37305C16.1285 9.29893 16.0538 9.15093 15.9789 9.15093C15.9789 9.00293 15.605 9.00293 15.605 9.07693ZM14.4084 9.22493C14.4084 9.29905 14.5579 9.37305 14.5579 9.29905C14.6328 9.22493 14.7075 9.15093 14.7823 9.15093C14.9319 9.07693 14.857 9.00293 14.6328 9.00293C14.4831 9.07693 14.4831 9.15093 14.4084 9.22493Z" fill="#634703"/>
<path d="M21.6629 22.3264V22.5484C21.8125 22.8445 22.1864 22.9185 22.4855 22.9185C22.9343 22.9185 23.383 22.6224 23.6074 22.3264C23.6074 22.2524 23.6821 22.1783 23.757 22.1043C23.9065 21.8823 23.9814 21.7343 24.0561 21.6601C24.0561 21.6601 23.9814 21.5861 23.9814 21.5121C23.9065 21.3641 23.6821 21.216 23.383 21.142C23.1586 21.068 22.7848 20.994 22.6351 20.994C21.962 20.92 21.5881 21.142 21.3638 21.3641C21.3638 21.3641 21.4385 21.3641 21.4385 21.4381C21.5881 21.5861 21.6629 21.7343 21.6629 21.9563C21.7376 22.1043 21.6629 22.1783 21.6629 22.3264Z" fill="#455A64"/>
</g>
<defs>
<clipPath id="clip0_4290_4846">
<rect width="32" height="32" fill="white"/>
</clipPath>
</defs>
</svg>
