<svg width="28" height="35" viewBox="0 0 28 35" fill="none" xmlns="http://www.w3.org/2000/svg">
<path d="M14 0C16.3206 0 18.5462 0.921872 20.1872 2.56282C21.8281 4.20376 22.75 6.42936 22.75 8.75V14C24.1424 14 25.4777 14.5531 26.4623 15.5377C27.4469 16.5223 28 17.8576 28 19.25V29.75C28 31.1424 27.4469 32.4777 26.4623 33.4623C25.4777 34.4469 24.1424 35 22.75 35H5.25C3.85761 35 2.52226 34.4469 1.53769 33.4623C0.553124 32.4777 0 31.1424 0 29.75V19.25C0 17.8576 0.553124 16.5223 1.53769 15.5377C2.52226 14.5531 3.85761 14 5.25 14V8.75C5.25 6.42936 6.17187 4.20376 7.81282 2.56282C9.45376 0.921872 11.6794 0 14 0ZM14 21C13.117 20.9997 12.2665 21.3332 11.619 21.9336C10.9716 22.534 10.575 23.357 10.5087 24.2375L10.5 24.5C10.5 25.1922 10.7053 25.8689 11.0899 26.4445C11.4744 27.0201 12.0211 27.4687 12.6606 27.7336C13.3001 27.9985 14.0039 28.0678 14.6828 27.9327C15.3617 27.7977 15.9854 27.4644 16.4749 26.9749C16.9644 26.4854 17.2977 25.8617 17.4327 25.1828C17.5678 24.5039 17.4985 23.8001 17.2336 23.1606C16.9687 22.5211 16.5201 21.9744 15.9445 21.5899C15.3689 21.2053 14.6922 21 14 21ZM14 3.5C12.6076 3.5 11.2723 4.05312 10.2877 5.03769C9.30312 6.02226 8.75 7.35761 8.75 8.75V14H19.25V8.75C19.25 7.35761 18.6969 6.02226 17.7123 5.03769C16.7277 4.05312 15.3924 3.5 14 3.5Z" fill="black"/>
</svg>
